<?xml version="1.0" encoding="UTF-8"?>
<!DOCTYPE svg PUBLIC "-//W3C//DTD SVG 1.1//EN" "http://www.w3.org/Graphics/SVG/1.1/DTD/svg11.dtd">
<!-- Creator: CorelDRAW X8 -->
<svg xmlns="http://www.w3.org/2000/svg" xml:space="preserve" width="23.9608mm" height="12.731mm" version="1.1" style="shape-rendering:geometricPrecision; text-rendering:geometricPrecision; image-rendering:optimizeQuality; fill-rule:evenodd; clip-rule:evenodd"
viewBox="0 0 2396 1273"
 xmlns:xlink="http://www.w3.org/1999/xlink">
 <defs>
  <style type="text/css">
   <![CDATA[
    .fil0 {fill:#2B393A}
   ]]>
  </style>
 </defs>
 <g id="Layer_x0020_1">
  <metadata id="CorelCorpID_0Corel-Layer"/>
  <g id="_218304231408">
   <path class="fil0" d="M586 829c-12,15 -5,8 -33,9 -15,1 -36,0 -51,0l0 -9 84 0zm43 -8c-12,14 -16,8 -43,8 12,-14 16,-8 43,-8zm25 -9c-9,9 15,9 -25,9 9,-9 -15,-9 25,-9zm17 -8l-17 8 17 -8zm17 -9l-17 9 17 -9zm-491 0l0 9 -10 -7 10 -2zm-85 0l0 9 -10 -7 10 -2zm593 -8l-17 8 17 -8zm-500 0l-8 8 8 -8zm-42 0l0 8 -10 -7 10 -1zm-42 0l-9 8 9 -8zm592 -8l-8 8 8 -8zm-93 0l0 8 -10 -7 10 -1zm-406 0l-9 8 9 -8zm-43 0l-8 8 8 -8zm-42 0l-8 8 8 -8zm500 -9l-9 9 9 -9zm-43 0l0 9 -10 -8 10 -1zm-364 0l-8 9 8 -9zm-42 0l-9 9 9 -9zm-42 0l-9 9 9 -9zm575 9c13,-19 1,-12 26,-17 -13,18 -2,11 -26,17zm-76 -17l-8 8 8 -8zm-42 0l-9 8 9 -8zm-364 0l-9 8 9 -8zm-43 0l-8 8 8 -8zm-42 0l-8 8 8 -8zm601 -9l-8 9 8 -9zm-59 0l0 9 -10 -7 10 -2zm-42 0l-9 9 9 -9zm-43 0l-8 9 8 -9zm-364 0l-8 9 8 -9zm-42 0l-9 9 9 -9zm-43 0l-8 9 8 -9zm602 -8l-9 8 9 -8zm-60 0l-8 8 8 -8zm-42 0l-8 8 8 -8zm-42 0l-9 8 9 -8zm-364 0l-9 8 9 -8zm-43 0l-8 8 8 -8zm-42 0l-9 8 9 -8zm601 -17l-8 17 8 -17zm-59 8l-9 9 9 -9zm-43 0l-8 9 8 -9zm-42 0l-8 9 8 -9zm-372 9l0 -9 9 7 -9 2zm-34 -9l-9 9 9 -9zm-43 0l-8 9 8 -9zm542 -8l-8 8 8 -8zm-42 0l-9 8 9 -8zm-42 0l-9 8 9 -8zm-407 0l-8 8 8 -8zm-42 0l-9 8 9 -8zm593 -9l-9 9 9 -9zm-51 0l-9 9 9 -9zm-43 0l-8 9 8 -9zm-42 0l-8 9 8 -9zm-406 0l-9 9 9 -9zm-43 0l-8 9 8 -9zm593 -17l-8 17 8 -17zm-51 9l-8 8 8 -8zm-42 0l-9 8 9 -8zm-42 0l-9 8 9 -8zm-415 8l0 -8 10 7 -10 1zm-34 -8l-9 8 9 -8zm533 0l0 -9 10 7 -10 2zm-42 0l0 -9 10 7 -10 2zm-34 -9l-8 9 8 -9zm-449 0l-8 9 8 -9zm584 -25c0,40 1,16 -8,25 0,-40 0,-16 8,-25zm-127 17l-8 8 8 -8zm-448 0l-9 8 9 -8zm457 -9l-9 9 9 -9zm-449 0l-8 9 8 -9zm457 -8l-8 8 8 -8zm-448 0l-9 8 9 -8zm558 0l8 -17c-3,17 0,7 -8,17zm-101 -9l-9 9 9 -9zm-449 0l-8 9 8 -9zm500 -8l0 8 -10 -7 10 -1zm-43 0l-8 8 8 -8zm-457 8l0 -8 10 7 -10 1zm-42 -8l2 3c0,-1 -3,-2 -2,-3zm550 -8l-8 8 8 -8zm-42 0l-9 8 9 -8zm42 0l0 -9 10 7 -10 2zm-34 -9l-8 9 8 -9zm-491 0l0 9 -10 -8 10 -1zm491 0l0 -8 10 7 -10 1zm-482 -8l-9 8 9 -8zm211 160l-127 0 0 -355c79,0 191,-8 250,30 22,14 32,25 41,51 35,97 12,274 -164,274zm-211 -160l0 -9 10 7 -10 2zm-43 -9l3 3c0,-1 -4,-2 -3,-3zm474 -17l0 9 -9 -7 9 -2zm0 0l0 -8 10 7 -10 1zm85 -51l3 3c-1,0 -4,-2 -3,-3zm-449 237l-8 0 0 -381 152 0 0 9 -144 0 0 372zm237 -389l3 3c0,-1 -3,-2 -3,-3zm68 -17l-16 10 16 -10zm-84 0l0 9 -10 -8 10 -1zm-263 0l3 3c-1,-1 -4,-2 -3,-3zm373 -8c-10,8 14,8 -26,8 10,-9 -15,-8 26,-8zm-110 8l0 -8 9 7 -9 1zm127 -17l-17 9 17 -9zm16 -8l-16 8 16 -8zm0 0c13,-19 2,-11 26,-17 -13,18 -1,11 -26,17zm-50 -26l0 9 -10 -7 10 -2zm8 -8l-8 8 8 -8zm9 -9l-9 9 9 -9zm8 -8l-8 8 8 -8zm51 34l51 -51c-8,28 -23,43 -51,51zm-42 -43l-9 9 9 -9zm-43 0l0 9 -10 -7 10 -2zm51 -8l-8 8 8 -8zm-42 0l-9 8 9 -8zm50 -9l-8 9 8 -9zm-42 0l-8 9 8 -9zm119 9c3,-16 -5,0 5,-20 6,-11 6,-8 12,-14l0 25 -17 9zm-68 -17l-9 8 9 -8zm-42 0l-9 8 9 -8zm50 -8l-8 8 8 -8zm-42 0l-8 8 8 -8zm51 -9l-9 9 9 -9zm-42 0l-9 9 9 -9zm110 0l0 -25 8 0c0,44 0,12 -8,25zm-60 -8l-8 8 8 -8zm-42 0l-8 8 8 -8zm51 -9l-9 9 9 -9zm-43 0l-8 9 8 -9zm-474 0l0 9 -10 -7 10 -2zm525 -8l-8 8 8 -8zm-42 0l-9 8 9 -8zm-288 144l-68 0 0 -322c225,0 280,-25 280,144 0,135 -76,178 -212,178zm-186 -144l-9 8 9 -8zm525 -9l-9 9 9 -9zm-43 0l-8 9 8 -9zm-474 0l-8 9 8 -9zm559 -25l9 0 0 25 -9 0 0 -25zm-42 25l0 -8 10 7 -10 1zm-34 -8l-9 8 9 -8zm-474 0l-9 8 9 -8zm-51 0l2 2c0,0 -3,-1 -2,-2zm525 0l0 -9 10 7 -10 2zm-466 -9l-8 9 8 -9zm9 -8l-9 8 9 -8zm-43 0l0 8 -10 -7 10 -1zm51 -9l-8 9 8 -9zm-42 0l-9 9 9 -9zm440 -8l0 8 -10 -7 10 -1zm-389 0l-9 8 9 -8zm-43 0l-8 8 8 -8zm441 -9l-9 9 9 -9zm-398 9l0 -9 9 7 -9 2zm-34 -9l-9 9 9 -9zm440 -8l-8 8 8 -8zm-432 0l-8 8 8 -8zm432 0l0 -9 10 8 -10 1zm-423 -9l-9 9 9 -9zm8 -8l-8 8 8 -8zm0 0l0 -8 10 7 -10 1zm59 229l-8 -348c28,10 8,-18 8,68l0 280zm-271 -322c77,0 111,5 111,85l0 533c0,99 -59,118 -136,118 1,39 13,68 59,68 162,0 523,20 644,-42 45,-23 91,-61 106,-114 25,-82 5,-152 -53,-210 -86,-85 -103,-55 -129,-91 61,-5 160,-83 160,-169 0,-109 -29,-112 -95,-176 -38,-38 -110,-61 -184,-61l-508 0 0 0c0,1 0,3 0,5l0 4c0,3 0,6 1,7l24 43z"/>
   <path class="fil0" d="M1416 821c-33,21 -73,17 -110,17l0 -9c51,0 68,-8 110,-8zm25 -9c-9,9 15,9 -25,9 9,-9 -15,-9 25,-9zm17 -8l-17 8 17 -8zm17 -9l-17 9 17 -9zm-415 0l0 9 -10 -7 10 -2zm-127 0l0 9 -10 -7 10 -2zm559 -8l-17 8 17 -8zm-381 -745l-8 93c0,-27 -8,-72 8,-93zm-42 745l-9 8 9 -8zm-42 0l0 8 -10 -7 10 -1zm-43 0l0 8 -10 -7 10 -1zm-42 0l-9 8 9 -8zm567 -8l-17 8 17 -8zm-110 0l0 8 -10 -7 10 -1zm-330 8l0 -8 10 7 -10 1zm-34 -8l-8 8 8 -8zm-42 0l-9 8 9 -8zm-43 0l-8 8 8 -8zm568 -9l-9 9 9 -9zm-119 9l0 -9 10 7 -10 2zm-356 -9l-8 9 8 -9zm-42 0l-8 9 8 -9zm-42 0l-9 9 9 -9zm576 -8l-17 8 17 -8zm-483 0l-9 8 9 -8zm-42 0l-9 8 9 -8zm-43 0l-8 8 8 -8zm576 -9l-8 9 8 -9zm-483 0l-8 9 8 -9zm-42 0l-8 9 8 -9zm-42 0l-9 9 9 -9zm575 -8l-8 8 8 -8zm-76 0l0 8 -10 -7 10 -1zm-406 0l-9 8 9 -8zm-42 0l-9 8 9 -8zm-43 0l-8 8 8 -8zm576 -9l-9 9 9 -9zm-76 0l-9 9 9 -9zm-415 9l0 -9 10 7 -10 2zm-34 -9l-8 9 8 -9zm-42 0l-9 9 9 -9zm575 -8l-8 8 8 -8zm-76 0l-8 8 8 -8zm-449 0l-8 8 8 -8zm-42 0l-8 8 8 -8zm576 -9l-9 9 9 -9zm-76 0l-9 9 9 -9zm-449 0l-9 9 9 -9zm-42 0l-9 9 9 -9zm575 -8l-8 8 8 -8zm-76 0l-8 8 8 -8zm-449 0l-8 8 8 -8zm-42 0l-8 8 8 -8zm576 -9l-9 9 9 -9zm-76 0l-9 9 9 -9zm-449 0l-9 9 9 -9zm-42 0l-9 9 9 -9zm-51 0l2 3c0,0 -3,-2 -2,-3zm626 -8l-8 8 8 -8zm-76 0l-8 8 8 -8zm-42 0l0 8 -10 -7 10 -1zm-415 8l0 -8 10 7 -10 1zm-34 -8l-8 8 8 -8zm500 -9l-9 9 9 -9zm-43 0l-8 9 8 -9zm-449 0l-8 9 8 -9zm559 9c6,-24 -1,-13 17,-26 -6,25 1,13 -17,26zm-59 -17l-8 8 8 -8zm-42 0l-9 8 9 -8zm-449 0l-9 8 9 -8zm-42 0l0 8 -10 -7 10 -1zm541 -9l-8 9 8 -9zm-42 0l-8 9 8 -9zm-449 0l-8 9 8 -9zm-42 0l-8 9 8 -9zm542 -8l-9 8 9 -8zm-42 0l-9 8 9 -8zm-458 8l0 -8 10 7 -10 1zm-33 -8l-9 8 9 -8zm592 8c6,-24 -1,-12 17,-25 -6,24 1,13 -17,25zm-51 -16l-8 8 8 -8zm-42 0l-8 8 8 -8zm-491 0l-8 8 8 -8zm-42 0l0 8 -10 -7 10 -1zm584 -9l-9 9 9 -9zm-42 0l-9 9 9 -9zm-492 0l-8 9 8 -9zm-42 0l-8 9 8 -9zm644 -17l-9 17 9 -17zm-60 9l-8 8 8 -8zm-42 0l-8 8 8 -8zm-491 0l-9 8 9 -8zm-42 0l-9 8 9 -8zm584 -9l-9 9 9 -9zm-43 0l-8 9 8 -9zm-42 0l0 9 -10 -7 10 -2zm-449 0l-8 9 8 -9zm-42 0l-8 9 8 -9zm635 -17l-8 17 8 -17zm-51 9l-8 8 8 -8zm-42 0l-9 8 9 -8zm-42 0l-9 8 9 -8zm-458 8l0 -8 10 7 -10 1zm-33 -8l-9 8 9 -8zm584 -9l-9 9 9 -9zm-43 0l-8 9 8 -9zm-50 9l0 -9 9 7 -9 2zm-483 -9l-8 9 8 -9zm-42 0l0 9 -10 -7 10 -2zm669 -25c0,40 0,16 -9,25 0,-40 0,-16 9,-25zm-51 25l0 -8 10 7 -10 1zm-34 -8l-9 8 9 -8zm-534 0l-8 8 8 -8zm-42 0l-8 8 8 -8zm584 -9l-8 9 8 -9zm-533 0l-9 9 9 -9zm-42 0l-9 9 9 -9zm584 -8l-9 8 9 -8zm-534 0l-8 8 8 -8zm-42 0l-8 8 8 -8zm652 -26c0,41 0,16 -8,26 0,-40 -1,-16 8,-26zm-76 26l0 -9 10 7 -10 2zm-525 -9l-9 9 9 -9zm-51 9l0 -9 10 7 -10 2zm51 -9l0 -8 10 7 -10 1zm466 -17l0 9 -10 -7 10 -2zm143 -33c0,4 1,13 0,16 -5,15 -2,9 -8,17 0,-4 0,-13 1,-16 4,-15 2,-9 7,-17zm-135 25l-8 8 8 -8zm8 -9l-8 9 8 -9zm51 -8l0 8 -10 -7 10 -1zm-42 0l-9 8 9 -8zm51 -8l-9 8 9 -8zm-43 0l-8 8 8 -8zm-499 0l2 2c0,0 -3,-2 -2,-2zm-42 0l2 2c0,0 -3,-2 -2,-2zm651 0l9 -68c0,10 1,25 1,34l-10 34zm-59 -9l-8 9 8 -9zm-42 0l-9 9 9 -9zm42 0l0 -8 10 7 -10 1zm-34 -8l-8 8 8 -8zm9 -9l-9 9 9 -9zm-534 0l0 9 -10 -7 10 -2zm576 -8l3 2c-1,0 -4,-2 -3,-2zm-34 0l-8 8 8 -8zm-533 0l-9 8 9 -8zm542 -9l-9 9 9 -9zm-542 9l0 -9 10 7 -10 2zm550 -17l-8 8 8 -8zm9 -9l-9 9 9 -9zm-364 330l-127 0 0 -736c133,0 260,-19 321,101 79,154 100,635 -194,635zm364 -330l0 -8 10 7 -10 1zm8 -59l3 3c-1,-1 -4,-2 -3,-3zm-567 -8l2 2c0,0 -3,-2 -2,-2zm559 -17l0 8 -10 -7 10 -1zm50 -9l3 3c0,-1 -3,-2 -3,-3zm-42 0l-8 9 8 -9zm0 0l0 -8 10 7 -10 1zm-567 -17l2 3c0,0 -3,-2 -2,-3zm457 -76l3 3c-1,-1 -4,-2 -3,-3zm68 -17l0 9 -10 -8 10 -1zm0 0l0 -8 10 7 -10 1zm-68 -17l0 9 -10 -7 10 -2zm9 -8l-9 8 9 -8zm8 -9l-8 9 8 -9zm8 -8l-8 8 8 -8zm43 -9l2 3c0,0 -3,-2 -2,-3zm-34 0l-9 9 9 -9zm-42 0l0 9 -10 -7 10 -2zm42 0l0 -8 10 7 -10 1zm-34 -8l-8 8 8 -8zm9 -9l-9 9 9 -9zm8 -8l-8 8 8 -8zm8 -9l-8 9 8 -9zm0 0l0 -8 10 7 -10 1zm-59 -25l0 8 -10 -7 10 -1zm9 -8l-9 8 9 -8zm8 -9l-8 9 8 -9zm0 0l0 -8 10 7 -10 1zm-25 -17l0 9 -10 -7 10 -2zm0 0l0 -8 10 7 -10 1zm-483 -8l0 8 -10 -7 10 -1zm9 -9l-9 9 9 -9zm457 -8l0 8 -10 -7 10 -1zm-449 0l-8 8 8 -8zm449 0l0 -9 10 7 -10 2zm-440 -9l-9 9 9 -9zm-43 0l0 9 -10 -7 10 -2zm51 -8l-8 8 8 -8zm-42 0l-9 8 9 -8zm50 -9l-8 9 8 -9zm-50 9l0 -9 10 7 -10 2zm59 -17l-9 8 9 -8zm364 -9l3 3c-1,0 -4,-2 -3,-3zm-356 0l-8 9 8 -9zm9 -8l-9 8 9 -8zm42 0c16,-19 169,-9 195,-9l-195 9zm-42 0l0 -9 10 8 -10 1zm-203 -9l25 0 0 9 -25 0 0 -9zm-26 26c99,0 119,3 119,144l0 415c0,141 -32,177 -144,177 0,29 -2,28 13,47 12,17 20,21 46,21 139,0 441,10 564,-20 204,-51 342,-307 237,-569 -35,-90 -130,-193 -208,-232 -43,-22 -113,-42 -178,-42l-474 0 8 34c1,1 3,3 4,4 1,2 3,4 4,5 9,13 4,5 9,16z"/>
   <path class="fil0" d="M2364 829l3 3c0,0 -4,-2 -3,-3zm34 -280l0 289 0 1c0,18 -6,24 -25,24l-601 0c-50,0 -32,-20 -68,-34 1,-36 6,-31 20,-56l143 -237c20,-35 38,-65 57,-96 67,-114 171,-272 229,-381 -61,0 -101,-4 -151,10 -60,16 -68,28 -97,64 -105,126 -65,205 -116,205 -11,0 -34,-38 -34,-51l0 -287 575 0c26,0 46,31 47,29 1,-1 3,3 4,4 -12,51 -80,146 -110,195 -19,33 -36,61 -56,96l-174 283c-21,33 -36,64 -56,97 -20,33 -35,58 -53,91 50,0 142,6 186,0 89,-11 157,-108 184,-189 14,-42 28,-99 45,-132 13,3 30,11 39,21 6,6 10,26 12,54zm-68 246l3 3c0,0 -3,-2 -3,-3zm-25 -8l0 8 -10 -7 10 -1zm-42 0l0 8 -10 -7 10 -1zm-43 0l0 8 -10 -7 10 -1zm-321 0l0 8 -10 -7 10 -1zm414 -8l-8 8 8 -8zm-42 0l-8 8 8 -8zm-42 0l-9 8 9 -8zm-322 -9l-8 17 8 -17zm-127 9l0 8 -10 -7 10 -1zm542 -9l-9 9 9 -9zm-42 0l-9 9 9 -9zm-43 0l-8 9 8 -9zm-448 0l-9 9 9 -9zm541 -8l-8 8 8 -8zm-42 0l-8 8 8 -8zm-42 0l-9 8 9 -8zm-449 0l-8 8 8 -8zm-42 0l0 8 -10 -7 10 -1zm575 0l0 -9 10 7 -10 2zm-34 -9l-8 9 8 -9zm-42 0l-8 9 8 -9zm-347 17c6,-24 -1,-13 17,-25 -6,24 1,12 -17,25zm-59 -17l0 9 -10 -7 10 -2zm-43 0l-8 9 8 -9zm-42 0l-8 9 8 -9zm542 -8l-9 8 9 -8zm-42 0l-9 8 9 -8zm-407 0l-8 8 8 -8zm-42 0l-9 8 9 -8zm-42 0l-9 8 9 -8zm541 -9l-8 9 8 -9zm-42 0l-8 9 8 -9zm-339 -8l-8 17 8 -17zm-67 8l-9 9 9 -9zm-43 0l-8 9 8 -9zm-42 0l-8 9 8 -9zm542 -8l-9 8 9 -8zm-42 0l-9 8 9 -8zm-407 0l-8 8 8 -8zm-42 0l-9 8 9 -8zm-42 0l-9 8 9 -8zm541 -9l-8 9 8 -9zm-42 0l-8 9 8 -9zm-406 0l-9 9 9 -9zm-43 0l-8 9 8 -9zm-50 9l0 -9 9 7 -9 2zm541 -9l0 -8 10 7 -10 1zm-34 -8l-8 8 8 -8zm-364 17c6,-24 -1,-13 17,-26 -5,24 2,13 -17,26zm-42 -17l-8 8 8 -8zm-42 0l-9 8 9 -8zm457 -9l-9 9 9 -9zm-406 0l-9 9 9 -9zm-43 0l-8 9 8 -9zm457 -8l-8 8 8 -8zm-355 -9l-9 17 9 -17zm-51 9l-8 8 8 -8zm-42 0l-9 8 9 -8zm457 -9l-9 9 9 -9zm-415 9l0 -9 10 7 -10 2zm-34 -9l-8 9 8 -9zm457 -8l-8 8 8 -8zm-448 0l-9 8 9 -8zm448 0l0 -9 10 8 -10 1zm-372 8c6,-24 -1,-12 17,-25 -6,24 1,13 -17,25zm-68 -17l-8 9 8 -9zm415 -8l0 8 -10 -7 10 -1zm-406 0l-9 8 9 -8zm-43 0l0 8 -10 -7 10 -1zm457 -8l-8 8 8 -8zm-330 -9l-8 17 8 -17zm-76 9l-8 8 8 -8zm-42 0l-9 8 9 -8zm-43 0l0 8 -10 -7 10 -1zm500 -9l-9 9 9 -9zm-407 0l-8 9 8 -9zm-42 0l-8 9 8 -9zm-42 0l-9 9 9 -9zm499 -8l-8 8 8 -8zm-406 0l-9 8 9 -8zm-42 0l-9 8 9 -8zm-43 0l-8 8 8 -8zm491 0l0 -9 10 7 -10 2zm-347 8c6,-24 -1,-13 17,-25 -6,24 1,12 -17,25zm-51 -17l-8 9 8 -9zm-42 0l-8 9 8 -9zm-42 0l-9 9 9 -9zm93 -8l-9 8 9 -8zm-42 0l-9 8 9 -8zm-43 0l-8 8 8 -8zm153 -17l-9 17 9 -17zm-60 8l-8 9 8 -9zm-42 0l-8 9 8 -9zm-42 0l-9 9 9 -9zm93 -8l-9 8 9 -8zm-43 0l-8 8 8 -8zm-42 0l-8 8 8 -8zm93 -9l-8 9 8 -9zm-42 0l-9 9 9 -9zm-42 0l-9 9 9 -9zm448 -8l3 2c0,0 -3,-1 -3,-2zm-321 17c5,-24 -2,-13 17,-26 -6,24 1,13 -17,26zm-34 -17l-9 8 9 -8zm-43 0l-8 8 8 -8zm-42 0l-8 8 8 -8zm85 0l0 -9 10 7 -10 2zm-34 -9l-9 9 9 -9zm-42 0l-9 9 9 -9zm135 -17l-8 17 8 -17zm-85 9l-8 8 8 -8zm-42 0l-8 8 8 -8zm51 -9l-9 9 9 -9zm-51 9l0 -9 10 7 -10 2zm59 -17l-8 8 8 -8zm68 8c6,-24 -1,-12 17,-25 -6,24 1,13 -17,25zm-59 -17l-9 9 9 -9zm-43 0l0 9 -9 -7 9 -2zm-42 0l0 9 -10 -7 10 -2zm93 -8l-8 8 8 -8zm-42 0l-9 8 9 -8zm-42 0l-9 8 9 -8zm93 -8l-9 8 9 -8zm-43 0l-8 8 8 -8zm-42 0l-8 8 8 -8zm93 -9l-8 9 8 -9zm-42 0l-9 9 9 -9zm-43 0l-8 9 8 -9zm94 -8l-9 8 9 -8zm-43 0l-8 8 8 -8zm-42 0l-9 8 9 -8zm127 25c7,-31 5,-27 25,-42 -7,30 -4,27 -25,42zm-34 -34l-8 9 8 -9zm-42 0l-9 9 9 -9zm-43 0l-8 9 8 -9zm94 -8l-9 8 9 -8zm-43 0l-8 8 8 -8zm-42 0l-9 8 9 -8zm93 -9l-8 9 8 -9zm-42 0l-9 9 9 -9zm-51 9l0 -9 10 7 -10 2zm135 0c6,-25 -1,-13 17,-26 -5,24 2,13 -17,26zm-34 -17l-8 8 8 -8zm-42 0l-8 8 8 -8zm51 -9l-9 9 9 -9zm-42 0l-9 9 9 -9zm93 -17l-9 17 9 -17zm-51 17l0 -8 10 7 -10 1zm-34 -8l-8 8 8 -8zm0 0l0 -9 10 7 -10 2zm85 -9c6,-24 -2,-12 17,-25 -6,24 1,13 -17,25zm25 -42l-8 17 8 -17zm-68 8l0 9 -9 -7 9 -2zm9 -8l-9 8 9 -8zm-42 0l0 8 -10 -7 10 -1zm-51 0l2 3c0,-1 -3,-2 -2,-3zm101 -8l-8 8 8 -8zm-42 0l-8 8 8 -8zm93 8c6,-24 -1,-13 17,-25 -6,24 1,12 -17,25zm-42 -17l-9 9 9 -9zm-43 0l-8 9 8 -9zm-42 0l0 9 -10 -8 10 -1zm93 -8l-8 8 8 -8zm-42 0l-9 8 9 -8zm-42 0l-9 8 9 -8zm144 -17l-9 17 9 -17zm-51 8l-9 9 9 -9zm-43 0l-8 9 8 -9zm-42 0l-8 9 8 -9zm93 -8l-8 8 8 -8zm-42 0l-9 8 9 -8zm-42 0l-9 8 9 -8zm84 0l0 -9 10 7 -10 2zm-34 -9l-8 9 8 -9zm-42 0l-8 9 8 -9zm119 9c5,-25 -2,-13 16,-26 -5,24 2,13 -16,26zm-77 -9l0 -8 10 7 -10 1zm-34 -8l-8 8 8 -8zm9 -9l-9 9 9 -9zm127 -17l-9 17 9 -17zm-119 9l-8 8 8 -8zm9 -9l-9 9 9 -9zm118 -8l-8 8 8 -8zm-110 0l-8 8 8 -8zm-42 0l0 8 -10 -7 10 -1zm161 -17l-9 17 9 -17zm-110 8l-9 9 9 -9zm-43 0l-8 9 8 -9zm-253 0l0 9 -10 -7 10 -2zm304 -8l-8 8 8 -8zm-51 8l0 -8 10 7 -10 1zm-245 -25c0,40 0,16 -8,25 0,-40 -1,-16 8,-25zm406 0l-8 17 8 -17zm-101 8l-9 9 9 -9zm51 -8l0 8 -10 -7 10 -1zm-43 0l-8 8 8 -8zm102 -8l-9 8 9 -8zm-51 0l-8 8 8 -8zm-42 0l-9 8 9 -8zm-314 -17c0,40 1,16 -8,25 0,-40 0,-16 8,-25zm415 0l-8 17 8 -17zm-51 8l-8 9 8 -9zm-42 0l-8 9 8 -9zm-42 0l0 9 -10 -8 10 -1zm93 -8l-9 8 9 -8zm-42 0l-9 8 9 -8zm-43 0l-8 8 8 -8zm85 0l0 -9 10 7 -10 2zm-34 -9l-8 9 8 -9zm-42 0l-9 9 9 -9zm-288 -17c0,40 0,16 -9,26 0,-41 0,-16 9,-26zm406 26c6,-25 -1,-13 17,-26 -6,24 2,13 -17,26zm-67 -17l-9 8 9 -8zm-43 0l-8 8 8 -8zm51 -9l-8 9 8 -9zm-51 9l0 -9 10 7 -10 2zm136 -26l-9 17 9 -17zm-77 9l-8 8 8 -8zm-347 -17c0,40 1,16 -8,25 0,-40 0,-16 8,-25zm356 8l-9 9 9 -9zm-51 0l3 3c0,0 -4,-2 -3,-3zm59 -8l-8 8 8 -8zm60 8c5,-24 -2,-12 17,-25 -6,24 1,13 -17,25zm-51 -17l-9 9 9 -9zm-364 -8l-9 17 9 -17zm364 8l0 -8 10 7 -10 1zm76 -25l-8 17 8 -17zm-432 0l-8 17 8 -17zm381 0l0 8 -10 -7 10 -1zm60 -17l-9 17 9 -17zm-51 8l-9 9 9 -9zm0 0l0 -8 10 7 -10 1zm-390 9c6,-24 -1,-13 17,-25 -6,24 2,12 -17,25zm449 -25l-8 8 8 -8zm8 -17l-8 17 8 -17zm-440 17c6,-25 -1,-13 17,-26 -6,24 1,13 -17,26zm-34 -26l0 9 -10 -7 10 -2zm474 9c6,-25 -1,-13 17,-26 -5,24 2,13 -17,26zm-414 -17l-9 8 9 -8zm-51 0l-9 8 9 -8zm-42 0l0 8 -10 -7 10 -1zm50 -9l-8 9 8 -9zm-42 0l-8 9 8 -9zm525 -17l-9 17 9 -17zm-474 9l-9 8 9 -8zm-43 0l-8 8 8 -8zm51 -9l-8 9 8 -9zm-42 0l-9 9 9 -9zm68 26c4,-17 1,-13 8,-26 12,-6 9,-4 25,-8l-33 34zm-17 -34l-9 8 9 -8zm-43 0l-8 8 8 -8zm102 -9l-9 9 9 -9zm-51 0l-8 9 8 -9zm-42 0l-9 9 9 -9zm457 -8l0 8 -10 -7 10 -1zm-347 0l-17 8 17 -8zm-59 0l-9 8 9 -8zm-51 8l0 -8 10 7 -10 1zm-42 -8l2 2c0,0 -3,-1 -2,-2zm533 25c7,-31 5,-27 25,-42 -7,31 -4,27 -25,42zm-26 -34l-8 9 8 -9zm-338 0l-17 9 17 -9zm-68 0l-8 9 8 -9zm415 -8l-9 8 9 -8zm-347 8c11,-8 -18,-8 25,-8l0 8 -25 0zm-59 -8l-9 8 9 -8zm448 0l5 -18 -5 18zm-42 0l0 -9 10 8 -10 1zm-313 -9l42 0 0 9 -42 0 0 -9zm-93 9l0 -9 9 8 -9 1zm262 -17l3 3c-1,-1 -4,-2 -3,-3z"/>
   <path class="fil0" d="M629 1270l59 0c-11,-48 -9,-86 -9,-144l96 99c20,19 20,12 23,45l68 0c-15,-62 -15,-159 0,-221l-68 0c9,39 4,109 17,136 -24,-9 -72,-68 -96,-91 -19,-19 -20,-12 -23,-45l-67 0 0 221z"/>
   <path class="fil0" d="M1086 1227l-59 0 0 -135 67 0c44,0 60,25 60,68 0,40 -27,67 -68,67zm-119 -127l0 170c91,0 237,20 237,-110 0,-135 -142,-111 -237,-111l0 51z"/>
   <path class="fil0" d="M11 1117c0,80 128,61 160,76 -13,50 -83,36 -102,27 -35,-16 -17,-5 -25,-27 -20,15 -27,31 -33,60 61,1 61,32 159,7 30,-8 29,-17 52,-33l0 -59c-24,-17 -29,-29 -68,-33 -52,-6 -52,2 -93,-18 20,-29 14,-25 68,-25 39,0 44,18 68,34 10,-20 19,-35 25,-60 -7,0 -211,-59 -211,51z"/>
   <path class="fil0" d="M1873 1270l59 0c0,-40 -14,-94 17,-94 25,0 74,61 77,94l76 0c-10,-37 -55,-57 -102,-127 34,-50 82,-53 93,-94l-84 0c-3,36 -12,35 -34,51 -25,18 -21,26 -51,34 14,-24 8,-43 8,-85l-59 0 0 221z"/>
   <path class="fil0" d="M1281 1100c28,-13 76,-8 118,-8 -16,24 -35,47 -54,73l-62 74c-40,61 138,17 201,31l0 -51 -93 0c-33,0 -4,-3 -26,8 13,-48 114,-125 119,-178l-178 0c-32,0 -3,3 -25,-8l0 59z"/>
   <path class="fil0" d="M2263 1117c21,16 19,33 33,59l-59 0c11,-20 20,-34 26,-59zm-110 153l59 0c-7,-32 -8,-21 8,-51l102 0c5,20 8,25 8,51l68 0c-18,-78 -93,-143 -93,-221l-68 0c11,45 3,37 -34,111 -15,30 -43,76 -50,110z"/>
   <path class="fil0" d="M414 1116c9,26 18,40 28,60l-59 0 31 -60zm-116 154l60 0c-7,-32 -8,-21 8,-51l102 0c1,12 2,18 3,27 3,20 -3,3 5,24l68 0c-16,-58 -106,-160 -93,-221l-68 0c8,40 -2,37 -37,108l-48 113z"/>
   <path class="fil0" d="M1670 1117c8,35 9,35 25,59l-59 0c7,-29 14,-36 34,-59zm-102 153c54,0 32,-5 43,-51l101 0c16,30 16,19 9,51l76 0 -85 -161c-17,-28 -16,-27 -8,-60l-68 0c0,111 -136,221 -68,221z"/>
   <path class="fil0" d="M1348 1041l60 0c18,-28 24,-20 33,-59 -51,1 -33,11 -67,34 -10,-37 -16,-34 -60,-34 12,42 23,16 34,59z"/>
  </g>
 </g>
</svg>
