<?xml version="1.0" encoding="UTF-8"?>
<!DOCTYPE svg PUBLIC "-//W3C//DTD SVG 1.1//EN" "http://www.w3.org/Graphics/SVG/1.1/DTD/svg11.dtd">
<!-- Creator: CorelDRAW X8 -->
<svg xmlns="http://www.w3.org/2000/svg" xml:space="preserve" width="83.783mm" height="83.783mm" version="1.1" style="shape-rendering:geometricPrecision; text-rendering:geometricPrecision; image-rendering:optimizeQuality; fill-rule:evenodd; clip-rule:evenodd"
viewBox="0 0 8378 8378"
 xmlns:xlink="http://www.w3.org/1999/xlink">
 <defs>
  <style type="text/css">
   <![CDATA[
    .fil0 {fill:#FD8204}
    .fil4 {fill:#FEA952}
    .fil10 {fill:#FEA953}
    .fil19 {fill:#FEAA54}
    .fil7 {fill:#FEAA55}
    .fil13 {fill:#FEAC58}
    .fil28 {fill:#FEAD5A}
    .fil55 {fill:#FEAE5C}
    .fil8 {fill:#FEAF5E}
    .fil33 {fill:#FEAF5F}
    .fil34 {fill:#FEB061}
    .fil6 {fill:#FEB365}
    .fil35 {fill:#FEB467}
    .fil9 {fill:#FEB469}
    .fil42 {fill:#FEB56A}
    .fil44 {fill:#FEB66D}
    .fil20 {fill:#FEB76F}
    .fil48 {fill:#FEB870}
    .fil21 {fill:#FEB972}
    .fil49 {fill:#FEBA74}
    .fil52 {fill:#FEBB76}
    .fil50 {fill:#FEBB77}
    .fil51 {fill:#FEBC79}
    .fil27 {fill:#FEBD7B}
    .fil41 {fill:#FEBE7C}
    .fil45 {fill:#FEBF7E}
    .fil47 {fill:#FEBF7F}
    .fil3 {fill:#FEC182}
    .fil53 {fill:#FEC284}
    .fil57 {fill:#FEC285}
    .fil46 {fill:#FEC386}
    .fil32 {fill:#FEC488}
    .fil36 {fill:#FEC58A}
    .fil2 {fill:#FEC58B}
    .fil37 {fill:#FEC68C}
    .fil43 {fill:#FEC68D}
    .fil26 {fill:#FEC78F}
    .fil29 {fill:#FEC891}
    .fil54 {fill:#FEC993}
    .fil24 {fill:#FECA95}
    .fil11 {fill:#FECC98}
    .fil38 {fill:#FECC99}
    .fil12 {fill:#FECD9A}
    .fil22 {fill:#FECE9D}
    .fil39 {fill:#FECF9F}
    .fil40 {fill:#FECFA0}
    .fil14 {fill:#FED0A1}
    .fil5 {fill:#FED1A3}
    .fil16 {fill:#FED2A4}
    .fil23 {fill:#FED2A5}
    .fil25 {fill:#FED3A7}
    .fil31 {fill:#FED4A9}
    .fil30 {fill:#FED5AA}
    .fil18 {fill:#FED6AD}
    .fil56 {fill:#FED7AE}
    .fil15 {fill:#FED8B0}
    .fil17 {fill:#FED8B1}
    .fil1 {fill:#FFFFFD}
   ]]>
  </style>
 </defs>
 <g id="Layer_x0020_1">
  <metadata id="CorelCorpID_0Corel-Layer"/>
  <g id="_218302033840">
   <path class="fil0" d="M3986 2851l-47 -3 -46 22 -42 -3 -37 26 -35 0 -34 18 -15 0c0,33 6,22 -31,18l-29 5 -27 20 -16 0 -26 20 -16 0 -26 22 -16 0 -24 22 -41 17 -23 24 -40 18 -21 26 -84 57 -21 24 -21 21 -21 21 -21 21 -21 21 -24 21 -57 83 -25 22 -18 40 -24 23 -17 41 -23 24 0 16 -21 25 -1 16 -20 26 0 16 -20 28 0 16 -19 30 -4 28 -18 34 0 36 -25 35 2 43 -22 46 3 47 -23 65 0 321 23 64 -3 47 22 46 -2 43 25 36 0 35 18 34 23 74 20 28 0 16 20 26 1 16 21 25 0 16 23 24 17 41 24 23 18 40 25 22 57 83 24 21 21 21 21 21 21 21 21 21 21 24 84 57 21 26 40 18 23 24 41 17 24 22 16 0 26 22 16 0 26 20 16 1 27 19 29 5c37,-4 31,-14 31,18l15 0 34 18 35 0 37 26 42 -3 46 22 47 -3 64 23 305 2 78 -26 48 4 46 -22 43 3 35 -26 37 0 32 -18 16 0c0,-33 -6,-22 32,-18l27 -5 29 -20 16 0 26 -21 16 0 25 -21 16 0 24 -23 41 -17 23 -24 40 -18 22 -22 22 -22 61 -39 22 -23 21 -21 21 -21 21 -20 24 -22 29 -10 1480 1484 -192 179 -21 23 -21 21 -21 24 -84 58 -21 23 -22 23 -39 18 -23 22 -22 23 -39 18 -22 25 -40 18 -24 21 -23 21 -16 0 -23 24 -41 17 -23 23 -41 17c0,32 8,24 -24,23l-17 -1c0,30 8,22 -23,23l-17 0 -24 22 -16 0 -25 21 -141 63 -28 20 -16 0 -27 20 -16 0c0,31 6,21 -29,19l-29 5 -29 19 -16 0 -31 18 -28 5 -32 18 -16 0c0,32 6,21 -33,18l-29 3c0,33 7,21 -34,18l-28 3 -25 20 -24 0 -29 4 -38 16 -35 0 -41 24 -41 -2 -45 22 -46 -4 -53 27 -64 -4 -60 25 -54 -6 -80 26 -88 -4 -107 23 -405 1 -130 -23 -104 3 -80 -25 -54 4 -60 -24 -59 2 -49 -21 -55 0 -44 -23 -43 3 -39 -24 -43 4 -36 -26 -32 5 -33 -26 -36 0 -35 -17 -28 -4c-39,3 -33,14 -33,-18l-16 0 -31 -18 -29 -4 -31 -19 -28 -4c-37,3 -30,14 -30,-19l-16 0c-35,1 -28,11 -28,-20l-17 0 -28 -19 -15 0 -27 -21 -183 -84 -24 -21 -16 -1 -25 -22 -16 0c-31,0 -23,8 -23,-23l-42 -16 -23 -24 -16 0c-32,0 -24,8 -24,-23l-40 -18c-31,-1 -23,7 -23,-24l-40 -18 -22 -21 -24 -21 -40 -18 -21 -26 -62 -37 -21 -24 -22 -22 -61 -39 -22 -23 -21 -21c-29,0 -21,7 -21,-23l-291 -290c-30,0 -23,8 -23,-22l-21 -21 -23 -21 -39 -61 -22 -22 -23 -22 -37 -62 -26 -21 -36 -63c-32,0 -24,8 -25,-23l-18 -40c-31,0 -23,8 -24,-22l-17 -41c-32,0 -24,8 -24,-23l0 -16 -23 -23 -17 -42c-31,0 -23,7 -23,-24l0 -16 -22 -24 0 -16 -22 -25 -104 -225 -20 -28 0 -16 -19 -28 -1 -16c-32,0 -22,7 -19,-30l-4 -29 -18 -30 -5 -29 -18 -31 0 -16c-32,0 -21,6 -18,-33l-3 -28 -18 -35 -3 -29 -17 -36 -1 -36 -25 -36 4 -43 -25 -39 3 -43 -23 -43 0 -36 -18 -34 -3 -34 3 -46 -24 -61 4 -66 -26 -81 5 -105c-33,-57 -27,-77 -25,-148l2 -326 19 -120 -1 -137 26 -81 -4 -66 24 -61 -3 -46 3 -34 18 -34 0 -36 23 -43 -3 -43 25 -39 -4 -43 25 -36 1 -36 17 -37 3 -28 18 -35 3 -28c-3,-39 -14,-33 18,-33l0 -16 18 -31 5 -29 18 -30 4 -29c-3,-37 -14,-30 19,-30l1 -16 19 -28 0 -16 19 -28 105 -225 22 -25 0 -16 22 -24 0 -16c0,-31 -8,-24 23,-24l17 -42 23 -23 0 -16c0,-31 -8,-23 24,-23l17 -41c1,-30 -6,-22 24,-22l18 -40c1,-31 -7,-23 25,-23l36 -63 26 -21 37 -62 23 -22 22 -22 39 -61 23 -21 21 -21 23 -22 291 -290c0,-30 -8,-23 21,-23l21 -21 22 -23 61 -39 22 -22 21 -24 62 -37 22 -25 63 -36c0,-32 -8,-24 22,-25l40 -18c0,-31 -8,-23 23,-24l40 -18c0,-31 -8,-23 24,-23l16 -1 23 -23 42 -16c0,-31 -8,-23 23,-23l16 0 25 -22 16 0 24 -22 225 -105 28 -19 17 0c0,-31 -7,-21 28,-20l16 0c0,-32 -7,-22 30,-19l28 -4 31 -19 28 -4 32 -18 16 0c0,-32 -6,-21 33,-18l28 -4 35 -17 29 -3 35 -17 43 -7 37 -16 36 0 39 -24 43 3 43 -23 56 0 49 -21 59 2 60 -24 54 4 80 -25 107 6c54,-33 114,-31 183,-27l254 0c70,-4 130,-6 183,27l108 -6 79 26 80 -2 52 20 42 -1 48 21 56 0 44 22 41 -2 41 24 35 0 38 17 37 0 34 26 35 0c41,-3 34,-15 34,18l29 3c39,-3 33,-14 33,18l16 0 32 18 28 5 31 18 74 24c35,-2 29,-12 29,19l16 0 27 20 17 0 27 20 140 63 26 21 16 0 24 22 16 0 24 23 16 0c33,-1 25,-10 25,22l41 17 23 23 41 17 24 24 15 0 23 21 24 21 16 0 24 21 22 22 40 18 21 23 23 21 39 19 22 23c29,0 22,-7 22,23l61 38 22 23 21 21 21 20 21 24 171 148 938 -924 -5 3347 -3348 -7 902 -906 1 -26 -21 -21 -21 -21 -21 -21 -22 -23 -60 -39 -23 -22 -22 -22 -40 -18 -22 -24 -42 -17 -24 -23 -16 0 -25 -22 -16 0 -26 -20 -17 0 -27 -20 -29 -4c-37,3 -30,13 -30,-19l-17 0 -32 -18 -37 0 -35 -26 -43 3 -46 -22 -46 3 -52 -3 -54 -19 -278 -1 -65 23zm-3986 5527l8379 0 0 -8378 -8379 0 0 8378z"/>
   <path class="fil1" d="M3900 737l-107 -6 -80 25 -54 -4 -60 24 -59 -2 -49 21 -56 0 -43 23 -43 -3 -39 24 -36 0 -37 16 -43 7 -35 17 -29 3 -35 17 -28 4 -33 18 -16 0c0,32 6,22 -32,18l-28 4 -31 19 -28 4 -30 19 -16 0 -28 20 -17 0c0,31 7,21 -28,19l-225 105c0,31 8,23 -24,22l-16 0c0,30 7,21 -25,22l-16 0 -23 23 -42 16c0,31 7,23 -23,23l-16 1 -24 23 -40 18 -23 24 -40 18 -22 25 -63 36 -22 25 -62 37 -21 24 -22 22 -61 39 -22 23 -21 21 -21 23 -291 290 -23 22 -21 21c0,29 7,21 -23,21l-39 61 -22 22 -23 22 -37 62 -26 21 -36 63 -25 23 -18 40 -24 22 -17 41 -24 23 0 16c0,31 7,23 -23,23l-17 42 -23 24 0 16c0,31 8,24 -22,24l0 16c1,32 9,25 -22,25l-105 225c2,34 12,28 -19,28l0 16 -19 28 -1 16 -19 30 -4 29 -18 30 -5 29c4,37 15,31 -18,31l0 16 -18 33 -3 28 -18 35 -3 28 -17 37 -1 36 -25 36 4 43 -25 39 3 43 -23 43 0 36 4 34 -25 34 3 46 -24 61 4 66 -26 81 1 137 -19 120 -2 326 25 148 -5 105 26 81 -4 66 24 61 -3 46 25 34 -4 34 0 36 23 43 -3 43 25 39 -4 43 25 36 1 36 17 36 3 29 18 35 3 28 18 33 0 16c33,0 22,-6 18,31l5 29 18 30 4 29 19 30 1 16 19 28 0 16c31,0 21,-6 20,28l104 225c31,0 23,-7 22,25l0 16c30,0 22,-7 22,24l0 16 23 24 17 42c30,0 23,-8 23,23l0 16 24 23 17 41 24 22 18 40 25 23 36 63 26 21 37 62 23 22 22 22 39 61 23 21 21 21 23 22 291 290 21 23 21 21 22 23 61 39 22 22 21 24 62 37 21 26 40 18 24 21 22 21 40 18 23 24 40 18 24 23 16 0c30,1 23,-7 23,24l42 16 23 23 16 0c32,1 25,-8 25,22l16 1c32,-2 24,-10 24,21l183 84c34,-2 27,-11 27,21l15 0c35,-2 28,-12 28,19l17 0 28 20 16 0 30 19 28 4 31 19 29 4c37,-4 31,-14 31,18l16 0 33 18 28 4 35 17 36 0 33 26 32 -5 36 26 43 -4 39 24 43 -3 44 23 55 0 49 21 59 -2 60 24 54 -4 80 25 104 -3 130 23 405 -1 107 -23 88 4 80 -26 54 6 60 -25 64 4 53 -27 46 4 45 -22 41 2 41 -24 35 0 38 -16 29 -4 24 -20 25 0 28 -3 34 -18 29 -3 33 -18 16 0c0,-33 -6,-22 32,-18l28 -5 31 -18 16 0c0,-33 -7,-22 29,-19l29 -5 29 -19 16 0c0,-31 -7,-21 27,-20l16 0c0,-31 -7,-22 28,-20l141 -63c0,-31 -8,-23 25,-21l16 0c0,-31 -7,-23 24,-22l17 0 23 -23 17 1 24 -23 41 -17c0,-30 -7,-22 23,-23l41 -17c0,-32 -8,-24 23,-24l16 0 23 -21 24 -21 40 -18c0,-31 -8,-23 22,-25l39 -18 22 -23 23 -22 39 -18 22 -23 21 -23 84 -58 21 -24 21 -21 21 -23 192 -179 -1480 -1484 -29 10 -24 22 -21 20 -21 21 -21 21 -22 23 -61 39 -22 22 -22 22 -40 18 -23 24 -41 17c0,32 8,24 -24,23l-16 0c0,30 7,22 -25,21l-16 0c0,30 6,22 -26,21l-16 0c0,31 6,22 -29,20l-27 5 -32 18 -16 0c0,32 6,21 -32,18l-37 0 -35 26 -43 -3 -46 22 -48 -4 -78 26 -305 -2 -64 -23 -47 3 -46 -22 -42 3 -37 -26 -35 0 -34 -18 -15 0 -31 -18 -29 -5c-33,2 -27,11 -27,-19l-16 -1c-33,1 -26,10 -26,-20l-16 0c-32,0 -26,8 -26,-22l-16 0c-31,1 -24,9 -24,-22l-41 -17 -23 -24 -40 -18 -21 -26 -84 -57 -21 -24 -21 -21 -21 -21 -21 -21 -21 -21 -24 -21 -57 -83 -25 -22 -18 -40 -24 -23 -17 -41c-31,0 -23,8 -23,-24l0 -16c-30,0 -21,7 -21,-25l-1 -16c-29,0 -20,7 -20,-26l0 -16c-31,0 -21,6 -20,-28l-23 -74 -18 -34 0 -35 -25 -36 2 -43 -22 -46 3 -47 -23 -64 0 -321 23 -65 -3 -47 22 -46 -2 -43 25 -35 0 -36 18 -34 4 -28c-3,-37 -14,-30 19,-30l0 -16c-1,-34 -11,-28 20,-28l0 -16c0,-33 -9,-26 20,-26l1 -16c0,-32 -9,-25 21,-25l0 -16c0,-32 -8,-24 23,-24l17 -41 24 -23 18 -40 25 -22 57 -83 24 -21 21 -21 21 -21 21 -21 21 -21 21 -24 84 -57 21 -26 40 -18 23 -24 41 -17c0,-31 -7,-23 24,-22l16 0c0,-30 -6,-22 26,-22l16 0c0,-29 -7,-21 26,-20l16 0c0,-31 -6,-22 27,-20l29 -5 31 -18 15 0 34 -18 35 0 37 -26 42 3 46 -22 47 3 65 -23 278 1 54 -4 52 26 46 -3 46 22 43 -3 35 26 37 0c39,-3 32,-14 32,18l17 0 30 19 29 4c34,-2 27,-11 27,20l17 0c33,-1 26,-10 26,20l16 0c32,0 25,-8 25,22l16 0c32,-1 24,-9 24,23l42 17 22 24 40 18 22 22c30,0 23,-8 23,22l60 39 22 23 21 21 21 21 21 21c30,23 29,4 -1,26l-902 906 3348 7 5 -3347 -938 924 -171 -148 -21 -24 -21 -20 -21 -21c-30,0 -22,7 -22,-23l-61 -38 -22 -23c-30,0 -22,7 -22,-23l-39 -19 -23 -21 -21 -23 -40 -18 -22 -22 -24 -21 -16 0 -24 -21 -23 -21 -15 0c-32,0 -24,8 -24,-24l-41 -17c-30,-1 -23,7 -23,-23l-41 -17 -25 -22 -16 0 -24 -23 -16 0c-32,1 -24,9 -24,-22l-16 0c-33,2 -26,11 -26,-21l-140 -63c-34,2 -27,11 -27,-20l-17 0c-34,1 -27,11 -27,-20l-16 0 -29 -19 -74 -24 -31 -18 -28 -5c-38,4 -32,15 -32,-18l-16 0 -33 -18 -29 -3 -34 -18 -35 0 -34 -26 -37 0 -38 -17 -35 0 -41 -24 -41 2 -44 -22 -56 0 -48 -21 -42 1 -52 -20 -80 2 -79 -26 -108 6 -183 -27 -254 0 -183 27z"/>
   <path class="fil2" d="M4083 710c-69,-4 -129,-6 -183,27l183 -27z"/>
   <path class="fil2" d="M4520 737c-53,-33 -113,-31 -183,-27l183 27z"/>
   <path class="fil3" d="M757 4502l-25 -148c-2,71 -8,91 25,148z"/>
   <polygon class="fil4" points="4383,2848 4383,2825 4329,2829 "/>
   <polygon class="fil5" points="4435,2851 4383,2825 4383,2848 "/>
   <path class="fil6" d="M5324 7478l-34 18c41,3 34,15 34,-18z"/>
   <path class="fil6" d="M5324 900c0,-33 7,-21 -34,-18l34 18z"/>
   <polygon class="fil7" points="816,4929 820,4895 798,4895 "/>
   <polygon class="fil7" points="820,3483 816,3449 798,3483 "/>
   <path class="fil8" d="M5386 921c0,-32 6,-21 -33,-18l33 18z"/>
   <path class="fil8" d="M5386 7457l-33 18c39,3 33,14 33,-18z"/>
   <polygon class="fil5" points="798,4895 820,4895 795,4861 "/>
   <path class="fil6" d="M3067 7475l-33 -18c0,32 -6,21 33,18z"/>
   <path class="fil6" d="M3067 903c-39,-3 -33,-14 -33,18l33 -18z"/>
   <path class="fil9" d="M942 5366l-18 -33c-3,39 -14,33 18,33z"/>
   <path class="fil9" d="M942 3012c-32,0 -21,-6 -18,33l18 -33z"/>
   <polygon class="fil5" points="795,3517 820,3483 798,3483 "/>
   <path class="fil10" d="M3730 2911l-31 18c37,4 31,15 31,-18z"/>
   <path class="fil10" d="M3730 5467c0,-32 6,-22 -31,-18l31 18z"/>
   <path class="fil11" d="M4674 5467l-32 18c38,3 32,14 32,-18z"/>
   <path class="fil12" d="M4674 2911c0,-32 7,-21 -32,-18l32 18z"/>
   <path class="fil7" d="M1006 2847c-33,0 -22,-7 -19,30l19 -30z"/>
   <path class="fil13" d="M4722 5449c-38,-4 -32,-15 -32,18l32 -18z"/>
   <path class="fil14" d="M5434 7439c-38,-4 -32,-15 -32,18l32 -18z"/>
   <path class="fil15" d="M960 5413c4,-37 15,-31 -18,-31l18 31z"/>
   <path class="fil16" d="M5434 939l-32 -18c0,33 -6,22 32,18z"/>
   <path class="fil17" d="M2955 3665c-33,0 -22,-7 -19,30l19 -30z"/>
   <path class="fil18" d="M3018 921l-32 18c38,4 32,14 32,-18z"/>
   <path class="fil7" d="M1006 5531l-19 -30c-3,37 -13,30 19,30z"/>
   <path class="fil15" d="M960 2965l-18 31c33,0 22,6 18,-31z"/>
   <path class="fil10" d="M2899 7412l-30 -19c0,33 -7,22 30,19z"/>
   <path class="fil18" d="M3018 7457c0,-32 6,-22 -31,-18l31 18z"/>
   <path class="fil10" d="M2899 966c-37,-3 -30,-13 -30,19l30 -19z"/>
   <path class="fil19" d="M4721 2930l-30 -19c0,32 -7,22 30,19z"/>
   <path class="fil17" d="M5538 7397c-36,-3 -29,-14 -29,19l29 -19z"/>
   <path class="fil15" d="M2765 7354c0,-32 7,-23 -27,-21l27 21z"/>
   <path class="fil20" d="M5596 7373l-29 19c35,2 29,12 29,-19z"/>
   <path class="fil11" d="M4778 5424l-29 20c35,2 29,11 29,-20z"/>
   <path class="fil21" d="M5596 1005c0,-31 6,-21 -29,-19l29 19z"/>
   <path class="fil22" d="M1045 2759l-19 28c31,0 21,6 19,-28z"/>
   <path class="fil23" d="M5683 7333c-35,-2 -28,-11 -28,20l28 -20z"/>
   <path class="fil22" d="M1046 5619c1,-34 11,-28 -20,-28l20 28z"/>
   <path class="fil12" d="M2808 1005l-28 19c35,2 28,12 28,-19z"/>
   <path class="fil12" d="M2808 7373c0,-31 7,-21 -28,-19l28 19z"/>
   <path class="fil24" d="M4777 2954c0,-31 7,-22 -27,-20l27 20z"/>
   <path class="fil7" d="M5970 7182l-24 23c32,1 24,9 24,-23z"/>
   <path class="fil15" d="M5849 1129l-26 -21c0,32 -7,23 26,21z"/>
   <path class="fil25" d="M5683 1045l-27 -20c0,31 -7,22 27,20z"/>
   <path class="fil26" d="M5639 1025l-27 -20c0,31 -7,21 27,20z"/>
   <path class="fil27" d="M2853 7393l-28 -20c0,31 -7,21 28,20z"/>
   <path class="fil27" d="M2853 985c-35,-1 -28,-11 -28,20l28 -20z"/>
   <path class="fil28" d="M5970 1196c0,-32 8,-23 -25,-22l25 22z"/>
   <path class="fil26" d="M2975 4757l-20 -28c-1,34 -11,28 20,28z"/>
   <path class="fil26" d="M2975 3621c-31,0 -21,-6 -20,28l20 -28z"/>
   <path class="fil29" d="M3670 2934c-33,-2 -27,-11 -27,20l27 -20z"/>
   <path class="fil29" d="M3670 5444l-27 -19c0,30 -6,21 27,19z"/>
   <path class="fil26" d="M5639 7353c-34,-1 -27,-11 -27,20l27 -20z"/>
   <path class="fil25" d="M4901 3019c0,-32 8,-24 -24,-23l24 23z"/>
   <path class="fil15" d="M5849 7249c-33,-2 -25,-10 -25,21l25 -21z"/>
   <path class="fil30" d="M4901 5359l-24 23c32,1 24,9 24,-23z"/>
   <path class="fil18" d="M1172 2509l-22 25c31,0 23,7 22,-25z"/>
   <path class="fil18" d="M1172 5869c1,-32 9,-25 -22,-25l22 25z"/>
   <path class="fil31" d="M2555 7249c0,-31 8,-23 -24,-21l24 21z"/>
   <path class="fil30" d="M2555 1129l-24 22c32,1 24,9 24,-22z"/>
   <path class="fil32" d="M4820 2974c0,-30 7,-21 -26,-20l26 20z"/>
   <path class="fil33" d="M2370 7142l-24 -23c0,31 -8,23 24,23z"/>
   <path class="fil33" d="M2370 1236c-32,0 -24,-8 -24,23l24 -23z"/>
   <path class="fil34" d="M1281 6053l-24 -23c0,31 -8,23 24,23z"/>
   <path class="fil22" d="M5889 1151l-24 -22c0,31 -8,23 24,22z"/>
   <path class="fil34" d="M1281 2325c-32,0 -24,-8 -24,23l24 -23z"/>
   <path class="fil25" d="M6098 7101c-31,0 -23,-8 -23,24l23 -24z"/>
   <path class="fil27" d="M2995 4799l-20 -26c0,33 -9,26 20,26z"/>
   <path class="fil25" d="M6099 1277l-24 -24c0,32 -8,24 24,24z"/>
   <path class="fil14" d="M3543 5382l-24 -22c0,31 -7,23 24,22z"/>
   <path class="fil14" d="M3543 2996c-31,-1 -24,-9 -24,22l24 -22z"/>
   <path class="fil35" d="M2474 7205l-23 -23c0,31 -8,23 23,23z"/>
   <path class="fil36" d="M4820 5403l-26 21c32,1 26,9 26,-21z"/>
   <path class="fil37" d="M4861 5382l-25 21c32,1 25,9 25,-21z"/>
   <path class="fil35" d="M2474 1173c-31,0 -23,-8 -23,23l23 -23z"/>
   <path class="fil27" d="M2995 3579c-29,0 -20,-7 -20,26l20 -26z"/>
   <path class="fil38" d="M5889 7227c-31,-1 -24,-9 -24,22l24 -22z"/>
   <path class="fil39" d="M3040 3498c-31,0 -23,-8 -23,24l23 -24z"/>
   <path class="fil3" d="M3017 4840l-21 -25c0,32 -9,25 21,25z"/>
   <path class="fil40" d="M3040 4880l-23 -24c0,32 -8,24 23,24z"/>
   <path class="fil41" d="M3627 2954c-33,-1 -26,-9 -26,20l26 -20z"/>
   <path class="fil41" d="M3627 5424l-26 -20c0,30 -7,21 26,20z"/>
   <path class="fil3" d="M3585 2974c-32,0 -26,-8 -26,22l26 -22z"/>
   <path class="fil3" d="M3585 5404l-26 -22c0,30 -6,22 26,22z"/>
   <path class="fil42" d="M1217 2429c-31,0 -23,-7 -23,24l23 -24z"/>
   <path class="fil42" d="M1217 5949l-23 -24c0,31 -8,24 23,24z"/>
   <path class="fil26" d="M4861 2996c0,-30 7,-22 -25,-22l25 22z"/>
   <path class="fil3" d="M3017 3538c-30,0 -21,-7 -21,25l21 -25z"/>
   <path class="fil6" d="M1365 6179l-25 -23c1,31 -7,23 25,23z"/>
   <path class="fil6" d="M1365 2199c-32,0 -24,-8 -25,23l25 -23z"/>
   <path class="fil6" d="M2243 1319c-30,1 -22,-7 -22,25l22 -25z"/>
   <path class="fil40" d="M1257 2364l-23 23c30,0 23,8 23,-23z"/>
   <path class="fil40" d="M1257 6014c0,-31 7,-23 -23,-23l23 23z"/>
   <path class="fil37" d="M2515 7227c0,-30 7,-21 -25,-22l25 22z"/>
   <path class="fil22" d="M2409 7166c0,-31 7,-23 -23,-24l23 24z"/>
   <path class="fil43" d="M2515 1151l-25 22c32,-1 25,8 25,-22z"/>
   <path class="fil26" d="M1194 2469l-22 24c30,0 22,7 22,-24z"/>
   <path class="fil22" d="M6223 7016c-30,2 -22,-6 -22,25l22 -25z"/>
   <path class="fil22" d="M2409 1212l-23 23c30,0 23,8 23,-23z"/>
   <path class="fil26" d="M1194 5909c0,-31 8,-24 -22,-24l22 24z"/>
   <path class="fil44" d="M1322 6116l-24 -22c1,30 -7,22 24,22z"/>
   <path class="fil44" d="M2306 1277c-31,1 -23,-7 -23,24l23 -24z"/>
   <path class="fil44" d="M2306 7101l-23 -24c0,31 -8,23 23,24z"/>
   <path class="fil20" d="M1322 2262c-30,0 -23,-8 -24,22l24 -22z"/>
   <path class="fil45" d="M5929 7204l-23 23c31,-1 23,7 23,-23z"/>
   <path class="fil36" d="M6034 7142c-30,1 -23,-7 -23,23l23 -23z"/>
   <path class="fil43" d="M6034 1236l-23 -23c0,30 -7,22 23,23z"/>
   <path class="fil16" d="M5195 3247l-1 26c30,-22 31,-3 1,-26z"/>
   <path class="fil23" d="M1927 6807l-21 -23c0,30 -8,23 21,23z"/>
   <path class="fil6" d="M1571 1927l-23 21c30,0 23,8 23,-21z"/>
   <path class="fil23" d="M1927 1571c-29,0 -21,-7 -21,23l21 -23z"/>
   <path class="fil25" d="M1615 6494l-23 -22c0,30 -7,22 23,22z"/>
   <path class="fil12" d="M6390 1489c0,-30 7,-23 -22,-23l22 23z"/>
   <path class="fil6" d="M6368 1466l-22 -23c0,30 -8,23 22,23z"/>
   <path class="fil4" d="M6473 1550l-22 -23c0,30 -8,23 22,23z"/>
   <path class="fil28" d="M5050 3122c0,-30 7,-22 -23,-22l23 22z"/>
   <polygon class="fil8" points="5262,7499 5237,7499 5237,7519 "/>
   <polygon class="fil18" points="5237,7519 5237,7499 5213,7519 "/>
   <polygon class="fil29" points="5184,856 5146,839 "/>
   <polygon class="fil9" points="3194,862 3159,879 "/>
   <polygon class="fil46" points="5255,882 5221,856 "/>
   <polygon class="fil20" points="3130,882 3095,899 "/>
   <polygon class="fil36" points="2958,943 2927,962 "/>
   <polygon class="fil47" points="5493,962 5462,944 "/>
   <polygon class="fil8" points="6137,1298 6114,1277 "/>
   <polygon class="fil15" points="6161,1319 6137,1298 "/>
   <polygon class="fil19" points="6201,1340 6177,1319 "/>
   <polygon class="fil22" points="6223,1362 6201,1340 "/>
   <polygon class="fil32" points="2158,1380 2136,1405 "/>
   <polygon class="fil21" points="6284,1403 6263,1380 "/>
   <polygon class="fil15" points="6307,1424 6284,1403 "/>
   <polygon class="fil41" points="2074,1442 2053,1466 "/>
   <polygon class="fil18" points="2053,1466 2031,1488 "/>
   <polygon class="fil48" points="2891,4507 2869,4461 "/>
   <polygon class="fil49" points="2914,4586 2889,4550 "/>
   <polygon class="fil26" points="2932,4655 2914,4621 "/>
   <polygon class="fil50" points="778,4688 752,4607 "/>
   <polygon class="fil22" points="2872,4414 2849,4350 "/>
   <polygon class="fil51" points="798,4815 774,4754 "/>
   <polygon class="fil22" points="2849,4029 2872,3964 "/>
   <polygon class="fil24" points="734,4028 753,3908 "/>
   <polygon class="fil20" points="2869,3917 2891,3871 "/>
   <polygon class="fil49" points="2889,3828 2914,3793 "/>
   <polygon class="fil50" points="752,3771 778,3690 "/>
   <polygon class="fil52" points="3081,4944 3057,4921 "/>
   <polygon class="fil37" points="839,5008 816,4965 "/>
   <polygon class="fil36" points="3124,5006 3099,4984 "/>
   <polygon class="fil26" points="861,5090 836,5051 "/>
   <polygon class="fil12" points="3205,5110 3181,5089 "/>
   <polygon class="fil36" points="3226,5131 3205,5110 "/>
   <polygon class="fil22" points="5219,5110 5195,5132 "/>
   <polygon class="fil27" points="3247,5152 3226,5131 "/>
   <polygon class="fil36" points="5195,5132 5174,5152 "/>
   <polygon class="fil52" points="882,5169 857,5133 "/>
   <polygon class="fil27" points="3268,5173 3247,5152 "/>
   <polygon class="fil29" points="5174,5152 5153,5173 "/>
   <polygon class="fil36" points="3289,5194 3268,5173 "/>
   <polygon class="fil38" points="5153,5173 5132,5194 "/>
   <polygon class="fil12" points="3310,5218 3289,5194 "/>
   <polygon class="fil18" points="5132,5194 5110,5217 "/>
   <polygon class="fil42" points="900,5241 883,5205 "/>
   <polygon class="fil28" points="5049,5256 5027,5278 "/>
   <polygon class="fil21" points="921,5305 903,5270 "/>
   <polygon class="fil36" points="3415,5301 3394,5275 "/>
   <polygon class="fil11" points="5027,5278 5005,5300 "/>
   <polygon class="fil51" points="3478,5343 3455,5319 "/>
   <polygon class="fil53" points="4965,5318 4942,5342 "/>
   <polygon class="fil26" points="2932,3723 2914,3757 "/>
   <polygon class="fil51" points="774,3624 798,3563 "/>
   <polygon class="fil52" points="3081,3434 3057,3457 "/>
   <polygon class="fil37" points="816,3413 839,3370 "/>
   <polygon class="fil36" points="3124,3372 3099,3394 "/>
   <polygon class="fil26" points="836,3327 861,3288 "/>
   <polygon class="fil12" points="3205,3268 3181,3289 "/>
   <polygon class="fil36" points="3226,3247 3205,3268 "/>
   <polygon class="fil2" points="5195,3247 5174,3226 "/>
   <polygon class="fil26" points="983,5472 965,5442 "/>
   <polygon class="fil27" points="3247,3226 3226,3247 "/>
   <polygon class="fil52" points="857,3245 882,3209 "/>
   <polygon class="fil24" points="3779,5485 3745,5467 "/>
   <polygon class="fil36" points="5174,3226 5153,3205 "/>
   <polygon class="fil50" points="3851,5511 3814,5485 "/>
   <polygon class="fil27" points="4605,5485 4570,5511 "/>
   <polygon class="fil27" points="3268,3205 3247,3226 "/>
   <polygon class="fil49" points="3939,5530 3893,5508 "/>
   <polygon class="fil52" points="4527,5508 4481,5530 "/>
   <polygon class="fil14" points="4050,5550 3986,5527 "/>
   <polygon class="fil54" points="4433,5526 4355,5552 "/>
   <polygon class="fil45" points="1026,5575 1007,5547 "/>
   <polygon class="fil11" points="5153,3205 5132,3184 "/>
   <polygon class="fil36" points="3289,3184 3268,3205 "/>
   <polygon class="fil25" points="5132,3184 5110,3161 "/>
   <polygon class="fil12" points="3310,3160 3289,3184 "/>
   <polygon class="fil42" points="900,3136 883,3173 "/>
   <polygon class="fil21" points="3793,731 3713,756 "/>
   <polygon class="fil36" points="3415,3077 3394,3103 "/>
   <polygon class="fil21" points="921,3073 903,3108 "/>
   <polygon class="fil36" points="1427,6263 1401,6242 "/>
   <polygon class="fil45" points="1487,6347 1464,6325 "/>
   <polygon class="fil47" points="4965,3060 4943,3036 "/>
   <polygon class="fil6" points="1571,6451 1548,6430 "/>
   <polygon class="fil36" points="1592,6472 1571,6451 "/>
   <polygon class="fil48" points="4707,757 4628,731 "/>
   <polygon class="fil31" points="6536,6763 6515,6786 "/>
   <polygon class="fil14" points="3659,752 3599,776 "/>
   <polygon class="fil26" points="6515,6786 6494,6807 "/>
   <polygon class="fil36" points="1948,6828 1927,6807 "/>
   <polygon class="fil20" points="6494,6807 6473,6831 "/>
   <polygon class="fil6" points="1970,6851 1948,6828 "/>
   <polygon class="fil18" points="2053,6912 2031,6890 "/>
   <polygon class="fil11" points="6389,6889 6368,6912 "/>
   <polygon class="fil27" points="2074,6936 2053,6912 "/>
   <polygon class="fil6" points="6368,6912 6346,6935 "/>
   <polygon class="fil15" points="6307,6953 6284,6975 "/>
   <polygon class="fil46" points="2157,6999 2136,6973 "/>
   <polygon class="fil49" points="6284,6975 6262,6998 "/>
   <polygon class="fil15" points="2221,7038 2197,7017 "/>
   <polygon class="fil51" points="3478,3035 3455,3059 "/>
   <polygon class="fil6" points="2243,7059 2221,7038 "/>
   <polygon class="fil15" points="6161,7059 6137,7080 "/>
   <polygon class="fil26" points="983,2906 965,2936 "/>
   <polygon class="fil55" points="6137,7080 6114,7101 "/>
   <polygon class="fil24" points="3779,2893 3745,2911 "/>
   <polygon class="fil27" points="4605,2893 4570,2867 "/>
   <polygon class="fil50" points="3851,2867 3814,2893 "/>
   <polygon class="fil55" points="4839,775 4787,755 "/>
   <polygon class="fil52" points="4527,2870 4481,2848 "/>
   <polygon class="fil49" points="3939,2848 3893,2870 "/>
   <polygon class="fil14" points="4051,2828 3986,2851 "/>
   <polygon class="fil39" points="3540,774 3491,795 "/>
   <polygon class="fil45" points="1026,2803 1007,2831 "/>
   <polygon class="fil45" points="5929,1174 5905,1151 "/>
   <polygon class="fil36" points="1427,2115 1401,2136 "/>
   <polygon class="fil24" points="5027,3100 5005,3078 "/>
   <polygon class="fil47" points="1487,2031 1464,2053 "/>
   <polygon class="fil56" points="1509,2009 1487,2031 "/>
   <polygon class="fil12" points="4929,795 4881,774 "/>
   <polygon class="fil2" points="1592,1906 1571,1927 "/>
   <polygon class="fil25" points="1615,1884 1592,1906 "/>
   <polygon class="fil18" points="6536,1615 6515,1591 "/>
   <polygon class="fil26" points="6515,1591 6494,1571 "/>
   <polygon class="fil36" points="2958,7435 2927,7416 "/>
   <polygon class="fil47" points="5493,7416 5462,7434 "/>
   <polygon class="fil32" points="3435,795 3392,818 "/>
   <polygon class="fil20" points="6494,1571 6473,1550 "/>
   <polygon class="fil36" points="1948,1550 1927,1571 "/>
   <polygon class="fil3" points="5029,817 4985,795 "/>
   <polygon class="fil20" points="3130,7496 3095,7479 "/>
   <polygon class="fil6" points="1970,1527 1948,1550 "/>
   <polygon class="fil43" points="3199,7522 3166,7496 "/>
   <polygon class="fil2" points="3349,815 3310,839 "/>
   <polygon class="fil57" points="5111,839 5070,815 "/>
   <polygon class="fil21" points="3267,7543 3231,7517 "/>
   <polygon class="fil26" points="5184,7523 5146,7539 "/>
   <polygon class="fil36" points="3349,7563 3310,7539 "/>
   <polygon class="fil57" points="5111,7539 5070,7563 "/>
   <polygon class="fil32" points="3436,7583 3392,7560 "/>
   <polygon class="fil3" points="5029,7561 4984,7583 "/>
   <polygon class="fil39" points="3540,7604 3491,7583 "/>
   <polygon class="fil47" points="4938,7579 4885,7606 "/>
   <polygon class="fil40" points="3659,7626 3599,7602 "/>
   <polygon class="fil22" points="4821,7602 4761,7627 "/>
   <polygon class="fil21" points="3793,7647 3713,7622 "/>
   <polygon class="fil48" points="4707,7621 4627,7647 "/>
   <polygon class="fil49" points="4027,7667 3897,7644 "/>
   <polygon class="fil11" points="3274,839 3237,855 "/>
   <polygon class="fil13" points="4539,7643 4432,7666 "/>
   <polygon class="fil18" points="1509,6369 1487,6347 "/>
  </g>
 </g>
</svg>
