<?xml version="1.0" encoding="UTF-8"?>
<!DOCTYPE svg PUBLIC "-//W3C//DTD SVG 1.1//EN" "http://www.w3.org/Graphics/SVG/1.1/DTD/svg11.dtd">
<!-- Creator: CorelDRAW X8 -->
<svg xmlns="http://www.w3.org/2000/svg" xml:space="preserve" width="45.839mm" height="45.839mm" version="1.1" style="shape-rendering:geometricPrecision; text-rendering:geometricPrecision; image-rendering:optimizeQuality; fill-rule:evenodd; clip-rule:evenodd"
viewBox="0 0 4584 4584"
 xmlns:xlink="http://www.w3.org/1999/xlink">
 <defs>
  <style type="text/css">
   <![CDATA[
    .fil0 {fill:#282477}
    .fil1 {fill:#FFF500}
   ]]>
  </style>
 </defs>
 <g id="Layer_x0020_1">
  <metadata id="CorelCorpID_0Corel-Layer"/>
  <g id="_218302025392">
   <polygon class="fil0" points="0,0 4584,0 4584,4584 0,4584 "/>
   <polygon class="fil1" points="2970,1863 3028,1864 3086,1869 3143,1876 3200,1886 3255,1898 3309,1914 3362,1932 3414,1952 3466,1975 3514,2001 3562,2029 3609,2059 3655,2090 3697,2124 3738,2161 3778,2198 3817,2239 3854,2281 3888,2323 3919,2369 3949,2416 3977,2462 4003,2512 4025,2563 4045,2616 4064,2669 4079,2723 4092,2778 4102,2835 4109,2892 4114,2950 4115,3008 4114,3066 4109,3125 4102,3181 4092,3238 4079,3294 4064,3348 4045,3402 4025,3453 4003,3504 3977,3554 3949,3601 3919,3648 3888,3693 3854,3736 3817,3778 3778,3818 3738,3855 3697,3892 3655,3926 3609,3957 3562,3987 3514,4016 3466,4041 3414,4064 3362,4084 3309,4102 3255,4118 3200,4131 3143,4141 3086,4148 3028,4153 2970,4155 2911,4153 2853,4148 2796,4141 2740,4131 2684,4118 2630,4102 2576,4084 2525,4064 2474,4041 2424,4016 2377,3987 2330,3957 2285,3926 2242,3892 2200,3855 2160,3818 2123,3778 2086,3736 2052,3693 2021,3648 1991,3601 1962,3554 1937,3504 1914,3453 1894,3402 1876,3348 1860,3294 1847,3238 1837,3181 1830,3125 1826,3066 1823,3008 1826,2950 1830,2892 1837,2835 1847,2778 1860,2723 1876,2669 1894,2616 1914,2563 1937,2512 1962,2462 1991,2416 2021,2369 2052,2323 2086,2281 2123,2239 2160,2198 2200,2161 2242,2124 2285,2090 2330,2059 2377,2029 2424,2001 2474,1975 2525,1952 2576,1932 2630,1914 2684,1898 2740,1886 2796,1876 2853,1869 2911,1864 "/>
  </g>
 </g>
</svg>
