<?xml version="1.0" encoding="UTF-8"?>
<!DOCTYPE svg PUBLIC "-//W3C//DTD SVG 1.1//EN" "http://www.w3.org/Graphics/SVG/1.1/DTD/svg11.dtd">
<!-- Creator: CorelDRAW X8 -->
<svg xmlns="http://www.w3.org/2000/svg" xml:space="preserve" width="28.176mm" height="27.361mm" version="1.1" style="shape-rendering:geometricPrecision; text-rendering:geometricPrecision; image-rendering:optimizeQuality; fill-rule:evenodd; clip-rule:evenodd"
viewBox="0 0 2818 2736"
 xmlns:xlink="http://www.w3.org/1999/xlink">
 <defs>
  <style type="text/css">
   <![CDATA[
    .fil14 {fill:#5987B9}
    .fil26 {fill:#6384B2}
    .fil13 {fill:#6F88B2}
    .fil24 {fill:#736A96}
    .fil12 {fill:#739AC8}
    .fil18 {fill:#814971}
    .fil11 {fill:#876286}
    .fil19 {fill:#98B9D5}
    .fil30 {fill:#A8C6D9}
    .fil25 {fill:#B25067}
    .fil15 {fill:#C5CAD3}
    .fil0 {fill:#D0D0D0}
    .fil7 {fill:#D1D1D1}
    .fil16 {fill:#D1DEDD}
    .fil22 {fill:#E3DCDC}
    .fil5 {fill:#E4E4E4}
    .fil29 {fill:#EA0205}
    .fil3 {fill:#EA7675}
    .fil17 {fill:#ECFBFA}
    .fil28 {fill:#EDF4F3}
    .fil1 {fill:#F25252}
    .fil9 {fill:#F80606}
    .fil27 {fill:#F8E3DC}
    .fil10 {fill:#FA3A39}
    .fil2 {fill:#FAFBFB}
    .fil6 {fill:#FD0000}
    .fil21 {fill:#FD0505}
    .fil20 {fill:#FDFDFA}
    .fil4 {fill:#FDFDFD}
    .fil23 {fill:#FE0202}
    .fil8 {fill:#FF3A3A}
   ]]>
  </style>
 </defs>
 <g id="Layer_x0020_1">
  <metadata id="CorelCorpID_0Corel-Layer"/>
  <g id="_218304194800">
   <path class="fil0" d="M2169 2110l170 3c-58,108 -68,128 -176,180l6 -183zm-1516 -1l-14 206 -186 -205 200 -1zm-563 -651c132,659 686,1303 1430,1201 645,-89 1249,-750 1220,-1401l-74 -131 -3 227 -37 223c-85,69 -27,45 -174,46l-281 5 -2 482 -482 0c5,85 5,165 6,250 0,143 18,127 -38,235l-422 5 -110 -28 5 -461 -475 -2 2 -480c-87,-5 -162,-5 -249,-4 -148,1 -126,18 -240,-40l-17 -255 0 -216 2 -28c-59,90 -66,248 -61,372z"/>
   <path class="fil1" d="M90 1458l-3 -1403 138 86c119,9 141,8 214,78 389,-28 578,69 953,-180 210,77 323,157 565,177 320,25 376,-41 631,-76l151 -87 1 1205c29,651 -575,1312 -1220,1401 -744,102 -1298,-542 -1430,-1201zm2692 -1438c-237,-75 -395,325 -1155,61 -406,-141 -171,-76 -536,35 -228,70 -414,73 -648,20 -240,-54 -417,-279 -427,34 -22,688 -64,1451 284,1944 941,1331 2350,245 2499,-642 30,-178 29,-1314 -17,-1452z"/>
   <path class="fil2" d="M439 219l218 47 -4 332 480 -21 19 -372c300,-113 168,-150 492,-7 54,112 21,244 45,395l478 4 17 -342c154,-17 283,-32 404,-115 -255,35 -311,101 -631,76 -242,-20 -355,-100 -565,-177 -375,249 -564,152 -953,180z"/>
   <path class="fil3" d="M1669 1105l500 -2 -13 486 -462 3 -25 -487zm-510 221l-5 -208 497 -6 4 215 0 265 -492 0 -4 -266zm483 -724l6 487 -482 -1 14 -506 -47 -5 -9 484 -475 7 -498 18 -2 28 503 8 493 -18 -23 484 -468 -8 -488 5c114,58 92,41 240,40 87,-1 162,-1 249,4l491 -7 -18 489 -5 461 110 28c-9,-3 -21,-24 -24,-17 -3,7 -20,-18 -24,-22 -3,-3 -14,-18 -23,-25l19 -429c-9,-123 12,-166 14,-241 0,-20 -27,-196 -32,-243l482 -2 -7 486 17 488c56,-108 38,-92 38,-235 -1,-85 -1,-165 -6,-250l-14 -487 498 5 281 -5c147,-1 89,23 174,-46l-440 16 12 -256 7 -218 461 8c-99,-78 -345,-32 -493,-48l-487 3 3 -489c-24,-151 9,-283 -45,-395l-2 404z"/>
   <path class="fil2" d="M2588 140c110,27 47,-60 79,68l-1 392 -499 -3 6 482c148,16 394,-30 493,48l74 131 -1 -1205 -151 87z"/>
   <path class="fil2" d="M90 1458c-5,-124 2,-282 61,-372l498 -18 4 -470 -507 5 0 -430c51,-41 -68,-45 79,-32l-138 -86 3 1403z"/>
   <polygon class="fil4" points="1642,602 1180,582 1166,1088 1648,1089 "/>
   <polygon class="fil5" points="1694,1592 2156,1589 2169,1103 1669,1105 "/>
   <path class="fil6" d="M1233 2600l422 -5 -17 -488 -457 0 -19 429c9,7 20,22 23,25 4,4 21,29 24,22 3,-7 15,14 24,17z"/>
   <polygon class="fil5" points="654,1364 654,1580 1122,1588 1145,1104 652,1122 "/>
   <path class="fil7" d="M1181 2107l457 0 7 -486 -482 2c5,47 32,223 32,243 -2,75 -23,118 -14,241z"/>
   <path class="fil8" d="M1133 577l47 5 462 20 2 -404c-324,-143 -192,-106 -492,7l-19 372z"/>
   <path class="fil8" d="M653 598l4 -332 -218 -47c-125,-11 -130,-2 -214,-78 -147,-13 -28,-9 -79,32l0 430 507 -5z"/>
   <path class="fil8" d="M2167 597l499 3 1 -392c-32,-128 31,-41 -79,-68 -121,83 -250,98 -404,115l-17 342z"/>
   <polygon class="fil6" points="1655,1327 1159,1326 1163,1592 1655,1592 "/>
   <path class="fil9" d="M2064 1791c-24,120 -39,231 -139,288 -106,-9 -43,14 -67,-47 -53,-44 -2,67 -62,-75 -30,-73 -14,-68 -19,-118l-63 -178c90,-4 147,10 206,10 49,0 114,-13 194,-10l-50 130zm-377 319l482 0 2 -482 -498 -5 14 487z"/>
   <path class="fil6" d="M166 1585l488 -5 0 -216c-159,-49 -333,-27 -505,-34l17 255z"/>
   <path class="fil10" d="M2028 821l66 87 -69 136c-136,26 -228,57 -276,-62 -25,-53 11,-4 17,-101 8,-111 -56,-18 -1,-195 118,-93 175,-105 301,-19 -21,127 8,16 -53,61l15 93zm145 258l-6 -482 -478 -4 -3 489 487 -3z"/>
   <path class="fil8" d="M149 1330c172,7 346,-15 505,34l-2 -242 -503 -8 0 216z"/>
   <polygon class="fil6" points="2626,1577 2663,1354 2198,1337 2186,1593 "/>
   <polygon class="fil8" points="1159,1326 1655,1327 1651,1112 1154,1118 "/>
   <polygon class="fil8" points="2198,1337 2663,1354 2666,1127 2205,1119 "/>
   <path class="fil9" d="M867 1756c99,-25 -1,3 74,-59 73,-59 -43,-58 136,-43 55,117 59,309 -9,399l-73 -3c-75,-93 -27,-98 -95,-180 -61,123 19,85 -73,194l-84 -2c-41,-127 -32,-266 -13,-399 166,-4 120,-33 137,93zm-214 353l475 2 18 -489 -491 7 -2 480z"/>
   <path class="fil11" d="M830 1021c-98,-42 -78,12 -77,-178 1,-175 -12,-134 77,-180 43,87 46,275 0,358zm216 -35l-130 34c73,-158 78,-152 23,-318 30,-37 -100,-39 80,-27 -104,-106 -166,-73 -325,-78l42 448c103,27 285,67 310,-59z"/>
   <path class="fil10" d="M1046 986c-25,126 -207,86 -310,59l-42 -448c159,5 221,-28 325,78l21 12c119,55 101,227 6,299zm-397 82l475 -7 9 -484 -480 21 -4 470z"/>
   <path class="fil12" d="M795 1695c61,80 70,251 0,326 -72,-78 -59,-251 0,-326zm200 355l-29 -280 -75 36 -24 -50c-17,-126 29,-97 -137,-93 -19,133 -28,272 13,399l84 2c92,-109 12,-71 73,-194 68,82 20,87 95,180z"/>
   <path class="fil13" d="M1749 982l50 -43 56 20 16 -80 101 21c-156,-92 -147,-6 -189,-184l109 64c-72,-180 -34,-68 21,-94l83 -2 17 44c61,-45 32,66 53,-61 -126,-86 -183,-74 -301,19 -55,177 9,84 1,195 -6,97 -42,48 -17,101z"/>
   <path class="fil14" d="M1777 1839l-17 -143c129,11 130,117 154,260 69,-39 53,72 60,-99l-66 -56 68 -19 20 -20c-7,-8 -33,-29 -35,-44 -3,-15 -10,-22 -18,-30 193,14 92,-20 116,75l5 28 50 -130c-80,-3 -145,10 -194,10 -59,0 -116,-14 -206,-10l63 178z"/>
   <path class="fil15" d="M1046 986c57,-141 60,-164 -6,-299l-21 -12c-180,-12 -50,-10 -80,27 55,166 50,160 -23,318l130 -34z"/>
   <path class="fil16" d="M830 1021c46,-83 43,-271 0,-358 -89,46 -76,5 -77,180 -1,190 -21,136 77,178z"/>
   <path class="fil17" d="M966 1770l29 280 73 3c3,-131 21,-267 -27,-371 -68,29 -51,-64 -75,88z"/>
   <path class="fil2" d="M1777 1839c66,72 61,87 81,193l88 -22c-19,-33 -2,-21 -32,-54 -24,-143 -25,-249 -154,-260l17 143z"/>
   <path class="fil12" d="M1972 900l-9 80 -58 -12c-80,50 104,60 -100,37l-56 -23c48,119 140,88 276,62l69 -136 -66 -87 4 14 0 123c-44,-150 -13,-8 -60,-58z"/>
   <path class="fil18" d="M867 1756l24 50 75 -36c24,-152 7,-59 75,-88 48,104 30,240 27,371 68,-90 64,-282 9,-399 -179,-15 -63,-16 -136,43 -75,62 25,34 -74,59z"/>
   <path class="fil19" d="M1974 1857c-7,171 9,60 -60,99 30,33 13,21 32,54l-88 22c24,61 -39,38 67,47 100,-57 115,-168 139,-288l-5 -28 -63 -1 -20 20 -2 75z"/>
   <path class="fil20" d="M795 1695c-59,75 -72,248 0,326 70,-75 61,-246 0,-326z"/>
   <polygon class="fil21" points="653,2109 453,2110 639,2315 "/>
   <path class="fil22" d="M1972 900c47,50 16,-92 60,58l0 -123 -140 -55 -109 -64c42,178 33,92 189,184z"/>
   <path class="fil23" d="M2169 2110l-6 183c108,-52 118,-72 176,-180l-170 -3z"/>
   <path class="fil24" d="M1892 780l140 55 -4 -14 -15 -93 -100 -42c-55,26 -93,-86 -21,94z"/>
   <polygon class="fil25" points="1905,968 1963,980 1972,900 1871,879 1855,959 "/>
   <path class="fil26" d="M1046 986c95,-72 113,-244 -6,-299 66,135 63,158 6,299z"/>
   <path class="fil27" d="M439 219c-73,-70 -95,-69 -214,-78 84,76 89,67 214,78z"/>
   <path class="fil13" d="M1858 2032c-20,-106 -15,-121 -81,-193 5,50 -11,45 19,118 60,142 9,31 62,75z"/>
   <path class="fil22" d="M1749 982l56 23c204,23 20,13 100,-37l-50 -9 -56 -20 -50 43z"/>
   <path class="fil28" d="M1996 1762l63 1c-24,-95 77,-61 -116,-75 8,8 15,15 18,30 2,15 28,36 35,44z"/>
   <polygon class="fil29" points="1974,1857 1976,1782 1908,1801 "/>
   <polygon class="fil30" points="2013,728 1996,684 1913,686 "/>
  </g>
 </g>
</svg>
