<?xml version="1.0" encoding="UTF-8"?>
<!DOCTYPE svg PUBLIC "-//W3C//DTD SVG 1.1//EN" "http://www.w3.org/Graphics/SVG/1.1/DTD/svg11.dtd">
<!-- Creator: CorelDRAW X8 -->
<svg xmlns="http://www.w3.org/2000/svg" xml:space="preserve" width="78.105mm" height="76.527mm" version="1.1" style="shape-rendering:geometricPrecision; text-rendering:geometricPrecision; image-rendering:optimizeQuality; fill-rule:evenodd; clip-rule:evenodd"
viewBox="0 0 7811 7653"
 xmlns:xlink="http://www.w3.org/1999/xlink">
 <defs>
  <style type="text/css">
   <![CDATA[
    .fil0 {fill:#00AEEF}
    .fil1 {fill:#FEFEFE}
   ]]>
  </style>
 </defs>
 <g id="Layer_x0020_1">
  <metadata id="CorelCorpID_0Corel-Layer"/>
  <g id="_218304252208">
   <path class="fil0" d="M4012 7574l0 79 3708 0c60,0 79,-18 79,-79l0 -3681c-1113,0 -2727,767 -3270,1858 -32,63 -48,94 -79,157 -32,65 -44,109 -70,167 -160,352 -368,1103 -368,1499z"/>
   <path class="fil1" d="M2749 1236l0 1499 -1472 0c124,-258 204,-616 559,-913 51,-43 52,-31 105,-79 190,-173 560,-486 808,-507zm-2735 2499l3735 0c60,0 79,-19 79,-79l0 -3656c-878,0 -2129,507 -2729,1111 -526,530 -765,1083 -948,1814 -50,202 -137,605 -137,810z"/>
   <path class="fil1" d="M4012 3735l3813 0 0 -1000 -2551 0c117,-244 239,-670 563,-910 241,-178 493,-491 910,-589l0 605 1078 0 0 -1841c-534,0 -1211,187 -1614,386 -390,192 -542,267 -853,513 -700,551 -985,1136 -1210,2026 -31,126 -61,270 -81,392 -20,125 -55,292 -55,418z"/>
   <path class="fil1" d="M14 7574l0 79 3708 0c61,0 79,-18 79,-79l0 -920 -2524 0c24,-296 367,-792 563,-936 93,-70 116,-112 194,-174 72,-56 138,-102 211,-157 278,-209 294,-157 504,-258l0 631 1052 0 0 -1867c-735,0 -1989,473 -2531,966 -343,312 -487,437 -739,892 -145,262 -307,721 -380,1013 -55,223 -137,552 -137,810z"/>
  </g>
 </g>
</svg>
