<?xml version="1.0" encoding="UTF-8"?>
<!DOCTYPE svg PUBLIC "-//W3C//DTD SVG 1.1//EN" "http://www.w3.org/Graphics/SVG/1.1/DTD/svg11.dtd">
<!-- Creator: CorelDRAW X8 -->
<svg xmlns="http://www.w3.org/2000/svg" xml:space="preserve" width="51.505mm" height="27.516mm" version="1.1" style="shape-rendering:geometricPrecision; text-rendering:geometricPrecision; image-rendering:optimizeQuality; fill-rule:evenodd; clip-rule:evenodd"
viewBox="0 0 5150 2752"
 xmlns:xlink="http://www.w3.org/1999/xlink">
 <defs>
  <style type="text/css">
   <![CDATA[
    .fil0 {fill:#EC1C24}
   ]]>
  </style>
 </defs>
 <g id="Layer_x0020_1">
  <metadata id="CorelCorpID_0Corel-Layer"/>
  <g id="_218304248752">
   <path class="fil0" d="M567 1699l141 0 0 564 -247 0c45,-94 103,-426 106,-564zm-318 0c0,153 -17,211 -43,345 -36,190 11,214 -204,219l0 247c318,74 788,35 1129,35l0 -282 -106 0 0 -847 -776 0 0 283z"/>
   <path class="fil0" d="M4236 2440c0,168 243,115 318,35l317 -494c0,528 -62,564 176,564 81,0 106,-24 106,-105l0 -1024 -247 0c-57,86 -110,162 -170,254 -37,57 -46,80 -78,134l-105 142 0 -530 -317 0 0 1024z"/>
   <path class="fil0" d="M1766 2263l-141 0 0 -176c239,0 247,-12 247,141 -43,24 -38,35 -106,35zm-35 -423l-106 0 0 -141 212 0c-9,99 1,141 -106,141zm-423 600c0,210 588,86 683,48 118,-48 350,-311 57,-507 430,-642 -455,-565 -740,-565l0 1024z"/>
   <path class="fil0" d="M2331 2440c0,171 256,105 705,105 134,0 106,-82 106,-282l-494 0 0 -176 423 0 0 -247 -423 0 0 -141 494 0 0 -283 -811 0 0 1024z"/>
   <path class="fil0" d="M3742 1875l-141 0 0 -176c239,0 247,-12 247,141 -43,24 -38,35 -106,35zm-459 -353l0 918c0,154 318,154 318,0l0 -318c351,0 564,23 564,-423 0,-107 -175,-283 -423,-283 -323,0 -459,-44 -459,106z"/>
   <path class="fil0" d="M2190 711c142,12 246,64 246,212 0,21 -48,73 -70,105 -167,-88 -230,-109 -176,-317zm246 -106c0,-408 424,-248 424,106 0,392 -424,275 -424,-106zm-35 -247c31,-370 635,-376 635,282 0,241 -148,417 -247,565 -266,0 -194,-25 -388,-71l112 -135c331,58 417,21 417,-359 0,-113 -87,-264 -175,-319 -149,-93 -229,-46 -354,37zm-106 247c-201,5 -115,18 -247,106 0,445 333,598 777,635 33,-126 352,-402 352,-741 0,-283 -177,-600 -564,-600 -264,0 -434,357 -318,600z"/>
   <polygon class="fil0" points="2,2757 5153,2757 5153,2686 2,2686 "/>
   <path class="fil0" d="M2 1275l1976 0c97,0 85,-27 106,-105l-2082 0 0 105z"/>
   <path class="fil0" d="M3107 1205c41,59 5,70 106,70l1940 0 0 -105 -1940 0c-42,0 -98,25 -106,35z"/>
  </g>
 </g>
</svg>
