<?xml version="1.0" encoding="UTF-8"?>
<!DOCTYPE svg PUBLIC "-//W3C//DTD SVG 1.1//EN" "http://www.w3.org/Graphics/SVG/1.1/DTD/svg11.dtd">
<!-- Creator: CorelDRAW X8 -->
<svg xmlns="http://www.w3.org/2000/svg" xml:space="preserve" width="95.22mm" height="40.9218mm" version="1.1" style="shape-rendering:geometricPrecision; text-rendering:geometricPrecision; image-rendering:optimizeQuality; fill-rule:evenodd; clip-rule:evenodd"
viewBox="0 0 9522 4092"
 xmlns:xlink="http://www.w3.org/1999/xlink">
 <defs>
  <style type="text/css">
   <![CDATA[
    .fil0 {fill:#341C78}
    .fil4 {fill:#B61F32}
    .fil1 {fill:#B62032}
    .fil15 {fill:#B62233}
    .fil9 {fill:#C37946}
    .fil13 {fill:#C47F47}
    .fil7 {fill:#C48047}
    .fil8 {fill:#C58448}
    .fil14 {fill:#C58649}
    .fil10 {fill:#C58749}
    .fil6 {fill:#C58849}
    .fil11 {fill:#C68B4A}
    .fil12 {fill:#C68D4A}
    .fil16 {fill:#C68E4A}
    .fil17 {fill:#C6904B}
    .fil5 {fill:#C7934C}
    .fil3 {fill:#DF2525}
    .fil2 {fill:#FFFFFE}
   ]]>
  </style>
 </defs>
 <g id="Layer_x0020_1">
  <metadata id="CorelCorpID_0Corel-Layer"/>
  <g id="_218385050880">
   <path class="fil0" d="M524 2702l1914 7c-73,-181 -274,-100 -315,-288l-62 -244c-66,-302 94,-258 133,-264 50,-340 -68,-154 -108,-387 90,-59 28,8 88,-87 -47,-50 -45,-50 -98,-80 -108,116 -51,75 -114,223 -143,-35 4,2 -214,-161 -224,-166 -28,-50 -247,-116l-1147 1c-41,161 -161,222 -127,421 73,107 156,121 215,193 123,151 22,184 -137,147 73,116 128,136 128,307 -80,38 -55,-4 -124,75 33,121 147,186 215,253z"/>
   <path class="fil1" d="M7088 2392l-3 1519 268 0 0 -2329 -268 0c-18,173 -338,1046 -432,1345 -72,230 -42,124 -92,177l1 -1517 -263 5 8 2313 244 -1 537 -1512z"/>
   <path class="fil2" d="M2438 2709l-1914 -7c51,157 73,106 191,184l234 135 7 120c-86,58 -55,44 -181,52 42,198 83,313 189,425 54,56 94,47 123,165 25,106 -5,146 52,240 70,-121 20,-77 48,-218 155,-76 125,-111 225,-147 61,79 16,55 93,113l33 -172c449,57 193,1 401,-39 77,-14 154,-22 228,-38 -3,-144 -44,-187 -21,-334 29,-181 60,-176 140,-188l31 -3c61,-121 240,-158 121,-288z"/>
   <path class="fil3" d="M354 1306l1147 -1 83 -121c-36,-37 -38,-42 -66,-91l69 -141c-91,-36 -148,-51 -225,-98 -91,-56 -98,-88 -206,-138l-7 -284c-123,-67 -205,-193 -288,-290 -80,-93 -422,-52 -427,-49 -61,56 -55,74 -105,137l-194 -3c-159,400 36,63 13,544l244 200c-58,38 -107,36 -184,64l-55 181c155,2 142,-18 201,90z"/>
   <path class="fil4" d="M5376 3621c-2,-131 -1,-262 -1,-393 0,-177 -34,-334 48,-364 196,3 314,59 340,254 45,328 -27,594 -387,503zm6 -1045c-12,-128 -6,-258 -6,-387 0,-354 -102,-302 486,-302l1 -302 -756 0 15 2316c520,0 842,35 886,-538 16,-206 -6,-434 -103,-590 -112,-179 -296,-153 -523,-197z"/>
   <path class="fil1" d="M8719 3134c2,-279 120,-872 184,-1136l156 1139 -340 -3zm-58 270l456 -1 111 500 250 -4 -414 -2316 -288 1 -442 2324 226 0 101 -504z"/>
   <path class="fil4" d="M4163 1854c320,1 388,68 387,393 0,311 -80,371 -386,374l-1 -767zm3 1066c228,-87 379,18 514,-202 92,-150 122,-381 105,-588 -50,-639 -438,-543 -866,-543l0 2319 247 0 0 -986z"/>
   <path class="fil1" d="M3562 3612c-262,21 -358,92 -455,-177 -111,-307 -103,-1026 3,-1335 81,-239 174,-261 451,-189l-5 -279c-297,-205 -560,33 -657,255 -200,461 -320,2138 469,2073 255,-20 194,-113 194,-348z"/>
   <path class="fil5" d="M1501 1305c219,66 23,-50 247,116 218,163 71,126 214,161 63,-148 6,-107 114,-223 53,30 51,30 98,80 -60,95 2,28 -88,87 40,233 158,47 108,387 -39,6 -199,-38 -133,264l62 244c41,188 242,107 315,288 119,130 -60,167 -121,288l-31 3c-80,12 -111,7 -140,188 -23,147 18,190 21,334 -74,16 -151,24 -228,38 -208,40 48,96 -401,39l-33 172c-77,-58 -32,-34 -93,-113 -100,36 -70,71 -225,147 -28,141 22,97 -48,218 -57,-94 -27,-134 -52,-240 -29,-118 -69,-109 -123,-165 -106,-112 -147,-227 -189,-425 126,-8 95,6 181,-52l-7 -120 -234 -135c-118,-78 -140,-27 -191,-184 -68,-67 -182,-132 -215,-253 69,-79 44,-37 124,-75 0,-171 -55,-191 -128,-307 159,37 260,4 137,-147 -59,-72 -142,-86 -215,-193 -34,-199 86,-260 127,-421 -59,-108 -46,-88 -201,-90l55 -181c77,-28 126,-26 184,-64l-244 -200c23,-481 -172,-144 -13,-544l194 3c50,-63 44,-81 105,-137 5,-3 347,-44 427,49 83,97 165,223 288,290l7 284c108,50 115,82 206,138 77,47 134,62 225,98l-69 141c28,49 30,54 66,91l-83 121zm-1185 -1136l-202 0c-51,76 -72,120 -116,202 244,508 -36,325 156,479 61,50 11,-18 75,70 -105,157 -115,63 -115,346l173 0c-4,158 -14,89 -78,211 -193,368 166,359 222,568 -415,-199 -58,222 -58,231 0,90 -52,81 -115,115 0,248 80,167 208,340 201,272 65,75 251,240 157,140 159,-25 176,170 -162,0 -180,-9 -159,126 33,203 126,362 303,480 0,119 -7,236 71,333 3,3 10,9 15,14 101,-68 116,-95 116,-260 109,-29 84,-56 173,-116 10,125 16,113 144,116 0,-275 62,-144 260,-144 27,0 64,-71 175,-85 163,-22 100,9 229,-60 0,-136 -22,-150 -28,-233 -10,-114 25,-96 28,-228l144 0c10,-115 12,-85 80,-152 249,-247 -77,-413 -253,-454 -6,-284 -87,-138 -87,-491 75,-6 86,0 124,-50 130,-172 -37,-310 -66,-354l54 -65c101,-17 94,-13 119,-108 -59,-28 -80,-18 -131,-42 0,0 -190,-224 -273,129 -139,-103 -212,-231 -346,-231l87 -29c-10,-113 17,-88 -87,-115 13,-156 58,-85 58,-145 0,-110 -120,-101 -202,-144 -86,-44 -129,-117 -231,-144l0 -318c-138,-11 -296,-228 -375,-346l-212 16c-54,4 -251,-83 -307,128z"/>
   <path class="fil1" d="M7827 3605c-145,34 -121,34 -265,-7 0,247 -67,398 280,340 340,-56 327,-514 332,-825 8,-508 2,-1020 2,-1528l-253 6c0,427 72,1763 -96,2014z"/>
   <path class="fil6" d="M6551 3904l-244 1 -8 -2313 263 -5 -1 1517c50,-53 20,53 92,-177 94,-299 414,-1172 432,-1345l268 0 0 2329 -268 0 3 -1519 -537 1512zm-291 45l346 0c5,-223 404,-1112 404,-1269l29 1269 346 0 0 -2395 -346 0c-5,227 -404,1161 -404,1328l-29 -1328 -346 0 0 2395z"/>
   <path class="fil6" d="M9049 974c-111,327 62,244 -135,270 -15,-28 -41,-8 -17,-134 8,-45 26,-102 36,-150l140 -745c6,-30 9,-176 130,-139 90,28 237,1076 248,1158l-104 10 -71 -282 -159 -10c-66,8 -56,17 -68,22zm-657 271l-131 -11 0 -1148 131 -11 2 441 243 0 7 -433 129 -9 0 1171 -119 -5 -14 -564 -248 0 0 569zm-170 50l202 0 0 -577 173 0 0 577 433 0c28,-343 47,-289 230,-289 0,154 26,162 29,289l202 0 -103 -676c-84,-426 -38,-594 -243,-594 -118,0 -134,311 -180,542 -35,175 -109,435 -109,641l-28 -952c2,-245 33,-231 -231,-231l0 462 -173 0 0 -462 -202 0 0 1270z"/>
   <path class="fil1" d="M7200 708c147,1 225,-21 256,112 23,96 -7,183 -34,253l-218 19 -4 -115 0 -269zm3 -486l171 17c52,55 93,120 56,235 -34,107 -110,86 -227,87l0 -339zm278 409c72,-90 142,-272 59,-445 -69,-143 -289,-113 -467,-107l0 1162c211,7 424,36 494,-136 92,-223 19,-333 -86,-474z"/>
   <path class="fil1" d="M4702 1246c7,-141 181,-582 260,-696l2 695 134 -7 0 -1159 -134 -2c0,238 -159,555 -260,773l-2 -776 -134 13 0 1146 134 13z"/>
   <polygon class="fil1" points="5392,677 5639,677 5638,1230 5773,1245 5773,75 5639,90 5636,516 5394,516 5392,75 5259,85 5259,1235 5392,1245 "/>
   <path class="fil1" d="M3951 949l123 -515 137 648 -271 -1 11 -132zm-184 173l0 251c124,-29 66,42 98,-131l432 0 89 116c13,-521 -14,-57 -81,-444l-143 -836c-185,0 -128,-12 -184,233 -34,148 -97,686 -177,780l-34 31z"/>
   <polygon class="fil1" points="8392,676 8640,676 8654,1240 8773,1245 8773,74 8644,83 8637,516 8394,516 8392,75 8261,86 8261,1234 8392,1245 "/>
   <path class="fil7" d="M5382 2576c227,44 411,18 523,197 97,156 119,384 103,590 -44,573 -366,538 -886,538l-15 -2316 756 0 -1 302c-588,0 -486,-52 -486,302 0,129 -6,259 6,387zm-306 1373c615,0 982,94 982,-779 0,-190 -68,-365 -155,-480 -89,-117 -284,-155 -480,-155l0 -606 490 0 0 -375 -837 0 0 2395z"/>
   <path class="fil8" d="M8560 3908l-226 0 442 -2324 288 -1 414 2316 -250 4 -111 -500 -456 1 -101 504zm-281 41l318 0c29,-124 83,-352 86,-490l404 0c31,131 87,341 87,490l346 0 -353 -2013c-85,-421 59,-382 -426,-382l-407 2075c-16,102 -52,205 -55,320z"/>
   <path class="fil9" d="M4166 2920l0 986 -247 0 0 -2319c428,0 816,-96 866,543 17,207 -13,438 -105,588 -135,220 -286,115 -514,202zm-301 1029l346 0 0 -1010c232,0 383,14 514,-206 226,-378 120,-1179 -312,-1179l-548 0 0 2395z"/>
   <path class="fil1" d="M9169 311l81 509 -182 -1 101 -508zm-120 663c12,-5 2,-14 68,-22l159 10 71 282 104 -10c-11,-82 -158,-1130 -248,-1158 -121,-37 -124,109 -130,139l-140 745c-10,48 -28,105 -36,150 -24,126 2,106 17,134 197,-26 24,57 135,-270z"/>
   <path class="fil10" d="M3562 3612c0,235 61,328 -194,348 -789,65 -669,-1612 -469,-2073 97,-222 360,-460 657,-255l5 279c-277,-72 -370,-50 -451,189 -106,309 -114,1028 -3,1335 97,269 193,198 455,177zm-852 -903c0,657 160,1601 895,1211l0 -375c-191,45 -89,58 -346,58 -114,-169 -99,-69 -157,-363 -73,-366 -15,-522 -16,-704 -1,-106 -3,-148 16,-244 58,-293 43,-193 157,-363 156,0 205,-9 346,58l0 -404c-177,-41 -6,-57 -346,-57 -443,0 -549,807 -549,1183z"/>
   <polygon class="fil4" points="3369,228 3605,228 3605,76 3233,76 3230,1243 3605,1243 3605,1088 3367,1088 3370,718 3605,718 3605,567 3368,567 "/>
   <path class="fil7" d="M7827 3605c168,-251 96,-1587 96,-2014l253 -6c0,508 6,1020 -2,1528 -5,311 8,769 -332,825 -347,58 -280,-93 -280,-340 144,41 120,41 265,7zm48 -348c0,372 -129,339 -346,288l0 404c545,127 693,-118 693,-808l0 -1587 -347 0 0 1703z"/>
   <polygon class="fil1" points="7710,1238 8082,1243 8082,1088 7848,1088 7842,718 8081,718 8082,567 7850,567 7842,227 8082,227 8082,76 7710,78 "/>
   <path class="fil11" d="M5392 1245l-133 -10 0 -1150 133 -10 2 441 242 0 3 -426 134 -15 0 1170 -135 -15 1 -553 -247 0 0 568zm-171 50l202 0 0 -577 173 0 0 577c317,0 231,139 231,-1183 0,-110 -68,-87 -231,-87l0 462 -173 0 0 -462 -202 0 0 1270z"/>
   <path class="fil12" d="M4702 1246l-134 -13 0 -1146 134 -13 2 776c101,-218 260,-535 260,-773l134 2 0 1159 -134 7 -2 -695c-79,114 -253,555 -260,696zm-174 49l202 0c0,-240 173,-425 173,-577l29 577 202 0 0 -1270 -202 0c0,173 -91,507 -202,635l0 -635 -202 0 0 1270z"/>
   <path class="fil1" d="M6114 1256l172 -1c23,-46 21,-12 33,-77 4,-22 2,-69 2,-92l-184 17c-97,-201 -174,-694 26,-891l151 2 2 -151c-537,-137 -505,947 -202,1193z"/>
   <path class="fil1" d="M6764 240l169 -1 0 -162 -498 0 0 162 163 0c50,112 20,823 20,997l129 7c0,-253 -25,-783 17,-1003z"/>
   <path class="fil13" d="M3801 1091c80,-94 143,-632 177,-780 56,-245 -1,-233 184,-233l143 836c67,387 94,-77 81,444l-89 -116 -432 0c-32,173 26,102 -98,131l0 -251 34 -31zm6 -56l-87 0 0 375 173 0 0 -115 376 0 0 115 173 0 0 -375 -87 0 -127 -796c-42,-218 43,-214 -248,-214l-84 493c-30,150 -89,359 -89,517z"/>
   <path class="fil14" d="M7710 78l372 -2 0 151 -240 0 8 340 232 0 -1 151 -239 0 6 370 234 0 0 155 -372 -5 0 -1160zm-37 1217c503,0 462,40 462,-173 0,-113 -74,-87 -260,-87l0 -289 260 0c0,-263 32,-230 -260,-230l0 -260 260 0c0,-282 61,-231 -462,-231l0 1270z"/>
   <path class="fil15" d="M2896 1080l-143 22c0,178 5,172 191,156l67 -63c107,-234 61,-818 62,-1107l-45 -13 -88 0c0,269 57,805 -44,1005z"/>
   <path class="fil11" d="M6114 1256c-303,-246 -335,-1330 202,-1193l-2 151 -151 -2c-200,197 -123,690 -26,891l184 -17c0,23 2,70 -2,92 -12,65 -10,31 -33,77l-172 1zm59 39c216,0 202,-30 202,-260 -154,13 -289,170 -289,-404 0,-154 30,-252 58,-375 230,0 231,105 231,-202 -333,-176 -473,128 -490,347 -22,271 -59,353 33,658 35,117 92,236 255,236z"/>
   <path class="fil6" d="M3368 567l237 0 0 151 -235 0 -3 370 238 0 0 155 -375 0 3 -1167 372 0 0 152 -236 0 -1 339zm-167 728l433 0 0 -260 -231 0 0 -289 231 0 0 -230 -231 0 0 -260 231 0 0 -231 -433 0 0 1270z"/>
   <path class="fil8" d="M6435 77l498 0 0 162 -169 1c-42,220 -17,750 -17,1003l-129 -7c0,-174 30,-885 -20,-997l-163 0 0 -162zm-31 208l173 0 0 1010 202 0 0 -1010 202 0c0,-325 84,-260 -577,-260l0 260z"/>
   <path class="fil14" d="M7481 631c105,141 178,251 86,474 -70,172 -283,143 -494,136l0 -1162c178,-6 398,-36 467,107 83,173 13,355 -59,445zm-442 664c286,0 606,47 606,-375 0,-134 -38,-232 -116,-289 137,-204 183,-606 -288,-606l-202 0 0 1270z"/>
   <path class="fil7" d="M8885 2276l29 0c0,134 82,737 116,808l-260 0 115 -808zm-166 858l340 3 -156 -1139c-64,264 -182,857 -184,1136z"/>
   <path class="fil6" d="M2896 1080c101,-200 44,-736 44,-1005l88 0 45 13c-1,289 45,873 -62,1107 54,-13 36,17 75,-16 42,-509 28,-618 28,-1154l-202 0 -16 1055z"/>
   <path class="fil9" d="M5423 3603l0 -692c281,0 305,93 306,346 0,226 -55,340 -306,346zm-47 18c360,91 432,-175 387,-503 -26,-195 -144,-251 -340,-254 -82,30 -48,187 -48,364 0,131 -1,262 1,393z"/>
   <path class="fil8" d="M4413 2564l-202 0 0 -663c321,0 288,118 288,461 0,105 -44,141 -86,202zm-249 57c306,-3 386,-63 386,-374 1,-325 -67,-392 -387,-393l1 767z"/>
   <path class="fil7" d="M3951 949c82,40 62,-23 81,-121 14,-71 35,-144 35,-197l28 0c0,168 55,249 58,404 -196,0 -126,37 -202,-86zm0 0l-11 132 271 1 -137 -648 -123 515z"/>
   <path class="fil6" d="M7241 1064l0 -318c104,3 173,13 173,116l0 86 0 58c-68,36 -75,50 -173,58zm-41 -87l4 115 218 -19c27,-70 57,-157 34,-253 -31,-133 -109,-111 -256,-112l0 269z"/>
   <path class="fil16" d="M7241 516l0 -260c77,6 78,13 144,29 0,197 46,226 -144,231zm-38 45c117,-1 193,20 227,-87 37,-115 -4,-180 -56,-235l-171 -17 0 339z"/>
   <path class="fil6" d="M9145 544l29 0c0,138 19,120 29,231l-87 0c9,-111 29,-93 29,-231zm-77 275l182 1 -81 -509 -101 508z"/>
   <path class="fil17" d="M3011 1195l-67 63c-186,16 -191,22 -191,-156l143 -22c-88,-18 -118,-29 -186,-45 0,125 -32,228 61,258 10,3 156,3 168,0 136,-32 75,-36 72,-98z"/>
  </g>
 </g>
</svg>
