<?xml version="1.0" encoding="UTF-8"?>
<!DOCTYPE svg PUBLIC "-//W3C//DTD SVG 1.1//EN" "http://www.w3.org/Graphics/SVG/1.1/DTD/svg11.dtd">
<!-- Creator: CorelDRAW X8 -->
<svg xmlns="http://www.w3.org/2000/svg" xml:space="preserve" width="94.1918mm" height="34.33mm" version="1.1" style="shape-rendering:geometricPrecision; text-rendering:geometricPrecision; image-rendering:optimizeQuality; fill-rule:evenodd; clip-rule:evenodd"
viewBox="0 0 9419 3433"
 xmlns:xlink="http://www.w3.org/1999/xlink">
 <defs>
  <style type="text/css">
   <![CDATA[
    .fil0 {fill:black}
    .fil2 {fill:#0055A3}
    .fil1 {fill:#00A84F}
    .fil4 {fill:#8F8F8F}
    .fil5 {fill:#9F9F9F}
    .fil6 {fill:#AFAFAF}
    .fil9 {fill:#FEF4AF}
    .fil3 {fill:#FFDD00}
    .fil8 {fill:#FFF19F}
    .fil7 {fill:#FFF9CF}
   ]]>
  </style>
 </defs>
 <g id="Layer_x0020_1">
  <metadata id="CorelCorpID_0Corel-Layer"/>
  <g id="_218385046080">
   <path class="fil0" d="M7015 3113c0,400 1227,496 1524,-64l739 -2013c34,-95 128,-327 136,-428l-776 0c-68,128 -759,1952 -776,2152l-71 -2152 -776 0 0 2505z"/>
   <path class="fil0" d="M4828 1419c0,350 115,523 357,702 187,138 478,252 596,427 -67,285 -340,218 -778,211 -272,-5 -289,-56 -325,169 -21,132 -62,277 -62,432 718,167 2011,112 2011,-812l0 -176c0,-641 -889,-654 -988,-1023 236,-158 427,-113 747,-77 446,51 382,127 382,-523 0,-207 -824,-176 -987,-176 -516,0 -953,321 -953,846z"/>
   <path class="fil0" d="M3112 1737l-19 116 77 -23c121,-7 229,-91 388,-128 -90,170 -394,651 -423,776l564 600c92,62 64,-71 75,58 -19,14 51,108 -103,12 -86,-37 -428,-107 -536,-88l-117 -25 32 78c57,204 363,308 578,318 340,15 586,-10 847,-71 5,-212 71,-343 71,-600 -1074,0 -865,271 -585,-1431 40,-244 108,-498 126,-721l-811 0c-7,313 -203,852 -164,1129z"/>
   <path class="fil1" d="M701 2160c-199,-46 -412,-203 -600,-247 10,129 212,433 282,565 -56,84 -116,136 -191,232 -88,111 -163,133 -197,262 225,-5 380,-106 635,-106 23,86 97,201 143,280 47,83 102,196 174,249 37,-156 71,-446 71,-635l499 -100c164,-45 44,49 136,-76 -86,-20 -564,-214 -564,-283 0,-255 35,-353 35,-599 -139,92 -331,320 -423,458z"/>
   <path class="fil2" d="M1477 608l-635 0c110,164 364,230 494,423 -45,192 -161,411 -177,600 751,-397 246,-544 1058,0 -2,-106 -139,-558 -176,-635 90,-47 482,-323 529,-388l-670 0c-16,-189 -132,-409 -176,-600l-71 0c-13,152 -122,486 -176,600z"/>
   <path class="fil3" d="M2291 1808c-8,244 32,316 32,529 -176,93 -360,143 -540,247 1,0 65,70 65,70 59,6 454,88 478,103 106,68 63,86 71,247 7,159 29,133 32,281 65,84 2,5 71,53 106,-157 198,-313 282,-472 221,5 414,101 635,106 -123,-232 -265,-262 -388,-494 42,-183 215,-326 237,-494l-25 -32c-115,21 -157,40 -259,90 -103,51 -180,75 -271,118 -35,-53 -346,-394 -388,-420l-32 68z"/>
   <path class="fil4" d="M3671 3148c154,96 84,2 103,-12 -11,-129 17,4 -75,-58l-28 70z"/>
   <path class="fil5" d="M3050 3113l-32 -78 117 25c-58,-58 91,-53 -141,-53 0,200 -12,41 56,106z"/>
   <path class="fil6" d="M3170 1830l-77 23 19 -116c-47,52 -48,-78 -48,141 200,0 42,9 106,-48z"/>
   <path class="fil7" d="M2291 1808l32 -68c-36,-47 58,-38 -70,-38 0,193 -4,47 38,106z"/>
   <path class="fil8" d="M2500 3338c-69,-48 -6,31 -71,-53l0 110c85,-22 37,14 71,-57z"/>
   <path class="fil9" d="M3266 1984c56,-37 45,57 45,-71 -142,0 -16,-6 -70,39l25 32z"/>
   <path class="fil7" d="M1848 2654c0,0 -64,-70 -65,-70l-27 70 92 0z"/>
  </g>
 </g>
</svg>
