<?xml version="1.0" encoding="UTF-8"?>
<!DOCTYPE svg PUBLIC "-//W3C//DTD SVG 1.1//EN" "http://www.w3.org/Graphics/SVG/1.1/DTD/svg11.dtd">
<!-- Creator: CorelDRAW X8 -->
<svg xmlns="http://www.w3.org/2000/svg" xml:space="preserve" width="49.735mm" height="40.276mm" version="1.1" style="shape-rendering:geometricPrecision; text-rendering:geometricPrecision; image-rendering:optimizeQuality; fill-rule:evenodd; clip-rule:evenodd"
viewBox="0 0 4974 4028"
 xmlns:xlink="http://www.w3.org/1999/xlink">
 <defs>
  <style type="text/css">
   <![CDATA[
    .fil0 {fill:#FEFEFE}
    .fil1 {fill:#FFDF20}
   ]]>
  </style>
 </defs>
 <g id="Layer_x0020_1">
  <metadata id="CorelCorpID_0Corel-Layer"/>
  <g id="_218385050592">
   <path class="fil0" d="M2220 2689l75 20 -75 -20zm529 -70l-20 76 20 -76zm70 0l11 10c-1,0 -14,-7 -11,-10zm-211 -35c35,-35 128,48 42,19 -1,0 -102,40 -42,-19zm-388 0c35,-35 128,48 42,19 -1,0 -102,40 -42,-19zm-953 -106l-35 -35 35 35zm-35 -35l-35 0 29 -42 6 42zm1552 -283l0 -70c95,-46 170,-71 317,-71l0 177c-157,83 -317,92 -317,-36zm-1270 -458c228,0 212,-1 212,388 0,136 -69,141 -212,141 -221,0 -221,-529 0,-529zm1199 176l85 -127c5,-6 12,-13 17,-18 112,-111 227,-183 286,39 -122,59 -276,53 -388,106zm-952 -317l11 10c-1,0 -14,-7 -11,-10zm-847 -36l0 71 1 388c-24,-27 -24,-10 -47,-59 -34,-74 -9,-18 -24,-82 -76,-53 -46,-5 -71,-106 -84,-61 -183,-373 -529,-320 -182,27 -101,350 -106,815 -4,322 29,246 353,246l0 -565c90,61 97,94 162,191 140,209 262,454 540,408 76,-12 35,-4 74,-34 188,15 407,112 637,-69 107,-84 29,-62 139,-143 34,70 51,126 71,212l388 0 0 -106c122,33 52,24 135,76 58,37 110,48 182,65l-70 106 -76 -102c-174,7 -381,-29 -524,67l71 105 -71 0c23,44 73,195 183,80 136,-142 -164,-115 99,-185l106 0 0 211c112,-41 51,77 71,-106 78,55 43,6 70,106l318 0 0 -106c78,55 43,6 70,106l141 0 0 -106c78,55 44,6 71,106l211 -70c25,91 -13,39 71,70 -15,-174 -63,-100 -106,-282 -86,63 -76,48 -106,176l-70 0c55,-207 146,-142 -64,-131 -175,10 -96,-67 -148,61 -78,-54 -44,-6 -70,-106 -93,68 -63,78 -106,141l-40 -140c311,-74 105,-89 322,-107l282 71c-56,-677 71,-1142 -530,-1095 -296,23 45,82 -422,72 -17,207 -177,506 -177,670l-35 0c0,-164 -159,-463 -176,-670l-372 76c-60,-160 -162,-139 -435,-71 -64,16 -206,-5 -357,-5l-36 70z"/>
   <path class="fil1" d="M527 2513l-530 0c162,221 488,132 518,344 15,99 12,185 12,291 335,-225 257,-237 705,0 -41,-177 -131,-193 -176,-388 49,-33 68,-45 128,-84 119,-78 83,-30 119,-128 -439,0 -365,41 -489,-111 -44,-55 -46,-61 -90,-121 -68,-92 -111,-168 -197,-226l0 423z"/>
   <path class="fil1" d="M773 1737c76,53 47,5 71,106 5,-7 12,-26 13,-22l26 -150c16,-71 7,-37 31,-75l0 -71 1 -105 351 -42c-71,-92 -241,-167 -351,-241l0 -388c-142,95 -122,166 -318,212 -82,-55 -214,-149 -317,-176 23,87 129,264 176,352 -445,298 -21,247 141,247 67,127 141,200 176,353z"/>
   <path class="fil1" d="M1514 3148l0 141c-310,7 -284,60 -317,106 195,16 157,89 352,106 0,196 36,209 36,388 150,-110 130,-247 211,-247 81,0 230,112 353,141 -77,-146 -161,-225 -247,-353l93 -119c49,-72 60,-76 84,-163 -103,24 -241,61 -353,71 -30,-112 -151,-253 -247,-318 9,110 35,125 35,247z"/>
   <path class="fil1" d="M1267 538c-112,59 -210,78 -282,176 104,24 108,35 247,35l0 318 176 -247c178,0 183,4 318,35 -31,-117 7,-23 -60,-116 -46,-63 -46,-64 -81,-131 65,-123 111,-159 176,-282 -263,61 -220,196 -378,26 -93,-100 7,-52 -116,-96l0 282z"/>
   <path class="fil1" d="M2608 3536c-104,24 -108,35 -247,35l0 71c131,11 186,55 282,106l0 282c67,-45 39,-19 92,-85 163,-200 31,-64 366,14 -84,-317 -266,-96 0,-494 -177,0 -157,32 -317,36 -30,-114 -90,-189 -176,-247l0 282z"/>
   <path class="fil1" d="M3313 3536l211 111 1 206c147,-39 75,-15 141,-141 114,27 155,60 282,71l-148 -170c76,-109 78,-54 113,-183 -397,93 -171,-38 -424,-106 93,194 36,212 -176,212z"/>
   <path class="fil1" d="M2079 220c-96,8 -96,17 -177,36l0 70c109,9 67,0 141,35 -19,83 -33,105 -35,212l149 -133c72,11 73,19 168,27 -82,-345 7,-114 71,-353 -62,30 -114,41 -176,71l-94 -183c-32,90 -45,111 -47,218z"/>
   <path class="fil1" d="M4054 3289l174 76 2 136c123,-33 79,-14 141,-106 83,19 104,33 212,35l-112 -135c99,-68 79,-24 112,-147 -246,59 -115,65 -318,-71 -4,206 -25,169 -211,212z"/>
   <path class="fil1" d="M4583 2866l106 211c106,-28 77,1 106,-105 93,45 37,32 176,35 -94,-178 -46,-76 0,-247 -95,8 -96,17 -176,35 -25,-103 4,-51 -71,-106 -3,157 11,164 -141,177z"/>
   <path class="fil1" d="M2749 114l-177 0c121,166 101,-37 106,212 140,-74 107,-74 247,0 -12,-149 -79,-136 71,-176 -129,-178 8,31 -167,-78 -11,-6 -50,-43 -80,-63l0 105z"/>
  </g>
 </g>
</svg>
