<?xml version="1.0" encoding="UTF-8"?>
<!DOCTYPE svg PUBLIC "-//W3C//DTD SVG 1.1//EN" "http://www.w3.org/Graphics/SVG/1.1/DTD/svg11.dtd">
<!-- Creator: CorelDRAW X8 -->
<svg xmlns="http://www.w3.org/2000/svg" xml:space="preserve" width="48.992mm" height="37.753mm" version="1.1" style="shape-rendering:geometricPrecision; text-rendering:geometricPrecision; image-rendering:optimizeQuality; fill-rule:evenodd; clip-rule:evenodd"
viewBox="0 0 4899 3775"
 xmlns:xlink="http://www.w3.org/1999/xlink">
 <defs>
  <style type="text/css">
   <![CDATA[
    .fil26 {fill:#0B0904}
    .fil0 {fill:#0D346D}
    .fil31 {fill:#1060A8}
    .fil25 {fill:#181716}
    .fil8 {fill:#282519}
    .fil30 {fill:#3381B1}
    .fil5 {fill:#393728}
    .fil32 {fill:#39618F}
    .fil20 {fill:#413D2C}
    .fil23 {fill:#514C2F}
    .fil21 {fill:#655C28}
    .fil4 {fill:#938932}
    .fil24 {fill:#988826}
    .fil3 {fill:#A31C21}
    .fil17 {fill:#B4442D}
    .fil11 {fill:#B92025}
    .fil2 {fill:#BDBEC1}
    .fil16 {fill:#C6634B}
    .fil9 {fill:#D3D3D5}
    .fil29 {fill:#D41725}
    .fil19 {fill:#D5846B}
    .fil18 {fill:#D9C329}
    .fil7 {fill:#DBDBDC}
    .fil12 {fill:#E21C25}
    .fil6 {fill:#E2E4E4}
    .fil10 {fill:#E6AC95}
    .fil15 {fill:#E7E7E9}
    .fil33 {fill:#ECD61D}
    .fil1 {fill:#ED1E26}
    .fil22 {fill:#EE8D74}
    .fil27 {fill:#EED229}
    .fil13 {fill:#F36749}
    .fil28 {fill:#F7F7E9}
    .fil14 {fill:#F8C9B7}
   ]]>
  </style>
 </defs>
 <g id="Layer_x0020_1">
  <metadata id="CorelCorpID_0Corel-Layer"/>
  <g id="_218385064224">
   <path class="fil0" d="M2034 2340c-84,84 -33,59 -161,84 -186,115 -462,-14 -607,-114l-117 -44 -219 -118 -95 -46 -342 4 -111 40 -201 108 -69 563 28 91 219 -96c82,-90 336,-93 437,1l125 33 303 164c196,71 222,109 458,117l303 -124 94 -48 -76 634 741 -3 79 -681 448 -3 -70 688 752 -10c-260,-201 -382,-81 -569,-455 -174,-348 -80,-505 -7,-859l-477 13 78 -657 -737 14c-6,138 -30,291 -46,429 -24,210 -1,212 -161,275z"/>
   <path class="fil1" d="M4194 1623c-179,115 -295,101 -479,261 -71,61 -115,103 -180,179 -87,104 -79,127 -158,203 -73,354 -167,511 7,859 187,374 309,254 569,455l703 16 72 -653c-268,62 -780,107 -703,-354 75,-451 470,-307 795,-351l81 -627 -707 12z"/>
   <path class="fil2" d="M1076 3621c195,101 376,208 628,131 -55,-175 -14,-396 -22,-625 -236,-8 -262,-46 -458,-117 -43,40 -33,38 -98,45 -7,201 1,413 -50,566z"/>
   <path class="fil3" d="M1266 2310c145,100 421,229 607,114 -115,-21 -41,16 -105,-45l81 -567c-237,-6 -286,-83 -458,-92 -91,96 -16,-20 -49,299l-60 262c-1,-5 -10,19 -16,29z"/>
   <path class="fil4" d="M2458 978l-118 2c29,106 32,52 -61,72l12 140c-100,5 -93,0 -177,-29l20 75 588 -74c106,-1 -65,-3 74,7l56 6c353,2 510,7 849,124l73 -24 7 -88 -56 -153 -64 9 -7 175c-126,-59 -36,-92 -198,-2 -50,-68 -91,66 -40,-148l-111 60c-16,9 -33,40 -46,29 -12,-10 -29,17 -41,28 67,-93 -59,-58 158,-141 -79,-110 116,-109 -127,-81l-68 38c-5,8 -15,18 -19,19 -2,0 -17,4 -19,4 -68,2 -37,118 -42,-47 -39,-37 -23,-14 -92,-52l-127 13 -62 25c-46,-56 -19,-35 -118,-49l-244 62z"/>
   <path class="fil5" d="M2134 1238l-103 68 33 62c204,-79 476,-130 734,-123 -112,79 -56,78 -11,146l-722 103c3,123 -11,53 41,76 162,-45 343,-81 532,-92 215,-13 456,32 657,-8 -34,-56 27,-19 -79,-48 -12,-3 -60,-7 -75,-8 -49,-5 -105,2 -162,1l-20 -105c-13,-44 -27,-51 -48,-71 323,15 447,58 732,115 52,-70 -41,-51 58,-53 -339,-117 -496,-122 -849,-124l-56 -6c-139,-10 32,-8 -74,-7l-588 74z"/>
   <path class="fil6" d="M112 2817c-164,0 -40,54 -45,198 -2,57 -2,126 -7,180 -10,114 -27,210 -58,321l0 68 113 7c49,-96 177,-161 274,-219l17 -476c-26,-29 -33,-53 -47,-84l-219 96 -28 -91z"/>
   <path class="fil7" d="M1733 1022c153,17 100,24 134,-24 -161,-241 -17,-335 223,-410 4,146 30,230 35,339l125 -29c-24,-56 -116,-202 -82,-310 52,-167 -25,-68 106,-75 23,-41 -21,-39 74,-69 0,0 98,-10 110,-11 90,-3 178,10 268,17l-21 -109c-401,-110 -553,88 -639,132 -77,40 -11,6 -119,33 -289,73 -333,250 -214,516z"/>
   <path class="fil0" d="M3377 2266c79,-76 71,-99 158,-203 65,-76 109,-118 180,-179 184,-160 300,-146 479,-261 -232,-12 -540,-48 -755,23l-62 620z"/>
   <path class="fil7" d="M3456 866l56 69 98 -117 12 -235 230 83c0,-19 86,-59 99,324 113,-125 60,136 94,-163 6,-55 -22,-135 -49,-173 -60,-85 -167,-117 -296,-158 -186,-59 -18,-78 -281,-154 -91,-27 -104,-19 -200,-21 -207,-3 -76,37 -230,-45l-1 159c394,25 676,-46 468,431z"/>
   <path class="fil8" d="M2882 940c-27,-12 -33,34 -40,-22 -10,-82 -9,-16 18,-65 38,54 21,4 22,87zm55 -534c1,109 28,428 -26,411 -1,-1 -10,-14 -17,-16l-82 -9c-6,6 -14,14 -16,22l-15 -428c-3,7 -10,16 -12,19 -3,4 -16,28 -18,22 -3,-8 -18,15 -25,23 -90,-7 -178,-20 -268,-17 -12,1 -110,11 -110,11 -95,30 -51,28 -74,69l106 -10 326 3c0,65 -10,161 -9,210 3,169 -28,64 48,155 -63,101 86,-10 -43,45 99,14 72,-7 118,49l62 -25 127 -13 -66 -9c71,-112 63,-37 72,-159 2,-28 -15,-179 -16,-229l333 -24 124 38c31,208 -44,228 -92,406 10,-12 25,-44 33,-34 7,8 22,-22 30,-29 8,-6 21,-13 29,-21 208,-477 -74,-406 -468,-431l1 -159 -20 -11 -32 141z"/>
   <path class="fil9" d="M1682 3127c8,229 -33,450 22,625l232 -135 49 -614 -303 124z"/>
   <path class="fil9" d="M839 3505l237 116c51,-153 43,-365 50,-566 65,-7 55,-5 98,-45l-303 -164 -82 659z"/>
   <path class="fil10" d="M493 2106l342 -4c76,-60 45,-148 57,-277 11,-112 28,-151 32,-289l62 -15c-31,-43 56,-44 -106,-52 -120,61 -100,436 -107,571l-222 -12c42,-79 37,-162 52,-265 54,-371 59,-255 -17,-278l-93 621z"/>
   <path class="fil11" d="M1849 1812l-81 567c64,61 -10,24 105,45 128,-25 77,0 161,-84 -98,-16 -52,-154 -32,-262 25,-133 31,-183 18,-328l-171 62z"/>
   <path class="fil12" d="M2020 1750c13,145 7,195 -18,328 -20,108 -66,246 32,262 160,-63 137,-65 161,-275 16,-138 40,-291 46,-429l-221 114z"/>
   <path class="fil13" d="M181 2254l201 -108 67 -562 -34 -15c-233,-9 -216,463 -234,685z"/>
   <path class="fil14" d="M586 1485c76,23 71,-93 17,278 -15,103 -10,186 -52,265l222 12c7,-135 -13,-510 107,-571 -86,-43 -230,-77 -309,13l15 3z"/>
   <path class="fil15" d="M839 3505l82 -659 -125 -33c-63,111 -61,90 -87,240 -22,126 -39,214 -35,359l165 93z"/>
   <path class="fil16" d="M930 2148l219 118c11,-111 25,-224 44,-354 11,-72 14,-82 17,-163 4,-112 -34,-27 20,-107 -55,-93 -52,-74 -163,-77l-63 592 -74 -9z"/>
   <path class="fil17" d="M1149 2266l117 44c6,-10 15,-34 16,-29l60 -262c33,-319 -42,-203 49,-299 -56,-91 -50,-75 -161,-78 -54,80 -16,-5 -20,107 -3,81 -6,91 -17,163 -19,130 -33,243 -44,354z"/>
   <path class="fil18" d="M2485 1348c-88,81 -38,68 -150,12 20,-54 88,-62 150,-12zm-421 20l12 8c176,-20 39,-16 75,51l-72 41 -14 26 722 -103c-45,-68 -101,-67 11,-146 -258,-7 -530,44 -734,123z"/>
   <path class="fil18" d="M3219 1348c33,-22 9,-24 78,-37 114,-21 -7,-8 88,14 -84,89 38,36 -86,67 -112,27 -76,-41 -80,-44zm76 122c161,-27 174,5 335,27l0 -29c-44,-35 -42,9 -74,-51l95 -48 -8 -15c-285,-57 -409,-100 -732,-115 21,20 35,27 48,71l20 105c57,1 113,-6 162,-1 15,1 63,5 75,8 106,29 45,-8 79,48z"/>
   <path class="fil19" d="M835 2102l95 46 74 9 63 -592c-26,-63 42,-50 -81,-44l-62 15c-4,138 -21,177 -32,289 -12,129 19,217 -57,277z"/>
   <path class="fil20" d="M2125 927l-25 14c12,19 26,56 64,94l23 114c-214,-29 -125,12 -176,88l123 1 -20 -75c84,29 77,34 177,29l-12 -140 -21 -77 82 5 118 -2 -86 -23 -104 -202c-29,-90 -15,-157 6,-240 -131,7 -54,-92 -106,75 -34,108 58,254 82,310l-125 29z"/>
   <path class="fil21" d="M2705 341l21 109c7,-8 22,-31 25,-23 2,6 15,-18 18,-22 2,-3 9,-12 12,-19l156 20 32 -141 -29 -62c81,-1 30,7 44,-86l-121 -114 -155 118c66,176 60,37 -3,220z"/>
   <path class="fil22" d="M415 1569l34 15 -67 562 111 -40 93 -621 -15 -3c-148,5 -110,27 -156,87z"/>
   <path class="fil23" d="M3456 866c-8,8 -21,15 -29,21 -8,7 -23,37 -30,29 -8,-10 -23,22 -33,34l-28 -4 -87 19c243,-28 48,-29 127,81 -217,83 -91,48 -158,141 12,-11 29,-38 41,-28 13,11 30,-20 46,-29l111 -60c-51,214 -10,80 40,148 162,-90 72,-57 198,2l7 -175 -25 15c-10,5 -24,2 -30,15 -40,92 4,-27 -166,56 47,-129 -2,-73 116,-119l100 -146 -46 -48 -98 117 -56 -69z"/>
   <path class="fil24" d="M1867 998c-34,48 19,41 -134,24l-22 85c266,58 154,66 320,199l103 -68 -123 -1c51,-76 -38,-117 176,-88l-23 -114 -140 15 -115 -95 -42 43z"/>
   <path class="fil25" d="M1867 998l42 -43c-10,-99 -14,-35 -33,-163l142 -124c16,161 2,166 82,273l25 -14c-5,-109 -31,-193 -35,-339 -240,75 -384,169 -223,410z"/>
   <path class="fil26" d="M3610 818l46 48 20 -178 172 89c-15,92 -30,135 -47,183l-29 83c1,-20 25,-70 30,-54 4,14 28,-24 40,-38l57 -33c8,-126 -25,-173 -47,-252l-230 -83 -12 235z"/>
   <path class="fil21" d="M3725 1036l56 153c37,-33 29,-27 89,-57l117 -62 -145 -119c-12,14 -36,52 -40,38 -5,-16 -29,34 -30,54l29 -83c-1,0 -168,32 -76,76z"/>
   <path class="fil27" d="M2812 792c-26,-400 13,-277 48,-323 56,109 42,132 34,332 7,2 16,15 17,16 54,17 27,-302 26,-411l-156 -20 15 428c2,-8 10,-16 16,-22z"/>
   <path class="fil28" d="M2812 792l82 9c8,-200 22,-223 -34,-332 -35,46 -74,-77 -48,323z"/>
   <path class="fil18" d="M3336 946l28 4c48,-178 123,-198 92,-406l-124 -38 87 72c-20,258 -127,203 -83,368z"/>
   <path class="fil18" d="M2372 955l26 -84c-84,-114 -77,-79 -113,-238l95 -130 -106 10c-21,83 -35,150 -6,240l104 202z"/>
   <path class="fil5" d="M3630 1497c-161,-22 -174,-54 -335,-27 46,32 202,67 319,104l16 -77z"/>
   <path class="fil24" d="M3636 1060l-80 -48c-118,46 -69,-10 -116,119 170,-83 126,36 166,-56 6,-13 20,-10 30,-15z"/>
   <path class="fil29" d="M3219 1348c4,3 -32,71 80,44 124,-31 2,22 86,-67 -95,-22 26,-35 -88,-14 -69,13 -45,15 -78,37z"/>
   <path class="fil29" d="M2335 1360c112,56 62,69 150,-12 -62,-50 -130,-42 -150,12z"/>
   <path class="fil30" d="M2079 1468l72 -41c-36,-67 101,-71 -75,-51 -88,48 -27,66 3,92z"/>
   <path class="fil31" d="M3630 1468c38,-26 45,52 21,-99l-95 48c32,60 30,16 74,51z"/>
   <path class="fil32" d="M2279 1052c93,-20 90,34 61,-72l-82 -5 21 77z"/>
   <path class="fil33" d="M2882 940c-1,-83 16,-33 -22,-87 -27,49 -28,-17 -18,65 7,56 13,10 40,22z"/>
   <path class="fil33" d="M3181 1003l-80 -24c5,165 -26,49 42,47 2,0 17,-4 19,-4 4,-1 14,-11 19,-19z"/>
  </g>
 </g>
</svg>
