<?xml version="1.0" encoding="UTF-8"?>
<!DOCTYPE svg PUBLIC "-//W3C//DTD SVG 1.1//EN" "http://www.w3.org/Graphics/SVG/1.1/DTD/svg11.dtd">
<!-- Creator: CorelDRAW X8 -->
<svg xmlns="http://www.w3.org/2000/svg" xml:space="preserve" width="61.659mm" height="44.9828mm" version="1.1" style="shape-rendering:geometricPrecision; text-rendering:geometricPrecision; image-rendering:optimizeQuality; fill-rule:evenodd; clip-rule:evenodd"
viewBox="0 0 6166 4498"
 xmlns:xlink="http://www.w3.org/1999/xlink">
 <defs>
  <style type="text/css">
   <![CDATA[
    .fil0 {fill:#02B1FA}
    .fil3 {fill:#02B2F5}
    .fil35 {fill:#04B7E7}
    .fil47 {fill:#07B5DA}
    .fil6 {fill:#0BB3F8}
    .fil21 {fill:#0CADF4}
    .fil59 {fill:#13B2CB}
    .fil23 {fill:#15B3E6}
    .fil57 {fill:#1AAADA}
    .fil9 {fill:#224562}
    .fil48 {fill:#26ACC8}
    .fil62 {fill:#27A9E7}
    .fil7 {fill:#2B5A75}
    .fil70 {fill:#32B0CE}
    .fil52 {fill:#34AEB4}
    .fil24 {fill:#4AC6FB}
    .fil17 {fill:#4EADAF}
    .fil67 {fill:#4EB9F1}
    .fil65 {fill:#52AE90}
    .fil56 {fill:#57AB9A}
    .fil13 {fill:#57C9FB}
    .fil38 {fill:#67C9F8}
    .fil34 {fill:#6CAB8D}
    .fil30 {fill:#70CBEC}
    .fil26 {fill:#71AE71}
    .fil45 {fill:#78A978}
    .fil28 {fill:#78D6FC}
    .fil43 {fill:#88E5FE}
    .fil20 {fill:#89D1F0}
    .fil16 {fill:#89D8FB}
    .fil37 {fill:#8CAA6D}
    .fil44 {fill:#8DD3D5}
    .fil42 {fill:#94B194}
    .fil74 {fill:#96D8FD}
    .fil53 {fill:#98E6FD}
    .fil55 {fill:#A7A655}
    .fil22 {fill:#A8A94A}
    .fil29 {fill:#A9C353}
    .fil61 {fill:#ABE9DC}
    .fil58 {fill:#B0AE71}
    .fil68 {fill:#B2D1CD}
    .fil72 {fill:#B9F8FF}
    .fil66 {fill:#CAA727}
    .fil10 {fill:#CECECE}
    .fil18 {fill:#CFEEF4}
    .fil64 {fill:#D0D2B4}
    .fil39 {fill:#D1CCC8}
    .fil41 {fill:#D3C88E}
    .fil40 {fill:#D4B66A}
    .fil54 {fill:#D6AA37}
    .fil50 {fill:#D7B648}
    .fil15 {fill:#D7F4FD}
    .fil33 {fill:#D8A717}
    .fil49 {fill:#D8C66D}
    .fil25 {fill:#D9B539}
    .fil12 {fill:#DCA40B}
    .fil31 {fill:#DCFEFF}
    .fil1 {fill:#E3A406}
    .fil8 {fill:#E4A30B}
    .fil11 {fill:#E8C977}
    .fil14 {fill:#E9FCF7}
    .fil19 {fill:#EECF8A}
    .fil73 {fill:#F0C951}
    .fil69 {fill:#F4B54E}
    .fil60 {fill:#F4CF74}
    .fil5 {fill:#F4FDFB}
    .fil63 {fill:#F5D7AC}
    .fil27 {fill:#F7D898}
    .fil71 {fill:#F8C768}
    .fil36 {fill:#F8D586}
    .fil4 {fill:#FAFFFA}
    .fil32 {fill:#FD9C00}
    .fil46 {fill:#FDE7A8}
    .fil51 {fill:#FEFDE4}
    .fil2 {fill:#FEFFFA}
   ]]>
  </style>
 </defs>
 <g id="Layer_x0020_1">
  <metadata id="CorelCorpID_0Corel-Layer"/>
  <g id="_218385052480">
   <path class="fil0" d="M1889 335l-119 66 -336 221c32,56 70,-76 20,111l-125 18c-146,38 -131,175 -256,220l7 64 -18 100 -67 11c-63,84 -20,57 -110,120 0,113 -66,266 -141,342 -64,304 -84,416 -75,740l49 352 27 13 90 305 240 460 109 138 180 204 132 119 142 113c53,10 38,-4 85,29 60,42 21,12 61,66l-14 -8 70 12c116,11 -3,-5 47,56l101 18 344 3 27 19 22 -39c67,-110 120,-196 222,-263l-8 -11 0 -1057 -125 -17c-96,-127 -114,-138 -200,-294 -99,-78 -107,-227 -92,-363 2,-19 31,-179 36,-192 43,-123 68,-88 122,-112l0 -72c-24,-56 -46,97 -21,-77l101 -52c84,-50 123,-57 154,-142l-53 -109c-222,96 -122,53 -183,-51 113,-77 -8,-47 146,-45l-33 -84 -116 -263c-125,-28 40,96 -131,181l-6 25c-88,136 -123,48 -270,71 -27,133 -9,164 46,293l-61 38 -75 81c-82,-21 -49,13 -97,-71l-45 -51c74,-369 -3,-482 7,-802 103,-17 315,-46 376,38l25 -11 70 22c84,-27 242,-86 335,-45 20,155 8,63 -34,116l3 132 124 238 21 -684 -108 -121 -172 -180 -32 14 -244 -12 -174 59z"/>
   <path class="fil1" d="M3616 441c-82,37 -23,85 -126,-27 51,-38 -12,-44 76,-38 120,8 20,2 50,65zm-1134 -350c-108,99 -102,54 -231,112 75,62 23,15 56,85l32 -14 100 27 65 78c111,73 95,57 115,196l-21 684 5 45 57 26 10 -79c28,-83 69,-156 92,-223 46,-135 -3,-137 40,-253l196 -42c61,190 -28,312 -157,406 1,176 -141,192 -138,390l175 -25 435 38c48,-143 -31,-457 54,-552l41 -186c-79,40 -38,-12 -111,72l11 -196 121 20 -117 -118c109,-33 58,-65 125,39l134 -32 99 -43 95 -7c306,-23 147,-65 495,14 55,8 52,-1 98,26 56,33 26,15 59,58l-5 4c92,46 50,2 115,95l-24 9c108,51 160,73 219,198l66 48 71 15 42 112 149 424 58 186 1 63 36 10c41,120 50,270 55,402 3,75 3,158 -4,234 -10,120 -9,109 -68,186l13 75 -21 272 -100 214 82 23c74,-151 20,-49 101,-89l33 -22c24,-112 65,-185 87,-268 26,-98 37,-204 67,-313 71,-258 -15,-408 -17,-637l-27 -112c-94,-47 -74,-18 -97,-156l24 -77c-81,-73 -80,-101 -104,-219 -39,-118 -144,-207 -135,-301 -78,-6 -66,19 -66,-41 -75,0 -4,10 -36,-54l-8 -15c-103,-58 -83,-36 -131,-138l-153 -133c-69,-46 -13,6 -52,-38 -47,-53 -16,-11 -56,-79l-17 1 -72 -42c-66,0 -48,16 -48,-53 -157,-48 -288,-188 -462,-200 -131,-28 -171,2 -199,-104l-131 -13c-105,-2 -133,-4 -232,-27 -5,-1 -99,-26 -102,-28 -64,-28 -30,-14 -76,-55 -146,12 -253,5 -399,40 -118,28 -186,50 -312,57z"/>
   <path class="fil1" d="M2595 3934l8 11c-34,145 -88,225 -222,263l-22 39c132,34 74,11 118,57 -45,76 41,16 -89,63l2 22 62 12 64 17 26 59c247,2 840,44 1050,-20 151,-46 647,-225 726,-313 40,-118 -31,-15 42,-81 56,-50 56,-33 115,-59 58,28 63,-8 97,-57l-14 -99 -57 22 -47 -16 -1 50 -71 25 -57 9 -48 1 -30 74 -121 12 29 -2c-41,95 22,78 -150,87 -73,4 -122,-28 -187,-49 -127,-42 -178,-19 -267,-127 -87,-50 -165,-156 -196,-267l-32 -703 -69 3c-131,125 -485,84 -576,-5 -99,244 52,748 -83,972z"/>
   <path class="fil2" d="M2678 2962c52,-12 479,2 576,5l69 -3 51 -92 -7 -1228 -3 -62 -51 -40 -435 -38c-58,128 -62,53 -204,104 -66,266 -46,1071 4,1354z"/>
   <path class="fil3" d="M3765 539l-143 116 -19 40 -33 333c-73,-104 -14,-36 -38,-110 -39,-124 -1,-38 -59,-113l-22 183 -84 2c-85,95 -6,409 -54,552l51 40 96 28 19 81 114 37 -8 -13c56,-99 -49,-7 65,-98 70,-56 33,-20 96,-37 28,-63 -6,-22 63,-102 65,-74 46,-55 129,-107l-2 24 13 -68c14,-70 4,-1 73,-31l86 -83 90 -108 79 -13 -11 4 33 -78 51 -3 10 -53c0,-58 -10,-34 67,-32l-10 -185c-65,-49 -49,-14 -90,-113l-44 2 -23 -81c-348,-79 -189,-37 -495,-14z"/>
   <path class="fil4" d="M4417 745l10 185 -77 85 -9 58 -75 23 11 -4 -85 84c-36,47 6,6 -84,37l-86 83 -19 77 -67 22 2 -24c-32,67 -20,75 -90,147 -68,69 -26,34 -102,62 -26,53 4,32 -52,80 -51,44 -43,27 -109,55l8 13 10 82c120,79 48,53 139,151 145,-27 105,-71 288,-91l146 -67c85,-101 102,-97 237,-113l55 14c111,-247 491,-155 541,-151l41 -11 -149 -424c-78,-54 -65,47 -76,-46l-37 -81 -66 -48c-122,-56 -155,-72 -219,-198l24 -9c-90,-31 -37,13 -102,-55l-8 64z"/>
   <path class="fil0" d="M3536 3499c90,85 74,64 34,143 -88,-68 -74,-47 -34,-143zm-117 168l75 125c146,46 127,16 149,145 238,42 185,134 512,86l-29 2c28,-110 1,-72 151,-86l48 -1 104 -177c-66,-223 -88,-145 -158,-291l-69 -1 -32 -65 8 9c-75,-32 -3,30 -76,-42 -65,-63 -4,26 -40,-85l5 18c-98,-58 -244,-196 -297,-298l-24 -26 -71 -15 -38 -84 -23 -21 -115 6 -8 93 -126 44 54 664z"/>
   <path class="fil5" d="M3605 2731l-28 31 37 98 23 21 68 25 41 74 24 26c96,46 14,-9 105,61 7,5 55,53 66,63 92,87 79,63 126,174l-5 -18c103,40 82,28 116,127l-8 -9 90 13 11 53c103,29 166,124 198,234l-40 57 28 93c10,-12 63,-82 72,-91 64,-55 23,-21 107,-59l3 -28c58,-107 63,-142 173,-161 15,-95 6,-69 91,-107l62 -186 38 -154c-112,54 -348,100 -409,-47l-125 -48c-134,-21 -134,-8 -215,-102l-517 -206 -132 66z"/>
   <path class="fil6" d="M3732 2573l5 92 517 206c136,23 134,10 215,102l125 48 307 47 167 -118 13 -243 -85 -98c-151,-15 -342,-39 -494,-66 -132,-24 -441,7 -494,-106l-259 -6 -17 142z"/>
   <path class="fil7" d="M5346 1766l27 112 52 326c30,28 54,18 89,44l655 -11 0 -634 -844 16 21 147z"/>
   <path class="fil3" d="M4468 1704l-55 -14c-82,86 -111,85 -237,113l-146 67c-93,87 -107,58 -216,131l-2 151 56 38 145 -11 143 6c21,-89 438,-88 524,-75 71,-51 242,-79 353,-81l76 -238 -1 -63 -138 -119c-290,-54 -268,20 -502,95z"/>
   <path class="fil5" d="M5033 2029c-49,103 -247,116 -353,81 -125,82 -359,85 -524,75l-143 -6c-63,80 69,28 -107,72 -17,4 -72,-8 -92,-12l-2 97c-27,85 -1,47 -69,90l6 5 259 6c172,6 372,35 544,60l350 39c135,35 68,21 94,73 60,-20 49,-35 49,24l36 74 60 -9 -13 -75 1 -632 -96 38z"/>
   <path class="fil7" d="M4 2237l599 -1 66 112c-9,-324 11,-436 75,-740l-740 -5 0 634z"/>
   <path class="fil8" d="M3374 2872l125 -6 13 -89 65 -15 28 -31 127 -158 17 -142 -6 -5c49,-203 11,-124 -13,-305l8 -102c-107,-52 -21,42 -91,-91 -26,-47 -29,-75 -44,-118l-10 -82 -114 -37 -112 -47 7 1228z"/>
   <path class="fil9" d="M5425 2204l-39 502 350 -1 34 -1 399 0 0 -467 -655 11c-35,-26 -59,-16 -89,-44z"/>
   <path class="fil8" d="M2394 2431c115,45 61,-59 82,115 -106,-49 -66,53 -82,-115zm-13 -628l-45 24 0 72c-13,123 -85,147 -109,303 -20,131 23,232 43,364 86,156 104,167 200,294l125 17 -14 -1182c-142,23 -71,39 -200,108z"/>
   <polygon class="fil9" points="4,2704 718,2700 669,2348 603,2236 4,2237 "/>
   <path class="fil10" d="M5236 3096c108,-110 23,-81 134,-125l799 0 0 -267 -399 0c3,151 36,115 -34,166 -15,-40 -13,0 -15,-69 0,-1 14,-88 15,-96l-350 1 39 -502 -52 -326c2,229 88,379 17,637 -30,109 -41,215 -67,313 -22,83 -63,156 -87,268z"/>
   <path class="fil11" d="M2670 1251l-10 79 -57 -26c4,12 9,25 13,34 50,147 41,86 25,180l-9 33 -51 144 14 1182 0 1057c135,-224 -16,-728 83,-972 -50,-283 -70,-1088 -4,-1354 142,-51 146,24 204,-104l-175 25c-3,-198 139,-214 138,-390 78,-201 181,-194 118,-361l-104 20c-64,119 -58,355 -185,453z"/>
   <path class="fil10" d="M4 2971l600 4c-12,-108 -81,-133 99,-204 -38,160 -14,64 1,198 89,23 75,14 131,49l-90 -305 -27 -13 -714 4 0 267z"/>
   <path class="fil12" d="M5020 3184c-2,3 -8,7 -9,8 -3,1 -17,18 -19,12 -3,-8 -18,11 -27,18l-62 186 -40 95 -51 12c-17,29 -19,47 -49,79 -109,117 -18,33 -124,82l-3 28 -135 166 57 -22 14 99 236 -180c36,-79 13,-53 84,-95l30 -60 122 -155c54,-120 123,-190 159,-339 -81,40 -27,-62 -101,89l-82 -23z"/>
   <path class="fil13" d="M1737 1622l172 -10 61 -38c-55,-129 -73,-160 -46,-293l11 -148 -19 -23 -54 0c32,111 28,378 -25,454 -94,-34 -75,18 -71,-158l4 -576c70,-29 -37,-13 96,-27 13,-2 56,1 69,1 46,-1 95,3 140,3 -61,-84 -273,-55 -376,-38 -10,320 67,433 -7,802l45 51z"/>
   <path class="fil14" d="M2301 937l30 67 116 263c85,72 41,19 99,130 8,15 25,56 33,66 46,61 7,14 62,55 16,-94 25,-33 -25,-180 -4,-9 -9,-22 -13,-34l-5 -45 -124 -238c-120,-166 23,-135 -138,-175 -45,26 -33,-61 -35,91z"/>
   <path class="fil15" d="M1862 1110c-37,-148 -31,-86 13,-252l-105 -28 -4 576c-4,176 -23,124 71,158 53,-76 57,-343 25,-454z"/>
   <path class="fil16" d="M4996 2609c-26,-52 41,-38 -94,-73l-350 -39c-172,-25 -372,-54 -544,-60 53,113 362,82 494,106 152,27 343,51 494,66z"/>
   <polygon class="fil17" points="3323,2964 3355,3667 3419,3667 3365,3003 3491,2959 3499,2866 3374,2872 "/>
   <path class="fil18" d="M2031 913c95,88 68,41 84,180l-28 84 68 33 39 0 6 -25c56,-143 77,-291 -100,-336l-92 -7 23 71z"/>
   <path class="fil19" d="M5129 1991l-1 632c59,-77 58,-66 68,-186 7,-76 7,-159 4,-234 -5,-132 -14,-282 -55,-402l-16 190z"/>
   <path class="fil20" d="M4468 1704c234,-75 212,-149 502,-95l138 119 -58 -186 -41 11c-50,-4 -430,-96 -541,151z"/>
   <path class="fil21" d="M1916 1110l19 23c-23,86 -8,12 40,51l114 -83 26 -8c-16,-139 11,-92 -84,-180l-137 27 22 170z"/>
   <path class="fil22" d="M4155 4023c-327,48 -274,-44 -512,-86l-76 -9 -16 6c89,108 140,85 267,127 65,21 114,53 187,49 172,-9 109,8 150,-87z"/>
   <path class="fil23" d="M3482 729l-59 19 -15 56 -41 186 84 -2 22 -183c58,75 20,-11 59,113 24,74 -35,6 38,110l33 -333c-74,33 -55,20 -121,34z"/>
   <path class="fil24" d="M2100 796l0 53c177,45 156,193 100,336 171,-85 6,-209 131,-181l-30 -67c-66,-63 -57,92 -54,-100 42,-19 -23,-49 125,-34 158,17 73,-18 99,86 42,-53 54,39 34,-116 -93,-41 -251,18 -335,45l-70 -22z"/>
   <path class="fil25" d="M2670 1251c127,-98 121,-334 185,-453l104 -20c63,167 -40,160 -118,361 129,-94 218,-216 157,-406l-196 42c-43,116 6,118 -40,253 -23,67 -64,140 -92,223z"/>
   <path class="fil26" d="M2270 2566c-20,-132 -63,-233 -43,-364 24,-156 96,-180 109,-303 -54,24 -79,-11 -122,112 -5,13 -34,173 -36,192 -15,136 -7,285 92,363z"/>
   <path class="fil27" d="M3254 2967c-97,-3 -524,-17 -576,-5 91,89 445,130 576,5z"/>
   <path class="fil16" d="M1862 1110l54 0 -22 -170 137 -27 -23 -71 92 7 0 -53 -25 11c-45,0 -94,-4 -140,-3 -13,0 -56,-3 -69,-1 -133,14 -26,-2 -96,27l105 28c-44,166 -50,104 -13,252z"/>
   <path class="fil28" d="M4156 2185c165,10 399,7 524,-75 -86,-13 -503,-14 -524,75z"/>
   <path class="fil29" d="M2289 4382c-23,-23 -35,-91 -35,-92l78 -62 -344 -3c68,68 194,130 301,157z"/>
   <path class="fil30" d="M4594 3021c61,147 297,101 409,47l65 -118 -167 118 -307 -47z"/>
   <path class="fil31" d="M885 1266c90,-63 47,-36 110,-120 38,-98 15,-61 85,-111l-7 -64 -124 54c-61,98 -65,131 -64,241z"/>
   <path class="fil32" d="M2289 4382l99 -15c130,-47 44,13 89,-63 -44,-46 14,-23 -118,-57l-27 -19 -78 62c0,1 12,69 35,92z"/>
   <path class="fil16" d="M2301 937c2,-152 -10,-65 35,-91 161,40 18,9 138,175l-3 -132c-26,-104 59,-69 -99,-86 -148,-15 -83,15 -125,34 -3,192 -12,37 54,100z"/>
   <path class="fil33" d="M3429 700l-6 48 59 -19 31 -75 58 -5 0 -60 -134 32c-67,-104 -16,-72 -125,-39l117 118z"/>
   <path class="fil24" d="M1935 1133l-11 148c147,-23 182,65 270,-71l-39 0c-88,54 23,39 -124,30l58 -139 -114 83c-48,-39 -63,35 -40,-51z"/>
   <path class="fil19" d="M3603 104c-114,-85 -255,-110 -410,-110 46,41 12,27 76,55 3,2 97,27 102,28 99,23 127,25 232,27z"/>
   <path class="fil16" d="M4680 2110c106,35 304,22 353,-81 -111,2 -282,30 -353,81z"/>
   <path class="fil34" d="M2416 1698l-35 105c129,-69 58,-85 200,-108l51 -144 -62 5c-31,85 -70,92 -154,142z"/>
   <path class="fil35" d="M2517 1447l-37 -96c-154,-2 -33,-32 -146,45 61,104 -39,147 183,51z"/>
   <path class="fil36" d="M2135 222l116 -19c129,-58 123,-13 231,-112 -131,11 -288,14 -347,131z"/>
   <path class="fil37" d="M3551 3934l16 -6 -73 -136 -75 -125 -64 0c31,111 109,217 196,267z"/>
   <path class="fil38" d="M4067 3304c-47,-111 -34,-87 -126,-174 -11,-10 -59,-58 -66,-63 -91,-70 -9,-15 -105,-61 53,102 199,240 297,298z"/>
   <path class="fil39" d="M604 2975l100 -6c-15,-134 -39,-38 -1,-198 -180,71 -111,96 -99,204z"/>
   <path class="fil37" d="M2381 4208c134,-38 188,-118 222,-263 -102,67 -155,153 -222,263z"/>
   <path class="fil32" d="M3408 804l15 -56 6 -48 -121 -20 -11 196c73,-84 32,-32 111,-72z"/>
   <path class="fil16" d="M4429 3761l40 -57c-32,-110 -95,-205 -198,-234 70,146 92,68 158,291z"/>
   <path class="fil40" d="M3743 2426c68,-43 42,-5 69,-90l2 -97 -2 -87c-77,-24 -41,5 -82,-31 24,181 62,102 13,305z"/>
   <path class="fil41" d="M5003 3068l-38 154c9,-7 24,-26 27,-18 2,6 16,-11 19,-12 1,-1 7,-5 9,-8l100 -214 -52 -20 -65 118z"/>
   <polygon class="fil42" points="5068,2950 5120,2970 5141,2698 5081,2707 "/>
   <path class="fil16" d="M2480 1351l37 96 53 109 62 -5 9 -33c-55,-41 -16,6 -62,-55 -8,-10 -25,-51 -33,-66 -58,-111 -14,-58 -99,-130l33 84z"/>
   <path class="fil43" d="M3742 1961l-4 58 76 -18c109,-73 123,-44 216,-131 -183,20 -143,64 -288,91z"/>
   <polygon class="fil44" points="5033,2029 5129,1991 5145,1801 5109,1791 "/>
   <path class="fil45" d="M2063 276l244 12c-33,-70 19,-23 -56,-85l-116 19 -72 54z"/>
   <path class="fil46" d="M4722 943c-59,-125 -111,-147 -219,-198 64,126 97,142 219,198z"/>
   <path class="fil47" d="M1329 751l125 -18c50,-187 12,-55 -20,-111 -84,57 -88,26 -105,129z"/>
   <path class="fil20" d="M3814 2239c20,4 75,16 92,12 176,-44 44,8 107,-72l-145 11 -56 -38 2 87z"/>
   <path class="fil28" d="M3746 1580c76,-28 34,7 102,-62 70,-72 58,-80 90,-147 -83,52 -64,33 -129,107 -69,80 -35,39 -63,102z"/>
   <path class="fil48" d="M3567 3928l76 9c-22,-129 -3,-99 -149,-145l73 136z"/>
   <path class="fil49" d="M3933 221c-60,-101 -47,-81 -199,-104 28,106 68,76 199,104z"/>
   <path class="fil50" d="M3738 2019l4 -58c-91,-98 -19,-72 -139,-151 15,43 18,71 44,118 70,133 -16,39 91,91z"/>
   <polygon class="fil37" points="3571,589 3571,649 3622,655 3765,539 3670,546 "/>
   <path class="fil51" d="M5070 3838c112,-50 120,-20 33,-139 -79,60 -79,55 -33,139z"/>
   <path class="fil52" d="M3730 2121c41,36 5,7 82,31l2 -151 -76 18 -8 102z"/>
   <path class="fil53" d="M4176 1803c126,-28 155,-27 237,-113 -135,16 -152,12 -237,113z"/>
   <path class="fil27" d="M4639 3676c106,-49 15,35 124,-82 30,-32 32,-50 49,-79 -110,19 -115,54 -173,161z"/>
   <path class="fil54" d="M5346 1766l-21 -147 -76 -9c23,138 3,109 97,156z"/>
   <path class="fil52" d="M4126 4025l121 -12 30 -74c-150,14 -123,-24 -151,86z"/>
   <path class="fil33" d="M3490 414c103,112 44,64 126,27 -30,-63 70,-57 -50,-65 -88,-6 -25,0 -76,38z"/>
   <path class="fil38" d="M4469 2973c-81,-92 -79,-79 -215,-102 81,94 81,81 215,102z"/>
   <path class="fil28" d="M3585 1715c66,-28 58,-11 109,-55 56,-48 26,-27 52,-80 -63,17 -26,-19 -96,37 -114,91 -9,-1 -65,98z"/>
   <path class="fil55" d="M2619 575c-20,-139 -4,-123 -115,-196l7 75 108 121z"/>
   <polygon class="fil56" points="2511,454 2504,379 2439,301 2339,274 "/>
   <path class="fil11" d="M5273 1533c-6,-118 -24,-140 -104,-219 24,118 23,146 104,219z"/>
   <polygon class="fil42" points="3499,2866 3614,2860 3577,2762 3512,2777 "/>
   <path class="fil57" d="M1909 1612l-172 10c48,84 15,50 97,71l75 -81z"/>
   <path class="fil50" d="M4318 4144c114,-45 95,-39 157,-140 -59,26 -59,9 -115,59 -73,66 -2,-37 -42,81z"/>
   <path class="fil58" d="M4327 632l90 5c-33,-43 -3,-25 -59,-58 -46,-27 -43,-18 -98,-26l23 81 44 -2z"/>
   <path class="fil59" d="M3570 3642c40,-79 56,-58 -34,-143 -40,96 -54,75 34,143z"/>
   <path class="fil60" d="M4457 3854l-3 0 47 16 135 -166c-84,38 -43,4 -107,59 -9,9 -62,79 -72,91z"/>
   <path class="fil61" d="M4325 3938l57 -9c49,-101 -20,-33 72,-75l3 0 -28 -93 -104 177z"/>
   <path class="fil53" d="M2155 1210l-68 -33 28 -84 -26 8 -58 139c147,9 36,24 124,-30z"/>
   <path class="fil62" d="M2336 1827l45 -24 35 -105 -101 52c-25,174 -3,21 21,77z"/>
   <path class="fil63" d="M4924 903c-32,-89 -27,-122 -131,-138 48,102 28,80 131,138z"/>
   <path class="fil64" d="M5770 2704l-34 1c-1,8 -15,95 -15,96 2,69 0,29 15,69 70,-51 37,-15 34,-166z"/>
   <polygon class="fil65" points="3479,1691 3460,1610 3364,1582 3367,1644 "/>
   <path class="fil66" d="M2476 2546c-21,-174 33,-70 -82,-115 16,168 -24,66 82,115z"/>
   <path class="fil34" d="M3482 729c66,-14 47,-1 121,-34l19 -40 -51 -6 -58 5 -31 75z"/>
   <path class="fil67" d="M4178 3413c-34,-99 -13,-87 -116,-127 36,111 -25,22 40,85 73,72 1,10 76,42z"/>
   <path class="fil68" d="M4417 745l8 -64 -13 -40 5 -4 -90 -5c41,99 25,64 90,113z"/>
   <path class="fil69" d="M4901 1118l-42 -112 -71 -15 37 81c11,93 -2,-8 76,46z"/>
   <polygon class="fil41" points="3605,2731 3737,2665 3732,2573 "/>
   <path class="fil20" d="M1784 4147c-40,-54 -1,-24 -61,-66 -47,-33 -32,-19 -85,-29 47,89 49,70 146,95z"/>
   <path class="fil13" d="M3936 1395l67 -22 19 -77c-69,30 -59,-39 -73,31l-13 68z"/>
   <path class="fil63" d="M5034 1013c-61,-114 14,-48 -102,-95 32,64 -39,54 36,54 0,60 -12,35 66,41z"/>
   <path class="fil11" d="M4812 3515l51 -12 40 -95c-85,38 -76,12 -91,107z"/>
   <path class="fil70" d="M995 1146l67 -11 18 -100c-70,50 -47,13 -85,111z"/>
   <polygon class="fil30" points="3746,2980 3705,2906 3637,2881 3675,2965 "/>
   <polygon class="fil24" points="4271,3470 4260,3417 4170,3404 4202,3469 "/>
   <path class="fil16" d="M1887 4207c-50,-61 69,-45 -47,-56l-70 -12c77,99 -4,43 117,68z"/>
   <path class="fil71" d="M4527 736c-65,-93 -23,-49 -115,-95l13 40c65,68 12,24 102,55z"/>
   <polygon class="fil53" points="4266,1096 4341,1073 4350,1015 4299,1018 "/>
   <path class="fil27" d="M4922 3612c65,-40 30,7 74,-48 59,-72 26,-39 48,-107l-122 155z"/>
   <path class="fil27" d="M4515 516c-40,-53 -9,-23 -63,-68 -63,-54 54,18 -57,-27 0,69 -18,53 48,53l72 42z"/>
   <path class="fil60" d="M4640 632c-43,-73 45,-61 -36,-70l-72 -47c40,68 9,26 56,79 39,44 -17,-8 52,38z"/>
   <path class="fil38" d="M4108 1213c90,-31 48,10 84,-37l6 -71 -90 108z"/>
   <path class="fil27" d="M2503 4464l-51 -63 -62 -12c42,53 -10,38 113,75z"/>
   <polygon class="fil19" points="5249,1610 5325,1619 5273,1533 "/>
   <path class="fil11" d="M4382 3929l71 -25 1 -50c-92,42 -23,-26 -72,75z"/>
   <path class="fil28" d="M4350 1015l77 -85c-77,-2 -67,-26 -67,32l-10 53z"/>
   <path class="fil28" d="M1496 3939l-132 -119c37,62 -4,33 48,75 55,45 -1,9 84,44z"/>
   <path class="fil20" d="M1184 3616l-109 -138c32,76 -6,35 36,85 47,54 3,13 73,53z"/>
   <polygon class="fil72" points="4192,1176 4277,1092 4198,1105 "/>
   <path class="fil60" d="M4808 3767c108,-67 25,26 84,-95 -71,42 -48,16 -84,95z"/>
   <polygon class="fil73" points="2503,4464 2542,4477 2516,4418 2452,4401 "/>
   <path class="fil28" d="M5081 2707l-36 -74c0,-59 11,-44 -49,-24l85 98z"/>
   <polygon class="fil74" points="1770,401 1889,335 "/>
  </g>
 </g>
</svg>
