<?xml version="1.0" encoding="UTF-8"?>
<!DOCTYPE svg PUBLIC "-//W3C//DTD SVG 1.1//EN" "http://www.w3.org/Graphics/SVG/1.1/DTD/svg11.dtd">
<!-- Creator: CorelDRAW X8 -->
<svg xmlns="http://www.w3.org/2000/svg" xml:space="preserve" width="55.755mm" height="68.74mm" version="1.1" style="shape-rendering:geometricPrecision; text-rendering:geometricPrecision; image-rendering:optimizeQuality; fill-rule:evenodd; clip-rule:evenodd"
viewBox="0 0 5576 6874"
 xmlns:xlink="http://www.w3.org/1999/xlink">
 <defs>
  <style type="text/css">
   <![CDATA[
    .fil1 {fill:#ECBE81}
    .fil3 {fill:#F46552}
    .fil2 {fill:#F4674F}
    .fil0 {fill:#FD0202}
   ]]>
  </style>
 </defs>
 <g id="Layer_x0020_1">
  <metadata id="CorelCorpID_0Corel-Layer"/>
  <g id="_218385095936">
   <path class="fil0" d="M4106 4394l101 416 -343 -224c-64,43 -134,107 -193,157 -28,24 -65,52 -93,75 -28,22 -71,63 -100,76l170 -447 -250 -171c-19,-12 -25,-15 -44,-29 -35,-23 -27,-12 -25,-34l425 -54c24,-31 165,-397 180,-455 32,43 92,357 109,417l442 -52c-60,79 -325,256 -379,325zm1419 -769l-7 -21 -1204 147 -271 -1148c-25,12 -30,44 -40,70 -11,30 -17,46 -28,75l-422 1098 -1232 148c7,22 43,40 60,51 26,17 45,30 69,46 51,34 369,232 398,273 -145,6 -292,34 -431,43 -265,18 -630,67 -884,18 -148,-28 -197,-109 -180,-281 19,-192 429,-2048 491,-2350 35,-172 103,-615 218,-729 95,-95 198,-116 343,-126 111,-7 862,-11 947,2 151,22 218,93 248,231 81,-16 958,-322 975,-335 -15,-44 -25,-112 -40,-163 -48,-161 -119,-294 -230,-405 -332,-332 -962,-272 -1431,-272 -753,0 -1397,-17 -1831,724 -231,394 -292,811 -398,1307l-373 1750c-79,370 -145,746 -6,1102 277,705 1367,475 1984,428 247,-20 575,-84 763,-96l-250 651c56,-23 210,-162 270,-207 45,-34 93,-74 132,-108 44,-38 83,-68 130,-108 114,-99 299,-235 396,-323 38,-35 96,-71 127,-110 55,20 181,115 237,152 95,63 656,447 705,466l-276 -1160 261 -208c83,-69 171,-142 258,-210 111,-86 427,-357 522,-422z"/>
   <path class="fil0" d="M1969 6021l-293 407 30 -373c-33,6 -118,3 -131,30l-57 606c128,-13 113,10 228,-169 28,-43 52,-73 82,-116l63 -93c2,-2 7,-9 9,-11 17,-19 5,-5 17,-17l-32 355 134 -11 55 -619 -105 11z"/>
   <path class="fil0" d="M4080 5762c-43,54 -99,133 -140,197 -26,40 -115,178 -155,206l29 -361c-47,-10 -88,2 -134,10l-54 615 119 -11c72,-98 220,-335 277,-383l-28 351 136 -17 52 -617 -102 10z"/>
   <path class="fil0" d="M1370 6095l-47 496c-236,63 -206,127 -153,-469l-129 15c-12,37 -48,470 -42,507 32,198 208,42 403,65l20 85 138 29c0,-27 -34,-98 -50,-138 -1,-2 -13,-25 -14,-28 -15,-28 -10,-25 -37,-47l41 -528 -130 13z"/>
   <path class="fil0" d="M627 6316c41,-33 20,-23 80,-33 37,-6 60,-9 108,-6 5,75 -3,353 -50,387 -29,18 -128,21 -160,19 -19,-75 18,-272 22,-367zm-52 488c44,0 204,-21 241,-36 133,-52 119,-252 135,-439 9,-102 -15,-174 -116,-173 -46,0 -204,24 -239,38 -133,54 -109,280 -130,441 -13,97 20,169 109,169z"/>
   <path class="fil0" d="M5269 5943c12,-44 34,-112 63,-142l35 131 -98 11zm-259 319l133 -17 74 -183 181 -20 44 162 139 -12 -172 -587c-148,-11 -126,8 -243,279 -31,71 -157,322 -156,378z"/>
   <path class="fil0" d="M2696 6260c12,-57 39,-99 53,-153 24,33 37,100 44,141l-97 12zm21 -331l-217 484c-19,48 -54,110 -70,163 103,1 134,-5 156,-57 7,-16 12,-31 17,-44 38,-94 12,-109 223,-116l44 163 139 -15 -178 -592 -114 14z"/>
   <path class="fil0" d="M782 5923c1,-25 5,-41 8,-65 22,-202 -28,-233 182,-227l-17 267c-4,32 0,52 -14,69 -20,25 -119,35 -151,23l-8 -67zm199 -398c-235,38 -310,-26 -321,440 -3,100 20,138 124,135 195,-7 268,-29 292,-218 16,-132 69,-383 -95,-357z"/>
   <path class="fil0" d="M3310 5856c-25,34 -53,117 -73,160l-214 487 129 -12c28,-35 140,-320 171,-399 20,-53 5,-31 34,-59l105 412 106 -6c25,-5 -7,5 15,-4 15,-6 11,-7 18,-12 -27,-96 -54,-190 -86,-288 -26,-83 -58,-218 -91,-293l-114 14z"/>
   <path class="fil0" d="M165 6182l117 -12c13,-100 25,-388 50,-457 46,-16 105,-9 163,-9 -4,117 -41,359 -31,445l116 -20 47 -547c-20,-1 -43,-2 -61,1 -32,6 -37,18 -48,22 -24,8 -83,-2 -120,-2 -247,0 -201,219 -233,579z"/>
   <path class="fil0" d="M1291 5526l3 -33 -31 5 -81 3 -52 554 118 -11c15,-115 1,-210 55,-247l167 217 121 -12c-13,-57 -175,-223 -205,-300 30,-25 227,-227 237,-254 -125,27 -116,-19 -262,148 -28,31 -34,57 -78,68l8 -138z"/>
   <path class="fil0" d="M1770 5538c61,-9 75,-25 150,-22 11,218 -20,202 -164,201l14 -179zm-111 -91l-48 546 118 -8 17 -169c231,9 293,-46 296,-277 2,-214 -210,-100 -262,-96 -38,4 -9,-9 -59,-6 -19,2 -34,8 -62,10z"/>
   <path class="fil0" d="M4590 6287l0 -101 -219 51c-46,2 -44,-9 -43,-53 0,-83 17,-255 33,-335 85,-28 105,-26 188,-10 30,-16 68,-22 91,-51 -38,-106 -179,-87 -291,-54 -119,34 -128,127 -140,263 -9,93 -49,305 36,345 70,31 292,-34 345,-55z"/>
   <path class="fil0" d="M405 6804l3 -99c-61,3 -232,67 -263,33 -14,-40 18,-325 34,-378 68,-20 131,-35 178,-2 32,-19 71,-34 100,-53 -29,-47 -32,-77 -110,-79 -288,-8 -309,97 -322,302 -7,104 -59,295 41,331 82,31 258,-38 339,-55z"/>
   <path class="fil0" d="M2086 5394l-48 550 345 -41 2 -101 -219 29 13 -147 192 -22 3 -100 -186 23 11 -109c44,-1 71,-7 114,-11 32,-4 81,-7 104,-21l10 -91 -341 41z"/>
   <path class="fil0" d="M5119 5671l3 -32 -36 2 -399 47 -15 110 158 -14 -45 503 130 -15 48 -507c50,-3 121,-6 156,-29l0 -65z"/>
   <path class="fil0" d="M2347 5978c-8,130 -22,403 -54,508 -158,44 -261,-74 -245,108 186,16 383,64 398,-212 6,-117 42,-323 29,-424l-128 20z"/>
   <polygon class="fil0" points="2453,5347 2442,5442 2583,5433 2542,5880 2663,5870 2701,5419 2840,5400 2850,5303 "/>
   <path class="fil1" d="M5525 3625l31 -24c-4,-1 11,-10 -19,-6 -21,3 -8,2 -19,9l7 21z"/>
   <path class="fil2" d="M5119 5671c13,-15 11,8 12,-38 -15,-1 -5,-4 -21,0 -22,4 -17,5 -24,8l36 -2 -3 32z"/>
   <path class="fil3" d="M1291 5526c15,-17 12,6 12,-39 -12,0 -9,-3 -19,0 -21,7 -9,2 -21,11l31 -5 -3 33z"/>
  </g>
 </g>
</svg>
