<?xml version="1.0" encoding="UTF-8"?>
<!DOCTYPE svg PUBLIC "-//W3C//DTD SVG 1.1//EN" "http://www.w3.org/Graphics/SVG/1.1/DTD/svg11.dtd">
<!-- Creator: CorelDRAW X8 -->
<svg xmlns="http://www.w3.org/2000/svg" xml:space="preserve" width="83.4598mm" height="56.558mm" version="1.1" style="shape-rendering:geometricPrecision; text-rendering:geometricPrecision; image-rendering:optimizeQuality; fill-rule:evenodd; clip-rule:evenodd"
viewBox="0 0 8346 5656"
 xmlns:xlink="http://www.w3.org/1999/xlink">
 <defs>
  <style type="text/css">
   <![CDATA[
    .fil8 {fill:#052851}
    .fil2 {fill:#062C52}
    .fil0 {fill:#062C53}
    .fil7 {fill:#072B51}
    .fil5 {fill:#072B53}
    .fil6 {fill:#092E55}
    .fil58 {fill:#475837}
    .fil16 {fill:#47617D}
    .fil10 {fill:#4E6984}
    .fil15 {fill:#536B85}
    .fil12 {fill:#556D89}
    .fil53 {fill:#586636}
    .fil59 {fill:#59642B}
    .fil11 {fill:#5D7591}
    .fil14 {fill:#637A93}
    .fil42 {fill:#667E97}
    .fil57 {fill:#674E5D}
    .fil37 {fill:#697230}
    .fil13 {fill:#6B8197}
    .fil9 {fill:#6D839A}
    .fil28 {fill:#73869C}
    .fil32 {fill:#74889B}
    .fil43 {fill:#777B28}
    .fil22 {fill:#788CA3}
    .fil35 {fill:#7C8230}
    .fil17 {fill:#7E92A6}
    .fil27 {fill:#7E92A9}
    .fil50 {fill:#8193A4}
    .fil29 {fill:#8395AA}
    .fil21 {fill:#879AAC}
    .fil40 {fill:#888828}
    .fil23 {fill:#8A9BAC}
    .fil56 {fill:#8B8C30}
    .fil4 {fill:#8C9DB1}
    .fil18 {fill:#8FA1B3}
    .fil24 {fill:#914B57}
    .fil30 {fill:#92A2B4}
    .fil54 {fill:#958F1A}
    .fil38 {fill:#963B44}
    .fil52 {fill:#96A9BA}
    .fil33 {fill:#97A6B8}
    .fil31 {fill:#989527}
    .fil19 {fill:#9BABBB}
    .fil60 {fill:#A0AFC2}
    .fil39 {fill:#A2AFBD}
    .fil45 {fill:#A2B2C1}
    .fil51 {fill:#A39D27}
    .fil44 {fill:#A59C19}
    .fil61 {fill:#A5B3C3}
    .fil55 {fill:#AAB7C5}
    .fil26 {fill:#ADBBCA}
    .fil49 {fill:#B1A927}
    .fil47 {fill:#B7AA19}
    .fil20 {fill:#BEC9D3}
    .fil1 {fill:#D9251C}
    .fil46 {fill:#E6736E}
    .fil41 {fill:#E7827C}
    .fil36 {fill:#EB9F9C}
    .fil25 {fill:#ED908B}
    .fil48 {fill:#EFAFAC}
    .fil34 {fill:#F3ACA9}
    .fil3 {fill:#FBDB01}
   ]]>
  </style>
 </defs>
 <g id="Layer_x0020_1">
  <metadata id="CorelCorpID_0Corel-Layer"/>
  <g id="_218384679344">
   <path class="fil0" d="M7021 4840c1,-10 -1,-9 4,-19 4,-9 3,-4 8,-9l-2 0c3,-14 0,-15 11,-25l3 -15c2,-15 -1,-16 11,-26l15 -43 0 -19c7,-10 3,-8 16,-12l6 22 6 31c10,13 8,11 12,28l15 56c15,11 10,9 15,31l10 27 195 3c-4,15 -19,23 -32,29 -7,11 -1,7 -16,15l-4 0c-6,10 0,6 -15,14l-3 0c-6,8 -2,4 -9,10 -8,9 5,-2 -7,5l-4 -1c-5,9 -1,4 -8,11 -8,8 4,-2 -8,4l-18 10c-6,9 -1,3 -8,10 -6,6 3,-1 -8,5l-4 -1 -10 17 4 15 4 28c12,13 11,13 13,32l-3 6c12,12 14,25 17,44l-2 4c12,11 10,7 10,26l5 17c13,23 6,11 1,20 -17,-6 -5,0 -10,-11l-3 0c-16,-7 -13,-4 -23,-17l-17 -11 -15 -12 -9 -4c-9,0 -8,2 -5,-6 -7,-3 -6,0 -14,-6 -9,-7 -2,-2 -8,-10l-11 -7c-7,-3 -7,-2 -15,-7 -8,-6 -3,-3 -7,-8 -17,-7 -9,-5 -14,-13 -18,-4 -12,-4 -27,5 -8,10 9,8 -6,9l-11 5 -5 -2c-7,15 -7,15 -23,20 -8,11 -8,9 -22,16l-11 6c-6,8 -1,3 -9,10 -8,7 7,-3 -8,4l1 -1 -15 10 -30 21c-11,10 13,8 -13,8 -6,-16 -5,-12 6,-23 4,-15 11,-24 9,-41l13 -30 22 -79 4 -22c-10,-6 -3,-5 -8,-11l-40 -30c-10,-5 -4,-1 -11,-8 -1,0 -3,-1 -3,-3 -1,-2 -2,-3 -2,-4l-4 1c-15,-9 -8,-3 -14,-16l-5 0 -22 -18c-14,-10 -34,-21 -37,-37l193 -2 9 -26zm-883 -40c4,-16 2,-23 17,-30l29 -99 7 -12 5 10 10 43c12,12 11,12 14,31l3 14 10 26 13 48c11,11 7,6 13,23l195 6c-4,11 -10,14 -22,20 -9,14 -6,11 -22,18l-3 0c-7,13 0,8 -15,15l-3 0c-6,9 0,6 -16,15l-4 -1c-6,10 -1,4 -8,11 -9,8 6,-3 -8,4l-18 11c-5,8 -1,3 -8,10 -6,6 3,-1 -8,4l-22 17 51 172c12,14 7,-2 9,24 -25,-4 -8,1 -14,-10l-18 -10c-14,-7 -9,-4 -16,-15l-2 1 -11 -7c-8,0 -6,2 -6,-7l-52 -33c-9,-5 -4,-2 -11,-7 -1,-1 -2,-1 -3,-3 0,-2 -1,-2 -2,-3l-8 -5c-9,0 -8,3 -5,-6 -19,-6 -9,-7 -31,-7l-11 6c-8,10 3,2 -12,12 -9,7 -2,1 -12,6l-11 7c-5,6 -2,3 -8,9 -13,10 8,-2 -8,2l-15 13 -24 11c-8,17 -8,14 -25,22l-4 0c-5,9 7,7 -4,9l-12 5 -8 2c0,-34 26,-77 28,-109 3,-18 1,-15 12,-28l3 -20c2,-11 -2,-2 3,-14 4,-11 4,-6 8,-11l-1 -7 -15 -17 -22 -14c-15,-8 -9,-3 -16,-16l-3 1 -16 -11 -47 -38c-8,-3 -6,0 -15,-7 -8,-7 -1,-2 -8,-10l-11 -16 199 -2 15 -53zm-896 6c3,-18 0,-16 13,-27l19 -70c6,-17 4,-16 14,-28l3 -15 -2 -9 14 -7 5 11 0 10 -2 1c12,12 10,13 15,31 -1,16 15,55 21,72 4,13 18,66 27,64l196 9c-6,14 -1,9 -17,17l-3 1c-5,7 -1,3 -8,9 -8,8 4,-1 -8,4l-3 1c-6,9 2,3 -10,13 -8,6 -4,2 -12,6l-4 3 -14 9c-4,6 -1,2 -8,8 -6,6 5,-2 -8,5l-16 9c-8,12 4,1 -11,13 -6,5 -6,3 -11,6l-4 0c-7,12 -1,8 -16,15 -12,14 9,51 12,70 11,11 9,9 10,26l4 18c10,14 7,8 10,26l3 25c3,4 9,6 11,18 4,28 -1,8 -6,15l-13 -15 -5 2 -15 -13c-19,-5 -11,-5 -14,-10 -7,-3 -5,0 -14,-6 -9,-7 -1,-2 -8,-10l-10 -7c-8,-3 -8,-1 -16,-7 -8,-6 -3,-3 -6,-8 -6,-2 -6,-1 -13,-6 -9,-7 -2,-2 -9,-11l-11 -5c-10,-5 -3,-1 -11,-8 -1,0 -2,-1 -3,-3 0,-2 -1,-2 -2,-4l-18 0c-6,10 9,8 -5,9l-11 5 -7 1c-7,10 0,8 -17,14l-3 0c-7,9 8,7 -6,9l-10 3c-3,5 0,3 -7,8 -12,8 9,-2 -8,2 -3,5 1,5 -13,10 -8,11 -9,9 -23,16l-10 6c-6,7 -2,4 -9,10 -8,7 6,-2 -8,4l-11 6c-11,9 14,11 -13,7 -1,-25 0,-11 6,-19l-1 2c2,-17 -2,-18 10,-27l8 -38 10 -27c1,-17 6,-31 17,-44l9 -43 -14 -10c-10,-6 -4,-2 -11,-8 -1,-1 -2,-1 -3,-3 -1,-2 -2,-3 -2,-4l-23 -15c-15,-8 -8,-3 -15,-15l-4 1c-16,-8 -10,-4 -16,-16l-23 -14c-15,-7 -12,-5 -22,-18l-18 -18c13,-7 30,-4 49,-4l146 -2 12 -36zm-996 -82l85 5 22 2 16 -13 -3 -3c5,-18 3,-18 16,-29l8 -20c2,-11 0,-5 5,-14 0,0 2,-1 2,-3 1,-2 2,-2 3,-3l4 -9 5 -12c0,-9 -3,-7 6,-7l-2 -3c5,-16 6,-20 18,-30l10 -26c10,-9 -13,-12 13,-7l16 85 -2 8c12,15 10,19 11,40 2,20 4,46 16,65l32 2c21,0 38,-1 54,11l91 8 19 4c-2,13 4,8 -9,11l-20 13 -22 9c-8,10 9,7 -7,9l-12 3 -7 5 -25 15 -24 14 -16 10 -30 18 11 76c11,12 13,36 16,55l-2 24c11,12 15,29 6,43 -5,-3 -3,-1 -8,-5 -7,-7 -1,-2 -7,-11l-13 -8c-15,-10 -8,-4 -15,-18l-77 -66 -9 -8c-9,0 -6,2 -6,-9l0 0 -15 -5 -17 5 -15 8c-6,7 2,3 -11,11 -8,5 -9,4 -17,6l-8 1c-7,10 -5,10 -20,14l1 -1 -17 10 -10 3c-11,12 -12,11 -28,17l0 -2c-5,5 -3,4 -10,9 -8,5 6,-2 -9,3l1 -1 -19 9c2,-18 -1,-11 10,-23l32 -78 12 -23 12 -31c4,-16 0,-10 12,-22 -2,-31 -64,-69 -84,-95l-8 -4c-9,0 -5,1 -6,-9l-33 -27 -13 -13c18,-12 5,-8 51,-3 18,1 26,0 40,10zm-758 -131c4,-18 4,-21 18,-32l21 -50c4,-15 1,-15 14,-23l14 -36 7 -11c7,5 4,-9 6,11l36 181c16,5 20,4 31,14l10 -5c20,-1 33,3 53,6 22,4 30,-1 45,12l14 -1 44 2c8,6 6,1 8,14l-12 3 -7 1c-7,9 19,6 -5,7l-12 4 -15 7c-7,9 10,7 -7,8l-10 2 2 -1c-8,9 9,7 -7,8l-12 4 -6 2 -20 17 -12 3c-6,6 -2,4 -10,9 -9,6 7,-2 -9,4l-7 1c-7,10 10,8 -7,9l-10 2c-8,21 -4,21 1,45l-1 27c13,15 17,51 18,74l2 36c9,15 11,8 -1,24l-9 -16c-14,-3 -111,-98 -136,-118l-30 15c-9,9 11,6 -8,8l-12 3 -9 4c-8,9 12,6 -7,8l-10 2 -26 14c-9,10 15,7 -8,8l-10 1 2 0c-7,9 9,7 -6,9l-13 3 -10 3c-5,6 -1,3 -9,8 -7,5 4,-1 -9,3l-1 -1c-12,9 15,6 -15,8 6,-26 -1,-11 13,-22l-1 -7c3,-15 0,-15 12,-23l57 -136 -83 -77c-5,-4 -11,-8 -15,-13 -11,-11 -3,-3 -9,-14 -13,-8 -28,-21 -34,-35 59,-2 145,22 200,14l12 -27zm-2133 -1015c-31,16 -89,15 -124,11l-197 13c-16,12 -90,17 -115,17l-20 -2c-12,25 -5,442 -5,504 0,110 -6,1494 2,1533 22,7 728,2 815,2l4119 0c156,0 1623,5 1643,-3l2 -1697 -17 -3 -35 -2c-17,11 -28,11 -49,10 -28,-3 -77,6 -109,8 -36,2 -74,5 -111,7 -260,16 -414,23 -684,19 -178,-2 -494,-11 -674,-30l-212 -17c-29,1 -76,4 -98,-13l-41 3c-21,0 -72,-4 -87,-12l-5 3c-28,-2 -77,-1 -98,-16 -53,5 -134,-21 -184,-14 -23,0 -80,-4 -94,-17 -52,4 -147,-18 -203,-22 -52,-5 -160,-28 -203,-23 -17,-1 -62,-2 -70,-14l-37 -1c-24,0 -149,-16 -162,-26 -36,5 -152,-19 -197,-23l-578 -74c-35,-1 -117,-2 -141,-20 -48,5 -118,-19 -162,-12 -19,0 -60,-6 -83,-8 -13,-1 -22,-4 -35,-5 -23,-1 -25,3 -43,-8l-100 -9c-32,2 -197,-11 -217,-21 -31,2 -135,-13 -168,-13 -37,-1 -135,-5 -168,-11 -42,-9 -121,-6 -171,-10 -54,-5 -114,-4 -170,-7 -118,-7 -244,-3 -363,-3 -60,0 -121,-1 -180,2 -45,2 -130,12 -171,4z"/>
   <path class="fil1" d="M398 2040c-12,13 -48,17 -69,18l-6 -2c-13,12 -10,9 -31,9l-138 28c-17,16 -66,24 -91,26l-54 16 0 545c49,2 147,-40 204,-44 13,-11 16,-10 34,-11l38 -5c17,-12 50,-15 73,-21l124 -18c15,-10 32,-12 51,-13l54 -5c6,-12 67,-18 84,-18l40 -2c14,-10 48,-13 68,-14l45 -2c16,-9 49,-10 70,-10l168 -15c27,-13 170,-21 206,-19 62,8 179,-6 249,-7l513 0c86,0 168,8 252,9l718 54c61,5 182,29 236,23 29,-3 113,5 135,19l167 19c56,2 110,15 164,22 56,7 310,42 341,41 30,-1 161,13 178,26l235 27c21,0 37,-1 53,10 31,0 74,12 105,14 38,2 74,10 111,15 40,4 194,27 222,22l82 8 6 8 62 3c22,-2 73,5 98,8 15,2 28,4 43,5 20,1 32,0 46,10 16,-1 391,43 437,37 43,-3 122,6 168,10 37,3 141,1 165,16l251 11c135,5 402,5 538,1 45,-2 86,-6 131,-6 35,0 96,-9 125,-6 27,-19 91,-13 127,-15 41,-3 85,-9 126,-10l22 -1 116 -10 -11 0 -1 -547 -20 -3c-17,15 -64,12 -89,16 -26,3 -72,8 -97,8 -35,-4 -100,5 -138,8 -46,3 -95,7 -141,8 -97,2 -192,7 -290,8 -512,3 -903,-24 -1406,-75 -44,-5 -91,-9 -134,-15 -31,-4 -98,-13 -128,-13 -31,-1 -88,0 -112,-17l-65 -2c-21,1 -38,0 -55,-10l-19 1c-16,0 -24,-2 -40,-4 -20,-2 -21,0 -34,-10l-400 -49c-27,-1 -76,-3 -96,-17 -37,5 -95,-16 -133,-12 -21,2 -46,-2 -62,-11 -63,1 -184,-34 -238,-27 -21,0 -50,-3 -66,-13l-83 -7c-17,0 -59,-1 -69,-13l-20 0c-8,0 -23,1 -31,-1 -22,-4 -9,-1 -19,-9 -23,4 -150,-14 -183,-18 -39,-5 -144,-21 -178,-18 -23,1 -57,0 -76,-12 -32,4 -595,-59 -657,-50 -39,4 -104,-6 -146,-7 -23,-2 -131,2 -141,-12l-455 -2c-150,2 -292,11 -441,18 -142,8 -281,25 -422,40l-396 61z"/>
   <path class="fil0" d="M1268 2483c-13,9 -4,7 -26,9l-180 10 -168 15 -1 547 75 -6 336 -25c329,-21 561,-12 882,-5 51,1 129,13 176,7 27,-1 67,-2 89,10l52 -1c28,-3 155,8 183,15 17,-4 152,7 158,18l23 -4c26,-2 70,1 91,12l278 27c22,0 53,1 71,12 27,-4 187,18 225,24 40,6 195,29 225,26 19,-1 54,4 69,13l38 3c21,0 42,1 58,11 44,-6 125,22 171,18 12,0 23,0 36,2 20,2 9,-2 23,9l40 1c26,0 134,12 151,24l5 -4c22,-2 97,8 110,19l26 0c15,-1 80,5 86,15l10 -2c21,1 34,-1 50,10 31,-4 60,8 92,8 19,1 68,0 76,16l45 -1c29,1 82,1 102,17l425 43c40,0 162,3 189,20 56,-6 140,20 201,12 29,-2 56,3 85,6 14,1 29,1 43,2 20,0 26,-2 41,8l30 -1c33,-3 90,-5 117,10l63 -2c29,-3 152,2 176,10l572 -1c54,-2 139,-12 189,-7 23,-13 70,-14 98,-11 49,8 188,-14 246,-19 40,-4 76,-9 116,-13 33,-4 90,-14 119,-14 14,-12 9,-7 29,-9 11,-1 18,-3 29,-5 19,-3 39,-7 58,-8l25 2c14,-11 20,-10 41,-10l154 -28c14,-9 32,-13 50,-13l4 4c12,-13 47,-18 67,-19l71 -12c12,-10 11,-9 30,-10l66 -14c14,-11 14,-10 34,-12l42 -7 0 -553 -130 31c-13,11 -20,11 -38,12l-30 6 -36 10 -50 7c-13,12 -41,16 -61,17l-89 13c-14,11 -30,12 -50,13l-269 40c-16,9 -43,12 -63,11l-49 4 -116 10c-13,11 -12,9 -32,10 -40,1 -74,8 -116,8 -43,0 -84,12 -127,8 -29,-3 -90,6 -125,6 -45,0 -86,4 -131,6 -136,4 -403,4 -538,-1l-251 -11c-54,5 -118,-7 -175,-8 -29,-1 -49,-7 -78,-7 -25,0 -60,2 -80,-11 -46,6 -421,-38 -437,-37 -29,3 -67,-5 -99,-7 -16,-1 -28,-6 -43,-7 -18,-1 -37,4 -45,-9l-62 -3c-27,-2 -68,0 -88,-16 -28,5 -182,-18 -222,-22 -37,-5 -73,-13 -111,-15 -31,-2 -74,-14 -105,-14 -16,1 -43,4 -53,-10l-235 -27c-26,-1 -167,-14 -178,-26 -31,1 -285,-34 -341,-41 -54,-7 -108,-20 -164,-22l-167 -19 -135 -13 0 -6c-54,6 -175,-18 -236,-23l-718 -54c-84,-1 -166,-9 -252,-9l-513 0c-70,1 -187,15 -249,7z"/>
   <path class="fil0" d="M4962 1467l9 -21 15 -41c4,-16 9,-35 19,-46l14 -43 21 -50 62 -176c7,67 -2,159 -3,230 -1,74 -4,159 0,232l120 2 1 -706 -122 -2 -11 12c0,13 2,13 -9,23l-16 52c-3,16 -4,17 -14,28l2 6c-3,9 -5,15 -9,24 -7,18 0,8 -12,20l-18 58c-6,17 -3,17 -16,29l1 5 -13 34c0,16 -1,16 -12,28l-3 12c-2,18 0,14 -11,24l-23 76 -16 33c2,19 6,4 -4,15 -9,-17 -7,-27 1,-43 -5,-46 14,-136 4,-177l0 -256 -116 1 -1 703 126 0 34 -86z"/>
   <path class="fil2" d="M1460 1255l138 0c15,8 9,32 9,70l-1 223 131 2 -1 -700 -132 -2 -3 16 -1 259c-9,10 2,4 -11,8 -1,0 -123,4 -132,-4 -13,-23 -5,-236 -5,-281 -29,8 -94,3 -126,3l-3 701 129 0 0 -279c1,-21 -2,-8 8,-16z"/>
   <path class="fil0" d="M4519 1435c-7,13 -8,9 -23,10 -6,15 -45,10 -58,1 -8,-22 -3,-84 -3,-112l-1 -87c0,-27 0,-22 9,-29l50 -2c17,5 14,3 24,14 14,6 25,14 30,28 13,5 10,5 15,19l-1 0c11,10 8,11 9,26 -3,49 4,107 -51,132zm-10 116l8 4c13,-11 22,-12 40,-13l62 -26 15 -14 19 -13c7,-14 5,-15 21,-25 45,-72 44,-114 35,-198 -9,-13 -6,-7 -9,-25l-12 -36c-7,-5 -4,-2 -9,-9 -5,-6 0,2 -4,-8l-36 -36c-10,-4 -4,-1 -11,-6 -1,-1 -2,-1 -3,-3 0,-1 -1,-2 -1,-3l-17 -10c-76,-28 -88,-26 -170,-22l0 -147 225 0 0 -111 -356 -3 -2 701c25,-1 67,5 96,7 40,2 72,-4 109,-4z"/>
   <path class="fil0" d="M7275 1258l9 1c16,2 0,-1 7,9l21 26c10,0 7,-3 7,7l3 13 20 85c15,19 18,58 20,84l19 66c26,4 111,7 132,-2l-1 -18 -17 -78c-11,-13 -11,-22 -13,-40l2 -7c-13,-13 -13,-34 -16,-54l3 -7c-12,-12 -11,-14 -12,-33l-12 -44c-13,-10 -13,-12 -17,-29l-11 -15 -31 -31c-12,-5 -3,1 -9,-4 -8,-6 -4,-2 -9,-9l-8 1c-11,-9 -7,3 -8,-15l15 -19 -2 -8c3,-6 3,-9 7,-14 5,-7 2,-3 9,-8l6 -17c5,-17 4,-13 15,-22l2 -17c3,-6 2,-7 7,-13 5,-7 2,-3 9,-8l-2 -2 9 -18c4,-16 5,-19 17,-28l0 -8c2,-6 2,-8 5,-14 6,-9 2,-2 9,-8l-2 -2c3,-11 1,-4 5,-13 1,-1 3,-1 3,-3 0,-2 2,-2 3,-3l4 -9 9 -19 12 -20 3 -10 11 -19 -1 1 4 -18 -145 -2 -10 18 -2 17c-4,17 -1,14 -13,26l-45 128c-6,20 -8,34 -21,50 -6,19 -17,62 -34,68l-2 -304c-24,-6 -114,-7 -136,0l0 704c21,7 113,6 136,1l0 -298 36 5z"/>
   <path class="fil2" d="M6812 1440c-19,14 -50,18 -72,7 -12,-24 -4,-87 -4,-118 0,-33 -7,-105 9,-111 66,-8 60,6 104,34l11 17c8,36 20,63 8,105 -9,29 -29,55 -56,66zm-22 115c36,3 72,-15 106,-25l20 -16 4 2c7,-11 2,-8 16,-14 22,-15 45,-43 56,-69 5,-16 1,-11 12,-23 2,-28 12,-51 12,-85 0,-30 -5,-58 -12,-86l-11 -23 2 -1c-7,-6 -4,0 -11,-12 -6,-9 -2,-5 -5,-14l-11 -14c-10,-5 -8,5 -10,-5l-3 -9 -29 -19 -17 -12 -23 -9c-19,-2 -22,2 -32,-10 -41,-6 -72,-8 -113,-1 -14,-9 -8,-36 -8,-71 0,-26 -3,-54 4,-78l224 -3 0 -111 -354 0 -1 702c1,0 182,5 184,6z"/>
   <path class="fil0" d="M2004 1181c2,-22 4,-53 16,-70l14 -110 3 -24c16,5 13,8 13,26l24 179c10,15 10,27 10,47l3 56 -94 0c-5,-35 15,-70 11,-104zm-49 -309l-12 72c-1,19 0,23 -11,38l-10 67c-1,17 -7,49 -16,60 1,18 -2,34 -13,47 3,33 -27,107 -27,146 -2,19 0,20 -11,34l2 6c-3,22 -5,51 -20,66 7,20 -11,51 -10,75 -1,18 -1,22 -11,37l-4 33c30,1 109,5 132,-3l33 -158 126 1c5,19 22,105 20,120 11,3 12,28 14,39l125 -1 0 -21 -10 -46c2,-30 -25,-137 -32,-175 -5,-31 -33,-152 -30,-173 -11,-11 -7,0 -12,-23 -3,-11 -3,-16 -4,-27l3 -12c-12,-14 -10,-22 -11,-43 -2,-22 -16,-55 -10,-74 -14,-12 -16,-38 -19,-59l-8 -52 -161 0 -13 26z"/>
   <path class="fil0" d="M2883 1252l-1 -19c1,-30 7,-83 22,-105l8 -82c1,-16 -2,-27 9,-36l-1 -19c0,-1 -16,5 7,-17 11,15 23,97 22,118l11 105c14,17 19,65 16,91l-101 -2c-2,-16 -6,-27 8,-34zm-40 -393l-13 75c0,21 2,24 -11,38l-12 75c-1,15 1,19 -10,30l-45 214c-1,21 2,22 -10,35l2 7c-1,19 -2,27 -12,42l-36 178 129 2c4,-17 1,-17 12,-27 -1,-21 17,-115 26,-136l126 0c6,29 26,123 24,145l11 13 126 2 -4 -34 2 -4c-12,-6 -18,-57 -19,-73l-40 -227c-9,-12 -13,-35 -14,-53l-60 -314 -162 -1 -10 13z"/>
   <path class="fil0" d="M4072 1114c-4,19 -3,14 -15,22l-15 24c-8,6 6,2 -14,10 -9,4 -9,3 -19,4l-52 4c-4,-30 -6,-205 3,-222 21,-8 39,-3 61,-2 8,3 9,2 16,6 14,9 6,5 12,12l5 8c8,4 11,2 13,17l3 12c14,16 24,77 2,89l0 16zm-120 439c7,-68 -9,-212 5,-265l90 -7 17 -4c9,-11 9,-8 26,-11l-1 3c3,-12 11,-9 19,-10 3,-11 6,-9 17,-12l15 -12 18 -13 3 -9c1,-16 -1,0 7,-5l3 -9c1,-14 -1,1 9,-6l7 -16c5,-17 4,-19 15,-31l-2 0c3,-19 1,-19 12,-32 1,-60 12,-100 -14,-160 -4,-4 -4,-3 -9,-10 -6,-12 4,14 -2,-9 -10,-23 -31,-41 -50,-55l-18 -10c-53,-35 -243,-43 -299,-15 -11,22 -7,623 -3,696 22,5 109,4 135,2z"/>
   <path class="fil2" d="M5798 1431c-10,-19 -5,-156 -4,-188 22,-17 125,-6 159,-7l-3 -102c-43,-3 -146,8 -155,-9l1 -164 171 -2 -2 -109 -303 0 -1 700 314 0 -1 -113 -139 0c-19,0 -26,5 -37,-6z"/>
   <path class="fil0" d="M1068 849l-36 19c-27,4 -75,51 -89,73l-13 16 -2 9c-2,18 1,-2 -9,7l-4 7c-3,17 0,13 -13,22l-1 17c-7,19 -4,19 -16,30 0,27 -29,87 -16,227 2,23 10,45 10,68 12,12 11,16 12,34 10,12 16,31 20,47l-2 0c8,6 3,-1 9,8 6,10 4,8 6,18l-1 -1c2,1 4,0 4,2 1,2 3,2 3,3 6,7 3,1 7,11 24,38 73,71 116,84 45,12 147,17 187,-7l-7 -91 -11 -21 -24 5 -67 0 -24 -10 -1 2c-17,-6 1,3 -8,-4 -7,-4 -6,-4 -10,-8 -37,-27 -54,-66 -65,-111 -6,-27 -9,-54 -10,-82 -1,-25 5,-66 1,-87 3,-20 3,-35 14,-50l14 -44c4,-17 7,-22 20,-35 52,-60 91,-51 163,-38 2,-20 0,-24 12,-38l6 -53c1,-18 2,-18 -4,-30l-16 -2c-23,-3 -41,-7 -65,-8 -23,0 -41,6 -61,6l-29 5z"/>
   <path class="fil0" d="M3523 867c-5,7 -1,3 -8,9 -8,7 11,-4 -9,4l-11 6 -16 15c-12,7 -33,30 -40,44 -8,16 -4,10 -15,18l-2 5 -4 12c0,9 2,7 -7,7l1 1c-3,11 0,4 -5,13 0,1 -2,4 -2,3 -1,0 -2,3 -3,4l-13 40c-3,16 -4,24 -13,36l-1 27c1,28 -7,66 -8,97 0,33 9,66 8,97l-4 5c12,13 16,39 19,58 0,14 5,27 11,41 5,5 3,2 9,10 6,10 -3,-10 3,9l-1 8c14,6 10,2 14,19l3 4c8,6 3,-1 13,11 7,8 1,2 6,11l33 29 17 18 6 1 14 6c1,1 2,2 3,3l43 14c68,6 82,5 150,-1l6 2 18 -14 -2 -24 -3 -58 -8 -24 -18 1 -74 2c-14,-2 -15,1 -24,-10 -21,-4 -32,-17 -46,-31 -7,-6 -3,-2 -9,-9 -2,-2 -3,-3 -4,-5 -5,-8 -6,-12 -8,-19l-4 -11c-10,-13 -8,-11 -12,-28 -4,-28 -12,-56 -13,-86 -1,-28 3,-70 -1,-95 1,-21 3,-49 15,-66 0,-9 1,-13 5,-23l12 -15c8,-22 25,-45 45,-56 5,-6 2,-4 8,-10 2,-1 8,-4 10,-5 9,-5 13,-6 23,-8 16,1 90,7 97,7l19 -112c-107,-45 -170,0 -223,13z"/>
   <path class="fil2" d="M2490 962l184 0 0 -93 -3 -22 -320 1 -2 703 132 -1c-7,-167 1,-378 -1,-555 0,-24 -5,-24 10,-33z"/>
   <path class="fil0" d="M5400 1369c0,22 -3,21 -9,41l-11 16 -1 -3c-6,9 7,8 -5,10l-11 4c-38,7 -48,0 -78,1l-6 69 -2 40 16 15c20,-6 82,4 123,-7 47,-13 46,-24 80,-46l4 -9c0,-10 -3,-8 7,-8l6 -16c4,-13 1,-14 13,-22l4 -13c2,-22 -2,-23 10,-37l-3 -21c-7,-55 12,-477 0,-535l-126 1c-7,29 -2,326 -2,398 0,19 9,118 -9,122z"/>
   <path class="fil3" d="M6155 4770c-7,20 -4,19 -17,30l-15 53 -199 2 11 16c8,3 8,2 15,8 8,6 2,2 8,9l47 38 9 4c9,0 7,-2 7,7l3 -1c9,6 4,3 11,8 1,1 2,5 2,4 1,-1 2,3 3,4l22 14 10 8c9,0 5,-2 5,9l1 7c-2,15 1,16 -11,25l-3 20c-2,16 1,19 -12,28 -2,32 -28,75 -28,109l8 -2c1,-1 2,-5 3,-4 1,1 2,-2 3,-3 7,-6 1,-2 10,-7l4 0c7,-9 -2,-2 11,-13 4,-3 9,-6 14,-9l24 -11c7,-10 -9,-8 6,-10l9 -3c4,-5 1,-3 8,-8 8,-6 -9,3 8,-3l11 -7c7,-10 -4,-1 11,-12 8,-6 5,-3 13,-6l11 -6 12 -9 19 16c15,6 10,5 13,11l9 5c9,0 7,-2 7,8l52 33c13,6 0,-4 8,4 7,6 3,3 9,10l2 -1 16 15 18 10 5 -2 0 -12 -51 -172 22 -17c6,-9 0,-7 16,-14l18 -11c5,-9 1,-3 8,-10 5,-5 -2,0 8,-5l4 1 16 -15 3 0 15 -15 3 0c6,-7 -1,-3 11,-12 11,-8 1,-1 11,-6 12,-6 18,-9 22,-20l-195 -6c-8,-6 -3,1 -9,-9 -5,-8 -2,-4 -4,-14l-13 -48c-11,-11 -9,-8 -10,-26l-3 -14c-11,-12 -11,-13 -14,-31l-10 -43 -12 2 -29 99z"/>
   <path class="fil3" d="M7071 4703l-15 43c-3,15 0,17 -11,26l-3 15c-2,15 1,15 -11,25l2 0c-3,17 -2,15 -12,28l-9 26 -193 2c3,16 23,27 37,37 9,4 6,0 15,8 8,7 1,1 7,10l5 0c17,10 9,7 14,16l4 -1c10,5 3,0 11,7 0,1 2,5 2,4 1,-1 2,3 3,4l40 30 15 11c-2,19 2,12 -11,22l-22 79c-2,19 1,18 -13,30 2,17 -5,26 -9,41l0 12 7 3 30 -21c0,-9 -3,-7 6,-7l9 -3 -1 1c1,-2 2,-5 3,-4 0,1 1,-3 2,-3 8,-6 1,-3 12,-7l11 -6c5,-6 1,-5 9,-10 8,-6 6,-3 13,-6l23 -20 5 2c0,-9 -3,-7 6,-7l11 -7c15,-9 9,-9 27,-5 12,6 0,-3 8,4 7,7 3,2 6,9 15,5 13,3 22,15l11 7 22 16c12,4 -3,-5 6,3 7,5 4,2 8,7l9 3c13,2 -1,0 6,9l17 11c12,5 0,-3 12,5 12,9 5,5 11,12l3 0 8 2 1 -11 -5 -17c-10,-10 -8,-11 -10,-26l2 -4c-13,-14 -13,-24 -17,-44l3 -6c-12,-13 -11,-13 -13,-32l-4 -28c-9,-7 -5,8 -13,-16l19 -16 4 1c5,-10 1,-4 8,-11 9,-9 -6,2 8,-4l18 -10c8,-13 1,-7 16,-15l4 1c5,-9 1,-4 8,-10 6,-7 -5,2 8,-5l3 0c7,-12 1,-7 15,-14l4 0c5,-9 1,-4 8,-11 8,-8 -5,2 8,-4 13,-6 28,-14 32,-29l-195 -3 -10 -27c-8,-8 -4,0 -10,-13 -1,-2 -5,-15 -5,-18l-15 -56c-12,-11 -10,-10 -12,-28l-6 -31 -3 -1 -19 10z"/>
   <path class="fil3" d="M3541 4488c-2,7 -2,7 -5,14 -5,9 -3,4 -9,9l-21 50c-4,18 -5,21 -18,32l-12 27c-55,8 -141,-16 -200,-14 6,14 21,27 34,35 6,5 9,7 15,13 13,14 1,0 9,14l83 77 -57 136c-1,9 1,5 -4,13 -4,8 -3,5 -8,10l1 7 -4 10 6 4 1 1c0,-8 -2,-6 7,-6l11 -5 10 -3c1,-1 3,-4 3,-3 1,1 2,-3 3,-3 9,-5 2,-3 13,-6l-2 0 18 -9 26 -14 17 -10 9 -4c1,-1 2,-4 3,-3 1,1 2,-2 3,-3 10,-5 2,-2 14,-5l30 -15c25,20 122,115 136,118l11 6 -1 -14 -2 -36c-13,-15 -17,-52 -18,-74l1 -27c-10,-8 -7,4 -12,-20 -2,-11 0,-11 0,-21l11 -4c3,-3 2,-3 9,-8 7,-4 -5,2 8,-3l7 -1c8,-10 -9,-8 7,-9l12 -4 12 -3c7,-12 3,-11 20,-17l6 -2c5,-6 2,-3 10,-9 8,-6 -5,1 9,-3l-2 1 17 -10 15 -7c9,-10 -10,-8 8,-9l9 -2c6,-11 -10,-2 5,-9 -19,-3 -22,-1 -38,-11l-14 1c-27,0 -79,-2 -98,-18l-10 5c-15,0 -26,3 -31,-14l-36 -181 -13 0 -14 36z"/>
   <path class="fil3" d="M4431 4585c-4,17 -4,20 -18,30l2 3c-3,11 0,4 -5,13 0,1 -2,4 -3,3 0,0 -2,2 -3,3l-4 9c-2,14 2,12 -10,20l-8 20c-6,17 -3,18 -16,29l3 3c-5,23 -20,28 -38,11l-85 -5 -82 -6 4 12 33 27 14 13c20,26 82,64 84,95 -3,14 0,15 -12,22l-12 31c-3,14 0,15 -12,23l-32 78c-1,23 -3,9 9,14l-1 1c0,-10 -2,-7 7,-7l12 -5 0 2c6,-6 -2,-3 12,-11 10,-6 7,-3 16,-6l10 -3c8,-9 -10,-7 7,-8l10 -2 -1 1c5,-6 1,-3 8,-9 7,-5 6,-3 12,-5l8 -1c5,-6 0,-4 12,-11 6,-4 10,-4 16,-6l15 -8 13 -13 19 13 0 0c15,10 8,5 15,17l77 66c14,10 9,6 15,18l13 8c23,7 6,3 12,-2l-3 -25 2 -24c-14,-7 -15,-38 -16,-55l-11 -76 30 -18c7,-9 -11,-7 7,-9l9 -1 24 -14c10,-15 8,-12 25,-15l7 -5c5,-5 2,-3 10,-9 9,-6 -9,3 9,-3l22 -9c6,-10 3,-14 20,-13l-10 -15 -91 -8c-21,0 -38,-2 -54,-11l-32 -2c-12,-19 -14,-45 -16,-65 -10,-14 -9,-21 -11,-40l2 -8c-18,-21 -12,-71 -29,-78l-10 26z"/>
   <path class="fil3" d="M5288 4681c-2,18 1,20 -14,28l-19 70c-4,17 -2,15 -13,27l-12 36 -146 2c-19,0 -36,-3 -49,4l18 18c8,4 7,2 15,8 7,6 1,2 7,10l23 14c10,6 3,1 10,9 1,0 3,4 3,3 1,-1 2,3 3,4l4 -1c14,7 8,3 15,15l23 15 10 7c8,0 5,-2 6,8l14 10 -9 43c-2,16 -1,12 -6,26 -5,15 -2,10 -11,18 1,18 3,16 -10,27l-8 38c-2,20 1,14 -10,27l1 -2c1,18 -1,9 7,12l11 -6c0,-10 -3,-8 6,-8l11 -6 10 -6c10,-11 -5,0 9,-10 10,-7 6,-3 14,-6 3,-5 -7,-4 13,-10l15 -10c4,-5 1,-3 8,-8 7,-6 -5,2 8,-4l3 0c5,-8 1,-3 9,-10 7,-6 -9,3 8,-4l7 -1c5,-8 1,-3 8,-10 6,-5 -2,1 8,-4l18 0c10,5 4,1 11,7 1,1 2,5 3,4 1,-1 2,2 2,4l11 5c14,7 14,5 22,17 14,5 12,3 22,15l10 7 22 16c12,4 -2,-5 7,2 7,6 3,3 7,8l10 3c12,2 -1,0 5,10l5 -2 9 0 -1 -18 -3 -25c-11,-11 -9,-6 -10,-26l-4 -18c-11,-12 -9,-9 -10,-26 -3,-19 -24,-56 -12,-70 6,-9 1,-4 9,-10 6,-7 -3,0 7,-5l4 0c5,-7 -1,-4 10,-13 9,-7 3,-1 12,-6l16 -9c7,-11 -8,-9 6,-10l10 -3c5,-8 -14,-5 5,-7l9 -2 4 -3c6,-8 -1,-4 11,-13 9,-7 3,-1 11,-6l3 -1c6,-9 0,-7 16,-13l3 -1c1,-1 6,-14 7,-14 -25,3 -67,0 -93,-1 -19,-1 -85,4 -93,-11 -9,2 -23,-51 -27,-64 -6,-17 -22,-56 -21,-72 -13,-11 -12,-13 -15,-31l2 -1 -17 -5 -3 15z"/>
   <path class="fil4" d="M7458 3953l17 3 -2 1697c-20,8 -1487,3 -1643,3l-4119 0c-87,0 -793,5 -815,-2 -8,-39 -2,-1423 -2,-1533 0,-62 -7,-479 5,-504l-12 5c-5,80 -1,175 -1,257 0,173 -6,1738 3,1781 37,12 350,4 414,4l4532 0c76,0 1614,7 1645,-4 9,-46 3,-163 3,-216 0,-227 6,-1477 -5,-1497 -24,-1 -10,-3 -20,6z"/>
   <path class="fil2" d="M6045 1324l459 0c2,-29 4,-65 -3,-92l-456 1 0 91z"/>
   <path class="fil5" d="M2454 359c-2,9 1,5 -4,13 -6,8 -1,2 -8,7l-3 10c-1,14 1,-1 -8,6 -6,15 -30,38 -45,46 -7,8 1,3 -8,9 -14,8 -5,2 -18,5 -44,14 -84,18 -126,-3 -13,-3 -5,1 -15,-4 -13,-7 -7,-6 -12,-11 -21,-18 -36,-35 -50,-60 -11,-11 -7,-5 -13,-22 -4,-33 -15,-45 -16,-87 -1,-16 0,-37 1,-53 2,-19 7,-21 7,-43 3,-14 2,-24 16,-29 3,-23 32,-60 52,-72 6,-9 -9,-7 5,-9l10 -2 21 -12 31 -6c12,-11 21,-9 41,-8 18,1 23,2 36,12l24 8c11,3 4,0 12,5 1,0 3,3 3,3 1,-1 1,1 2,2l9 6c8,0 5,-2 6,8 15,9 35,40 42,57 7,6 3,-1 9,9 4,8 2,6 3,14 9,39 15,57 14,100 -1,44 -16,70 -18,101zm-228 -336c-11,12 -5,8 -22,14 -21,8 -65,45 -67,66 -3,5 -3,7 -7,12 -6,7 -3,3 -8,7l-3 10c0,9 2,7 -6,7l-3 17c-3,16 -8,59 -17,68 4,86 0,83 28,164 1,0 3,0 3,2 1,2 3,2 4,3 5,9 2,2 6,13l18 23 13 13c10,12 25,24 39,28 18,5 16,3 25,16 19,0 37,7 58,8 26,1 47,-6 70,-5 10,-14 17,-13 35,-18l16 -7c7,-11 1,-7 16,-15l27 -24 17 -24 -1 -3c2,-5 5,-10 8,-15 1,-1 3,-5 4,-6 5,-8 2,-4 8,-9l13 -50c3,-66 5,-88 -5,-155l3 -1 -14 -30 1 0 -12 -20c-5,-28 -43,-55 -62,-72 -18,-5 -17,-4 -29,-17 -28,-3 -38,-12 -75,-12 -39,-1 -49,8 -81,12z"/>
   <path class="fil5" d="M895 486l29 0 0 -440 247 -1 2 441 32 0 1 -465c-49,-1 -282,-6 -312,3l1 462z"/>
   <path class="fil5" d="M3438 486c5,-53 -7,-186 5,-226 17,-2 54,-5 64,7l35 9 17 13 25 26c1,1 3,1 4,3 0,2 3,2 3,3 6,8 2,1 7,11l-2 1c1,1 3,1 3,3l6 14 12 37c13,13 10,9 14,27l1 12c13,13 23,37 28,56l0 1 28 2 -3 -19 -3 -9 -13 -24 0 -7 -11 -24 -5 -27c-12,-2 -21,-32 -25,-44l2 -3 -24 -40 -20 -20 -17 -10 1 1c-13,-3 -5,-1 -14,-5 -1,-1 -3,-1 -4,-3 -1,-2 -2,-2 -4,-3l-31 -8c-13,-4 -5,-1 -14,-7l157 -184 4 -9c0,-8 -2,-5 8,-5l0 -3c-1,-13 5,-4 -3,-10l-25 1c-13,9 -114,137 -140,167 -18,21 -35,53 -59,39 -9,-24 -2,-170 -3,-210l-31 0 -1 467 28 0z"/>
   <path class="fil6" d="M4861 236c-5,9 -3,12 -17,13l-13 2c-24,26 -92,21 -124,7 -5,-28 -6,-189 2,-211 16,-7 112,-13 117,3l4 -1c10,2 4,-1 14,3 10,5 3,2 9,9l6 2 16 11 6 14c13,7 10,3 13,20 12,44 9,102 -33,128zm-158 250c4,-46 -11,-170 8,-202 24,1 35,8 63,5 18,-2 37,-5 55,-7l19 -4c11,-12 19,-14 35,-20 14,-14 25,-22 35,-42l12 -22c1,-41 13,-116 -35,-141l-16 -15c-38,-13 -46,-21 -91,-23 -27,-1 -92,-2 -111,12 -10,17 -5,404 -3,457l29 2z"/>
   <path class="fil7" d="M5941 486l237 1 -1 -27c-54,-7 -166,7 -208,-5l-1 -199 187 -3 -1 -27 -178 -1c-11,-9 -7,10 -10,-20l3 -155c5,-8 -6,-5 11,-7l166 0c28,-4 9,4 18,-13 -12,-13 1,-8 -53,-8 -19,0 -38,0 -58,0 -27,0 -89,-3 -112,2l0 462z"/>
   <path class="fil8" d="M7288 43c16,4 11,27 10,46l0 373c1,30 -3,14 10,23 16,-8 13,3 12,-47l0 -345c0,-8 -1,-21 0,-29 1,-23 -1,-15 9,-18 16,-10 111,-1 130,-3 27,-4 6,0 16,-8 -5,-21 -7,-13 -74,-13l-260 0 -1 21 148 0z"/>
   <path class="fil9" d="M6790 1555c-2,-1 -183,-6 -184,-6l1 -702 354 0 0 111 -224 3c-7,24 -4,52 -4,78 0,35 -6,62 8,71l2 -146 223 -2c4,-28 6,-96 -3,-122l-361 2c-8,26 -9,679 0,710 23,10 178,18 188,3z"/>
   <path class="fil10" d="M5981 1439c-37,-16 -136,-3 -183,-8 11,11 18,6 37,6l139 0 1 113 -314 0 1 -700 303 0c-10,-15 -15,-10 -38,-10l-116 1c-44,0 -112,-4 -153,1 -12,47 -3,289 -3,357 0,51 -9,331 5,354 20,8 301,7 315,-1 16,-22 5,-83 6,-113z"/>
   <path class="fil11" d="M2490 962c-15,9 -10,9 -10,33 2,177 -6,388 1,555l-132 1 2 -703 320 -1c-10,-9 5,-7 -40,-7 -12,0 -25,0 -38,0 -57,0 -208,-3 -246,1 -7,28 -6,688 1,714 25,3 114,6 133,-1 15,-24 6,-113 6,-147 0,-85 -6,-405 3,-445z"/>
   <path class="fil12" d="M1460 1255c-10,8 -7,-5 -8,16l0 279 -129 0 3 -701c32,0 97,5 126,-3 -8,-10 -15,-6 -32,-6l-100 2c-10,34 -7,692 1,713 24,4 115,7 132,-3 18,-25 2,-245 7,-297z"/>
   <path class="fil13" d="M4509 1551c-37,0 -69,6 -109,4 -29,-2 -71,-8 -96,-7l2 -701 356 3c-8,-13 7,-8 -19,-11l-343 2c-7,25 -8,683 0,711 29,11 73,9 105,9 20,1 39,1 59,0 6,0 21,0 27,-1 22,-4 10,-2 18,-9z"/>
   <path class="fil14" d="M5400 1369c18,-4 9,-103 9,-122 0,-72 -5,-369 2,-398l126 -1c12,58 -7,480 0,535 19,-27 9,-224 9,-272 0,-47 6,-238 -3,-271l-138 2c-5,17 -8,482 -5,527z"/>
   <path class="fil15" d="M1598 1255c5,54 -10,271 6,297 18,10 107,5 134,3 9,-27 9,-686 0,-714l-86 -1c-68,0 -39,-1 -48,8l132 2 1 700 -131 -2 1 -223c0,-38 6,-62 -9,-70z"/>
   <path class="fil16" d="M7329 46c-10,3 -8,-5 -9,18 -1,8 0,21 0,29l0 345c1,50 4,39 -12,47 -13,-9 -9,7 -10,-23l0 -373c1,-19 6,-42 -10,-46l2 442 37 3 2 -442z"/>
   <path class="fil17" d="M5941 486l0 -462c23,-5 85,-2 112,-2 20,0 39,0 58,0 54,0 41,-5 53,8 -9,17 10,9 -18,13l-166 0c-17,2 -6,-1 -11,7l186 0 14 -10c6,-17 4,-9 -2,-22 -19,-7 -212,-7 -232,0l-3 444c1,27 -2,14 9,24z"/>
   <path class="fil18" d="M895 486l-1 -462c30,-9 263,-4 312,-3 -10,-8 10,-7 -19,-8 -50,0 -268,-6 -298,5 -8,33 -3,349 -3,439 -1,34 0,23 9,29z"/>
   <path class="fil19" d="M824 2527l60 -5c6,99 -6,503 4,546 22,5 63,3 80,-10l-75 6 1 -547c-21,0 -54,1 -70,10z"/>
   <path class="fil20" d="M5794 1243c-1,32 -6,169 4,188 47,5 146,-8 183,8 -12,-18 -20,-12 -44,-12l-137 -1 0 -181c29,1 140,3 160,-3 9,-21 6,-39 6,-63 0,-36 6,-48 -10,-54l1 112c-34,11 -118,-1 -163,6z"/>
   <path class="fil21" d="M6045 1324c11,7 -8,3 13,6l102 0c55,0 338,7 348,-6 6,-12 4,-31 4,-48 0,-23 7,-37 -11,-44 7,27 5,63 3,92l-459 0z"/>
   <path class="fil22" d="M7329 46c24,7 130,7 152,-3l0 -24c-16,-6 -320,-6 -328,-4 -11,3 -4,1 -12,7l260 0c67,0 69,-8 74,13 -10,8 11,4 -16,8 -19,2 -114,-7 -130,3z"/>
   <path class="fil22" d="M1600 1123l-138 1c-7,-29 0,-255 -2,-265 -4,-23 3,-7 -8,-13 0,45 -8,258 5,281 9,8 131,4 132,4 13,-4 2,2 11,-8z"/>
   <path class="fil12" d="M4919 1105c13,-12 8,-105 8,-129 0,-34 5,-106 -4,-135l-91 -1c-25,0 -20,-4 -29,10l116 -1 0 256z"/>
   <path class="fil23" d="M4831 251c-51,8 -65,16 -120,3l1 -204c34,-7 79,-3 114,0 -5,-16 -101,-10 -117,-3 -8,22 -7,183 -2,211 32,14 100,19 124,-7z"/>
   <path class="fil24" d="M6054 2882c-24,-15 -128,-13 -165,-16 -46,-4 -125,-13 -168,-10 20,13 55,11 80,11 29,0 49,6 78,7 57,1 121,13 175,8z"/>
   <path class="fil20" d="M5795 1125l161 0c-21,-11 -123,-4 -156,-4l0 -153 147 1c27,-3 12,0 20,-10l-171 2 -1 164z"/>
   <path class="fil16" d="M5794 1243c45,-7 129,5 163,-6l-1 -112 -161 0c9,17 112,6 155,9l3 102c-34,1 -137,-10 -159,7z"/>
   <path class="fil25" d="M2399 1942c-23,-16 -108,-12 -141,-13 -41,-2 -109,-10 -146,-6 10,14 118,10 141,12 42,1 107,11 146,7z"/>
   <path class="fil17" d="M4703 486c16,-8 7,-71 7,-92 0,-34 -1,-69 1,-103 38,6 86,12 118,-9 -18,2 -37,5 -55,7 -28,3 -39,-4 -63,-5 -19,32 -4,156 -8,202z"/>
   <path class="fil26" d="M3952 1553c16,-10 0,-204 9,-258 23,0 71,0 86,-14l-90 7c-14,53 2,197 -5,265z"/>
   <path class="fil24" d="M7099 2882c43,4 84,-8 127,-8 42,0 76,-7 116,-8l10 -9c-41,1 -85,7 -126,10 -36,2 -100,-4 -127,15z"/>
   <path class="fil27" d="M6812 1440c-23,2 -46,12 -65,0 -10,-19 -7,-191 -2,-222 -16,6 -9,78 -9,111 0,31 -8,94 4,118 22,11 53,7 72,-7z"/>
   <path class="fil4" d="M3438 486c17,-10 7,-85 7,-107 0,-37 -2,-78 1,-115l61 3c-10,-12 -47,-9 -64,-7 -12,40 0,173 -5,226z"/>
   <path class="fil24" d="M1062 2502l180 -10c22,-2 13,0 26,-9 -36,-2 -179,6 -206,19z"/>
   <path class="fil28" d="M2963 3637c-18,-9 -188,-23 -217,-21 20,10 185,23 217,21z"/>
   <path class="fil24" d="M5284 2819c-14,-10 -26,-9 -46,-10 -15,-1 -28,-3 -43,-5 -25,-3 -76,-10 -98,-8 8,13 27,8 45,9 15,1 27,6 43,7 32,2 70,10 99,7z"/>
   <path class="fil29" d="M5559 3396c-27,-17 -149,-20 -189,-20 19,8 164,22 189,20z"/>
   <path class="fil17" d="M6315 3441c-24,-8 -147,-13 -176,-10 26,18 138,12 176,10z"/>
   <path class="fil30" d="M2500 318c20,-31 21,-127 -5,-155 10,67 8,89 5,155z"/>
   <path class="fil25" d="M7272 2320c25,0 71,-5 97,-8 25,-4 72,-1 89,-16 -27,-1 -67,6 -96,9 -20,2 -82,4 -90,15z"/>
   <path class="fil26" d="M5976 225l-2 -173 181 -3c22,-3 6,0 14,-9l-14 10 -186 0 -3 155c3,30 -1,11 10,20z"/>
   <path class="fil24" d="M4221 2689c-17,-13 -148,-27 -178,-26 11,12 152,25 178,26z"/>
   <path class="fil21" d="M1955 872l13 -26 161 0c-9,-8 5,-7 -21,-7 -34,0 -116,-5 -144,3l-9 30z"/>
   <path class="fil31" d="M5548 4865c16,-8 11,-3 17,-17l-196 -9c8,15 74,10 93,11 26,1 68,4 93,1 -1,0 -6,13 -7,14z"/>
   <path class="fil28" d="M3375 1305c1,-31 -8,-64 -8,-97 1,-31 9,-69 8,-97 -19,25 -19,169 0,194z"/>
   <path class="fil21" d="M2843 859l10 -13 162 1c-7,-14 -21,-9 -39,-9 -15,1 -30,1 -44,1 -27,0 -59,-5 -85,3l-4 17z"/>
   <path class="fil17" d="M5929 3424c-15,-10 -21,-8 -41,-8 -14,-1 -29,-1 -43,-2 -29,-3 -56,-8 -85,-6 21,13 139,18 169,16z"/>
   <path class="fil19" d="M3714 1551c-68,6 -82,7 -150,1 18,19 135,19 150,-1z"/>
   <path class="fil29" d="M4343 3255c-17,-12 -125,-24 -151,-24 8,13 54,14 72,16 20,3 60,9 79,8z"/>
   <path class="fil32" d="M3224 3667c-24,-17 -126,-20 -161,-21 18,11 20,7 43,8 13,1 22,4 35,5 23,2 64,8 83,8z"/>
   <path class="fil33" d="M4464 3822c-20,-14 -132,-25 -162,-26 13,10 138,26 162,26z"/>
   <path class="fil18" d="M7507 863c12,-12 8,-3 9,-22 -28,-6 -131,-9 -150,2l145 2 -4 18z"/>
   <path class="fil18" d="M2844 3077c-6,-11 -141,-22 -158,-18 14,7 140,20 158,18z"/>
   <path class="fil21" d="M5087 858l11 -12 122 2c-6,-14 -10,-10 -29,-10 -27,0 -80,-2 -99,4l-5 16z"/>
   <path class="fil28" d="M2686 3059c-28,-7 -155,-18 -183,-15 13,8 -2,5 22,8l161 7z"/>
   <path class="fil22" d="M3527 3699c-23,-11 -111,-18 -141,-20 24,18 106,19 141,20z"/>
   <path class="fil24" d="M3371 2581c-22,-14 -106,-22 -135,-19l0 6 135 13z"/>
   <path class="fil30" d="M7381 1549c8,11 -9,4 14,10 1,0 18,0 20,0 11,0 23,0 34,0 47,0 89,8 63,-30l1 18c-21,9 -106,6 -132,2z"/>
   <path class="fil30" d="M3150 1552l-126 -2 -11 -13 5 17c20,9 47,5 69,5 16,0 57,6 63,-7z"/>
   <path class="fil29" d="M6076 3433c-27,-15 -84,-13 -117,-10 24,12 87,12 117,10z"/>
   <path class="fil30" d="M2137 1552l6 5c10,4 -2,1 8,2l116 -3c5,-17 8,-14 -5,-26l0 21 -125 1z"/>
   <path class="fil21" d="M1223 846c-19,-17 -110,-24 -126,-2 20,0 38,-6 61,-6 24,1 42,5 65,8z"/>
   <path class="fil34" d="M5035 2241c-16,-13 -8,-8 -30,-9 -10,0 -15,-1 -26,-2 -21,-4 -35,-8 -56,-6 24,17 81,16 112,17z"/>
   <path class="fil9" d="M2920 991c22,8 11,77 29,101 1,-21 -11,-103 -22,-118 -23,22 -7,16 -7,17z"/>
   <path class="fil22" d="M4458 3270c-13,-11 -88,-21 -110,-19 15,13 87,19 110,19z"/>
   <path class="fil17" d="M7655 3376c28,-2 98,-6 116,-22 -19,1 -39,5 -58,8 -11,2 -18,4 -29,5 -20,2 -15,-3 -29,9z"/>
   <path class="fil34" d="M4310 2150c-18,-15 -70,-18 -96,-17 20,14 69,16 96,17z"/>
   <path class="fil23" d="M5584 3948c-17,-11 -73,-13 -98,-13 22,17 69,14 98,13z"/>
   <path class="fil33" d="M4945 3333c-20,-16 -73,-16 -102,-17 9,10 83,17 102,17z"/>
   <path class="fil32" d="M7076 3433c29,0 76,2 98,-11 -28,-3 -75,-2 -98,11z"/>
   <path class="fil35" d="M3743 4660c-15,-13 -23,-8 -45,-12 -20,-3 -33,-7 -53,-6 19,16 71,18 98,18z"/>
   <path class="fil4" d="M919 3619c25,0 99,-5 115,-17 -23,0 -38,5 -60,6 -24,2 -37,-3 -55,11z"/>
   <path class="fil9" d="M5071 3899c-20,-15 -66,-15 -94,-17 14,13 71,17 94,17z"/>
   <path class="fil36" d="M63 2119c25,-2 74,-10 91,-26 -22,1 -74,13 -91,26z"/>
   <path class="fil28" d="M2958 3085c-21,-11 -65,-14 -91,-12 20,14 64,13 91,12z"/>
   <path class="fil37" d="M4168 4730l-4 -12 82 6c-14,-10 -22,-9 -40,-10 -46,-5 -33,-9 -51,3l13 13z"/>
   <path class="fil21" d="M5353 3929c-16,-14 -23,-8 -46,-10 -20,-2 -31,-6 -52,-6 21,15 70,14 98,16z"/>
   <path class="fil18" d="M2451 3045c-22,-12 -62,-11 -89,-10 21,12 62,12 89,10z"/>
   <path class="fil22" d="M4072 1098c22,-12 12,-73 -2,-89 5,41 10,45 2,89z"/>
   <path class="fil38" d="M5035 2793l-6 -8 -82 -8c20,16 61,14 88,16z"/>
   <path class="fil39" d="M4798 3317c-8,-16 -57,-15 -76,-16 11,13 56,15 76,16z"/>
   <path class="fil25" d="M587 2563c24,-1 66,-5 84,-18 -17,0 -78,6 -84,18z"/>
   <path class="fil33" d="M1231 3589c35,4 93,5 124,-11l-124 11z"/>
   <path class="fil23" d="M4570 3285c-6,-10 -71,-16 -86,-15 5,10 71,16 86,15z"/>
   <path class="fil22" d="M2348 46c-13,-10 -18,-11 -36,-12 -20,-1 -29,-3 -41,8l77 4z"/>
   <path class="fil21" d="M7362 1483c-2,-26 -5,-65 -20,-84 2,26 7,64 20,84z"/>
   <path class="fil37" d="M4470 4637l-16 -85c-26,-5 -3,-2 -13,7 17,7 11,57 29,78z"/>
   <path class="fil21" d="M5445 3938c-20,-14 -60,-13 -87,-12 15,8 66,12 87,12z"/>
   <path class="fil40" d="M3661 4911c-1,-23 -5,-59 -18,-74 1,22 5,59 18,74z"/>
   <path class="fil25" d="M3132 2004c-18,-11 -53,-13 -76,-12 19,12 53,13 76,12z"/>
   <path class="fil34" d="M285 2620c16,0 23,-3 39,-6 20,-3 23,2 34,-15 -23,6 -56,9 -73,21z"/>
   <path class="fil29" d="M4571 3837c-16,-14 -47,-13 -70,-14 8,12 53,13 70,14z"/>
   <path class="fil34" d="M329 2058c21,-1 57,-5 69,-18 -22,2 -54,5 -69,18z"/>
   <path class="fil22" d="M3148 1514c-3,-23 -6,-56 -19,-73 1,16 7,67 19,73z"/>
   <path class="fil41" d="M4784 2213c-15,-13 -52,-13 -74,-14 13,10 14,8 34,10 16,2 24,4 40,4z"/>
   <path class="fil29" d="M8045 3309c21,-2 53,-6 67,-19 -20,1 -55,6 -67,19z"/>
   <path class="fil28" d="M3826 3187c-15,-9 -50,-14 -69,-13 14,13 48,12 69,13z"/>
   <path class="fil41" d="M3632 2063c-13,-11 -13,-8 -33,-10 -14,-1 -22,-2 -36,-3 10,12 52,13 69,13z"/>
   <path class="fil36" d="M711 2543c21,0 54,-1 68,-14 -20,1 -54,4 -68,14z"/>
   <path class="fil13" d="M2004 1181c13,-14 8,-11 11,-31 3,-18 5,-19 5,-39 -12,17 -14,48 -16,70z"/>
   <path class="fil19" d="M3307 3124c-18,-11 -49,-12 -71,-12 17,11 49,13 71,12z"/>
   <path class="fil28" d="M2093 224c9,-9 14,-52 17,-68 -15,17 -17,43 -17,68z"/>
   <path class="fil32" d="M3512 1142c11,-14 16,-46 15,-66 -12,17 -14,45 -15,66z"/>
   <path class="fil41" d="M3781 2083c-16,-12 -45,-13 -66,-13 16,10 45,13 66,13z"/>
   <path class="fil17" d="M2156 957c-3,-16 -6,-52 -19,-59 3,21 5,47 19,59z"/>
   <path class="fil9" d="M8010 2765c20,-1 48,-5 61,-17 -20,2 -47,5 -61,17z"/>
   <path class="fil41" d="M4081 2121c-15,-10 -42,-12 -62,-11 16,9 41,13 62,11z"/>
   <path class="fil18" d="M1837 1408c15,-15 17,-44 20,-66 -13,14 -7,9 -11,30 -3,13 -7,22 -9,36z"/>
   <path class="fil22" d="M1906 1109c9,-11 15,-43 16,-60 -14,13 -16,40 -16,60z"/>
   <path class="fil24" d="M4509 2726c-16,-11 -32,-10 -53,-10 10,14 37,11 53,10z"/>
   <path class="fil42" d="M3390 1368c-3,-19 -7,-45 -19,-58 2,19 5,46 19,58z"/>
   <path class="fil13" d="M7539 2842c20,1 47,-2 63,-11 -23,0 -47,-1 -63,11z"/>
   <path class="fil43" d="M4546 5013c-3,-19 -5,-43 -16,-55 1,17 2,48 16,55z"/>
   <path class="fil31" d="M4535 5064c6,9 0,4 7,11 5,4 3,2 8,5 9,-14 5,-31 -6,-43l3 25c-6,5 11,9 -12,2z"/>
   <path class="fil44" d="M3790 4679l7 -1 4 -17 -44 -2c16,10 19,8 38,11 -15,7 1,-2 -5,9z"/>
   <path class="fil13" d="M4152 3230c-14,-11 -3,-7 -23,-9 -13,-2 -24,-2 -36,-2 14,9 40,10 59,11z"/>
   <path class="fil45" d="M3922 3201c-16,-10 -37,-11 -58,-11 16,10 38,12 58,11z"/>
   <path class="fil4" d="M5293 1562l-16 -15 2 -40c-8,14 -10,28 -7,46l21 9z"/>
   <path class="fil22" d="M3672 32c11,-6 6,10 10,-11 -15,-9 1,-6 -23,-7 -25,4 -7,1 -15,9l25 -1c8,6 2,-3 3,10z"/>
   <path class="fil22" d="M3660 482c-5,-19 -15,-43 -28,-56 4,12 7,19 12,31 0,1 6,13 6,14 7,11 4,6 10,11z"/>
   <path class="fil34" d="M3543 2050c-12,-7 -8,-6 -25,-9 -15,-2 -10,-2 -25,-1 10,8 -3,5 19,9 8,2 23,1 31,1z"/>
   <path class="fil46" d="M4858 2222c-16,-11 -33,-10 -55,-10 17,10 34,11 55,10z"/>
   <path class="fil22" d="M2190 1136c-4,-21 -3,-36 -16,-50 1,11 1,16 4,27 5,23 1,12 12,23z"/>
   <path class="fil27" d="M2034 1001c9,0 7,2 7,-6 6,15 0,0 9,8 0,-18 3,-21 -13,-26l-3 24z"/>
   <path class="fil35" d="M3644 4810c-5,-24 -9,-24 -1,-45l-11 4c0,10 -2,10 0,21 5,24 2,12 12,20z"/>
   <path class="fil47" d="M5443 5150l13 15c5,-7 10,13 6,-15 -2,-12 -8,-14 -11,-18l1 18 -9 0z"/>
   <path class="fil39" d="M3660 483c7,14 26,9 37,-2 -8,-22 -4,-9 -12,-15l3 19 -28 -2z"/>
   <path class="fil28" d="M7484 1404c-2,-12 -4,-20 -6,-31 -4,-20 3,-9 -10,-23 3,20 3,41 16,54z"/>
   <path class="fil33" d="M3089 1214c0,-19 -2,-40 -14,-53 1,18 5,41 14,53z"/>
   <path class="fil43" d="M4581 4763c-16,-12 -33,-11 -54,-11 16,9 33,11 54,11z"/>
   <path class="fil48" d="M482 2581c20,0 37,-1 51,-13 -19,1 -36,3 -51,13z"/>
   <path class="fil27" d="M4918 1310l-3 -28c-8,16 -10,26 -1,43 10,-11 6,4 4,-15z"/>
   <path class="fil17" d="M3653 375c-7,-18 -10,-33 -25,-44 4,12 13,42 25,44z"/>
   <path class="fil33" d="M1014 1136c13,-14 13,-29 14,-50 -11,15 -11,30 -14,50z"/>
   <polygon class="fil49" points="7071,4684 7071,4703 7090,4693 7085,4679 "/>
   <path class="fil35" d="M5160 5055c9,-8 6,-3 11,-18 5,-14 4,-10 6,-26 -11,13 -16,27 -17,44z"/>
   <path class="fil21" d="M7871 2791c20,-1 36,-2 50,-13 -19,1 -37,3 -50,13z"/>
   <path class="fil50" d="M2137 1552c-2,-11 -3,-36 -14,-39 2,13 1,37 14,39z"/>
   <path class="fil22" d="M7275 1082c13,-16 15,-30 21,-50 -13,12 -6,2 -13,20 -5,14 -6,15 -8,30z"/>
   <path class="fil13" d="M7991 3318c20,-1 36,-2 50,-13 -18,0 -36,4 -50,13z"/>
   <path class="fil27" d="M7374 3961c21,1 32,1 49,-10 -21,0 -33,0 -49,10z"/>
   <path class="fil49" d="M4331 4729c18,17 33,12 38,-11l-16 13 -22 -2z"/>
   <path class="fil19" d="M4630 3293c-16,-11 -29,-9 -50,-10 15,8 30,11 50,10z"/>
   <path class="fil39" d="M1893 1156c11,-13 14,-29 13,-47 -8,9 -13,31 -13,47z"/>
   <path class="fil23" d="M5029 1011c12,-12 5,-2 12,-20 4,-9 6,-15 9,-24 -16,12 -16,23 -21,44z"/>
   <path class="fil51" d="M7227 5123c-3,-19 -5,-32 -17,-44 4,20 4,30 17,44z"/>
   <path class="fil19" d="M3733 1457c1,-19 4,-16 -6,-31 -24,0 -10,-2 -20,8l18 -1 8 24z"/>
   <path class="fil29" d="M911 1425c-4,-16 -10,-35 -20,-47 1,17 8,35 20,47z"/>
   <path class="fil17" d="M4986 1405c13,-14 15,-28 19,-46 -10,11 -15,30 -19,46z"/>
   <path class="fil30" d="M2732 1375c10,-15 11,-23 12,-42 -12,14 -11,22 -12,42z"/>
   <path class="fil21" d="M3589 982c16,-7 31,-11 41,-23 -10,2 -14,3 -23,8 -2,1 -8,4 -10,5 -6,6 -3,4 -8,10z"/>
   <path class="fil33" d="M7495 1451c-1,-19 -1,-27 -13,-40 2,18 2,27 13,40z"/>
   <path class="fil30" d="M4517 1555c19,0 26,-3 40,-13 -18,1 -27,2 -40,13z"/>
   <path class="fil21" d="M1198 1436l24 -5 11 21 -4 -24c-18,-2 -17,-2 -31,8z"/>
   <path class="fil52" d="M2177 1074c-1,-18 -3,-29 -11,-43 1,21 -1,29 11,43z"/>
   <path class="fil53" d="M6924 5181l-7 -3 0 -12c-11,11 -12,7 -6,23 26,0 2,2 13,-8z"/>
   <path class="fil43" d="M6961 5016c13,-10 9,-3 11,-22l-15 -11c5,6 -2,5 8,11l-4 22z"/>
   <path class="fil37" d="M4479 4685c-1,-21 1,-25 -11,-40 2,19 1,26 11,40z"/>
   <path class="fil54" d="M3635 4647c-11,-10 -15,-9 -31,-14 5,17 16,14 31,14z"/>
   <path class="fil55" d="M7796 3356c20,-1 25,-1 41,-10 -21,0 -27,-1 -41,10z"/>
   <path class="fil33" d="M1225 969c6,-9 2,7 9,-15 3,-10 2,-14 3,-23 -12,14 -10,18 -12,38z"/>
   <path class="fil42" d="M2912 1046c11,-15 9,-16 9,-36 -11,9 -8,20 -9,36z"/>
   <path class="fil19" d="M1243 878c12,-11 9,-4 9,-24l-13 -6c6,12 5,12 4,30z"/>
   <path class="fil22" d="M2819 972c13,-14 11,-17 11,-38 -9,15 -9,19 -11,38z"/>
   <path class="fil37" d="M6343 5170c6,11 -11,6 14,10 -2,-26 3,-10 -9,-24l0 12 -5 2z"/>
   <path class="fil28" d="M8187 2725c18,-1 25,-1 38,-12 -19,2 -24,0 -38,12z"/>
   <path class="fil18" d="M3150 1552c2,-2 10,9 4,-17 -3,-15 -5,-12 -8,-17l4 34z"/>
   <path class="fil22" d="M1932 982c11,-15 10,-19 11,-38 -11,14 -9,17 -11,38z"/>
   <path class="fil22" d="M2357 489c15,-4 25,-7 35,-18 -18,5 -25,4 -35,18z"/>
   <path class="fil54" d="M7196 5013l-4 -15 10 -17 -19 16c8,24 4,9 13,16z"/>
   <path class="fil33" d="M5530 1441c5,-8 2,5 8,-17 2,-8 1,-12 2,-20 -12,14 -8,15 -10,37z"/>
   <path class="fil28" d="M3527 1076c11,-11 11,-22 17,-38l-12 15c-4,10 -5,14 -5,23z"/>
   <path class="fil42" d="M1816 1520c10,-15 10,-19 11,-37 -11,13 -9,17 -11,37z"/>
   <path class="fil56" d="M3351 4925l-6 -4 4 -10c-14,11 -7,-4 -13,22 30,-2 3,1 15,-8z"/>
   <path class="fil40" d="M3488 4593c13,-11 14,-14 18,-32 -14,11 -14,14 -18,32z"/>
   <path class="fil29" d="M3376 1084c9,-12 10,-20 13,-36 -13,12 -11,17 -13,36z"/>
   <path class="fil43" d="M6138 4800c13,-11 10,-10 17,-30 -15,7 -13,14 -17,30z"/>
   <path class="fil30" d="M3720 1553l23 -10c0,-18 2,-13 -7,-28l2 24 -18 14z"/>
   <path class="fil57" d="M7342 2866c20,-1 19,1 32,-10l-22 1 -10 9z"/>
   <path class="fil33" d="M7471 1343c-2,-18 -2,-19 -12,-33 1,19 0,21 12,33z"/>
   <path class="fil22" d="M5019 1316c15,-13 18,-30 21,-50l-21 50z"/>
   <path class="fil40" d="M7213 5073c-2,-19 -1,-19 -13,-32 2,19 1,19 13,32z"/>
   <path class="fil11" d="M8279 3254c18,-1 22,-2 34,-12 -20,2 -20,1 -34,12z"/>
   <path class="fil25" d="M213 2636c18,-2 20,0 34,-11 -18,1 -21,0 -34,11z"/>
   <path class="fil37" d="M7141 4840c-5,-22 0,-20 -15,-31 0,3 4,16 5,18 6,13 2,5 10,13z"/>
   <path class="fil17" d="M1855 1336c11,-14 9,-15 11,-34 -12,14 -10,15 -11,34z"/>
   <path class="fil17" d="M1042 1042c13,-13 14,-18 20,-35 -13,13 -16,18 -20,35z"/>
   <path class="fil23" d="M4848 278c10,-3 11,-2 20,-7 2,-1 5,-3 6,-4 8,-6 4,-4 9,-9 -16,6 -24,8 -35,20z"/>
   <path class="fil9" d="M2136 172c13,-11 9,-11 16,-29 -14,5 -13,15 -16,29z"/>
   <path class="fil33" d="M885 1049c12,-11 9,-11 16,-30 -14,6 -13,14 -16,30z"/>
   <polygon class="fil31" points="5308,4671 5308,4661 5289,4657 5291,4666 "/>
   <path class="fil4" d="M2467 398c15,-7 15,-13 20,-30 -6,5 -3,1 -8,9 -1,1 -3,5 -4,6 -3,5 -6,10 -8,15z"/>
   <path class="fil56" d="M4240 5033c-12,-5 -10,9 -9,-14 -11,12 -8,5 -10,23l19 -9z"/>
   <path class="fil29" d="M891 1378c-1,-18 0,-22 -12,-34 3,15 4,24 12,34z"/>
   <path class="fil4" d="M3563 1395c-7,-15 -9,-23 -21,-33 2,7 3,11 8,19 1,2 2,3 4,5 6,7 2,3 9,9z"/>
   <path class="fil22" d="M2262 1530c2,-20 2,-32 -10,-46l10 46z"/>
   <path class="fil35" d="M5321 4703c-5,-18 -3,-19 -15,-31 3,18 2,20 15,31z"/>
   <path class="fil28" d="M6886 1121c-10,-10 -16,-8 -32,-10 10,12 13,8 32,10z"/>
   <path class="fil40" d="M4413 4615c14,-10 14,-13 18,-30 -12,10 -13,14 -18,30z"/>
   <path class="fil33" d="M2825 1555c14,-10 12,-10 12,-27 -11,10 -8,10 -12,27z"/>
   <path class="fil18" d="M4995 1098c13,-12 10,-12 16,-29 -13,5 -13,15 -16,29z"/>
   <path class="fil29" d="M8183 3278c19,0 17,1 30,-10 -19,1 -18,0 -30,10z"/>
   <path class="fil36" d="M292 2065c21,0 18,3 31,-9 -19,1 -17,-1 -31,9z"/>
   <path class="fil29" d="M4200 1146c11,-12 10,-14 12,-32 -11,13 -9,13 -12,32z"/>
   <path class="fil43" d="M4340 4980c8,-2 9,-1 17,-6 13,-8 5,-4 11,-11 -6,2 -10,2 -16,6 -12,7 -7,5 -12,11z"/>
   <path class="fil37" d="M5140 5157c-8,-3 -6,6 -7,-12 -6,8 -7,-6 -6,19 27,4 2,2 13,-7z"/>
   <path class="fil37" d="M4682 4786c13,-3 7,2 9,-11l-19 -4 10 15z"/>
   <path class="fil22" d="M2797 1077c11,-11 9,-15 10,-30 -11,13 -9,12 -10,30z"/>
   <path class="fil4" d="M7429 1018c12,-9 13,-13 17,-28 -12,9 -13,12 -17,28z"/>
   <path class="fil17" d="M4187 1177c9,-8 1,9 10,-12 3,-6 4,-13 5,-19 -11,12 -10,14 -15,31z"/>
   <path class="fil40" d="M5274 4709c15,-8 12,-10 14,-28 -10,12 -8,11 -14,28z"/>
   <path class="fil29" d="M7362 1179l-2 -14 9 -20 -15 19c1,18 -3,6 8,15z"/>
   <path class="fil40" d="M6220 4743c-3,-19 -2,-19 -14,-31 3,18 3,19 14,31z"/>
   <path class="fil43" d="M4366 4715c13,-11 10,-12 16,-29 -13,11 -11,11 -16,29z"/>
   <path class="fil4" d="M1032 868l36 -19c-20,3 -26,4 -36,19z"/>
   <path class="fil43" d="M6052 5063c13,-9 10,-12 12,-28 -11,13 -9,10 -12,28z"/>
   <path class="fil29" d="M7447 1266c-5,-14 -7,-20 -17,-29 4,17 4,19 17,29z"/>
   <path class="fil35" d="M7231 5179c5,11 -7,5 10,11 5,-9 12,3 -1,-20l-1 11 -8 -2z"/>
   <path class="fil51" d="M3653 4955l9 16c12,-16 10,-9 1,-24l1 14 -11 -6z"/>
   <path class="fil40" d="M6052 5156c17,-8 17,-5 25,-22 -5,3 -10,6 -14,9 -13,11 -4,4 -11,13z"/>
   <path class="fil33" d="M2411 40c-4,-4 -3,-6 -12,-10 -6,-4 -10,-4 -17,-7 12,13 11,12 29,17z"/>
   <path class="fil31" d="M7235 5153c0,-19 2,-15 -10,-26 2,15 0,16 10,26z"/>
   <path class="fil40" d="M6209 5075l-19 -16 -12 9c22,0 12,1 31,7z"/>
   <path class="fil39" d="M3538 1351c-2,-19 0,-17 -12,-28 4,17 2,15 12,28z"/>
   <path class="fil37" d="M7021 4840c10,-13 9,-11 12,-28 -5,5 -4,0 -8,9 -5,10 -3,9 -4,19z"/>
   <path class="fil40" d="M4258 5024c16,-6 17,-5 28,-17 -9,3 -6,0 -16,6 -14,8 -6,5 -12,11z"/>
   <path class="fil35" d="M3334 4668c-8,-14 4,0 -9,-14 -6,-6 -9,-8 -15,-13 6,11 -2,3 9,14 4,5 10,9 15,13z"/>
   <polygon class="fil44" points="4383,4955 4400,4950 4415,4955 4396,4942 "/>
   <path class="fil22" d="M5048 961c10,-11 11,-12 14,-28 -12,10 -11,12 -14,28z"/>
   <path class="fil35" d="M5434 5063c-1,-17 1,-15 -10,-26 1,17 -1,14 10,26z"/>
   <path class="fil23" d="M4918 1310l16 -33c-14,10 -16,15 -16,33z"/>
   <path class="fil35" d="M5132 5147c11,-13 8,-7 10,-27 -12,9 -8,10 -10,27z"/>
   <path class="fil35" d="M5242 4806c11,-12 9,-10 13,-27 -13,11 -10,9 -13,27z"/>
   <path class="fil9" d="M4570 1303c-1,-15 2,-16 -9,-26 1,18 -1,14 9,26z"/>
   <path class="fil58" d="M7071 4684l14 -5 5 14 3 1 -6 -22c-13,4 -9,2 -16,12z"/>
   <path class="fil22" d="M2229 486c-9,-13 -7,-11 -25,-16 5,6 1,4 8,9 6,4 10,4 17,7z"/>
   <path class="fil35" d="M7111 4753c-4,-17 -2,-15 -12,-28 2,18 0,17 12,28z"/>
   <path class="fil37" d="M5448 5107c-3,-18 0,-12 -10,-26 1,20 -1,15 10,26z"/>
   <path class="fil22" d="M7341 904c12,-12 9,-9 13,-26 -12,11 -10,8 -13,26z"/>
   <path class="fil40" d="M6143 5092c10,-5 3,1 12,-6 15,-10 4,-2 12,-12 -8,3 -5,0 -13,6 -15,11 -4,2 -11,12z"/>
   <path class="fil23" d="M2234 452c-6,-4 -1,-3 -14,-10 -12,-6 0,0 -13,-5 5,5 -1,4 12,11 10,5 2,1 15,4z"/>
   <path class="fil37" d="M6067 5015c12,-9 9,-10 11,-25 -4,5 -4,0 -8,11 -5,12 -1,3 -3,14z"/>
   <path class="fil22" d="M4049 972c-6,-7 2,-3 -12,-12 -7,-4 -8,-3 -16,-6 10,11 13,11 28,18z"/>
   <path class="fil35" d="M7045 4772c11,-9 8,-11 11,-26 -12,10 -9,11 -11,26z"/>
   <path class="fil17" d="M3631 414c-4,-18 -1,-14 -14,-27 5,18 2,15 14,27z"/>
   <path class="fil9" d="M4709 1266c0,-19 2,-15 -9,-25 3,18 0,12 9,25z"/>
   <path class="fil58" d="M3797 4678l12 -3c-2,-13 0,-8 -8,-14l-4 17z"/>
   <path class="fil29" d="M4064 1277c19,-3 14,0 26,-11 -17,3 -17,0 -26,11z"/>
   <path class="fil40" d="M5432 4952c5,-3 5,-1 11,-6 15,-12 3,-1 11,-13 -9,5 -3,-1 -12,6 -11,9 -5,6 -10,13z"/>
   <path class="fil40" d="M7031 4812c12,-10 9,-10 11,-25 -11,10 -8,11 -11,25z"/>
   <path class="fil40" d="M3348 4904c5,-5 4,-2 8,-10 5,-8 3,-4 4,-13 -12,8 -9,8 -12,23z"/>
   <path class="fil35" d="M5958 4888c-6,-7 0,-3 -8,-9 -7,-6 -7,-5 -15,-8 7,8 0,3 8,10 9,7 7,4 15,7z"/>
   <path class="fil31" d="M6410 4898c16,-7 13,-4 22,-18 -10,5 0,-2 -11,6 -12,9 -5,5 -11,12z"/>
   <path class="fil35" d="M5504 4899c8,-4 4,0 12,-6 12,-10 4,-4 10,-13 -8,5 -2,-1 -11,6 -12,9 -5,5 -11,13z"/>
   <path class="fil40" d="M3527 4511c6,-5 4,0 9,-9 3,-7 3,-7 5,-14 -13,8 -10,8 -14,23z"/>
   <path class="fil11" d="M5513 1476c11,-9 10,-6 13,-22 -12,8 -9,9 -13,22z"/>
   <path class="fil21" d="M4983 1137l13 -34c-12,13 -13,16 -13,34z"/>
   <path class="fil43" d="M7228 5179c-6,-7 1,-3 -11,-12 -12,-8 0,0 -12,-5 10,13 7,10 23,17z"/>
   <path class="fil4" d="M4517 1230c-10,-11 -7,-9 -24,-14 10,12 7,9 24,14z"/>
   <path class="fil19" d="M6992 1433c11,-9 11,-7 12,-23 -11,12 -7,7 -12,23z"/>
   <path class="fil22" d="M8121 2741l36 -10c-22,1 -22,-3 -36,10z"/>
   <path class="fil40" d="M4287 4887c12,-7 9,-8 12,-22 -12,12 -8,6 -12,22z"/>
   <path class="fil9" d="M7367 1137c14,-8 11,-6 16,-22 -7,5 -4,1 -9,8 -4,5 -4,8 -7,14z"/>
   <path class="fil17" d="M3448 1481c-5,-9 1,-3 -6,-11 -10,-12 -5,-5 -13,-11 4,8 2,7 9,14 6,7 2,2 10,8z"/>
   <path class="fil4" d="M3630 328c-5,-16 -11,-28 -24,-40l24 40z"/>
   <path class="fil19" d="M2742 1326c12,-13 9,-14 10,-35l-10 35z"/>
   <path class="fil40" d="M6259 4854c-6,-17 -2,-12 -13,-23 2,10 -1,6 4,14 6,10 1,3 9,9z"/>
   <path class="fil45" d="M5078 881c11,-10 9,-10 9,-23 -9,7 -7,11 -9,23z"/>
   <path class="fil4" d="M2157 377c-4,-19 0,-13 -13,-22 6,17 2,11 13,22z"/>
   <path class="fil35" d="M5377 5106c-10,-12 -8,-10 -22,-15 3,5 -2,2 6,8 8,6 8,4 16,7z"/>
   <path class="fil35" d="M5075 4884c-6,-8 0,-4 -7,-10 -8,-6 -7,-4 -15,-8 10,13 7,11 22,18z"/>
   <path class="fil35" d="M7126 5106c-9,-12 -7,-10 -22,-15 4,5 -1,2 7,8 8,5 8,4 15,7z"/>
   <path class="fil37" d="M6926 5125c14,-12 11,-11 13,-30l-13 30z"/>
   <path class="fil35" d="M5178 5131c14,-7 15,-5 23,-16 -8,3 -4,-1 -14,6 -14,10 1,-1 -9,10z"/>
   <path class="fil39" d="M7389 1098c6,-5 4,-1 9,-9 5,-7 3,-6 6,-13 -11,9 -10,5 -15,22z"/>
   <path class="fil40" d="M4312 4995c15,-4 13,-4 20,-14 -6,2 -5,0 -12,5 -7,6 -3,3 -8,9z"/>
   <path class="fil40" d="M5355 5091c-8,-12 -8,-10 -22,-17 7,9 0,4 9,11 7,5 7,4 13,6z"/>
   <path class="fil28" d="M4009 1174c10,-1 10,0 19,-4 20,-8 6,-4 14,-10l-33 14z"/>
   <path class="fil23" d="M2204 37c17,-6 11,-2 22,-14 -6,1 -9,1 -14,5 -9,6 -3,1 -8,9z"/>
   <path class="fil37" d="M5150 5082c13,-11 11,-9 10,-27l-10 27z"/>
   <path class="fil35" d="M3555 4452l13 0c-2,-20 1,-6 -6,-11l-7 11z"/>
   <path class="fil40" d="M3773 4690l12 -4c24,-1 -2,2 5,-7l-9 2c-18,1 1,-1 -8,9z"/>
   <path class="fil42" d="M2122 122c5,-4 2,0 8,-7 4,-5 4,-7 7,-12 -13,6 -11,4 -15,19z"/>
   <polygon class="fil58" points="5289,4657 5308,4661 5303,4650 "/>
   <path class="fil35" d="M6996 5131c14,-7 14,-5 22,-16 -7,3 -5,0 -13,6 -8,5 -4,4 -9,10z"/>
   <path class="fil28" d="M7406 1059c13,-10 9,-3 16,-21 -7,5 -4,1 -9,8 -5,6 -4,7 -7,13z"/>
   <path class="fil37" d="M7046 5097l11 -5c15,-1 -2,1 6,-9l-11 7c-9,0 -6,-2 -6,7z"/>
   <path class="fil14" d="M2442 379c7,-5 2,1 8,-7 5,-8 2,-4 4,-13 -10,10 -7,3 -12,20z"/>
   <path class="fil53" d="M3380 4912l13 -3c15,-2 -1,0 6,-9 -11,3 -4,1 -13,6 -1,0 -2,4 -3,3 0,-1 -2,2 -3,3z"/>
   <path class="fil17" d="M7446 982c12,-11 8,-5 14,-22 -7,6 -3,-1 -9,8 -3,6 -3,8 -5,14z"/>
   <path class="fil17" d="M3570 259c0,-10 2,-7 -9,-7l-13 -4c2,1 3,1 4,3 1,2 3,2 4,3 9,4 1,2 14,5z"/>
   <path class="fil40" d="M3724 4718l12 -4c16,-1 -1,1 7,-8 -14,4 -1,-3 -9,3 -8,6 -5,3 -10,9z"/>
   <path class="fil40" d="M3467 4863l12 -3c19,-2 -1,1 8,-8 -12,3 -4,0 -14,5 -1,1 -2,4 -3,3 -1,-1 -2,2 -3,3z"/>
   <path class="fil40" d="M4390 4666c12,-8 8,-6 10,-20 -1,1 -2,1 -3,3 0,2 -2,3 -2,3 -5,9 -3,3 -5,14z"/>
   <path class="fil40" d="M7018 5115c16,-5 16,-5 23,-20l-23 20z"/>
   <path class="fil23" d="M2498 162c-3,-18 -1,-18 -14,-30l14 30z"/>
   <path class="fil59" d="M5272 5068l11 -5c14,-1 -1,1 5,-9 -10,5 -2,-1 -8,4 -7,7 -3,2 -8,10z"/>
   <path class="fil22" d="M3682 457c-2,-20 -1,-16 -13,-24l13 24z"/>
   <path class="fil40" d="M4589 4840l25 -15c-17,3 -15,0 -25,15z"/>
   <path class="fil22" d="M4971 1165c11,-12 12,-12 12,-28l-12 28z"/>
   <path class="fil35" d="M3667 4753c16,-6 0,2 9,-4 8,-5 4,-3 10,-9l-12 4c-16,1 1,-1 -7,9z"/>
   <path class="fil29" d="M2360 455c13,-3 4,3 18,-5 9,-6 1,-1 8,-9l-26 14z"/>
   <path class="fil22" d="M3413 1428c-6,-19 3,1 -3,-9 -6,-8 -4,-5 -9,-10 3,14 0,12 12,19z"/>
   <path class="fil51" d="M4239 5034c15,-5 1,2 9,-3 7,-5 5,-4 10,-9l-12 5c-9,0 -7,-3 -7,7z"/>
   <path class="fil35" d="M4621 4820l12 -3c16,-2 -1,1 7,-9 -18,6 0,-3 -9,3 -8,6 -5,4 -10,9z"/>
   <path class="fil33" d="M2113 139c8,0 6,2 6,-7l3 -10c-8,-4 -5,-4 -5,6l-4 11z"/>
   <path class="fil43" d="M4662 4799l20 -13c-17,-1 -14,3 -20,13z"/>
   <path class="fil13" d="M4198 954c-1,-16 -2,-12 -11,-19 6,23 -4,-3 2,9 5,7 5,6 9,10z"/>
   <path class="fil43" d="M3643 4765l10 -2c17,-1 0,1 7,-9 -13,5 -1,-1 -8,3 -7,5 -6,5 -9,8z"/>
   <path class="fil40" d="M5470 4924c13,-7 2,1 8,-5 7,-6 4,-2 8,-8l-10 3c-14,1 1,-1 -6,10z"/>
   <path class="fil21" d="M3411 987c9,0 7,2 7,-7l4 -12c-1,1 -3,1 -3,3 -1,2 -2,3 -3,4 -5,9 -2,1 -5,12z"/>
   <path class="fil31" d="M4430 4972c-7,-12 0,-7 -15,-17 0,11 -3,9 6,9l9 8z"/>
   <path class="fil21" d="M4496 1445c15,-1 16,3 23,-10l-23 10z"/>
   <path class="fil31" d="M4404 4637c1,-1 3,-3 3,-3 1,1 3,-2 3,-3 5,-9 2,-2 5,-13 -9,0 -6,-2 -6,7l-5 12z"/>
   <path class="fil22" d="M3402 1008c1,-1 2,-4 3,-4 0,1 2,-2 2,-3 5,-9 2,-2 5,-13 -8,0 -6,-2 -6,7l-4 13z"/>
   <path class="fil35" d="M5151 5151c14,-6 0,3 8,-4 7,-6 3,-3 9,-10l-11 6c-9,0 -6,-2 -6,8z"/>
   <path class="fil33" d="M6995 1215l-16 -26c3,9 -1,5 5,14 7,12 4,6 11,12z"/>
   <path class="fil28" d="M7458 958c9,0 6,2 6,-7l5 -12c-1,1 -3,1 -3,3 0,2 -2,2 -3,3 -4,9 -2,2 -5,13z"/>
   <path class="fil43" d="M5229 5095l10 -3c14,-2 -1,0 6,-9 -13,6 -1,-2 -8,4 -7,5 -4,3 -8,8z"/>
   <path class="fil35" d="M4522 5056c-6,-12 -1,-8 -15,-18 7,14 0,8 15,18z"/>
   <path class="fil30" d="M1106 1428c-8,-9 10,-7 -6,-8l-12 -4c4,4 3,4 10,8 9,7 -9,-2 8,4z"/>
   <path class="fil54" d="M5133 4928c-7,-12 -1,-8 -15,-15 7,12 0,7 15,15z"/>
   <path class="fil30" d="M4894 108c-3,-17 0,-13 -13,-20l13 20z"/>
   <path class="fil40" d="M5248 5083c17,-6 10,-4 17,-14 -17,7 -1,-2 -8,4 -8,7 -4,2 -9,10z"/>
   <path class="fil30" d="M4057 1136c12,-8 11,-3 15,-22l-15 22z"/>
   <path class="fil37" d="M6032 5170l12 -5c11,-2 -1,0 4,-9 -9,5 -3,1 -10,7 -1,1 -2,4 -3,3 -1,-1 -2,3 -3,4z"/>
   <path class="fil35" d="M6897 4939c-5,-9 3,-6 -14,-16 6,13 -1,7 14,16z"/>
   <path class="fil40" d="M3352 4926c13,-4 2,2 9,-3 8,-5 4,-2 9,-8l-11 5c-9,0 -7,-2 -7,6z"/>
   <path class="fil40" d="M6319 4967c11,-5 2,2 8,-4 7,-7 3,-2 8,-10 -16,7 -10,5 -16,14z"/>
   <path class="fil31" d="M5172 4958c-1,-10 2,-8 -6,-8l-10 -7c0,1 1,2 2,4 1,2 2,2 3,3 7,6 1,2 11,8z"/>
   <path class="fil33" d="M4918 216c13,-8 10,-8 12,-22l-12 22z"/>
   <path class="fil23" d="M7004 1239c-1,-17 0,-14 -11,-23l11 23z"/>
   <path class="fil43" d="M6233 4783l-10 -26c1,18 -1,15 10,26z"/>
   <path class="fil29" d="M4168 1208c0,-1 2,-3 2,-2 1,1 3,-2 3,-2 6,-8 2,-2 7,-11 -10,7 -8,-8 -9,6l-3 9z"/>
   <polygon class="fil58" points="6184,4671 6196,4669 6191,4659 "/>
   <path class="fil35" d="M7240 4957c12,-6 0,4 8,-4 7,-7 3,-2 8,-11 -15,8 -8,2 -16,15z"/>
   <path class="fil40" d="M7279 4928c15,-8 9,-4 15,-14 -14,7 -8,2 -15,14z"/>
   <path class="fil40" d="M6238 5099c0,-10 2,-8 -7,-8l-9 -5c1,1 2,1 2,3 1,2 2,2 3,3 7,5 2,2 11,7z"/>
   <path class="fil43" d="M5114 4914c-1,-1 -2,-5 -3,-4 0,1 -2,-3 -3,-3 -7,-8 0,-3 -10,-9 6,12 0,8 16,16z"/>
   <path class="fil17" d="M924 1451c-2,-10 0,-8 -6,-18 -6,-9 -1,-2 -9,-8l15 26z"/>
   <path class="fil40" d="M6307 5146c-6,-7 -2,-4 -9,-10 -8,-8 5,2 -8,-4 0,9 -2,7 6,7l11 7z"/>
   <path class="fil43" d="M5412 4967c15,-7 9,-3 16,-15 -10,5 -1,-2 -7,5 -8,6 -3,1 -9,10z"/>
   <path class="fil28" d="M2485 132c-3,-17 1,-13 -12,-20l12 20z"/>
   <path class="fil4" d="M3426 1455c-4,-17 0,-13 -14,-19l14 19z"/>
   <path class="fil40" d="M5529 4879c12,-5 0,4 8,-4 7,-6 3,-2 8,-9 -16,6 -10,4 -16,13z"/>
   <path class="fil43" d="M6040 4952c-1,-1 -2,-5 -3,-4 0,1 -1,-3 -2,-4 -7,-5 -2,-2 -11,-8 7,13 1,8 16,16z"/>
   <path class="fil40" d="M7298 4914c15,-8 9,-4 16,-15 -13,6 0,-4 -8,4 -7,7 -3,2 -8,11z"/>
   <path class="fil17" d="M2389 64c-1,-1 -1,-3 -2,-2 0,0 -2,-3 -3,-3 -8,-5 -1,-2 -12,-5 6,6 -4,5 17,10z"/>
   <path class="fil43" d="M6222 5086c-3,-6 2,-5 -13,-11 -3,9 -4,6 5,6l8 5z"/>
   <path class="fil27" d="M2458 158c-1,-8 1,-6 -3,-14 -6,-10 -2,-3 -9,-9l12 23z"/>
   <path class="fil43" d="M6353 4942c14,-7 -1,4 8,-4 7,-7 2,-1 8,-11 -10,5 -3,0 -8,5 -7,7 -3,1 -8,10z"/>
   <path class="fil14" d="M7322 1314l-3 -13c0,-10 3,-7 -7,-7l10 20z"/>
   <path class="fil18" d="M7388 1191c-1,-2 -2,-5 -3,-4 -1,1 -2,-3 -3,-3 -9,-6 -1,-2 -12,-6 5,7 1,3 9,9 6,5 -3,-1 9,4z"/>
   <path class="fil60" d="M902 1002c13,-9 10,-5 13,-22l-13 22z"/>
   <path class="fil31" d="M7206 4982c11,-6 2,1 8,-5 7,-7 2,-1 8,-10 -14,6 1,-5 -8,4 -7,7 -3,1 -8,11z"/>
   <path class="fil40" d="M7104 5091c-3,-7 1,-2 -6,-9 -8,-7 4,2 -8,-4 5,8 -3,6 14,13z"/>
   <path class="fil29" d="M6896 1530c14,-5 13,-2 20,-16l-20 16z"/>
   <path class="fil40" d="M5201 5115c14,-5 10,-5 13,-10 -20,6 -10,5 -13,10z"/>
   <path class="fil29" d="M4639 1152c0,-9 2,-7 -7,-7l-8 -5c0,1 1,2 1,3 1,2 2,2 3,3 7,5 1,2 11,6z"/>
   <path class="fil22" d="M4853 61c-6,-7 1,-4 -9,-9 -10,-4 -4,-1 -14,-3l23 12z"/>
   <path class="fil40" d="M5322 5069c0,-2 -1,-5 -2,-4 -1,1 -2,-3 -3,-4 -7,-6 -1,-2 -11,-7 1,2 2,2 2,4 1,2 2,3 3,3 8,7 1,3 11,8z"/>
   <path class="fil61" d="M7356 861l10 -18c-12,1 -9,10 -10,18z"/>
   <path class="fil43" d="M6968 5151c15,-7 0,3 8,-4 8,-7 3,-2 9,-10 -11,4 -4,1 -12,7 -1,0 -2,4 -2,3 -1,-1 -2,2 -3,4z"/>
   <path class="fil22" d="M2134 406c-4,-11 -1,-4 -6,-13 -1,-1 -3,-1 -4,-3 0,-2 -2,-2 -3,-2 5,15 -3,0 3,8 6,8 3,4 10,10z"/>
   <path class="fil40" d="M6878 4923c-6,-9 1,-3 -7,-10 -9,-8 -6,-4 -15,-8l22 18z"/>
   <path class="fil17" d="M2451 425c6,-5 4,-1 9,-8 7,-9 4,-7 8,-16l-17 24z"/>
   <path class="fil22" d="M4957 1201c11,-10 9,-6 11,-24l-11 24z"/>
   <path class="fil33" d="M4089 1269l19 -10c-8,1 -16,-2 -19,10z"/>
   <path class="fil4" d="M4562 1277c-5,-14 -2,-14 -15,-19l15 19z"/>
   <path class="fil22" d="M2408 464c11,-6 1,3 8,-4 6,-7 2,-2 8,-11 -15,8 -9,4 -16,15z"/>
   <path class="fil40" d="M6917 4953c-1,-1 -2,-5 -3,-4 0,1 -2,-3 -2,-4 -8,-7 -1,-2 -11,-7 0,1 1,2 2,4 0,2 2,3 3,3 7,7 1,3 11,8z"/>
   <path class="fil29" d="M4653 1489l21 -25c-16,10 -14,11 -21,25z"/>
   <path class="fil29" d="M6920 1516c15,-7 10,-5 16,-14 -14,6 -9,3 -16,14z"/>
   <path class="fil35" d="M3698 4737l20 -17c-17,6 -13,5 -20,17z"/>
   <path class="fil35" d="M5409 5129l-22 -16c7,8 -1,3 8,10 9,6 7,3 14,6z"/>
   <path class="fil18" d="M3633 1436l-24 -10c9,11 10,8 24,10z"/>
   <path class="fil43" d="M7260 4943c12,-7 -1,4 7,-5 7,-6 3,-2 9,-10 -13,7 -2,-2 -8,5 -7,6 -3,1 -8,10z"/>
   <path class="fil17" d="M3598 332c-5,-10 -1,-3 -7,-11 0,-1 -3,-1 -3,-3 -1,-2 -3,-2 -4,-3 5,11 0,3 4,8 7,8 1,3 10,9z"/>
   <path class="fil35" d="M7159 5129l-22 -16c6,8 -1,3 8,10 8,6 7,3 14,6z"/>
   <path class="fil9" d="M3669 426c-1,-17 0,-14 -11,-24l11 24z"/>
   <path class="fil35" d="M5423 5139c-4,-5 0,-2 -7,-8 -9,-7 5,2 -7,-2 3,5 -5,5 14,10z"/>
   <path class="fil43" d="M7173 5139c-4,-5 -1,-2 -8,-7 -9,-8 6,1 -6,-3 -3,8 -4,6 5,6l9 4z"/>
   <path class="fil29" d="M937 1466c-4,-10 -1,-4 -7,-11 0,-1 -2,-1 -3,-3 0,-2 -2,-1 -4,-2 5,9 1,3 7,11 1,1 3,4 4,3 0,-1 2,1 3,2z"/>
   <path class="fil43" d="M4263 4941c12,-8 9,-9 12,-23l-12 23z"/>
   <path class="fil50" d="M4067 997c-2,-15 -5,-13 -13,-17l13 17z"/>
   <path class="fil42" d="M4108 1259l17 -12c-11,3 -14,1 -17,12z"/>
   <path class="fil28" d="M6860 1269l-11 -17 2 9c1,18 -2,0 9,8z"/>
   <path class="fil22" d="M1131 1436c-10,-9 -7,-8 -24,-10l24 10z"/>
   <path class="fil28" d="M4844 249c14,-1 12,-4 17,-13l-17 13z"/>
   <path class="fil40" d="M3741 4707l10 -2c17,-1 0,1 7,-8l-17 10z"/>
   <path class="fil4" d="M2165 442l-13 -13 3 9c1,10 0,0 10,4z"/>
   <path class="fil33" d="M7291 1268c-7,-10 9,-7 -7,-9l-9 -1 16 10z"/>
   <path class="fil22" d="M3506 880c20,-8 1,3 9,-4 7,-6 3,-2 8,-9 -11,5 0,-2 -7,4 -7,5 -4,3 -10,9z"/>
   <path class="fil21" d="M7482 911c11,-6 9,-8 12,-20l-12 20z"/>
   <path class="fil13" d="M5363 1437l11 -4c12,-2 -1,-1 5,-10l-16 14z"/>
   <path class="fil23" d="M5496 1509l11 -17c-10,0 -7,-2 -7,8l-4 9z"/>
   <path class="fil43" d="M6077 4983c0,-11 4,-9 -5,-9l-10 -8 15 17z"/>
   <path class="fil17" d="M6968 1175l-13 -14 3 9c2,10 0,0 10,5z"/>
   <path class="fil40" d="M5438 5152c-6,-10 7,-8 -5,-10l-10 -3 15 13z"/>
   <path class="fil13" d="M4875 74l-16 -11c7,9 -8,7 6,9l10 2z"/>
   <path class="fil30" d="M2204 71l15 -11 -10 2c-14,2 1,0 -5,9z"/>
   <path class="fil37" d="M4549 4864l16 -10 -9 1c-18,2 0,0 -7,9z"/>
   <path class="fil37" d="M4296 5004l17 -10 -10 2c-17,1 1,-1 -7,8z"/>
   <path class="fil40" d="M3397 4900l10 -1c23,-1 -1,2 8,-8l-18 9z"/>
   <path class="fil29" d="M6926 1142c0,-9 3,-7 -6,-7l-11 -5 17 12z"/>
   <path class="fil40" d="M6101 5123l15 -13 -9 3c-15,2 1,0 -6,10z"/>
   <path class="fil40" d="M7188 5151c-7,-9 7,-7 -6,-9l-9 -3 15 12z"/>
   <path class="fil35" d="M6116 5110c16,-4 -5,8 8,-2 6,-6 3,-3 8,-9 -17,6 0,-3 -8,3 -7,5 -4,3 -8,8z"/>
   <path class="fil22" d="M2431 395c9,-7 7,8 8,-6l3 -10 -11 16z"/>
   <path class="fil43" d="M4215 4770l-14 -13c1,10 -3,9 6,9l8 4z"/>
   <path class="fil31" d="M3441 4877l10 -2c19,-2 -1,1 7,-8l-17 10z"/>
   <path class="fil33" d="M919 973c10,-9 7,11 9,-7l2 -9 -11 16z"/>
   <path class="fil37" d="M6021 4937c0,-9 2,-7 -7,-7l-9 -4 16 11z"/>
   <path class="fil30" d="M3498 1528l-17 -18c8,15 2,9 17,18z"/>
   <path class="fil17" d="M5380 1426l11 -16c-9,6 -5,-8 -11,16z"/>
   <path class="fil17" d="M3660 49l12 -14c-10,0 -8,-3 -8,5l-4 9z"/>
   <path class="fil22" d="M4125 1247l9 -3c16,-1 -2,1 6,-9l-15 12z"/>
   <path class="fil22" d="M7430 1237l-3 -10c-2,-14 0,2 -8,-5l11 15z"/>
   <path class="fil9" d="M7420 1036c1,-1 3,-3 3,-3 0,1 2,-2 2,-3 3,-6 4,6 4,-12l-9 18z"/>
   <path class="fil40" d="M6954 5160l15 -10 -9 3c-9,0 -6,-2 -6,7z"/>
   <path class="fil33" d="M930 957l13 -16c-9,1 -8,-2 -8,6l-5 10z"/>
   <path class="fil22" d="M2404 78c-1,-10 2,-8 -6,-8l-9 -6 15 14z"/>
   <path class="fil35" d="M6392 4913c15,-7 8,-2 15,-15l-15 15z"/>
   <path class="fil43" d="M5486 4911l14 -9 -9 2c-19,2 0,-1 -5,7z"/>
   <path class="fil33" d="M4158 1222l10 -14c-8,5 -6,-11 -7,5l-3 9z"/>
   <path class="fil18" d="M3479 901l16 -15c-15,8 -8,2 -16,15z"/>
   <path class="fil18" d="M4895 53c-6,-11 0,-7 -16,-15l16 15z"/>
   <path class="fil4" d="M3424 963c11,-8 7,-2 15,-18l-15 18z"/>
   <path class="fil22" d="M4137 880c-6,-7 2,-6 -18,-10l18 10z"/>
   <path class="fil35" d="M6325 5160l-16 -15c7,11 2,8 16,15z"/>
   <path class="fil43" d="M6373 4928c16,-9 10,-6 16,-15l-16 15z"/>
   <path class="fil4" d="M3559 289l-17 -13c1,1 2,2 2,3 1,2 2,3 3,3 8,6 1,3 12,7z"/>
   <path class="fil22" d="M7497 881c1,-1 3,-4 3,-3 1,1 2,-2 3,-3 4,-8 2,-2 5,-13l-11 19z"/>
   <path class="fil30" d="M4688 1205l-13 -17c4,10 -1,2 4,8 5,7 2,4 9,9z"/>
   <path class="fil22" d="M4619 1516c9,-5 3,-1 10,-7 1,-1 2,-1 3,-3 0,-2 1,-3 2,-4l-15 14z"/>
   <path class="fil35" d="M5214 5105c17,-4 -4,6 8,-2 7,-5 4,-3 7,-8l-15 10z"/>
   <path class="fil18" d="M3605 350l-6 -14c0,-2 -2,-2 -3,-3l9 17z"/>
   <path class="fil23" d="M3521 1538c-1,-1 -2,-2 -3,-3l-14 -6 17 9z"/>
   <polygon class="fil19" points="3586,268 3569,258 "/>
   <polygon class="fil21" points="2219,60 2240,48 "/>
   <polygon class="fil13" points="4962,1467 4971,1446 "/>
   <polygon class="fil22" points="4624,1140 4607,1130 "/>
   <polygon class="fil28" points="7473,930 7482,911 "/>
  </g>
 </g>
</svg>
