<?xml version="1.0" encoding="UTF-8"?>
<!DOCTYPE svg PUBLIC "-//W3C//DTD SVG 1.1//EN" "http://www.w3.org/Graphics/SVG/1.1/DTD/svg11.dtd">
<!-- Creator: CorelDRAW X8 -->
<svg xmlns="http://www.w3.org/2000/svg" xml:space="preserve" width="25.449mm" height="25.396mm" version="1.1" style="shape-rendering:geometricPrecision; text-rendering:geometricPrecision; image-rendering:optimizeQuality; fill-rule:evenodd; clip-rule:evenodd"
viewBox="0 0 2545 2540"
 xmlns:xlink="http://www.w3.org/1999/xlink">
 <defs>
  <style type="text/css">
   <![CDATA[
    .fil1 {fill:#F01813}
    .fil3 {fill:#F69191}
    .fil2 {fill:#FEFBFC}
    .fil0 {fill:#FEFDFE}
   ]]>
  </style>
 </defs>
 <g id="Layer_x0020_1">
  <metadata id="CorelCorpID_0Corel-Layer"/>
  <path class="fil0" d="M-6243 1762l2545 0 0 1484 -650 218 -20 -25 124 -268 544 -197 2 -606c-307,-84 -276,-62 -570,46 -347,128 -922,264 -1008,475 -95,231 18,404 171,469 -93,91 -166,102 -308,127 -261,-480 -206,-855 377,-1063 402,-144 890,-427 1336,-326l0 -316 -2543 0 0 -18zm2545 2557l-2545 0 0 0 2545 0z"/>
  <path class="fil1" d="M5 1088l698 -259c-46,168 -110,310 -249,361 -147,55 -306,129 -449,153l0 613c406,97 524,-22 1113,-243 190,-71 380,-108 467,-275 119,-228 -40,-411 -166,-481 79,-75 155,-92 279,-108 262,260 316,807 -328,1046 -369,136 -983,445 -1365,325l0 320 2544 0 0 -1074 -650 219 -81 45 62 -70 124 -268 543 -197 2 -606c-306,-84 -276,-62 -570,46 -347,128 -921,264 -1008,475 -95,230 18,404 171,469 -93,91 -166,102 -307,126 -262,-479 -206,-854 376,-1062 402,-144 890,-427 1337,-327l-1 -316 -2542 1 0 1087z"/>
  <path class="fil0" d="M-6243 3735l0 265c383,119 996,-189 1365,-326 645,-239 590,-785 329,-1045 -124,15 -200,33 -280,107 126,70 286,254 167,482 -87,167 -277,203 -467,275 -589,220 -708,340 -1114,242z"/>
  <path class="fil2" d="M-6243 2867l0 255c144,-24 303,-98 450,-152 139,-52 203,-193 249,-361l-699 258z"/>
  <polygon class="fil3" points="-4348,3464 -4368,3439 -4429,3509 "/>
 </g>
</svg>
