<?xml version="1.0" encoding="UTF-8"?>
<!DOCTYPE svg PUBLIC "-//W3C//DTD SVG 1.1//EN" "http://www.w3.org/Graphics/SVG/1.1/DTD/svg11.dtd">
<!-- Creator: CorelDRAW X8 -->
<svg xmlns="http://www.w3.org/2000/svg" xml:space="preserve" width="85.397mm" height="43.603mm" version="1.1" style="shape-rendering:geometricPrecision; text-rendering:geometricPrecision; image-rendering:optimizeQuality; fill-rule:evenodd; clip-rule:evenodd"
viewBox="0 0 8540 4360"
 xmlns:xlink="http://www.w3.org/1999/xlink">
 <defs>
  <style type="text/css">
   <![CDATA[
    .fil2 {fill:#307A4D}
    .fil6 {fill:#317B4E}
    .fil0 {fill:#3D4094}
    .fil9 {fill:#53906B}
    .fil4 {fill:#979797}
    .fil12 {fill:#C7C7C7}
    .fil7 {fill:#CCCCCC}
    .fil10 {fill:#D0D0D0}
    .fil8 {fill:#D1D1D1}
    .fil11 {fill:#D5D5D5}
    .fil13 {fill:#DADADA}
    .fil1 {fill:#ED3337}
    .fil5 {fill:#FCFCFD}
    .fil3 {fill:#FEFEFE}
   ]]>
  </style>
 </defs>
 <g id="Layer_x0020_1">
  <metadata id="CorelCorpID_0Corel-Layer"/>
  <g id="_218384707152">
   <path class="fil0" d="M5305 1502c421,3 352,489 226,789 -121,291 -289,500 -681,496l455 -1285zm-1507 1882c950,6 2105,116 2593,-974 233,-519 217,-1064 -211,-1320 -392,-236 -1099,-193 -1595,-194l-787 2488z"/>
   <path class="fil1" d="M7824 1535l-60 1020 -417 -4 477 -1016zm-1061 -120l478 1 -1094 1964 847 7 136 -306 578 1 6 305 818 0 2 -2490 -1608 0 -163 518z"/>
   <path class="fil2" d="M2267 1761l4 80c-5,206 94,284 233,375 208,109 400,131 388,379l-106 55c-22,61 60,18 -78,63 -60,21 -107,21 -169,20 -93,-2 -199,-27 -281,-43l-305 -56 -22 103c-17,61 -38,115 -60,160 -47,96 1,32 -72,112l-103 250 93 28 76 37c133,9 72,-8 139,46 327,-32 548,92 1130,-122 311,-114 595,-337 687,-618 171,-524 -234,-575 -486,-777 -129,-102 -171,-289 29,-387 162,-79 430,-38 621,-41 73,-118 164,-365 158,-521 -617,-5 -1768,-62 -1876,857z"/>
   <path class="fil3" d="M1321 326c-154,310 -406,389 -47,1225 130,301 364,1044 210,1379 -6,3 -17,-4 -20,2l-443 27c-46,8 -55,11 -86,27 -67,34 -21,3 -61,52 112,159 676,-48 645,493 -12,205 -58,118 -144,248l246 395 128 -197c40,-80 69,-144 110,-198l-81 -87c-47,-65 -40,-27 -49,-127 -12,-118 28,-214 60,-278l-93 -28 103 -250c-59,-946 -119,-774 193,-1646 98,-273 173,-481 56,-796 -16,-42 -300,-501 -493,-477 -71,108 -119,171 -234,236z"/>
   <path class="fil4" d="M424 2437l21 362c-162,-78 -218,-57 -287,-256 -57,-255 -152,-358 9,-646 252,-453 1055,-148 1147,524 9,64 10,128 20,189 21,128 36,87 53,231 -140,-115 -105,-172 -405,-432 -152,-133 -459,-211 -558,28zm77 460l68 -23 -32 -154 0 -34c-80,-108 -71,-124 -26,-268l253 -31c181,24 57,11 114,38 115,203 256,148 377,449 -187,1 -313,-10 -457,93 -1,155 -8,121 80,205 94,15 169,29 254,37 42,3 92,-3 132,12 127,48 36,-16 79,77 50,49 129,115 92,256 -23,86 -102,117 -148,260 68,125 209,386 337,455 129,-2 135,-136 184,-236 66,-135 128,-166 137,-314l-83 -62c-104,-75 -57,-259 3,-333l-76 -37c-32,64 -72,160 -60,278 9,100 2,62 49,127l81 87c-41,54 -70,118 -110,198l-128 197 -246 -395c86,-130 132,-43 144,-248 31,-541 -533,-334 -645,-493 40,-49 -6,-18 61,-52 31,-16 40,-19 86,-27l443 -27c3,-6 14,1 20,-2 154,-335 -80,-1078 -210,-1379 -359,-836 -107,-915 47,-1225 76,-155 105,-147 234,-236 193,-24 477,435 493,477 117,315 42,523 -56,796 -312,872 -252,700 -193,1646 73,-80 25,-16 72,-112 22,-45 43,-99 60,-160 -86,-129 12,-352 68,-486 77,-184 141,-332 272,-410l-4 -80c-178,70 -259,260 -337,453l-73 201c-112,-254 34,-682 140,-905 48,-99 50,-80 84,-200 124,-428 128,-196 57,-716 -47,-197 -79,-180 -200,-307 -95,-98 -147,-199 -231,-286 -295,-27 -376,183 -502,363 -165,236 -239,286 -187,664 50,364 442,966 373,1291 -118,-404 -601,-979 -1129,-642 -143,91 -136,95 -215,280 -132,304 -28,825 454,940z"/>
   <path class="fil5" d="M158 2543c130,87 71,93 246,174 -22,-138 -59,-181 20,-280 99,-239 406,-161 558,-28 300,260 265,317 405,432 -17,-144 -32,-103 -53,-231 -10,-61 -11,-125 -20,-189 -92,-672 -895,-977 -1147,-524 -161,288 -66,391 -9,646z"/>
   <path class="fil6" d="M4162 4142l35 -117c45,30 38,-102 35,78 7,175 -13,94 70,151 224,56 205,-671 205,-672 -227,7 -107,35 -202,202l-58 -205 -121 5c-64,85 -153,546 -106,665 187,1 125,44 142,-107z"/>
   <path class="fil6" d="M5079 4122c-28,-66 10,-279 23,-319 26,-83 20,-52 63,-96 -2,134 -15,324 -86,415zm-244 119l416 3c49,-100 166,-530 80,-616 -115,-64 -208,-47 -376,-43l-120 656z"/>
   <path class="fil6" d="M7564 3717l-90 78 41 -77 -2 -136c-234,1 -187,-25 -262,468 -2,17 -10,109 -8,117 24,108 -41,34 58,87 164,-18 118,14 148,-161 86,177 -51,156 205,161 15,-34 16,-17 19,-88 2,-41 -1,-51 -5,-90 -41,-394 72,-257 109,-491 -189,-6 -183,-17 -213,132z"/>
   <path class="fil6" d="M6674 3877c1,127 45,44 -35,134 -15,-63 -22,-58 35,-134zm-90 273l47 -24c82,139 -23,62 106,116l115 2 -11 -653 -288 5c-46,284 -210,516 -134,658 185,-8 127,32 165,-104z"/>
   <path class="fil3" d="M1931 2737l22 -103c9,-7 21,-13 29,-17l153 -61c47,-25 80,-68 123,-116 212,-233 199,-66 246,-224 -139,-91 -238,-169 -233,-375 -131,78 -195,226 -272,410 -56,134 -154,357 -68,486z"/>
   <path class="fil2" d="M3419 3843c29,52 31,15 30,105 -2,81 -4,24 -27,67 -66,-88 -41,-44 -3,-172zm-3 391l185 -1 2 -639 -280 32 -198 625c232,2 151,30 260,-111 40,48 22,-27 31,94z"/>
   <path class="fil6" d="M2513 3944c24,19 82,44 96,94 47,169 -17,87 -35,117 -5,-10 -11,-22 -15,-29l-56 -113 -143 15c-5,477 595,183 421,-102 -77,-126 -142,-21 -179,-231l45 46c6,4 17,15 24,19 7,4 17,11 25,14 100,38 55,20 143,-6 21,-441 -716,-86 -326,176z"/>
   <path class="fil2" d="M8324 4009c-45,-77 -17,-91 31,-161 10,131 39,80 -31,161zm10 193l179 18 5 -610 -270 2 -205 630c217,24 191,48 237,-107 63,53 27,-23 54,67z"/>
   <path class="fil7" d="M1930 2214c-70,-252 618,-1257 208,-1620 71,520 67,288 -57,716 -34,120 -36,101 -84,200 -106,223 -252,651 -140,905l73 -201z"/>
   <path class="fil2" d="M5770 3705l124 8 -37 78c-71,158 -160,266 -195,463l362 -6c7,-176 13,-65 -93,-187 63,-98 158,-272 158,-394l-23 -30 -278 0 -18 68z"/>
   <path class="fil8" d="M1953 2634l305 56c61,-184 274,-319 534,-232l-6 192 106 -55c12,-248 -180,-270 -388,-379 -47,158 -34,-9 -246,224 -43,48 -76,91 -123,116l-153 61c-8,4 -20,10 -29,17z"/>
   <path class="fil9" d="M5788 3637l278 0 23 30c136,0 -37,-59 8,-169 0,-1 34,-50 42,-66l-332 -2c33,147 -19,15 64,149 -149,3 -20,-11 -83,58z"/>
   <path class="fil10" d="M1624 4269l111 90c189,-242 -42,-129 308,-475l-98 -165c-9,148 -71,179 -137,314 -49,100 -55,234 -184,236z"/>
   <path class="fil11" d="M1343 3298c-43,-93 48,-29 -79,-77 -40,-15 -90,-9 -132,-12 -85,-8 -160,-22 -254,-37l47 101 418 25z"/>
   <path class="fil7" d="M537 2686c26,-229 98,-265 341,-261 -57,-27 67,-14 -114,-38l-253 31c-45,144 -54,160 26,268z"/>
   <path class="fil12" d="M158 2543c69,199 125,178 287,256l-21 -362c-79,99 -42,142 -20,280 -175,-81 -116,-87 -246,-174z"/>
   <path class="fil8" d="M1862 3657c1,-178 -1,-227 142,-287 -67,-54 -6,-37 -139,-46 -60,74 -107,258 -3,333z"/>
   <path class="fil7" d="M1321 326c115,-65 163,-128 234,-236 -129,89 -158,81 -234,236z"/>
   <path class="fil13" d="M501 2897l131 32c-13,-48 -14,-61 -31,-100 -1,-2 -24,-48 -27,-53 -5,-9 -13,-20 -18,-27 -4,-8 -12,-19 -19,-29l32 154 -68 23z"/>
  </g>
 </g>
</svg>
