<?xml version="1.0" encoding="UTF-8"?>
<!DOCTYPE svg PUBLIC "-//W3C//DTD SVG 1.1//EN" "http://www.w3.org/Graphics/SVG/1.1/DTD/svg11.dtd">
<!-- Creator: CorelDRAW X8 -->
<svg xmlns="http://www.w3.org/2000/svg" xml:space="preserve" width="22.928mm" height="23.28mm" version="1.1" style="shape-rendering:geometricPrecision; text-rendering:geometricPrecision; image-rendering:optimizeQuality; fill-rule:evenodd; clip-rule:evenodd"
viewBox="0 0 2293 2328"
 xmlns:xlink="http://www.w3.org/1999/xlink">
 <defs>
  <style type="text/css">
   <![CDATA[
    .fil9 {fill:#FEECEC}
    .fil2 {fill:#FEF9F9}
    .fil1 {fill:#FEFBFB}
    .fil0 {fill:red}
    .fil3 {fill:#FF0101}
    .fil7 {fill:#FF8F8F}
    .fil10 {fill:#FFDDDD}
    .fil5 {fill:#FFDFDF}
    .fil4 {fill:#FFE1E1}
    .fil6 {fill:#FFE7E7}
    .fil8 {fill:#FFE8E8}
   ]]>
  </style>
 </defs>
 <g id="Layer_x0020_1">
  <metadata id="CorelCorpID_0Corel-Layer"/>
  <g id="_218373162736">
   <path class="fil0" d="M278 1911c-20,103 -41,171 -131,213 36,-109 50,-145 131,-213zm1424 -1905l51 0c193,3 305,36 500,36 0,210 36,341 35,564 -3,1009 42,1692 -1234,1694 -218,0 -358,-46 -566,-38 -163,7 -330,67 -493,72l0 -1169c59,-559 308,-980 1203,-1120 198,-31 300,-37 504,-39zm-1424 1905l18 -71c12,-152 -6,9 52,-31 -33,133 -45,84 -70,102zm70 -102c38,-112 64,-175 175,-213l-110 168c-53,54 -13,15 -65,45zm1218 -976c255,-19 473,-43 532,232 -62,222 -190,181 -349,248 47,194 23,-31 84,192l-284 -2c21,-95 124,-157 81,-472 -27,-195 42,120 -51,-107 -13,-32 -26,-36 -13,-91zm-699 7c249,-44 607,-24 630,294 28,398 -359,371 -642,373 66,-207 83,-71 82,-373 -2,-294 -67,-123 -70,-294zm-421 106c28,204 142,130 319,290 13,202 -26,185 -155,294 -144,-4 -310,-34 -311,-200l47 -48c125,51 53,40 144,125l142 -13c103,-291 -310,-37 -310,-439l151 -144c146,2 350,24 263,216 -209,-14 -45,-171 -290,-81zm956 -241l-95 74c51,-109 -4,-30 95,-74zm218 -202c-28,53 12,9 -41,63l-187 131c56,-113 107,-148 228,-194zm0 0c69,-116 298,-264 419,-284l-419 284zm419 -284c46,-64 4,-66 86,-20l-86 20z"/>
   <path class="fil1" d="M1066 938c443,14 423,455 -12,463l12 -463zm431 196c-23,-318 -381,-338 -630,-294 3,171 68,0 70,294 1,302 -16,166 -82,373 283,-2 670,25 642,-373z"/>
   <path class="fil2" d="M1758 1180c-41,-84 -57,-138 4,-256 142,-2 53,-34 123,46 96,83 89,66 34,187l-161 23zm340 -115c-59,-275 -277,-251 -532,-232 -13,55 0,59 13,91 93,227 24,-88 51,107 43,315 -60,377 -81,472l284 2c-61,-223 -37,2 -84,-192 159,-67 287,-26 349,-248z"/>
   <path class="fil2" d="M446 946c245,-90 81,67 290,81 87,-192 -117,-214 -263,-216l-151 144c0,402 413,148 310,439l-142 13c-91,-85 -19,-74 -144,-125l-47 48c1,166 167,196 311,200 129,-109 168,-92 155,-294 -177,-160 -291,-86 -319,-290z"/>
   <path class="fil3" d="M1054 1401c435,-8 455,-449 12,-463l-12 463z"/>
   <path class="fil3" d="M1758 1180l161 -23c55,-121 62,-104 -34,-187l-126 -24 -1 234z"/>
   <path class="fil4" d="M1620 503l419 -284c-121,20 -350,168 -419,284z"/>
   <path class="fil5" d="M348 1809c52,-30 12,9 65,-45l110 -168c-111,38 -137,101 -175,213z"/>
   <path class="fil6" d="M1620 503c-121,46 -172,81 -228,194l187 -131c53,-54 13,-10 41,-63z"/>
   <path class="fil7" d="M1758 1180l1 -234 126 24c-70,-80 19,-48 -123,-46 -61,118 -45,172 -4,256z"/>
   <path class="fil8" d="M278 1911c-81,68 -95,104 -131,213 90,-42 111,-110 131,-213z"/>
   <path class="fil9" d="M278 1911c25,-18 37,31 70,-102 -58,40 -40,-121 -52,31l-18 71z"/>
   <path class="fil10" d="M1307 779l95 -74c-99,44 -44,-35 -95,74z"/>
  </g>
 </g>
</svg>
