<?xml version="1.0" encoding="UTF-8"?>
<!DOCTYPE svg PUBLIC "-//W3C//DTD SVG 1.1//EN" "http://www.w3.org/Graphics/SVG/1.1/DTD/svg11.dtd">
<!-- Creator: CorelDRAW X8 -->
<svg xmlns="http://www.w3.org/2000/svg" xml:space="preserve" width="29.986mm" height="29.633mm" version="1.1" style="shape-rendering:geometricPrecision; text-rendering:geometricPrecision; image-rendering:optimizeQuality; fill-rule:evenodd; clip-rule:evenodd"
viewBox="0 0 2999 2963"
 xmlns:xlink="http://www.w3.org/1999/xlink">
 <defs>
  <style type="text/css">
   <![CDATA[
    .fil3 {fill:#D81F25}
    .fil0 {fill:#D82128}
    .fil11 {fill:#E36562}
    .fil12 {fill:#E36762}
    .fil24 {fill:#E36765}
    .fil9 {fill:#E36864}
    .fil21 {fill:#E46863}
    .fil27 {fill:#E46A66}
    .fil28 {fill:#E46B67}
    .fil48 {fill:#E46E6A}
    .fil29 {fill:#E56C68}
    .fil43 {fill:#E56D69}
    .fil34 {fill:#E56F6B}
    .fil41 {fill:#E6706C}
    .fil6 {fill:#E6736D}
    .fil37 {fill:#E7746D}
    .fil5 {fill:#E87770}
    .fil45 {fill:#E87970}
    .fil8 {fill:#E87C75}
    .fil31 {fill:#EA7F7A}
    .fil20 {fill:#EA817B}
    .fil33 {fill:#EB857E}
    .fil36 {fill:#EB8780}
    .fil23 {fill:#ED8881}
    .fil15 {fill:#ED8E84}
    .fil44 {fill:#F0968D}
    .fil42 {fill:#F19990}
    .fil46 {fill:#F19B91}
    .fil40 {fill:#F19D95}
    .fil4 {fill:#F1A197}
    .fil7 {fill:#F1A299}
    .fil32 {fill:#F2A59D}
    .fil38 {fill:#F3A79E}
    .fil14 {fill:#F3AAA2}
    .fil39 {fill:#F3ACA4}
    .fil47 {fill:#F4A9A1}
    .fil17 {fill:#F5B3AA}
    .fil35 {fill:#F6B5AB}
    .fil19 {fill:#F6B7AD}
    .fil10 {fill:#F7B9B0}
    .fil16 {fill:#F7BBB2}
    .fil30 {fill:#F8BDB5}
    .fil26 {fill:#F8BDB6}
    .fil25 {fill:#F8C1BA}
    .fil18 {fill:#F9C3BB}
    .fil22 {fill:#F9C3BC}
    .fil13 {fill:#F9D4CD}
    .fil1 {fill:#FEFCFC}
    .fil2 {fill:#FFFEFE}
   ]]>
  </style>
 </defs>
 <g id="Layer_x0020_1">
  <metadata id="CorelCorpID_0Corel-Layer"/>
  <g id="_218373161008">
   <path class="fil0" d="M1039 2486l33 -44 4 -26 31 -47 2 -23c-1,-57 -17,-46 34,-46l2 -24c-2,-58 -18,-47 33,-47l194 -387c41,-51 4,-54 53,-1l1 27 34 47 1 22 35 46 36 94 35 47 98 212c51,0 35,-11 33,46l2 23 33 47 3 24 36 36c3,58 17,44 -39,42l-629 -3c-100,-26 -43,22 -65,-65zm940 -541l-27 32 2 54 -2 310 -5 30 33 39 60 26 138 -1 58 -26 31 -44 2 -59c32,-40 -50,-40 71,-35 68,3 39,7 73,30l-10 127 -29 49 -35 39 -22 1 -65 29 -22 -3c-67,73 -186,44 -254,3l-49 -4 -47 -30 -36 -34 -34 -40 7 -37 -46 -102 4 -273 37 -80 -3 -31 35 -39 36 -34 47 -32 34 4c75,-67 198,-75 271,-4l25 -3 56 33 61 65 30 56 7 94 -124 -16c-4,-9 -14,-9 -21,-13l-30 -43 -1 -38 -48 -29 -154 -1 -54 30zm-1407 0l-31 45 -2 54 1 261 3 58 32 48 26 -2 218 -11 37 -20 4 -75 31 -36 117 21c105,-48 -8,116 -11,121l2 30 -38 42 -30 28c0,54 11,36 -51,34l-52 2c-74,62 -178,53 -252,-2l-22 3 -60 -31 -23 -1 -39 -39 -1 -23 -33 -51 12 -45c-82,-46 -51,-234 -42,-327l29 -59 0 -19 33 -49 2 -23 38 -40 88 -21c66,-75 236,-83 285,-2l37 -4 47 30 36 35 30 46 10 127 -100 3c-62,3 -47,18 -45,-44l-30 -62 -52 -32 -155 1 -49 29zm-561 1026l2998 0 0 -2963 -2998 0 0 2963z"/>
   <path class="fil1" d="M1249 2375l26 -51 2 -21 34 -48 2 -24 34 -47 2 -20 30 -46c31,-41 6,-37 45,6l2 27 33 49 2 21 34 47 1 23 34 49 31 51c-59,61 104,48 -104,58l-236 -26 28 -48zm-71 -146l-33 47 -2 24 -34 46 -2 23 -31 47 -4 26 -33 44c22,87 -35,39 65,65l629 3 3 -42 0 -36 -3 -24 -33 -47 -2 -23 -33 -46 -98 -212c-54,0 -38,12 -35,-47l-36 -94c-53,0 -38,11 -35,-46l-1 -22c-53,0 -37,11 -34,-47l-1 -27 -53 1 -194 387z"/>
   <path class="fil2" d="M1880 1842l-36 34c1,51 14,39 -35,39l3 31 -37 80 -4 273 46 102 -7 37 34 40 36 34 47 30 49 4 254 -3 22 3 65 -29 22 -1 35 -39 29 -49 10 -127 -144 5 -2 59 -31 44 -58 26 -138 1 -60 -26 -33 -39 5 -30c-61,-108 -42,-164 -33,-310 -4,-65 -22,-54 33,-54l27 -32 54 -30 154 1 48 29 33 38 -2 43 118 4 -21 -69 11 -56 -61 -65c-66,2 -56,22 -56,-33l-25 3 -271 4 -34 -4 -47 32z"/>
   <path class="fil2" d="M470 1839c0,53 13,40 -38,40l-2 23c4,60 21,49 -33,49l0 19 4 59 9 327 -12 45c53,0 35,-11 33,51l1 23c52,0 39,-13 39,39l23 1 60 31 22 -3 252 2 52 -2 51 -34 30 -28 38 -42 -2 -30 11 -121 -116 13 -36 77 -37 20c-22,30 14,46 -103,49 -116,2 -105,-32 -115,-38l-26 2 -32 -48 -3 -58c-69,-76 -46,-186 -1,-261l2 -54 31 -45 49 -29 155 -1c63,-3 52,-21 52,32l30 62c60,0 45,-15 45,44l100 -3 -10 -127 -30 -46 -36 -35 -47 -30 -37 4 -285 2 -88 21z"/>
   <path class="fil3" d="M1349 2164l-2 20c2,59 18,47 -34,47l-2 24c3,60 20,48 -34,48l-2 21 -26 51c41,58 8,40 135,42 84,1 102,-9 177,-26l-31 -51c-52,0 -35,11 -34,-49l-1 -23c-52,0 -35,11 -34,-47l-2 -21 -33 -49 -2 -27 -45 -6c9,57 23,46 -30,46z"/>
   <path class="fil4" d="M410 2356l-9 -327 -33 0c-9,93 -40,281 42,327z"/>
   <path class="fil5" d="M843 1816c-49,-81 -219,-73 -285,2l285 -2z"/>
   <path class="fil6" d="M1952 2341l2 -310 -35 0c-9,146 -28,202 33,310z"/>
   <path class="fil7" d="M1561 2391c-75,17 -93,27 -177,26 -127,-2 -94,16 -135,-42l-28 48 236 26c208,-10 45,3 104,-58z"/>
   <path class="fil8" d="M2232 1810c-73,-71 -196,-63 -271,4l271 -4z"/>
   <path class="fil9" d="M819 2398l-218 11c10,6 -1,40 115,38 117,-3 81,-19 103,-49z"/>
   <path class="fil10" d="M540 2305l-1 -261c-45,75 -68,185 1,261z"/>
   <path class="fil11" d="M2230 2543l-254 3c68,41 187,70 254,-3z"/>
   <path class="fil12" d="M828 2545l-252 -2c74,55 178,64 252,2z"/>
   <path class="fil13" d="M2266 2026c7,4 17,4 21,13l124 16 -7 -94 -41 0 21 69 -118 -4z"/>
   <path class="fil14" d="M2413 2301c-34,-23 -5,-27 -73,-30 -121,-5 -39,-5 -71,35l144 -5z"/>
   <path class="fil15" d="M997 2409c3,-5 116,-169 11,-121l-11 121z"/>
   <path class="fil7" d="M903 2053c0,-59 15,-44 -45,-44 -2,62 -17,47 45,44z"/>
   <path class="fil16" d="M1954 2031l-2 -54c-55,0 -37,-11 -33,54l35 0z"/>
   <polygon class="fil17" points="1008,2288 891,2267 892,2301 "/>
   <path class="fil18" d="M1772 2512l-36 0 -3 42c56,2 42,16 39,-42z"/>
   <polygon class="fil19" points="856,2378 892,2301 860,2303 "/>
   <polygon class="fil20" points="2404,1961 2374,1905 2363,1961 "/>
   <path class="fil10" d="M2313 1840l-56 -33c0,55 -10,35 56,33z"/>
   <path class="fil8" d="M828 1947c0,-53 11,-35 -52,-32l52 32z"/>
   <polygon class="fil21" points="401,2029 397,1970 368,2029 "/>
   <path class="fil22" d="M430 1902l-33 49c54,0 37,11 33,-49z"/>
   <path class="fil10" d="M431 2452c2,-62 20,-51 -33,-51l33 51z"/>
   <path class="fil23" d="M931 2509l-51 34c62,2 51,20 51,-34z"/>
   <path class="fil24" d="M1311 2255l-34 48c54,0 37,12 34,-48z"/>
   <path class="fil14" d="M1425 1841c-49,-53 -12,-50 -53,1l53 -1z"/>
   <path class="fil25" d="M1567 2124l-35 -47c-3,59 -19,47 35,47z"/>
   <path class="fil26" d="M1460 1915l-34 -47c-3,58 -19,47 34,47z"/>
   <path class="fil27" d="M1379 2118l-30 46c53,0 39,11 30,-46z"/>
   <path class="fil28" d="M1530 2340l-34 -49c-1,60 -18,49 34,49z"/>
   <path class="fil29" d="M1347 2184l-34 47c52,0 36,12 34,-47z"/>
   <path class="fil30" d="M1496 1983l-35 -46c-3,57 -18,46 35,46z"/>
   <path class="fil6" d="M1495 2268l-34 -47c-1,58 -18,47 34,47z"/>
   <path class="fil9" d="M1178 2229c-51,0 -35,-11 -33,47l33 -47z"/>
   <path class="fil11" d="M1698 2382c2,-57 18,-46 -33,-46l33 46z"/>
   <path class="fil28" d="M1143 2300c-51,0 -35,-11 -34,46l34 -46z"/>
   <path class="fil31" d="M470 1839l-38 40c51,0 38,13 38,-40z"/>
   <path class="fil5" d="M471 2514c0,-52 13,-39 -39,-39l39 39z"/>
   <path class="fil32" d="M1844 1876l-35 39c49,0 36,12 35,-39z"/>
   <polygon class="fil9" points="2266,2026 2268,1983 2236,1983 "/>
   <path class="fil33" d="M1424 2124c-39,-43 -14,-47 -45,-6l45 6z"/>
   <polygon class="fil34" points="1772,2512 1736,2476 1736,2512 "/>
   <polygon class="fil35" points="2268,1983 2235,1945 2236,1983 "/>
   <polygon class="fil9" points="892,2301 891,2267 860,2303 "/>
   <polygon class="fil36" points="1927,1810 1880,1842 "/>
   <polygon class="fil14" points="963,1877 927,1842 "/>
   <polygon class="fil25" points="1880,1842 1844,1876 "/>
   <polygon class="fil37" points="993,1923 963,1877 "/>
   <polygon class="fil38" points="1775,2026 1812,1946 "/>
   <polygon class="fil28" points="1980,2410 1947,2371 "/>
   <polygon class="fil15" points="2267,2365 2236,2409 "/>
   <polygon class="fil30" points="575,2411 543,2363 "/>
   <polygon class="fil39" points="1817,2401 1771,2299 "/>
   <polygon class="fil9" points="1733,2452 1700,2405 "/>
   <polygon class="fil38" points="2040,2436 1980,2410 "/>
   <polygon class="fil17" points="2236,2409 2178,2435 "/>
   <polygon class="fil25" points="999,2439 961,2481 "/>
   <polygon class="fil37" points="1072,2442 1039,2486 "/>
   <polygon class="fil40" points="1844,2478 1810,2438 "/>
   <polygon class="fil9" points="1275,2324 1249,2375 "/>
   <polygon class="fil41" points="1459,2200 1426,2151 "/>
   <polygon class="fil37" points="927,1842 880,1812 "/>
   <polygon class="fil30" points="1880,2512 1844,2478 "/>
   <polygon class="fil42" points="2374,2477 2339,2516 "/>
   <polygon class="fil16" points="554,2546 494,2515 "/>
   <polygon class="fil43" points="1107,2369 1076,2416 "/>
   <polygon class="fil44" points="572,1945 541,1990 "/>
   <polygon class="fil45" points="1927,2542 1880,2512 "/>
   <polygon class="fil22" points="2317,2517 2252,2546 "/>
   <polygon class="fil46" points="621,1916 572,1945 "/>
   <polygon class="fil47" points="2235,1945 2187,1916 "/>
   <polygon class="fil48" points="2033,1915 1979,1945 "/>
   <polygon class="fil28" points="2403,2428 2374,2477 "/>
  </g>
 </g>
</svg>
