<?xml version="1.0" encoding="UTF-8"?>
<!DOCTYPE svg PUBLIC "-//W3C//DTD SVG 1.1//EN" "http://www.w3.org/Graphics/SVG/1.1/DTD/svg11.dtd">
<!-- Creator: CorelDRAW X8 -->
<svg xmlns="http://www.w3.org/2000/svg" xml:space="preserve" width="99.217mm" height="43.946mm" version="1.1" style="shape-rendering:geometricPrecision; text-rendering:geometricPrecision; image-rendering:optimizeQuality; fill-rule:evenodd; clip-rule:evenodd"
viewBox="0 0 9922 4395"
 xmlns:xlink="http://www.w3.org/1999/xlink">
 <defs>
  <style type="text/css">
   <![CDATA[
    .fil8 {fill:#00385E}
    .fil7 {fill:#00466C}
    .fil0 {fill:#004B80}
    .fil3 {fill:#005C84}
    .fil9 {fill:#022950}
    .fil6 {fill:#054C7B}
    .fil10 {fill:#AEB0B3}
    .fil5 {fill:#BBBCBF}
    .fil4 {fill:#CB3026}
    .fil1 {fill:#CCCDCF}
    .fil2 {fill:#E43924}
   ]]>
  </style>
 </defs>
 <g id="Layer_x0020_1">
  <metadata id="CorelCorpID_0Corel-Layer"/>
  <g id="_218373193136">
   <path class="fil0" d="M2056 3170l564 0 0 -776 812 0 0 776 529 0 0 -2011 -529 0 0 741 -706 0c-135,0 -13,-11 -106,35l0 -776 -564 0 0 2011z"/>
   <path class="fil0" d="M4384 1371l0 1799 529 0 0 -1552 812 0 0 1552 529 0 0 -1764c0,-165 -82,-247 -247,-247l-1411 0c-85,0 -212,127 -212,212z"/>
   <path class="fil0" d="M10 2041l0 176c0,863 1081,1193 1728,882 -10,-129 -75,-290 -106,-423l-529 35c-416,0 -660,-387 -506,-788 182,-473 851,-286 1035,-270 33,-139 94,-314 106,-459 -267,-22 -626,-163 -1090,4 -323,116 -638,495 -638,843z"/>
   <path class="fil1" d="M6959 3625l1517 0 276 -251 -1008 -1024c-145,45 -441,388 -564,511 -118,118 -466,419 -503,556 146,39 154,130 282,208z"/>
   <polygon class="fil2" points="6889,1225 8547,1225 8752,1047 7727,3 6668,1044 "/>
   <path class="fil3" d="M8013 2358l623 635c104,-223 102,-141 236,-274 5,-5 12,-13 16,-18l179 -177c5,-5 13,-12 18,-17l316 -317c5,-5 12,-13 17,-18l88 -90c6,-5 13,-12 18,-17 79,-76 55,-64 152,-112l-635 -622c-147,48 -402,372 -536,491 -101,90 -170,167 -267,263 -68,69 -197,189 -225,273z"/>
   <path class="fil4" d="M8547 1225l-1658 0c62,100 710,779 846,816l812 -816z"/>
   <path class="fil5" d="M7418 4076l600 0c78,-36 42,-13 115,-85 50,-49 73,-75 123,-124 85,-85 159,-145 220,-242l-1517 0 379 402c80,67 32,26 80,49z"/>
   <path class="fil6" d="M8013 2358c28,-84 157,-204 225,-273 97,-96 166,-173 267,-263 134,-119 389,-443 536,-491l-148 -165 -778 760c-94,94 -202,155 -238,291l136 141z"/>
   <path class="fil7" d="M8636 2993l111 106c54,-118 366,-416 501,-534 133,-116 389,-450 534,-499l-106 -113c-97,48 -73,36 -152,112 -5,5 -12,12 -18,17l-88 90c-5,5 -12,13 -17,18l-316 317c-5,5 -13,12 -18,17l-179 177c-4,5 -11,13 -16,18 -134,133 -132,51 -236,274z"/>
   <path class="fil8" d="M8747 3099l85 71 1020 -1020 -70 -84c-145,49 -401,383 -534,499 -135,118 -447,416 -501,534z"/>
   <polygon class="fil9" points="8832,3170 8867,3239 9931,2191 9852,2150 "/>
   <path class="fil10" d="M8018 4076l-600 0 289 322c113,-74 240,-194 311,-322z"/>
   <path class="fil0" d="M2965 3636c35,-55 26,-47 43,-113 236,5 233,103 71,211l-114 -98zm-239 -113l106 0 0 70 -106 0 0 -70zm-70 247c111,-42 50,76 70,-106 139,-3 83,9 176,-36 83,157 21,94 177,177 417,-221 -55,-534 -141,-212l-71 -141 -211 0 0 318z"/>
   <path class="fil0" d="M1767 3586c-18,99 20,46 -64,78l64 -78zm-452 184c112,-42 51,76 71,-106 149,100 39,106 282,106l141 -71c24,92 -13,39 70,71 -31,-136 -78,-198 -105,-318l-71 0c-11,131 -55,187 -106,282 -118,-62 -66,-3 -141,-106 69,-102 71,-47 106,-176 -79,42 -106,59 -176,106 -32,-356 -71,121 -71,212z"/>
   <polygon class="fil0" points="4314,3770 4384,3770 4384,3523 4490,3523 4490,3770 4560,3770 4560,3452 4314,3452 "/>
   <path class="fil0" d="M4984 3523l141 0 0 70 -141 0 0 -70zm211 0c-280,-189 -282,-56 -282,247 112,-42 51,76 71,-106 178,0 197,34 211,-141z"/>
   <path class="fil0" d="M3432 3593l39 140 -145 1c63,-118 3,-65 106,-141zm-177 177c439,102 238,-56 177,-318l-71 0c-14,170 -70,163 -106,318z"/>
   <path class="fil0" d="M468 3523l141 0 0 70 -141 0 0 -70zm-70 247c111,-42 50,76 70,-106 168,-4 140,1 212,-106 -57,-85 -46,-106 -176,-106 -153,0 -106,160 -106,318z"/>
   <path class="fil0" d="M2021 3770c111,-42 50,76 70,-106l141 0c16,184 -33,63 71,106 0,-190 41,-236 -71,-318l0 141 -141 0 -70 -141 0 318z"/>
   <path class="fil0" d="M5478 3770c92,-25 42,11 116,-60l95 -117 71 177 0 -318c-110,40 -34,-6 -116,95 -25,31 -22,29 -47,60l-32 38c-4,4 -11,12 -17,19l-70 -212 0 318z"/>
   <polygon class="fil0" points="715,3770 751,3770 751,3523 892,3523 892,3770 962,3770 962,3452 715,3452 "/>
   <path class="fil0" d="M116 3487c-5,21 -127,318 176,318 51,0 52,-44 70,-71 -122,0 -211,22 -211,-106 0,-127 89,-105 211,-105 -35,-64 -53,-111 -246,-36z"/>
   <path class="fil0" d="M2444 3593l77 64c-181,-40 -25,0 -77,-64zm-106 177c92,-25 39,13 71,-71 180,15 47,27 211,71 -70,-133 -64,-236 -176,-318 -36,155 -92,147 -106,318z"/>
   <path class="fil0" d="M997 3593c0,93 150,332 283,141 -224,-5 -212,-68 -212,-176 98,-47 68,-35 212,-35l0 -71c-112,0 -283,29 -283,141z"/>
   <path class="fil0" d="M6113 3593l70 0 0 71 -70 0 0 -71zm-106 177c92,-25 39,13 70,-71l142 0c24,92 -14,39 70,71 -28,-120 -74,-182 -106,-318l-70 0c-32,136 -78,198 -106,318z"/>
   <path class="fil0" d="M4737 3558l35 0 0 106 -35 0 0 -106zm-141 212c199,-54 72,-141 282,0 -14,-171 -70,-163 -106,-318 -112,82 -106,185 -176,318z"/>
   <path class="fil0" d="M3996 3593l78 64c-182,-40 -25,0 -78,-64zm-106 177c92,-25 40,13 71,-71l141 0c24,92 -13,39 70,71 -64,-135 -55,-230 -176,-318 -28,120 -74,182 -106,318z"/>
   <path class="fil0" d="M3573 3770c111,-42 50,76 70,-106l141 0c16,184 -33,63 71,106l-71 -177 -141 0 -70 -141 0 318z"/>
   <path class="fil0" d="M5901 3523l0 211 -106 0c34,47 9,83 93,59 111,-32 84,-215 84,-341l-142 0c28,103 -55,57 71,71z"/>
   <path class="fil0" d="M5195 3523l106 0 71 247c0,-149 15,-143 -35,-247 184,-16 63,33 105,-71l-247 71z"/>
  </g>
 </g>
</svg>
