<?xml version="1.0" encoding="UTF-8"?>
<!DOCTYPE svg PUBLIC "-//W3C//DTD SVG 1.1//EN" "http://www.w3.org/Graphics/SVG/1.1/DTD/svg11.dtd">
<!-- Creator: CorelDRAW X8 -->
<svg xmlns="http://www.w3.org/2000/svg" xml:space="preserve" width="95.25mm" height="18.717mm" version="1.1" style="shape-rendering:geometricPrecision; text-rendering:geometricPrecision; image-rendering:optimizeQuality; fill-rule:evenodd; clip-rule:evenodd"
viewBox="0 0 9525 1872"
 xmlns:xlink="http://www.w3.org/1999/xlink">
 <defs>
  <style type="text/css">
   <![CDATA[
    .fil9 {fill:#084E93}
    .fil11 {fill:#0C2D72}
    .fil8 {fill:#0D4887}
    .fil5 {fill:#11204A}
    .fil4 {fill:#113D77}
    .fil6 {fill:#153467}
    .fil7 {fill:#162B58}
    .fil2 {fill:#850203}
    .fil0 {fill:#9B090C}
    .fil10 {fill:#B11117}
    .fil3 {fill:#C6161D}
    .fil1 {fill:#DE1A22}
   ]]>
  </style>
 </defs>
 <g id="Layer_x0020_1">
  <metadata id="CorelCorpID_0Corel-Layer"/>
  <g id="_218277104032">
   <path class="fil0" d="M245 1476l1905 0c60,-82 251,-349 282,-436l-1905 0c-82,83 -70,101 -134,202 -57,90 -96,144 -148,234z"/>
   <path class="fil1" d="M950 422l1870 0c108,-77 214,-294 282,-422l-1905 0c-75,111 -214,285 -247,422z"/>
   <path class="fil2" d="M2150 1476l-1905 0c-76,96 -215,273 -247,393l1905 0 247 -393z"/>
   <path class="fil3" d="M668 805l1905 0 247 -383 -1870 0c-93,70 -203,278 -282,383z"/>
   <path class="fil4" d="M2679 882l1905 0 33 -38c5,-5 25,-32 31,-40 33,-47 23,-36 56,-85 49,-74 83,-125 127,-188l-1905 0c-6,6 -15,7 -17,18l-230 333z"/>
   <path class="fil5" d="M4161 1520l-1870 0c-82,54 -201,222 -212,349l1870 0c63,-94 180,-238 212,-349z"/>
   <path class="fil6" d="M2503 1201l1869 0c103,-79 150,-202 212,-319l-1905 0c-69,102 -146,183 -176,319z"/>
   <path class="fil7" d="M2291 1520l1870 0c77,-62 183,-214 211,-319l-1869 0c-83,58 -183,205 -212,319z"/>
   <path class="fil8" d="M2926 531l1905 0c62,-96 117,-177 176,-279l-1905 0c-22,23 -18,11 -46,54 -27,41 -14,28 -39,67 -45,72 -55,86 -91,158z"/>
   <path class="fil9" d="M3102 252l1905 0c56,-72 116,-159 141,-252l-1905 0c-50,94 -93,154 -141,252z"/>
   <path class="fil10" d="M527 1040l1905 0c91,-97 88,-125 141,-235l-1905 0c-52,86 -94,142 -141,235z"/>
   <path class="fil11" d="M5819 917c0,-81 57,-17 23,0 0,0 -23,102 -23,0zm-953 282l177 0 40 -210 242 -2 -41 211c688,3 175,-105 605,-105 38,142 10,102 177,106 0,-174 -70,-408 -106,-564 -158,3 -136,-32 -374,366 -72,120 -17,88 -120,163 15,-187 91,-355 106,-529 -206,4 -169,25 -212,211l-247 0c48,-86 35,-65 35,-211 -194,4 -151,30 -197,225 -32,132 -57,221 -85,339z"/>
   <path class="fil11" d="M8288 282l78 63c-182,-39 -25,1 -78,-63zm-847 317c178,-4 173,-40 177,-211l106 0c19,83 32,104 35,211l388 0c36,-137 48,-137 212,-141l39 140 172 1c-31,-135 -92,-461 -141,-564 -312,0 -202,315 -494,529 -9,-108 -33,-170 -70,-247 13,-20 20,-39 41,-65 101,-127 125,-21 170,-217 -412,0 -141,146 -388,212 3,-108 16,-129 36,-212l-177 0c-17,209 -106,327 -106,564z"/>
   <path class="fil11" d="M8076 1587c0,-81 58,-17 24,0 -1,0 -24,102 -24,0zm-882 282l177 0c19,-83 33,-104 35,-211l106 0 41 210 347 1c56,-84 43,-36 71,-141l176 0c13,153 20,138 176,141 0,-201 -66,-396 -106,-564 -268,6 -183,146 -460,492l-109 -208c28,-35 24,-52 59,-89 70,-74 -27,-38 122,-54l0 -141c-234,0 -164,1 -239,113 -96,145 17,80 -149,99 40,-83 31,-129 71,-212l-176 0c-37,156 -83,441 -142,564z"/>
   <path class="fil11" d="M5748 1552l0 -106 106 0c-41,152 17,50 -106,106zm-670 -106l141 0c-14,171 -71,221 -71,423 184,-4 148,1 247,-423 141,-3 131,-16 212,-71 -15,178 -91,316 -106,494l177 0c5,-226 25,-134 188,-199 324,-128 58,-365 58,-365 -70,0 -140,-3 -211,3l-635 -3 0 141z"/>
   <path class="fil11" d="M7900 1093c53,-100 113,-196 141,-317l71 0c-34,400 -90,314 -212,317zm-282 106l494 0c30,76 -41,40 45,66 67,21 143,-5 134,-101 -15,-139 6,-39 -74,-71 13,-145 74,-319 106,-458l-388 0c-54,234 -188,377 -317,564z"/>
   <path class="fil11" d="M8923 1164c3,-144 74,-392 106,-529l-177 0c-2,107 -15,128 -35,211l-247 0c20,-83 33,-104 36,-211l-142 0c-34,72 -132,462 -141,564l177 0c2,-107 16,-129 35,-212l247 0c-19,83 -33,105 -35,212 138,-3 82,10 176,-35z"/>
   <path class="fil11" d="M6559 1869l142 0c39,-83 30,-128 70,-211l212 0c0,278 14,111 -35,211l176 0c8,-102 106,-492 141,-564l-176 0c-20,83 -33,104 -36,212l-247 0 41 -211 -182 -1c-5,219 -101,345 -106,564z"/>
   <path class="fil11" d="M6101 1199l176 0c8,-97 42,-216 62,-291 45,-179 41,-132 256,-132 -34,69 -98,326 -106,423l176 0c5,-219 101,-346 106,-564l-529 0c-44,188 -97,375 -141,564z"/>
   <path class="fil11" d="M6242 599l176 0c33,-142 73,-281 106,-423l212 0c-33,142 -73,281 -106,423l176 0c18,-209 106,-327 106,-564l-529 0c-8,102 -106,492 -141,564z"/>
   <path class="fil11" d="M6313 1517c-16,184 33,63 -71,105l71 -105zm-389 352l177 0c66,-124 16,-141 212,-141 31,65 27,44 35,141l176 0c-16,-189 -101,-354 -106,-564l-176 0c-32,119 -92,164 -153,270 -62,110 -134,178 -165,294z"/>
   <path class="fil11" d="M9276 917c0,-81 57,-17 23,0 0,0 -23,102 -23,0zm-353 247c110,72 179,51 212,-71l211 0 0 106 177 0c-5,-194 -90,-366 -106,-564 -256,5 -189,120 -430,451l-47 59c-3,4 -11,12 -17,19z"/>
   <path class="fil11" d="M6101 176l0 106 -106 0c27,-103 0,-81 106,-106zm-353 423l176 0c8,-95 17,-96 36,-176 519,-12 261,-314 211,-388l-282 0c-44,189 -97,376 -141,564z"/>
   <path class="fil11" d="M6983 917l0 -141 106 0c-8,66 22,31 -19,86 -14,18 -86,53 -87,55zm-247 282l176 0c5,-208 1,-139 169,-184 221,-61 320,-380 -133,-380 -130,0 -113,126 -142,246 -25,105 -61,203 -70,318z"/>
   <path class="fil11" d="M7618 1199l0 -106 -177 0 0 -106 212 0 0 -141 -176 0c141,-193 222,80 247,-211l-353 0c-44,188 -97,375 -141,564l388 0z"/>
   <path class="fil11" d="M6912 352c0,105 94,176 141,247l353 0c-21,-251 -92,-106 -141,-106 -244,0 -231,-288 -9,-327 147,-26 201,103 221,-131 -175,0 -565,-15 -565,317z"/>
   <path class="fil11" d="M5254 352c0,288 232,247 459,247l0 -141c-183,44 -282,98 -282,-211 186,-125 135,-89 352,-71l0 -141c-175,0 -529,-30 -529,317z"/>
   <path class="fil11" d="M4513 1622c0,288 232,247 459,247l0 -141c-137,36 -82,71 -282,-35l0 -176c186,-125 135,-89 353,-71l0 -141c-217,0 -530,-5 -530,317z"/>
  </g>
 </g>
</svg>
