<?xml version="1.0" encoding="UTF-8"?>
<!DOCTYPE svg PUBLIC "-//W3C//DTD SVG 1.1//EN" "http://www.w3.org/Graphics/SVG/1.1/DTD/svg11.dtd">
<!-- Creator: CorelDRAW X8 -->
<svg xmlns="http://www.w3.org/2000/svg" xml:space="preserve" width="41.985mm" height="32.763mm" version="1.1" style="shape-rendering:geometricPrecision; text-rendering:geometricPrecision; image-rendering:optimizeQuality; fill-rule:evenodd; clip-rule:evenodd"
viewBox="0 0 4199 3276"
 xmlns:xlink="http://www.w3.org/1999/xlink">
 <defs>
  <style type="text/css">
   <![CDATA[
    .fil7 {fill:#211D1E}
    .fil18 {fill:#221E1F}
    .fil45 {fill:#221E20}
    .fil10 {fill:#231E20}
    .fil17 {fill:#24212B}
    .fil41 {fill:#252122}
    .fil49 {fill:#261F20}
    .fil20 {fill:#262223}
    .fil15 {fill:#262224}
    .fil48 {fill:#281F20}
    .fil42 {fill:#2A1F20}
    .fil25 {fill:#2A272D}
    .fil5 {fill:#2A308B}
    .fil51 {fill:#2B2728}
    .fil16 {fill:#2C2F85}
    .fil11 {fill:#2D292A}
    .fil3 {fill:#2E3191}
    .fil43 {fill:#2F2B2C}
    .fil26 {fill:#301F20}
    .fil12 {fill:#312D2E}
    .fil21 {fill:#333573}
    .fil44 {fill:#343031}
    .fil40 {fill:#373334}
    .fil37 {fill:#393536}
    .fil29 {fill:#3D1E21}
    .fil28 {fill:#3D3A3B}
    .fil39 {fill:#403D3E}
    .fil27 {fill:#421F21}
    .fil47 {fill:#433F40}
    .fil36 {fill:#454242}
    .fil24 {fill:#474774}
    .fil46 {fill:#484546}
    .fil38 {fill:#4B4847}
    .fil33 {fill:#4C1E21}
    .fil35 {fill:#514D4E}
    .fil34 {fill:#534E52}
    .fil50 {fill:#555253}
    .fil31 {fill:#5D5A5B}
    .fil14 {fill:#696666}
    .fil22 {fill:#747272}
    .fil13 {fill:#787676}
    .fil8 {fill:#7C7A7B}
    .fil4 {fill:#807E7E}
    .fil32 {fill:#858383}
    .fil9 {fill:#908E8D}
    .fil30 {fill:#939191}
    .fil23 {fill:#E7E7E7}
    .fil1 {fill:#E91C23}
    .fil6 {fill:#ED1C24}
    .fil19 {fill:#F9F9F7}
    .fil2 {fill:#FDFDFD}
    .fil0 {fill:#FEFEFE}
   ]]>
  </style>
 </defs>
 <g id="Layer_x0020_1">
  <metadata id="CorelCorpID_0Corel-Layer"/>
  <g id="_218277093440">
   <path class="fil0" d="M1843 1616c-12,61 2,22 -28,84 -3,5 -16,28 -19,23 -2,-6 -14,14 -21,22l13 -5c-65,416 -26,466 175,810 60,104 117,212 177,316 100,173 140,135 231,263l191 -28c174,-213 253,-366 388,-625 204,-392 191,-410 127,-826 -154,-105 -182,-237 -412,-280 1,74 -7,208 2,274 15,107 46,82 63,206 100,191 -100,713 -332,775l-81 -101 6 -34c-97,-70 -94,-74 -113,-207l10 -21c-114,-82 -144,-310 -76,-452 93,-195 99,46 105,-456 -236,53 -249,159 -406,262z"/>
   <path class="fil1" d="M3062 202l-268 83c-118,-16 -220,7 -317,43 3,1 79,20 82,22 48,20 -7,-10 52,24l45 39 60 32 -1 637c30,113 -23,48 78,74 157,-27 311,-67 468,-99 175,-36 306,-19 378,-182l72 -135 24 -80 33 -76 49 -75 59 -166 30 -77 52 -87 24 -83 18 -72 -77 12c-147,-17 -711,115 -861,166z"/>
   <path class="fil2" d="M1634 769l666 -2c3,256 -35,1020 24,1210 130,63 110,51 250,14 71,-168 36,-1311 30,-1574 -274,-36 -392,8 -621,125 -253,-123 -388,-176 -677,-176l8 598 324 27 -4 -222z"/>
   <path class="fil0" d="M1066 2246c23,17 498,547 528,588l174 -1 65 -159c-92,-221 -252,-283 -318,-480 -147,-70 -350,-365 -386,-534 -28,-104 -46,-161 30,-246 141,-173 398,29 636,-59 202,-440 -687,-364 -921,-181 -389,305 115,790 192,1072z"/>
   <path class="fil3" d="M3821 802l-182 73c-72,163 -203,146 -378,182 -157,32 -311,72 -468,99l-76 69 5 102c158,70 299,164 355,323 6,5 17,3 20,13 31,110 -17,-29 40,31 143,105 94,266 73,435l43 -269 423 -117c99,-214 71,-95 251,-201l-145 0 354 -811 -315 71z"/>
   <path class="fil0" d="M516 2526l-35 79 -35 75 -51 73 13 24 -34 71 -35 76 -29 74 -42 86 -37 82 -17 69 76 -9 30 9 146 -51 24 16 128 -48 165 -46 29 24 148 -52 141 -38 55 19 121 -49 47 14 98 -45 170 -36 20 -75c-67,-7 -63,39 -54,-25 -289,-169 -288,-304 -493,-523l-495 102 -54 104z"/>
   <path class="fil1" d="M503 766l-72 66c-42,31 -48,-43 -24,75l-32 78 -50 75 -58 165 -48 77c-58,102 -86,132 -93,240l-48 80c-33,46 -24,24 -23,97l58 24 186 -24 407 -109c-78,-417 181,-592 557,-618l-2 -295c-39,-109 18,-47 -90,-77l-668 146z"/>
   <path class="fil4" d="M1307 1400l324 41c8,167 38,385 -33,529 -365,172 -289,-361 -291,-570zm331 -409l-324 -27 -8 -598c289,0 424,53 677,176 229,-117 347,-161 621,-125 6,263 41,1406 -30,1574 -140,37 -120,49 -250,-14 -59,-190 -21,-954 -24,-1210l-666 2 4 222zm-467 -371c108,30 51,-32 90,77l2 295c-376,26 -635,201 -557,618 51,181 219,536 360,636 -77,-282 -581,-767 -192,-1072 234,-183 1123,-259 921,181 -238,88 -495,-114 -636,59l110 -22 -8 400c-40,63 9,65 -29,5l-103 -137c36,169 239,464 386,534l-1 -49 -19 -19 -81 -69 223 -37c75,-183 50,-395 45,-581 175,-52 213,-94 194,-289l-130 -106 -67 -37 10 -191 545 1 14 65 0 383 -50 27c-136,95 -296,156 -355,324 157,-103 170,-209 406,-262 -6,502 -12,261 -105,456 -68,142 -38,370 76,452 -43,-174 -147,-349 13,-503 43,119 -34,164 66,242 -169,34 -17,-4 -79,63 154,0 58,-22 171,37 84,-92 92,-10 227,-102l41 -207 71 58c-17,-124 -48,-99 -63,-206 -9,-66 -1,-200 -2,-274 230,43 258,175 412,280 -56,-159 -197,-253 -355,-323l-77 -11 11 -903 -45 -39c-59,-34 -4,-4 -52,-24 -3,-2 -79,-21 -82,-22 -130,21 -268,25 -379,86 -84,56 -99,95 -163,35 -216,-138 -432,-141 -693,-141l0 282 -71 30z"/>
   <path class="fil0" d="M3210 2129c-3,196 -91,306 -157,485l163 -24 142 -42 30 17 147 -52 19 17 122 -46 29 11 63 -69 35 -78 33 -75 51 -73 -13 -23 35 -72 34 -75 50 -74 -14 -26 36 -68 34 -75 36 -75 49 -75 -18 -24c4,-88 13,-47 -16,-84l-142 41 -31 -28c-180,106 -152,-13 -251,201l-423 117 -43 269z"/>
   <path class="fil5" d="M299 1719l133 0 -355 810 388 -75 51 72 54 -104 495 -102 1 -74c-141,-100 -309,-455 -360,-636l-407 109z"/>
   <path class="fil2" d="M1307 1400c2,209 -74,742 291,570 71,-144 41,-362 33,-529l-324 -41z"/>
   <polygon class="fil6" points="1746,1044 1876,1150 1977,1331 2198,1292 2248,1265 2248,882 1750,887 "/>
   <path class="fil7" d="M2562 3101l-191 28 -106 -42c111,176 349,173 487,36 98,-98 199,-350 289,-487 164,0 96,21 175,-46l-163 24c66,-179 154,-289 157,-485 21,-169 70,-330 -73,-435 101,293 -7,535 -141,793 -87,167 -254,579 -434,614z"/>
   <path class="fil0" d="M2361 2499l84 58c96,-90 228,-355 228,-484 -113,66 -156,74 -282,28 -113,-59 -17,-37 -171,-37l141 435z"/>
   <path class="fil8" d="M1719 1857l0 326 192 424 132 205 -139 39c-35,17 -42,-11 8,32l177 0c58,115 63,144 176,204l106 42c-91,-128 -131,-90 -231,-263 -60,-104 -117,-212 -177,-316 -201,-344 -240,-394 -175,-810l-40 0 -29 117z"/>
   <path class="fil9" d="M2562 3101c180,-35 347,-447 434,-614 134,-258 242,-500 141,-793 -57,-60 -9,79 -40,-31 -3,-10 -14,-8 -20,-13 64,416 77,434 -127,826 -135,259 -214,412 -388,625z"/>
   <path class="fil10" d="M1495 2126l200 -53 24 -216 29 -117 -5 -237c140,-44 132,-72 234,-172l-101 -181c19,195 -19,237 -194,289 5,186 30,398 -45,581l-223 37 81 69z"/>
   <path class="fil11" d="M2722 1327l-5 -102 76 -69c-101,-26 -48,39 -78,-74l1 -637 -60 -32 -11 903 77 11z"/>
   <path class="fil4" d="M2673 2073c0,129 -132,394 -228,484l-84 -58 -44 25 81 101c232,-62 432,-584 332,-775l-57 223z"/>
   <path class="fil12" d="M2220 2262l-10 21 113 207 -6 34 44 -25 -141 -435c62,-67 -90,-29 79,-63 -100,-78 -23,-123 -66,-242 -160,154 -56,329 -13,503z"/>
   <path class="fil13" d="M1065 2320c205,219 204,354 493,523l36 -9c-30,-41 -505,-571 -528,-588l-1 74z"/>
   <path class="fil14" d="M1768 2833l89 -49c18,-153 -14,-75 56,-126l-2 -51c-73,-84 -254,-312 -325,-348 31,-57 0,-57 40,-88l-70 34 -42 -60 1 49c66,197 226,259 318,480l-65 159z"/>
   <polygon class="fil15" points="1746,1044 1750,887 2248,882 2234,817 1689,816 1679,1007 "/>
   <path class="fil16" d="M1977 1331c-102,100 -94,128 -234,172l5 237 40 0 -13 5c11,-93 -13,-98 68,-129 59,-168 219,-229 355,-324l-221 39z"/>
   <path class="fil17" d="M1129 1660l103 137c-27,-274 5,-174 37,-405l-110 22c-76,85 -58,142 -30,246z"/>
   <path class="fil18" d="M2391 2101c126,46 169,38 282,-28l57 -223 -71 -58 -41 207c-135,92 -143,10 -227,102z"/>
   <path class="fil19" d="M1911 2607l-192 -424 -93 -12c-40,31 -9,31 -40,88 71,36 252,264 325,348z"/>
   <path class="fil20" d="M1768 2833l-174 1 -36 9c-9,64 -13,18 54,25 67,33 53,-84 53,85l247 -70c-50,-43 -43,-15 -8,-32l9 -193c-70,51 -38,-27 -56,126l-89 49z"/>
   <polygon class="fil21" points="1495,2126 1514,2145 1556,2205 1626,2171 1719,2183 1719,1857 1695,2073 "/>
   <path class="fil22" d="M4116 1613c74,-29 32,22 88,-71 -53,-88 86,-70 -105,-70 -177,71 -74,19 -141,98l142 -41c29,37 20,-4 16,84z"/>
   <polygon class="fil23" points="1904,2851 2043,2812 1911,2607 1913,2658 "/>
   <path class="fil24" d="M1232 1797c38,60 -11,58 29,-5l8 -400c-32,231 -64,131 -37,405z"/>
   <path class="fil13" d="M1422 2979l243 -26c0,-169 14,-52 -53,-85l-20 75 -170 36z"/>
   <polygon class="fil25" points="3639,875 3821,802 3711,802 3711,740 "/>
   <path class="fil26" d="M113 1743l-58 -24c-59,36 -48,-58 -48,70 176,-5 52,1 106,-46z"/>
   <path class="fil27" d="M2794 285l268 -83c-92,6 -59,-5 -144,18 -160,42 -48,-1 -124,65z"/>
   <path class="fil28" d="M290 3226l-76 9 17 -69 -87 102c183,2 88,4 146,-42z"/>
   <path class="fil29" d="M3982 96l86 -103c-183,-2 -88,-4 -145,43l77 -12 -18 72z"/>
   <path class="fil30" d="M2323 2490l-113 -207c19,133 16,137 113,207z"/>
   <path class="fil31" d="M783 3106l-165 46c180,46 120,11 165,-46z"/>
   <path class="fil32" d="M1775 1745c7,-8 19,-28 21,-22 3,5 16,-18 19,-23 30,-62 16,-23 28,-84 -81,31 -57,36 -68,129z"/>
   <path class="fil33" d="M1935 449c64,60 79,21 163,-35l-163 35z"/>
   <polygon class="fil34" points="1101,3040 960,3078 1068,3101 "/>
   <polygon class="fil34" points="3358,2548 3216,2590 3326,2606 "/>
   <polygon class="fil35" points="3705,2495 3782,2495 3768,2426 "/>
   <path class="fil36" d="M3676 2484l-122 46c123,0 83,28 122,-46z"/>
   <polygon class="fil37" points="268,3084 310,2998 246,3014 "/>
   <polygon class="fil11" points="1277,3010 1156,3059 1246,3062 "/>
   <polygon class="fil29" points="431,832 503,766 431,766 "/>
   <path class="fil38" d="M618 3152l-128 48c152,-2 65,13 128,-48z"/>
   <polygon class="fil39" points="3535,2513 3388,2565 3465,2565 "/>
   <path class="fil40" d="M1422 2979l-98 45c153,0 65,14 98,-45z"/>
   <polygon class="fil40" points="960,3078 812,3130 890,3130 "/>
   <path class="fil41" d="M3836 2273c66,-15 51,66 51,-73l-51 73z"/>
   <path class="fil42" d="M3906 266c55,-34 50,61 52,-87l-52 87z"/>
   <polygon class="fil36" points="466,3184 320,3235 396,3235 "/>
   <path class="fil10" d="M325 1060l50 -75c-65,18 -50,-63 -50,75z"/>
   <path class="fil41" d="M395 2753l51 -73c-65,16 -51,-64 -51,73z"/>
   <path class="fil37" d="M446 2680l35 -75c-62,21 -64,-49 -35,75z"/>
   <path class="fil12" d="M3943 2030c65,-20 50,61 50,-74l-50 74z"/>
   <path class="fil43" d="M4085 1712c64,-19 49,62 49,-75l-49 75z"/>
   <path class="fil44" d="M3803 2348c61,-20 63,50 33,-75l-33 75z"/>
   <path class="fil12" d="M310 2998l29 -74c-60,19 -67,-49 -29,74z"/>
   <path class="fil45" d="M3768 584c63,-20 49,61 49,-75l-49 75z"/>
   <path class="fil38" d="M481 2605l35 -79c-62,31 -64,-39 -35,79z"/>
   <path class="fil39" d="M4049 1787c61,-24 63,46 36,-75l-36 75z"/>
   <path class="fil46" d="M339 2924l35 -76c-60,26 -62,-44 -35,76z"/>
   <path class="fil46" d="M3768 2426c60,-29 62,41 35,-78l-35 78z"/>
   <path class="fil47" d="M3909 2105c60,-24 63,45 34,-75l-34 75z"/>
   <path class="fil48" d="M78 1622l48 -80c-62,28 -48,-54 -48,80z"/>
   <path class="fil49" d="M3876 343c57,-26 61,42 30,-77l-30 77z"/>
   <path class="fil48" d="M375 985l32 -78c-58,27 -60,-42 -32,78z"/>
   <path class="fil35" d="M4015 1862c59,-29 63,40 34,-75l-34 75z"/>
   <path class="fil50" d="M231 3166l37 -82c-60,39 -60,-32 -37,82z"/>
   <path class="fil50" d="M3874 2177c60,-26 64,51 35,-72l-35 72z"/>
   <path class="fil48" d="M219 1302l48 -77c-62,27 -48,-54 -48,77z"/>
   <path class="fil42" d="M3735 660c57,-26 59,43 33,-76l-33 76z"/>
   <path class="fil50" d="M374 2848l34 -71c-58,26 -64,-50 -34,71z"/>
   <path class="fil14" d="M3979 1930c60,-26 62,38 36,-68l-36 68z"/>
   <path class="fil51" d="M4204 1542l1 -70 -106 0c191,0 52,-18 105,70z"/>
  </g>
 </g>
</svg>
