<?xml version="1.0" encoding="UTF-8"?>
<!DOCTYPE svg PUBLIC "-//W3C//DTD SVG 1.1//EN" "http://www.w3.org/Graphics/SVG/1.1/DTD/svg11.dtd">
<!-- Creator: CorelDRAW X8 -->
<svg xmlns="http://www.w3.org/2000/svg" xml:space="preserve" width="97.758mm" height="50.843mm" version="1.1" style="shape-rendering:geometricPrecision; text-rendering:geometricPrecision; image-rendering:optimizeQuality; fill-rule:evenodd; clip-rule:evenodd"
viewBox="0 0 9776 5084"
 xmlns:xlink="http://www.w3.org/1999/xlink">
 <defs>
  <style type="text/css">
   <![CDATA[
    .fil5 {fill:#EC1D25}
    .fil0 {fill:#ED1C24}
    .fil9 {fill:#ED2129}
    .fil7 {fill:#EE242C}
    .fil12 {fill:#EE272E}
    .fil11 {fill:#EE2931}
    .fil10 {fill:#F0444B}
    .fil17 {fill:#F46F74}
    .fil14 {fill:#F4757B}
    .fil8 {fill:#F58589}
    .fil18 {fill:#F5868A}
    .fil20 {fill:#F68C90}
    .fil19 {fill:#F69094}
    .fil15 {fill:#F79A9F}
    .fil6 {fill:#F9B2B5}
    .fil13 {fill:#F9B6B9}
    .fil16 {fill:#FABCBF}
    .fil4 {fill:snow}
    .fil3 {fill:#FFFBFB}
    .fil2 {fill:#FFFCFC}
    .fil1 {fill:#FFFEFE}
   ]]>
  </style>
 </defs>
 <g id="Layer_x0020_1">
  <metadata id="CorelCorpID_0Corel-Layer"/>
  <g id="_218109194032">
   <path class="fil0" d="M6810 4456c25,-76 56,-128 92,-199 49,-100 43,-143 154,-111l50 310c-176,-19 -19,-7 -126,-72 -150,30 12,56 -170,72zm-6809 -4465l9776 0 0 5084 -9776 0 0 -5084zm5453 4464c107,-261 116,-325 246,-317l51 318c-193,-21 2,-13 -134,-72 -147,33 23,63 -163,71zm-747 -2c26,-69 60,-128 93,-195 54,-111 36,-139 160,-120l46 315c-179,-17 -13,-4 -128,-74 -150,38 14,62 -171,74zm-2466 0c26,-65 60,-125 91,-189 61,-123 26,-139 160,-130l47 319c-192,-20 3,-8 -134,-74 -122,28 -21,7 -72,45 -49,36 8,24 -92,29zm-1119 -14c-154,-158 41,-384 209,-300 119,59 76,378 -209,300zm7241 85c23,-111 54,-24 86,-202 25,-138 -11,-182 112,-193 -21,173 -11,386 -198,395zm-2474 -186c-19,113 11,83 -66,120 -48,-69 -5,-183 27,-326 92,3 125,-7 201,45 30,143 -36,152 -162,161zm1698 2c-18,110 9,92 -75,115 -14,-27 -41,48 -1,-142 13,-59 23,-117 34,-176 223,-30 209,52 214,142 -62,51 -93,48 -172,61zm-907 179l-60 21c-21,-75 -14,-28 4,-72 171,-47 6,-316 195,-336 -7,119 -12,350 -139,387zm1491 -243c133,-44 88,-136 225,-149 -28,187 -24,290 -101,327 -37,-46 -21,24 -27,-49 -1,-9 11,-79 13,-94 -135,61 -96,131 -222,144 29,-205 21,-294 102,-327 25,31 42,2 10,148zm-6114 246c21,-115 51,-13 83,-194 45,-258 18,-175 82,-202 25,32 43,-39 19,112 -40,250 -46,277 -184,284zm-341 -20l-25 40 -53 -21 2 -67 -237 -1c49,-339 31,-315 136,-327l-43 260 101 -6c19,-56 23,-97 33,-153 21,-127 -4,-88 98,-101 -7,49 -33,153 -34,193 -4,97 24,39 22,183zm4849 -369l97 -11c-8,84 11,61 -38,113 8,98 17,199 -83,221 -25,-62 -11,-47 3,-146 -231,111 -38,124 -224,148 40,-295 29,-316 131,-326l-17 149 131 -148zm-4693 142c274,-181 36,-127 224,-149 -49,343 -33,317 -137,327l24 -152c-74,55 -137,145 -224,151 28,-229 23,-305 114,-326 24,53 21,9 -1,149zm6014 -34l130 47 14 126c-118,50 -143,41 -264,40l57 -316 213 -11c-36,131 -15,24 -123,77 -64,32 -6,8 -27,37zm-560 -23c-42,80 -37,68 -13,155 127,45 84,-23 133,55 -313,192 -289,-446 31,-277 -62,73 -38,11 -151,67zm-1221 -67c62,-32 151,-19 231,-19 -18,123 10,26 -86,90l-47 232c-106,-13 -82,40 -35,-229l-63 -74zm-929 307c-28,-41 -50,61 -7,-157 12,-61 19,-108 34,-169l258 0c-10,264 -31,312 -130,326l43 -259c-192,5 -80,11 -139,195 -36,108 -12,40 -59,64zm-2147 -183c267,-177 37,-127 224,-149 -37,252 -24,297 -110,327 -28,-48 -20,50 -18,-68 1,-35 10,-34 9,-84 -146,125 -138,146 -219,150 35,-241 23,-302 114,-325 27,55 22,-13 0,149zm5654 -28l93 3c36,121 5,41 -12,67 -89,-3 -45,-11 -97,19 13,85 -1,58 121,58 -30,73 66,61 -221,61l56 -326c93,-3 146,-18 201,24 -44,59 -47,36 -133,38l-8 56zm-5052 -47l-73 -15c13,-94 -3,-20 39,-56l209 1c-14,54 6,29 -57,69 -111,71 18,194 -121,254 -26,-32 -45,44 -20,-112 8,-53 18,-82 23,-141zm-264 166c111,59 63,-20 135,53 -74,87 -252,36 -235,-125 14,-128 159,-220 263,-143 -77,74 -236,26 -163,215zm-2473 0l142 36c-63,118 -254,43 -237,-106 14,-133 155,-220 263,-145 -82,76 -215,22 -168,215zm3664 -160c6,35 -3,28 33,15 42,-73 56,-92 144,-90l-120 158 86 163c-155,-8 -69,-27 -170,-114 -40,117 17,77 -72,115 -39,-50 -55,100 -2,-189 24,-130 -5,-126 105,-138l-4 80zm-438 -83l44 56c14,-70 -23,-32 44,-53 63,74 3,59 42,148 158,15 -27,-129 168,-148 -15,102 -25,247 -73,324l-44 1c-27,-49 -14,-37 -2,-118 -74,6 -85,22 -144,-24l-45 -124c-4,308 -61,261 -118,268l22 -151c-108,71 -124,142 -223,151l60 -325 77 -1 -24 146c80,-38 125,-60 142,-146l74 -4zm-1322 330c-52,-98 40,-153 -1,-258 -103,21 -51,30 -88,144 -27,84 -49,104 -133,105 -1,-114 17,-22 60,-131 23,-59 18,-116 49,-180l225 -7c-7,63 -20,118 -30,177 -19,112 8,126 -82,150zm5754 -2497c-243,-162 -393,-233 -703,-148 -217,59 -403,237 -471,454 -82,265 -23,526 257,610 278,83 499,-42 732,-159l463 595c-594,292 -1056,484 -1731,262 -1520,-500 -684,-2737 1329,-2530 496,51 537,163 824,286 -43,88 -602,577 -700,630zm-5524 0c-940,-674 -1625,703 -914,916 269,80 503,-37 730,-159 63,49 424,521 458,601 -561,275 -1084,487 -1726,257 -606,-216 -906,-696 -728,-1348 303,-1110 1982,-1559 2874,-891 -38,79 -604,581 -694,624zm1873 -214l-883 2 442 416c-61,173 -536,495 -668,693l643 -271 -204 1044 -896 0 523 -2590 2638 1c-4,147 -84,481 -120,638 -46,202 -342,1836 -413,1950l-878 2 290 -1440c88,-80 362,-167 484,-221 79,-35 160,-72 240,-106 39,-16 77,-30 116,-46l124 -67 -864 -4 136 -684 -710 683z"/>
   <path class="fil1" d="M5611 1059l-136 684 864 4 -124 67c-39,16 -77,30 -116,46 -80,34 -161,71 -240,106 -122,54 -396,141 -484,221l-290 1440 878 -2c71,-114 367,-1748 413,-1950 36,-157 116,-491 120,-638l-2638 -1 -523 2590 896 0 204 -1044 -643 271c132,-198 607,-520 668,-693l-442 -416 883 -2 710 -683z"/>
   <path class="fil1" d="M3028 1956c90,-43 656,-545 694,-624 -892,-668 -2571,-219 -2874,891 -178,652 122,1132 728,1348 642,230 1165,18 1726,-257 -34,-80 -395,-552 -458,-601 -227,122 -461,239 -730,159 -711,-213 -26,-1590 914,-916z"/>
   <path class="fil1" d="M8552 1956c98,-53 657,-542 700,-630 -287,-123 -328,-235 -824,-286 -2013,-207 -2849,2030 -1329,2530 675,222 1137,30 1731,-262l-463 -595c-233,117 -454,242 -732,159 -280,-84 -339,-345 -257,-610 68,-217 254,-395 471,-454 310,-85 460,-14 703,148z"/>
   <path class="fil2" d="M1872 4275c22,-140 25,-96 1,-149 -91,21 -86,97 -114,326 87,-6 150,-96 224,-151l-24 152c104,-10 88,16 137,-327 -188,22 50,-32 -224,149z"/>
   <path class="fil2" d="M1638 4521l78 -19c2,-144 -26,-86 -22,-183 1,-40 27,-144 34,-193 -102,13 -77,-26 -98,101 -10,56 -14,97 -33,153l-101 6 43 -260c-105,12 -87,-12 -136,327l237 1 -2 67z"/>
   <path class="fil2" d="M6624 4235l25 -94 -84 -8 -131 148 17 -149c-102,10 -91,31 -131,326 186,-24 -7,-37 224,-148 -14,99 -28,84 -3,146 100,-22 91,-123 83,-221z"/>
   <path class="fil2" d="M3029 4275c22,-162 27,-94 0,-149 -91,23 -79,84 -114,325 81,-4 73,-25 219,-150 1,50 -8,49 -9,84 -2,118 -10,20 18,68 86,-30 73,-75 110,-327 -187,22 43,-28 -224,149z"/>
   <path class="fil2" d="M4110 4185l10 -62 -74 4c-17,86 -62,108 -142,146l24 -146 -77 1 -60 325c99,-9 115,-80 223,-151l-22 151c57,-7 114,40 118,-268z"/>
   <path class="fil2" d="M8171 4276c32,-146 15,-117 -10,-148 -81,33 -73,122 -102,327 126,-13 87,-83 222,-144 -2,15 -14,85 -13,94 6,73 -10,3 27,49 77,-37 73,-140 101,-327 -137,13 -92,105 -225,149z"/>
   <path class="fil2" d="M1160 4243c45,-56 47,-63 114,-52 121,191 -155,327 -114,52zm-38 196c285,78 328,-241 209,-300 -168,-84 -363,142 -209,300z"/>
   <path class="fil2" d="M5176 4458c47,-24 23,44 59,-64 59,-184 -53,-190 139,-195l-43 259c99,-14 120,-62 130,-326l-258 0c-15,61 -22,108 -34,169 -43,218 -21,116 7,157z"/>
   <path class="fil2" d="M7885 4315l62 20c-18,73 -3,58 -92,67l30 -87zm1 -74c21,-29 -37,-5 27,-37 108,-53 87,54 123,-77l-213 11 -57 316c121,1 146,10 264,-40l-14 -126 -130 -47z"/>
   <path class="fil2" d="M2798 4453c90,-24 63,-38 82,-150 10,-59 23,-114 30,-177l-225 7c-31,64 -26,121 -49,180 -43,109 -61,17 -60,131 84,-1 106,-21 133,-105 37,-114 -15,-123 88,-144 41,105 -51,160 1,258z"/>
   <path class="fil2" d="M4591 4221c-42,59 45,27 -36,45 -12,-22 -48,5 3,-60l4 -80c-110,12 -81,8 -105,138 -53,289 -37,139 2,189 89,-38 32,2 72,-115 101,87 15,106 170,114l-86 -163 120 -158c-88,-2 -102,17 -144,90z"/>
   <path class="fil2" d="M4901 4215c10,95 29,58 -23,110 -35,-50 -20,-57 23,-110zm-194 238c185,-12 21,-36 171,-74 115,70 -51,57 128,74l-46 -315c-124,-19 -106,9 -160,120 -33,67 -67,126 -93,195z"/>
   <path class="fil2" d="M5605 4281c6,-25 31,-47 35,-52 36,93 26,78 -23,104 -20,-35 -35,48 -12,-52zm-151 174c186,-8 16,-38 163,-71 136,59 -59,51 134,72l-51 -318c-130,-8 -139,56 -246,317z"/>
   <path class="fil2" d="M6980 4330c-36,-51 -28,-46 21,-113 11,99 24,61 -21,113zm-170 126c182,-16 20,-42 170,-72 107,65 -50,53 126,72l-50 -310c-111,-32 -105,11 -154,111 -36,71 -67,123 -92,199z"/>
   <path class="fil2" d="M8764 4317l7 -45 -88 -25 8 -56c86,-2 89,21 133,-38 -55,-42 -108,-27 -201,-24l-56 326c287,0 191,12 221,-61 -122,0 -108,27 -121,-58 52,-30 8,-22 97,-19z"/>
   <path class="fil2" d="M2395 4235l44 -26c39,103 42,62 -7,136 -88,-1 -36,9 -58,-30l21 -80zm-154 218c100,-5 43,7 92,-29 51,-38 -50,-17 72,-45 137,66 -58,54 134,74l-47 -319c-134,-9 -99,7 -160,130 -31,64 -65,124 -91,189z"/>
   <path class="fil3" d="M5914 4232c14,-49 0,-21 26,-45 49,39 57,16 21,72 -29,26 37,25 -68,30l21 -57zm-25 106c126,-9 192,-18 162,-161 -76,-52 -109,-42 -201,-45 -32,143 -75,257 -27,326 77,-37 47,-7 66,-120z"/>
   <path class="fil3" d="M7603 4218l28 -48 42 34c-2,71 37,34 -45,78 -25,-27 -18,46 -25,-64zm-16 122c79,-13 110,-10 172,-61 -5,-90 9,-172 -214,-142 -11,59 -21,117 -34,176 -40,190 -13,115 1,142 84,-23 57,-5 75,-115z"/>
   <path class="fil2" d="M4164 4179l-9 130c59,46 70,30 144,24 -12,81 -25,69 2,118l44 -1c48,-77 58,-222 73,-324 -195,19 -10,163 -168,148 -39,-89 21,-74 -42,-148 -67,21 -30,-17 -44,53z"/>
   <path class="fil3" d="M894 4366c-47,-193 86,-139 168,-215 -108,-75 -249,12 -263,145 -17,149 174,224 237,106l-142 -36z"/>
   <path class="fil4" d="M3367 4366c-73,-189 86,-141 163,-215 -104,-77 -249,15 -263,143 -17,161 161,212 235,125 -72,-73 -24,6 -135,-53z"/>
   <path class="fil4" d="M7326 4218c113,-56 89,6 151,-67 -320,-169 -344,469 -31,277 -49,-78 -6,-10 -133,-55 -24,-87 -29,-75 13,-155z"/>
   <path class="fil2" d="M6336 4132c-80,0 -169,-13 -231,19l63 74c-47,269 -71,216 35,229l47 -232c96,-64 68,33 86,-90z"/>
   <path class="fil2" d="M3631 4200c-5,59 -15,88 -23,141 -25,156 -6,80 20,112 139,-60 10,-183 121,-254 63,-40 43,-15 57,-69l-209 -1 -14 51 48 20z"/>
   <path class="fil2" d="M2057 4522c138,-7 144,-34 184,-284 24,-151 6,-80 -19,-112 -64,27 -37,-56 -82,202 -32,181 -62,79 -83,194z"/>
   <path class="fil2" d="M8363 4524c187,-9 177,-222 198,-395 -123,11 -87,55 -112,193 -32,178 -63,91 -86,202z"/>
   <path class="fil3" d="M6624 4468l1 53 55 -2c127,-37 132,-268 139,-387 -189,20 -24,289 -195,336z"/>
   <path class="fil5" d="M1160 4243c-41,275 235,139 114,-52 -67,-11 -69,-4 -114,52z"/>
   <path class="fil6" d="M2395 4235c47,32 30,-47 42,54 -32,35 1,15 -63,26 22,39 -30,29 58,30 49,-74 46,-33 7,-136l-44 26z"/>
   <path class="fil7" d="M7855 4402c89,-9 74,6 92,-67l-62 -20 -30 87z"/>
   <polygon class="fil8" points="4110,4185 4155,4309 4164,4179 4120,4123 "/>
   <path class="fil9" d="M7603 4218c7,110 0,37 25,64 82,-44 43,-7 45,-78 -58,-4 -36,-11 -70,14z"/>
   <path class="fil10" d="M5617 4333c49,-26 59,-11 23,-104 -4,5 -29,27 -35,52 -23,100 -8,17 12,52z"/>
   <path class="fil9" d="M5914 4232c24,53 -22,60 47,27 36,-56 28,-33 -21,-72 -26,24 -12,-4 -26,45z"/>
   <path class="fil11" d="M4901 4215c-43,53 -58,60 -23,110 52,-52 33,-15 23,-110z"/>
   <path class="fil12" d="M6980 4330c45,-52 32,-14 21,-113 -49,67 -57,62 -21,113z"/>
   <path class="fil5" d="M2374 4315c64,-11 31,9 63,-26 -12,-101 5,-22 -42,-54l-21 80z"/>
   <path class="fil13" d="M6624 4235c49,-52 30,-29 38,-113l-97 11 84 8 -25 94z"/>
   <path class="fil14" d="M8764 4317c17,-26 48,54 12,-67l-93 -3 88 25 -7 45z"/>
   <path class="fil15" d="M4591 4221c-36,13 -27,20 -33,-15 -51,65 -15,38 -3,60 81,-18 -6,14 36,-45z"/>
   <path class="fil16" d="M3631 4200l-48 -20 14 -51c-42,36 -26,-38 -39,56l73 15z"/>
   <path class="fil17" d="M5961 4259c-69,33 -23,26 -47,-27l-21 57c105,-5 39,-4 68,-30z"/>
   <polygon class="fil18" points="1638,4521 1691,4542 1716,4502 "/>
   <path class="fil19" d="M6680 4519l-55 2 -1 -53c-18,44 -25,-3 -4,72l60 -21z"/>
   <path class="fil20" d="M7603 4218c34,-25 12,-18 70,-14l-42 -34 -28 48z"/>
  </g>
 </g>
</svg>
