<?xml version="1.0" encoding="UTF-8"?>
<!DOCTYPE svg PUBLIC "-//W3C//DTD SVG 1.1//EN" "http://www.w3.org/Graphics/SVG/1.1/DTD/svg11.dtd">
<!-- Creator: CorelDRAW X8 -->
<svg xmlns="http://www.w3.org/2000/svg" xml:space="preserve" width="7.56mm" height="9.059mm" version="1.1" style="shape-rendering:geometricPrecision; text-rendering:geometricPrecision; image-rendering:optimizeQuality; fill-rule:evenodd; clip-rule:evenodd"
viewBox="0 0 756 906"
 xmlns:xlink="http://www.w3.org/1999/xlink">
 <defs>
  <style type="text/css">
   <![CDATA[
    .fil0 {fill:#FEFEFE}
    .fil8 {fill:#FAF8F6}
    .fil22 {fill:#F9F6F7}
    .fil27 {fill:#F1EFEF}
    .fil38 {fill:#ECEDF1}
    .fil37 {fill:#E4E5ED}
    .fil20 {fill:#DBE1E7}
    .fil36 {fill:#DADBE3}
    .fil15 {fill:#DADAE3}
    .fil10 {fill:#D8D6DB}
    .fil26 {fill:#D2D4E2}
    .fil24 {fill:#D3D4DC}
    .fil28 {fill:#CED2DD}
    .fil29 {fill:#CCCCDB}
    .fil35 {fill:#CBCAD3}
    .fil33 {fill:#C5CADB}
    .fil25 {fill:#C5C6D6}
    .fil14 {fill:#C2C1CB}
    .fil4 {fill:#ABACC2}
    .fil19 {fill:#A4A3B9}
    .fil32 {fill:#A3A3B7}
    .fil18 {fill:#9CA1B6}
    .fil34 {fill:#949BB2}
    .fil23 {fill:#8C93AC}
    .fil17 {fill:#8386A3}
    .fil30 {fill:#7D819E}
    .fil31 {fill:#7A7E9B}
    .fil7 {fill:#757995}
    .fil11 {fill:#6D7392}
    .fil13 {fill:#6A718E}
    .fil16 {fill:#5C6384}
    .fil21 {fill:#535E82}
    .fil2 {fill:#535A7D}
    .fil12 {fill:#4C597C}
    .fil3 {fill:#4C5479}
    .fil5 {fill:#455275}
    .fil6 {fill:#404F72}
    .fil9 {fill:#3C4C72}
    .fil1 {fill:#384A6E}
   ]]>
  </style>
 </defs>
 <g id="Layer_x0020_1">
  <metadata id="CorelCorpID_0Corel-Layer"/>
  <path class="fil0" d="M-2631 -77l-66 5 67 -231 84 0 69 230 -71 2 -12 -55 -53 0 -18 49zm-702 6l-50 -1 66 -232 85 1 67 229c-69,4 -66,15 -82,-52l-52 0c-22,33 0,35 -34,55zm1589 -105c37,-2 28,-8 58,15 2,33 -5,53 -29,76 -2,-1 -4,-6 -4,-4 0,1 -3,-4 -3,-5 -1,-1 -6,-10 -7,-12 -15,-15 -20,24 -9,-30 -26,12 -23,1 -39,-7l17 -27c16,-3 8,10 16,-6zm54 93c-10,-23 9,-70 14,-99 20,32 5,76 -14,99zm-1384 10l-59 2 -4 -231 64 -1 0 85 72 0 0 -84 64 -1 0 229 -64 2 0 -90 -72 -1 -1 90zm1468 -94c14,-9 -3,-7 27,-5 18,0 7,1 28,0l20 35 -23 14 -9 20c-38,-16 -30,-39 -43,-64zm-33 -84l19 4c1,19 4,36 2,52 -6,37 -10,-4 -11,47l23 -19c6,32 22,58 12,79l-26 -47c12,53 -4,50 -5,52 -27,-67 -22,-104 -14,-168zm-1870 101l-1 78 -64 1 1 -232c61,-2 150,-20 174,49 27,79 -48,103 -110,104zm1922 -85c6,29 12,25 -2,48 -19,-17 -23,-31 -29,-57l31 9zm0 0l4 -17 32 44 -36 -27zm-2194 -68l183 0 0 48 -60 7 0 177 -65 -1 0 -178 -58 -1 0 -52zm-24 175l6 51c-95,24 -188,-4 -183,-116 5,-94 108,-145 184,-102l-5 39c-48,12 -109,-17 -112,63 -3,74 54,75 110,65zm1033 -82c17,26 27,19 42,58 9,23 19,57 25,81l-67 -2c-14,-44 -13,-84 -58,-92l-6 93 -58 0 -4 -228 63 -3 0 87c29,-25 34,-57 61,-86l72 -2 -70 94zm-1322 -229c67,-49 41,-116 54,-192l156 1 1 89c0,122 -8,81 25,102l-2 100 -49 2 -4 -60 -127 3 -4 57 -49 -2 -1 -100zm1468 -192l79 0 68 233 -67 0 -16 -51 -51 -1c-1,2 -3,5 -4,6l-14 46 -66 -1 71 -232zm-697 0l79 2 66 232 -61 -2c-31,-44 9,-52 -77,-51l-17 52 -62 0 72 -233zm-1000 234c7,-43 52,-205 72,-233l77 1 68 230 -67 1 -13 -52 -61 1 -11 51 -65 1zm1463 -1l-61 1 0 -234 64 1 2 86 70 -1 0 -85 64 0 -1 232 -59 1c-19,-18 -17,-27 -8,-81l-66 0c3,23 11,69 -5,80zm-1654 -230c203,-53 251,151 64,154l-1 76 -62 1 -1 -231zm679 -3l61 4 -2 149 79 -152 63 -1 -1 234 -59 0 1 -140c-58,158 -71,139 -142,140l0 -234zm665 192c74,-61 30,-100 45,-191l163 0 0 232 -64 -1 0 -177 -39 0c0,88 14,167 -94,184l-11 -47zm-425 -185c19,-19 35,-14 64,-6 5,21 -2,69 11,79l48 -79 70 -2c-8,37 -47,66 -67,100 51,51 42,64 67,134l-67 1c-17,-50 -12,-84 -62,-93l0 91 -63 1 -1 -226zm966 -330l82 0 66 232 -62 -1 -21 -52 -53 2 -17 51 -63 -3 68 -229zm433 91l-1 709 -225 -1 -4 -48 176 -2 5 -608 -208 -2 3 -54c37,-5 240,-11 254,6zm-1344 -89c56,-6 153,-20 170,50 20,83 -44,102 -109,103l-2 77 -62 0 3 -230zm335 220l-3 -170 -60 0 -7 182 -66 -2 1 -235 201 4 -3 230c-25,5 -52,13 -63,-9zm277 4c-235,68 -260,-272 2,-223l-11 52c-55,-11 -109,-9 -108,62 1,73 61,58 110,66l7 43zm-647 3c-302,45 -184,-309 -4,-223 11,20 4,15 -3,48 -76,-7 -48,-15 -106,26 -9,106 16,98 106,100l7 49zm679 -228l61 0 3 88 58 -89 74 1 -74 102c42,16 63,86 67,130l-62 -3c-26,-49 -10,-83 -65,-90l-3 92 -60 -2 1 -229zm-1766 85l834 0 4 49 -784 3 -5 611 561 0 -2 51 -608 -1 0 97 2999 0c-9,-35 -10,-62 4,-95 26,26 20,60 10,95l374 0 0 -342c-39,26 -33,5 -59,43l-20 -12c-21,-4 -46,11 -80,14 47,71 111,63 140,110 -15,26 -18,25 -49,34 3,-29 11,-24 -4,-44 -7,34 8,32 -50,39l-3 -26 -40 -6 -11 28c-31,-14 -15,-12 -19,-34l-107 -23c-9,8 20,11 -10,4 -16,-3 -2,4 -18,-11l2 29 -35 -35 -1 39c-1,1 -4,0 -5,3 -6,23 5,-10 -12,6l-13 -16c1,29 12,54 -6,82 -19,-15 -11,5 -17,-18 -4,-11 0,-24 1,-36 -14,26 -9,29 -36,45l-2 -46 -11 -22c35,15 4,7 32,15 31,-16 7,-2 15,-18l-13 2 6 -31 -24 15 -5 -10 -108 22c5,40 11,14 -8,36 -24,-17 -11,-4 -14,-29l-44 7 -5 24 -34 1c-27,-31 -4,-7 -16,-39l-2 46 -22 -8 -30 -5c-10,-50 -2,-20 6,-35 51,-26 103,-46 135,-94 -40,-9 -76,-31 -106,-7l-4 -21c-34,-4 -32,-1 -50,-35l35 -22c3,-121 -46,-144 -10,-213l27 7 -2 -30 -22 19c-16,-33 -2,-106 13,-143 18,-44 26,-179 101,-144 8,33 0,33 -14,63 28,72 31,138 113,173l38 -24 -11 -13c19,-29 25,-81 17,-116l-37 -7 18 -21 -50 6c9,-25 -5,-10 30,-21 -31,-19 -31,-14 -66,-8 2,-22 1,-48 38,-32 27,11 0,25 40,11l-36 -10 3 -22 -2856 0 0 96z"/>
  <path class="fil1" d="M509 276l3 126c-27,14 -83,10 -118,4 -7,-37 -9,-103 2,-138 32,-3 91,-11 113,8zm-269 0c16,-21 86,-10 114,-8 11,35 9,101 2,138 -22,3 -35,3 -57,3l-56 -5c-2,0 -4,-2 -6,-3l3 -125zm452 -133c-25,-15 -12,2 -17,-28l17 28zm-614 -26c-10,31 9,9 -22,24l22 -24zm-28 174c-10,-13 -7,-5 10,-4l7 -43c-4,-19 -11,-23 11,-43l-9 -31c29,9 6,-4 29,24l-8 15 2 82 15 -22 7 29c35,-36 6,-13 29,-6 15,4 47,5 77,22 -7,8 22,23 -59,1l0 42c38,11 30,-16 59,8l-48 19 -26 35 6 28 -2 9c12,-15 12,-11 28,-12 24,-2 24,-4 47,-12l-9 71 8 30 13 26 13 -1 -11 -107c15,-17 91,-9 115,-6 12,48 10,135 -5,181l49 -9c-12,-38 -11,-132 -3,-172 33,-4 93,-11 115,6 1,42 8,89 -25,117 -6,21 4,19 -27,24 16,16 57,-6 82,-8l0 -7 -3 -19 18 2 15 4 -1 -19 23 1 -24 -40c-27,0 -21,-7 -21,18 19,9 12,7 -4,-1 -2,36 0,28 -35,46l26 -67c-10,-37 -13,-27 -10,-73l20 14 5 -69 -21 -5c15,-16 -15,-11 17,-13 17,-1 10,1 26,8l3 -7c-1,-37 1,-14 -5,-31 -37,-2 -32,11 -39,-19 91,-5 76,-37 105,-9 0,-20 -6,-17 9,-17l9 -3c22,3 2,2 1,3l-7 -69 20 -45c10,9 5,-2 10,13 0,0 0,13 -1,22l12 3c0,18 -2,38 2,55 5,23 7,6 9,36l13 -9c14,35 -1,13 22,21 -9,-43 -5,-86 -23,-135 -23,-61 -26,-178 -104,-151 -11,77 35,-2 -7,136 -23,74 -43,48 -78,98 -22,-2 -33,-7 -49,-13 -9,-9 -22,22 -8,-13 -6,46 4,24 -39,34 7,-17 8,0 -10,-15 -36,17 1,-8 -32,8l-20 1c-24,-13 -3,3 -43,-3 -1,0 -4,-1 -5,-1l-23 -19 -14 0 -38 24c-82,-35 -85,-101 -113,-173 14,-30 22,-30 14,-63 -75,-35 -83,100 -101,144 -15,37 -29,110 -13,142l22 -18z"/>
  <path class="fil2" d="M194 579c7,-27 -6,-9 17,-21 -10,42 -12,7 -17,21zm-117 -146c0,-1 -7,-1 -6,-17 2,-17 4,-11 7,-15 11,22 9,6 -1,32zm-36 -43l22 55c-20,-22 -31,-30 -22,-55zm44 -18l9 -1c6,-2 8,3 17,-17l9 36c0,1 -14,10 -16,11l-19 -29zm-18 -128c15,19 12,-7 13,40l-20 3c-17,-1 -20,-9 -10,4l2 29 -27 -7c-36,70 13,93 10,213l-35 23c18,34 16,30 50,35l-2 -8c-43,-11 -19,1 -30,-24 14,-8 -18,-18 60,1l178 46c29,3 23,10 23,-18l-29 -23 -13 1 -26 -27c-30,-24 -5,-5 -20,-1l14 -6c1,-60 8,4 -21,-21l-29 38c30,15 16,-10 24,22l-80 -14 -2 -33c23,45 14,11 18,10l17 -35c9,-11 -6,-17 20,-45l-6 -28 26 -35c-27,4 -20,10 -20,-17l9 -10 0 -42c-76,-3 -34,-31 -77,-8l8 -16 -2 -82c1,-12 3,-8 -12,-8 -22,20 -15,24 -11,43z"/>
  <path class="fil3" d="M701 427l12 -60c12,20 3,27 -3,57l-9 3zm-60 -12c0,-4 0,-9 -3,-14l-21 -23 25 -25 14 18c0,0 3,1 4,1 0,0 2,1 4,2l-23 41zm6 -203l7 69c1,-1 21,0 -1,-3l-9 3c-8,60 -31,9 -75,45 6,17 4,-6 5,31 38,19 15,1 25,32l-50 -15 -5 69c39,-1 45,14 68,4l2 38c25,-6 14,13 18,-15l14 40c28,-75 14,-64 13,-116l28 -21c3,-2 6,-5 10,-7 -18,83 -12,62 4,61l-26 25c-2,0 -8,-8 -10,-9 -11,37 -13,69 -7,110l61 -8 -3 -12c-7,-76 33,-141 16,-211 -20,-7 -14,-5 -36,0l3 -26c-2,-30 -4,-13 -9,-36 -4,-17 -2,-37 -2,-55l-12 -3c-12,15 5,2 -29,10z"/>
  <path class="fil4" d="M279 581c0,28 6,21 -23,18 22,15 21,14 49,21 31,8 23,14 26,-1l-46 14 22 12c-34,5 -39,5 -71,14 -48,14 -35,-1 -56,45l121 -26 99 -21c13,-10 20,-9 36,-14l138 -29c28,-15 8,-1 29,-28l-63 -2c-25,2 -66,24 -82,8l-58 15 -3 -156 113 0c-22,-17 -82,-10 -115,-6 -8,40 -9,134 3,172l-49 9c15,-46 17,-133 5,-181 -24,-3 -100,-11 -115,6l113 0 0 153 -73 -23z"/>
  <path class="fil5" d="M348 154l-24 -31c37,14 16,2 24,31zm-69 81l14 0c13,3 35,0 52,-5l23 11c-11,-74 6,-159 -52,-215 -7,-8 1,-1 -13,-13 -1,0 -14,-9 -18,-12l-60 0 -2 23 35 9c-39,15 -13,1 -40,-10 -37,-16 -36,10 -38,32 35,-6 35,-12 66,7 -35,11 -21,-4 -30,22l50 -6 -17 21 36 6c8,36 2,88 -17,116l11 14z"/>
  <path class="fil6" d="M393 197l15 -12c-5,20 3,17 -15,12zm47 -20l-21 -12c35,12 6,0 16,-2 4,-1 6,-6 22,0l-17 14zm-18 -49l-20 24c8,-30 -7,-12 20,-24zm-15 -66l28 -2c-14,26 -9,9 -23,32l-2 -16c-25,12 -20,79 -28,113l11 8 -13 47c3,-2 6,-6 7,-4 1,3 8,-4 12,-5 9,-4 6,-3 17,-4l7 -17c0,1 0,3 0,4 1,2 2,4 3,4l14 -45 22 -3 -5 30 9 2 -7 -95 40 -12 -16 -21 51 6c-11,-28 3,-10 -30,-22 31,-18 30,-13 66,-7 -2,-19 1,-42 -32,-35 -35,8 -1,28 -46,18 20,-14 9,-10 38,-15l-5 -22 -60 0c-20,15 -16,9 -32,25 -19,19 -15,13 -26,36z"/>
  <path class="fil7" d="M646 510l4 38 -80 16 -15 -4c4,33 6,11 -15,17l0 7 63 2c-21,27 -1,13 -29,28l-138 29c-16,5 -23,4 -36,14 -10,11 -9,4 5,8 15,-11 24,-25 81,-12 28,6 50,15 79,21l-4 22 -107 -23 0 16 107 23c4,21 -12,19 19,34l11 -28 5 -31 55 -8 -47 1c2,-3 5,-7 5,-6l5 -20c0,-2 -1,-6 -2,-9l-25 -16 -3 35 -91 -27 77 -18 27 -8c34,-3 59,-19 80,-14l20 11c26,-37 20,-17 59,-43l0 -29 -40 -3 3 12 18 15c-24,27 -104,34 -142,42 22,-27 -23,-21 33,-24l-28 -6c27,-2 43,-4 58,-19 -6,-41 -4,-73 7,-110 2,1 8,9 10,9l26 -25c-16,1 -22,22 -4,-61 -4,2 -7,5 -10,7l-28 21c1,52 15,41 -13,116z"/>
  <path class="fil8" d="M485 568l-67 -19 3 -62c29,-14 28,-20 60,-16 -5,18 9,0 -14,21 1,36 -3,35 7,52 1,1 3,4 4,5 2,4 3,2 7,19zm-27 24c31,-5 21,-3 27,-24 33,-28 26,-75 25,-117l-113 0 3 156 58 -15z"/>
  <path class="fil8" d="M476 295c9,13 18,-17 4,14l-13 17c4,57 0,22 21,60 -77,-2 -72,-12 -63,-78l51 -13zm36 107l-3 -126 -114 -2 3 128 114 0z"/>
  <path class="fil8" d="M270 294c38,1 28,-2 59,17l6 64c-28,9 -42,17 -67,6 7,-16 39,-29 2,-87zm-33 107l118 0 -3 -125 -112 0 -3 125z"/>
  <path class="fil8" d="M285 492l-18 -23c34,-5 34,-1 63,17 0,33 7,40 -6,69l-63 8c9,-17 5,-13 19,-20l5 -51zm-35 66l29 23 73 23 0 -153 -113 0 11 107z"/>
  <path class="fil9" d="M25 706l0 23 24 17 22 8 2 -46c13,32 -11,8 17,39l33 -1 5 -25 -29 5c7,-52 5,-45 56,-44 -31,-37 -6,-2 -16,-35l33 -16 18 -11 -2 -13 -140 -31 2 8 4 20c30,-23 66,-1 106,8 -32,48 -84,67 -135,94z"/>
  <path class="fil8" d="M152 447c-26,28 -11,34 -20,45l-17 35c-4,1 5,35 -18,-10l2 33 80 14c-8,-32 6,-7 -24,-22l29 -38 32 -1 9 -71c-23,8 -23,10 -47,12 -16,1 -16,-3 -28,12l2 -9z"/>
  <path class="fil10" d="M48 576l140 31 97 26 46 -14c-3,15 5,9 -26,1 -28,-7 -27,-6 -49,-21l-178 -46c-78,-19 -46,-9 -60,-1 11,25 -13,13 30,24z"/>
  <path class="fil1" d="M587 629l25 16c1,3 2,7 2,9l-5 20c0,-1 -3,3 -5,6l47 -1 6 35 -25 10 2 26c58,-7 43,-6 50,-39 15,20 7,15 4,44 31,-9 34,-8 50,-34 -30,-47 -94,-40 -141,-110l-27 8 17 10z"/>
  <path class="fil11" d="M172 631l-33 16c10,33 -15,-2 16,35l17 33c3,24 -9,12 14,28 19,-22 13,4 8,-35l109 -23 -2 -7 -121 26c21,-46 8,-31 56,-45 32,-9 37,-9 71,-14l-22 -12 -97 -26 2 13 75 22 -89 15 -4 -26z"/>
  <path class="fil12" d="M425 799l-22 18c0,-50 4,-9 10,-46 2,-16 -1,-34 -2,-52l-19 -5c-8,64 -13,101 14,169 1,-2 17,1 5,-52l26 47c10,-22 -6,-48 -12,-79z"/>
  <path class="fil13" d="M338 710c-8,16 16,2 -15,18 -28,-8 3,-1 -32,-16l11 23 2 46c27,-16 22,-20 36,-45 -1,12 -4,24 -1,36 7,22 -2,3 17,18 19,-28 7,-53 6,-83l4 -37c-24,17 -24,-12 -28,40z"/>
  <path class="fil12" d="M270 294c37,58 5,71 -2,87 25,11 39,3 67,-6l-6 -64c-31,-19 -21,-16 -59,-17z"/>
  <path class="fil1" d="M301 678l2 7 5 11 23 -15 -6 30 13 -1c4,-52 4,-23 28,-40l-4 37 13 17c17,-16 6,17 12,-7 1,-2 4,-1 5,-3l1 -38 35 34 -2 -28c16,14 2,7 18,11 30,7 1,3 10,-4l0 -16 -49 -8c-14,-4 -15,3 -5,-8l-99 21z"/>
  <path class="fil1" d="M446 496c16,22 19,22 -1,42l1 -42zm39 72c-4,-17 -5,-15 -7,-19 -1,-1 -3,-4 -4,-5 -10,-17 -6,-16 -7,-52 23,-21 9,-3 14,-21 -32,-4 -31,2 -60,16l-3 62 67 19z"/>
  <path class="fil1" d="M305 493c1,11 3,14 2,25 -3,37 3,1 -8,18 -11,-26 -11,-23 6,-43zm-20 -1l-5 51c-14,7 -10,3 -19,20l63 -8c13,-29 6,-36 6,-69 -29,-18 -29,-22 -63,-17l18 23z"/>
  <path class="fil14" d="M658 553c-15,15 -31,17 -58,19l28 6c-56,3 -11,-3 -33,24 38,-8 118,-15 142,-42l-18 -15 -61 8z"/>
  <path class="fil15" d="M405 665l49 8 107 23 4 -22c-29,-6 -51,-15 -79,-21 -57,-13 -66,1 -81,12z"/>
  <path class="fil11" d="M416 231l0 18c18,15 17,-2 10,15 43,-10 33,12 39,-34 -14,35 -1,4 8,13 2,-3 5,-18 9,-21l-16 -16 -9 -2 5 -30 -22 3 -14 45c-1,0 -2,-2 -3,-4 0,-1 0,-3 0,-4l-7 17z"/>
  <path class="fil1" d="M443 341c2,-40 -2,-3 7,-17 12,27 15,15 -2,36 -1,-1 -6,-1 -5,-19zm24 -15l-5 -11 14 -20 -51 13c-9,66 -14,76 63,78 -21,-38 -17,-3 -21,-60z"/>
  <path class="fil16" d="M425 799c14,25 5,48 43,63l9 -19 23 -15 -20 -35c-21,2 -10,1 -28,0 -29,-1 -13,-4 -27,6z"/>
  <path class="fil17" d="M302 860c1,1 6,10 7,12 1,0 3,6 3,4 1,-1 2,3 4,5 24,-24 32,-44 29,-76 -30,-23 -21,-17 -57,-15 14,16 31,-27 2,33 34,-31 18,4 12,37z"/>
  <path class="fil18" d="M512 402l-114 0 -3 -128 114 2c-22,-19 -81,-11 -113,-8 -11,35 -9,101 -2,138 35,6 91,10 118,-4z"/>
  <path class="fil19" d="M237 401c2,1 4,3 6,3l56 5c22,0 35,0 57,-3 7,-37 9,-103 -2,-138 -28,-2 -98,-13 -114,8l112 0 3 125 -118 0z"/>
  <path class="fil20" d="M92 291l-8 16c43,-23 1,5 77,8 81,22 52,7 59,-1 -30,-17 -62,-18 -77,-22 -23,-7 6,-30 -29,6l-7 -29 -15 22z"/>
  <path class="fil19" d="M128 721l44 -6 -17 -33c-51,-1 -49,-8 -56,44l29 -5z"/>
  <path class="fil20" d="M569 326c44,-36 67,15 75,-45 -15,0 -9,-3 -9,17 -29,-28 -14,4 -105,9 7,30 2,17 39,19z"/>
  <polygon class="fil4" points="591,718 632,724 657,714 651,679 596,687 "/>
  <polygon class="fil8" points="587,629 570,619 493,637 584,664 "/>
  <path class="fil9" d="M368 907l14 0c10,-34 16,-68 -10,-95 -14,34 -13,60 -4,95z"/>
  <path class="fil21" d="M302 860c6,-33 22,-68 -12,-37 29,-60 12,-17 -2,-33 -9,16 -1,3 -17,6l-16 27c15,8 12,18 38,6 -11,54 -6,16 9,31z"/>
  <polygon class="fil22" points="172,631 176,657 265,642 190,620 "/>
  <path class="fil1" d="M341 882c19,-22 34,-66 15,-99 -6,30 -25,77 -15,99z"/>
  <path class="fil23" d="M568 506c-23,-13 0,-10 -34,-4l-26 67c35,-18 33,-10 35,-46 16,8 23,10 4,1 0,-25 -6,-18 21,-18z"/>
  <path class="fil24" d="M172 384l48 -19c-29,-24 -21,3 -59,-8l-9 10c0,27 -7,21 20,17z"/>
  <path class="fil25" d="M549 374l50 15c-10,-31 13,-13 -25,-32l-3 7c-16,-7 -9,-9 -26,-8 -32,2 -2,-3 -17,13l21 5z"/>
  <path class="fil26" d="M664 374c-2,-1 -4,-2 -4,-2 -1,0 -4,-1 -4,-1l-14 -18 -25 25 21 23c3,5 3,10 3,14l23 -41z"/>
  <path class="fil18" d="M364 258l4 -17 -23 -11c-17,5 -39,8 -52,5l23 19c1,0 4,1 5,1 40,6 19,-10 43,3z"/>
  <path class="fil9" d="M444 731l-31 -9c6,25 10,39 29,56 14,-22 8,-19 2,-47z"/>
  <path class="fil20" d="M120 390l-9 -36c-9,20 -11,15 -17,17l-9 1 19 29c2,-1 16,-10 16,-11z"/>
  <path class="fil25" d="M647 212c34,-8 17,5 29,-10 1,-9 1,-22 1,-22 -5,-15 0,-4 -10,-13l-20 45z"/>
  <path class="fil25" d="M699 296l-3 26c22,-5 16,-7 36,0l2 -14c-23,-8 -8,14 -22,-21l-13 9z"/>
  <path class="fil4" d="M380 244l4 13c33,-16 -4,9 32,-8l0 -18c-11,1 -8,0 -17,4 -4,1 -11,8 -12,5 -1,-2 -4,2 -7,4z"/>
  <path class="fil27" d="M60 287l20 -3c-1,-47 2,-21 -13,-40l-7 43z"/>
  <path class="fil28" d="M78 201c15,0 13,-4 12,8l8 -15c-23,-28 0,-15 -29,-24l9 31z"/>
  <path class="fil29" d="M701 427l9 -3c6,-30 15,-37 3,-57l-12 60z"/>
  <path class="fil30" d="M211 532l13 1 -8 -30 -32 1c29,25 22,-39 21,21l-14 6c15,-4 -10,-23 20,1z"/>
  <path class="fil10" d="M299 536c11,-17 5,19 8,-18 1,-11 -1,-14 -2,-25 -17,20 -17,17 -6,43z"/>
  <path class="fil31" d="M410 76l2 16c14,-23 9,-6 23,-32l-28 2 3 14z"/>
  <path class="fil32" d="M49 746l-24 -17 0 -23c-7,15 -16,-16 -6,35l30 5z"/>
  <path class="fil25" d="M41 390c-9,25 2,33 22,55l-22 -55z"/>
  <path class="fil25" d="M448 360c17,-21 14,-9 2,-36 -9,14 -5,-23 -7,17 -1,18 4,18 5,19z"/>
  <polygon class="fil5" points="444,731 480,758 449,714 "/>
  <path class="fil29" d="M445 538c20,-20 17,-20 1,-42l-1 42z"/>
  <path class="fil33" d="M540 577c21,-6 19,16 15,-17l-18 -2 3 19z"/>
  <path class="fil18" d="M467 326l13 -17c14,-31 5,-1 -4,-14l-14 20 5 11z"/>
  <path class="fil15" d="M78 401c-3,4 -5,-2 -7,15 -1,16 6,16 6,17 10,-26 12,-10 1,-32z"/>
  <path class="fil34" d="M440 177l17 -14c-16,-6 -18,-1 -22,0 -10,2 19,14 -16,2l21 12z"/>
  <path class="fil29" d="M348 154c-8,-29 13,-17 -24,-31l24 31z"/>
  <path class="fil25" d="M211 558c-23,12 -10,-6 -17,21 5,-14 7,21 17,-21z"/>
  <polygon class="fil35" points="237,559 224,533 211,532 "/>
  <path class="fil36" d="M692 143l-17 -28c5,30 -8,13 17,28z"/>
  <path class="fil37" d="M56 141c31,-15 12,7 22,-24l-22 24z"/>
  <path class="fil38" d="M402 152l20 -24c-27,12 -12,-6 -20,24z"/>
  <path class="fil37" d="M393 197c18,5 10,8 15,-12l-15 12z"/>
 </g>
</svg>
