<?xml version="1.0" encoding="UTF-8"?>
<!DOCTYPE svg PUBLIC "-//W3C//DTD SVG 1.1//EN" "http://www.w3.org/Graphics/SVG/1.1/DTD/svg11.dtd">
<!-- Creator: CorelDRAW X8 -->
<svg xmlns="http://www.w3.org/2000/svg" xml:space="preserve" width="28.934mm" height="13.761mm" version="1.1" style="shape-rendering:geometricPrecision; text-rendering:geometricPrecision; image-rendering:optimizeQuality; fill-rule:evenodd; clip-rule:evenodd"
viewBox="0 0 2893 1376"
 xmlns:xlink="http://www.w3.org/1999/xlink">
 <defs>
  <style type="text/css">
   <![CDATA[
    .fil0 {fill:#FEFEFE}
    .fil1 {fill:#005824}
    .fil2 {fill:#005825}
    .fil4 {fill:#007E1C}
    .fil3 {fill:#ED1C24}
   ]]>
  </style>
 </defs>
 <g id="Layer_x0020_1">
  <metadata id="CorelCorpID_0Corel-Layer"/>
  <path class="fil0" d="M-1563 158l-65 5 66 -231 84 0 69 230 -70 2 -13 -55 -52 0 -19 49zm-701 6l-50 -1 66 -232 85 1 67 229c-69,4 -67,15 -82,-52l-52 0c-23,33 0,36 -34,55zm1589 -105c36,-2 28,-8 58,15 2,33 -5,53 -30,76 -1,-1 -3,-6 -3,-4 -1,1 -3,-4 -3,-5 -1,-1 -6,-10 -7,-12 -15,-14 -21,24 -10,-30 -25,12 -22,1 -38,-7l17 -27c16,-3 8,10 16,-6zm54 93c-11,-23 9,-70 14,-99 20,32 4,76 -14,99zm-1384 10l-59 2 -4 -231 64 -1 0 85 72 0 0 -84 64 -1 0 229 -65 2 1 -90 -72 0 -1 89zm1468 -94c14,-9 -3,-7 27,-5 18,0 7,1 28,0l20 35 -23 14 -9 20c-38,-16 -30,-39 -43,-64zm-33 -84l18 4c1,19 5,36 2,53 -5,36 -9,-5 -10,46l23 -19c6,32 22,58 11,79l-25 -47c12,53 -4,50 -6,52 -27,-67 -22,-104 -13,-168zm-1870 101l-1 79 -64 0 1 -232c61,-2 150,-20 174,49 27,79 -49,103 -110,104zm1921 -85c6,29 13,25 -1,48 -20,-17 -24,-31 -29,-57l30 9zm0 0l5 -16 31 43 -36 -27zm-2193 -68l182 0 1 48 -60 7 -1 177 -65 0 0 -179 -57 -1 0 -52zm-24 175l6 51c-96,24 -188,-4 -183,-116 4,-94 108,-145 184,-102l-5 39c-48,12 -109,-16 -112,63 -3,74 53,75 110,65zm1033 -82c16,26 26,19 42,58 8,23 19,58 25,81l-68 -2c-14,-43 -12,-84 -58,-92l-6 93 -58 0 -3 -228 63 -3 0 87c29,-25 34,-57 61,-86l71 -2 -69 94zm-1322 -229c66,-49 41,-116 53,-192l156 1 1 89c1,122 -7,81 25,102l-2 100 -49 2 -3 -60 -127 3 -5 57 -48 -2 -1 -100zm1467 -192l80 1 68 232 -67 1 -16 -51 -51 -2c-1,2 -3,5 -4,6l-15 46 -66 -1 71 -232zm-696 0l79 2 66 232 -61 -2c-31,-44 8,-52 -77,-51l-18 52 -61 0 72 -233zm-1000 234c7,-42 52,-205 71,-233l78 1 67 231 -66 0 -14 -52 -60 1 -11 51 -65 1zm1462 -1l-60 1 -1 -233 64 0 3 86 69 -1 1 -85 64 0 -1 232 -60 2c-18,-19 -16,-28 -7,-82l-66 1c2,22 11,68 -6,79zm-1653 -230c203,-53 251,151 63,154l0 76 -63 1 0 -231zm679 -3l60 4 -1 149 79 -152 63 0 -1 233 -59 0 1 -140c-58,159 -72,140 -142,140l0 -234zm665 192c74,-61 30,-100 45,-191l163 0 0 232 -64 -1 0 -177 -39 0c0,88 14,167 -94,185l-11 -48zm-426 -185c20,-19 36,-14 65,-6 5,21 -2,69 11,79l48 -79 70 -2c-8,37 -47,66 -68,100 52,51 43,64 68,134l-67 1c-17,-50 -12,-84 -62,-93l0 91 -63 1 -2 -226zm966 -330l83 0 66 233 -63 -2 -20 -52 -53 2 -17 51 -63 -2 67 -230zm433 91l0 709 -226 0 -3 -49 176 -2 4 -608 -207 -2 3 -54c37,-5 240,-11 253,6zm-1343 -89c56,-6 153,-20 170,50 20,83 -44,102 -110,103l-2 77 -61 0 3 -230zm335 220l-3 -170 -60 0 -8 182 -65 -2 1 -235 201 4 -3 230c-26,5 -52,13 -63,-9zm277 4c-235,68 -260,-271 2,-223l-12 52c-54,-11 -109,-9 -107,62 1,73 61,58 110,66l7 43zm-647 3c-303,45 -185,-309 -4,-223 10,20 4,16 -3,48 -77,-7 -49,-15 -107,26 -8,106 17,98 107,100l7 49zm678 -228l62 0 3 88 58 -89 74 1 -74 102c42,16 63,86 66,130l-61 -2c-26,-50 -10,-84 -65,-91l-3 92 -60 -2 0 -229zm-1765 86l833 0 5 48 -785 3 -4 611 561 0 -2 51 -608 0 0 96 2999 0c-10,-35 -10,-62 3,-95 27,26 20,60 10,95l374 0 0 -342c-38,26 -32,5 -59,43l-19 -12c-21,-4 -46,11 -80,14 47,71 111,63 140,110 -16,26 -18,25 -50,34 4,-29 11,-24 -3,-44 -7,34 8,32 -50,39l-3 -26 -40 -6 -11 28c-31,-14 -15,-12 -20,-34l-106 -23c-9,8 20,11 -10,4 -16,-3 -2,4 -18,-11l2 29 -35 -34 -1 38c-1,1 -5,1 -5,3 -7,23 4,-10 -13,6l-12 -16c0,29 12,54 -6,82 -19,-15 -11,5 -17,-18 -4,-11 0,-24 1,-36 -14,26 -9,29 -36,45l-2 -46 -12 -22c36,15 5,7 33,15 31,-16 6,-2 15,-18l-13 2 6 -30 -24 14 -5 -10 -108 22c4,40 10,14 -8,36 -24,-17 -12,-4 -15,-29l-43 7 -5 24 -34 1c-27,-31 -4,-7 -17,-39l-2 47 -22 -9 -29 -5c-11,-50 -2,-20 6,-35 51,-26 102,-46 135,-94 -40,-9 -76,-31 -106,-7l-5 -21c-33,-4 -31,-1 -50,-35l36 -22c3,-121 -46,-144 -11,-213l28 7 -3 -29 -22 18c-15,-33 -1,-106 14,-143 17,-44 25,-179 100,-144 8,33 1,33 -14,64 29,71 32,137 114,173l37 -25 -11 -13c20,-29 26,-81 18,-116l-37 -7 18 -21 -50 6c9,-25 -5,-10 29,-21 -30,-19 -31,-14 -66,-8 2,-22 2,-48 38,-32 28,12 1,26 41,11l-36 -10 2 -22 -2855 0 0 97z"/>
  <g id="_218277094944">
   <path class="fil1" d="M2256 989c0,398 -30,277 -388,247 45,-170 169,-247 388,-247zm-1623 106l0 -106c245,0 324,98 424,247 -154,3 -193,35 -389,35 -18,-79 -35,-81 -35,-176zm565 -68l-30 -38c-155,-200 -364,-353 -711,-353 -9,107 -51,239 -64,325 -29,179 17,207 28,345 -197,0 -280,36 -423,36l0 35c515,0 918,-35 1447,-35 529,0 931,35 1446,35l0 -35c-143,0 -225,-36 -423,-36 74,-316 28,-397 -35,-670 -256,0 -384,73 -530,176 -127,88 -277,252 -317,424l-282 0 -59 -154c-27,-42 -26,-32 -47,-55z"/>
   <path class="fil2" d="M527 565c648,0 782,466 918,565 200,-134 239,-565 917,-565 -125,-537 -775,82 -917,177 -66,-44 -770,-731 -918,-177z"/>
   <path class="fil3" d="M774 213l0 70c319,27 465,180 671,318 221,-149 357,-289 705,-318 -115,-172 -383,-269 -651,-282l-119 0c-117,5 -230,28 -324,69 -103,45 -171,113 -282,143z"/>
   <polygon class="fil4" points="1198,1027 1168,989 "/>
  </g>
 </g>
</svg>
