<?xml version="1.0" encoding="UTF-8"?>
<!DOCTYPE svg PUBLIC "-//W3C//DTD SVG 1.1//EN" "http://www.w3.org/Graphics/SVG/1.1/DTD/svg11.dtd">
<!-- Creator: CorelDRAW X8 -->
<svg xmlns="http://www.w3.org/2000/svg" xml:space="preserve" width="44.803mm" height="35.05mm" version="1.1" style="shape-rendering:geometricPrecision; text-rendering:geometricPrecision; image-rendering:optimizeQuality; fill-rule:evenodd; clip-rule:evenodd"
viewBox="0 0 4480 3505"
 xmlns:xlink="http://www.w3.org/1999/xlink">
 <defs>
  <style type="text/css">
   <![CDATA[
    .fil8 {fill:#22986D}
    .fil5 {fill:#26996D}
    .fil11 {fill:#289A70}
    .fil0 {fill:#29996D}
    .fil6 {fill:#2B996E}
    .fil10 {fill:#349B71}
    .fil7 {fill:#3B9D72}
    .fil9 {fill:#3EA174}
    .fil3 {fill:#4B9CD3}
    .fil2 {fill:#ED1D2B}
    .fil1 {fill:#F4F7F4}
    .fil4 {fill:#FEFEFD}
   ]]>
  </style>
 </defs>
 <g id="Layer_x0020_1">
  <metadata id="CorelCorpID_0Corel-Layer"/>
  <g id="_218186591664">
   <path class="fil0" d="M1175 1689c-17,-109 112,-351 219,-424 169,-113 358,-9 514,49 -62,-63 -183,-192 -116,-319l85 -230c2,-11 13,-10 8,-14l-1 -175 182 95c-74,-169 40,-296 130,-429 39,39 115,149 142,186 69,95 50,125 27,227 99,-60 64,-54 182,-83 2,58 -4,123 7,174l45 199c12,32 11,14 28,43l30 48c10,74 -128,297 -143,268 -4,-7 -13,16 -19,24 158,-49 386,-197 558,-66 4,3 231,282 219,430 -239,-26 -180,-169 -386,-227 -225,-64 -325,40 -490,106 101,72 279,182 387,244 144,83 378,11 540,58 54,153 47,528 9,707l-160 -3c-29,171 -35,135 -391,186 -138,20 -135,-30 -246,-1 -314,80 -320,48 -375,-208 -116,54 -32,-24 -105,97 -55,-50 -33,41 -72,-169 -150,31 -51,-4 -184,114l-27 -158c-129,-16 -158,86 -220,179l-377 -9 0 -749c192,-17 324,22 499,-65l368 -194c-471,-397 -642,62 -867,89zm1164 1816l-251 0c-810,-53 -1239,-1282 -1153,-1729l17 -60 2 -195 27 -278 80 -278c112,-230 211,-478 430,-661 46,-40 110,-86 160,-122 52,-38 94,-59 162,-86 834,-327 1296,232 1606,869l74 285 46 738c-56,469 -183,786 -412,1081 -70,90 -119,90 -208,180 -177,178 -344,242 -580,256z"/>
   <path class="fil1" d="M1813 2048c54,-131 -5,-20 98,-124 56,-57 55,-84 120,-127 326,-216 771,107 771,107 123,50 311,18 457,35l9 543c-48,31 -93,54 -130,79l-596 -505c-449,-393 -343,15 -729,-8zm410 -86c170,31 366,217 459,308 200,194 371,248 414,381 -207,33 -268,-54 -431,-104 56,112 -6,26 104,131 -187,28 -199,-70 -359,-86l47 118c-304,45 -161,-136 -258,-207 -13,-4 -86,-18 -108,-26 -830,-303 -162,64 -848,64l-9 -616c601,8 440,-126 790,-221 -7,7 -19,6 -22,19l-147 144c-45,47 -141,136 -105,209 88,178 408,-84 473,-114zm-56 -283l28 -302c17,31 19,17 41,77 89,250 -35,213 -69,225zm306 -236c92,-40 171,-119 297,-144 225,-46 261,19 320,175 -274,-117 -320,-142 -617,-31zm-147 -4c52,-121 -18,-57 125,-102 -7,9 -16,12 -21,27l-104 75zm-348 -90c127,19 109,-17 125,91 -93,-46 -50,-5 -125,-91zm-668 174c45,-80 68,-195 184,-227 129,-36 259,32 337,91 -362,-22 -292,9 -521,136zm976 -276c85,-75 121,-75 254,-120 -36,80 4,74 -103,127 -156,78 -144,-3 -151,-7zm-416 -119c135,44 168,42 256,119 -2,1 10,90 -154,8 -107,-53 -67,-47 -102,-127zm61 -192c133,32 133,8 200,138 -185,-47 -103,-28 -200,-138zm350 141c65,-130 71,-107 207,-139 -61,112 -53,106 -207,139zm7 -217c50,-115 42,-94 158,-135 -55,131 -18,83 -158,135zm-158 10c-170,-56 -102,-5 -153,-135 127,43 96,14 153,135zm48 -474c217,104 126,188 15,339 -55,-108 -55,-73 -94,-194l79 -145zm-112 275l-182 -95 1 175c5,4 -6,3 -8,14l-85 230c-67,127 54,256 116,319 -156,-58 -345,-162 -514,-49 -107,73 -236,315 -219,424 225,-27 396,-486 867,-89l-368 194c-175,87 -307,48 -499,65l0 749 377 9c62,-93 91,-195 220,-179l27 158c133,-118 34,-83 184,-114 39,210 17,119 72,169 73,-121 -11,-43 105,-97 55,256 61,288 375,208 111,-29 108,21 246,1 356,-51 362,-15 391,-186l160 3c38,-179 45,-554 -9,-707 -162,-47 -396,25 -540,-58 -108,-62 -286,-172 -387,-244 165,-66 265,-170 490,-106 206,58 147,201 386,227 12,-148 -215,-427 -219,-430 -172,-131 -400,17 -558,66 6,-8 15,-31 19,-24 15,29 153,-194 143,-268l-30 -48c-17,-29 -16,-11 -28,-43l-45 -199c-11,-51 -5,-116 -7,-174 -118,29 -83,23 -182,83 23,-102 42,-132 -27,-227 -27,-37 -103,-147 -142,-186 -90,133 -204,260 -130,429z"/>
   <path class="fil0" d="M2223 1962c-65,30 -385,292 -473,114 -36,-73 60,-162 105,-209l147 -144c3,-13 15,-12 22,-19 -350,95 -189,229 -790,221l9 616c686,0 18,-367 848,-64 22,8 95,22 108,26 97,71 -46,252 258,207l-47 -118c160,16 172,114 359,86 -110,-105 -48,-19 -104,-131 163,50 224,137 431,104 -43,-133 -214,-187 -414,-381 -93,-91 -289,-277 -459,-308z"/>
   <path class="fil0" d="M1813 2048c386,23 280,-385 729,8l596 505c37,-25 82,-48 130,-79l-9 -543c-146,-17 -334,15 -457,-35 0,0 -445,-323 -771,-107 -65,43 -64,70 -120,127 -103,104 -44,-7 -98,124z"/>
   <path class="fil2" d="M71 1347c403,-124 413,-181 910,-104l80 -278c-411,-93 -734,-67 -1061,106 8,97 34,208 71,276z"/>
   <path class="fil2" d="M3419 965l74 285c458,-95 547,-29 917,98 35,-68 62,-181 70,-277 -326,-173 -650,-199 -1061,-106z"/>
   <path class="fil3" d="M4237 1774c-310,-70 -324,-92 -689,-47l-1 -198c266,-126 493,-17 744,33l-54 212zm-744 -524l46 738 27 -211c131,-12 172,-50 350,-37 136,10 213,60 353,72 29,-127 93,-355 141,-464 -370,-127 -459,-193 -917,-98z"/>
   <path class="fil3" d="M71 1347c48,111 111,336 141,465 126,-11 211,-57 319,-69 187,-22 256,23 404,33l17 -60c-376,-11 -364,-18 -707,58l-43 -212c266,-57 469,-135 752,-41l27 -278c-497,-77 -507,-20 -910,104z"/>
   <path class="fil4" d="M952 1716l2 -195c-283,-94 -486,-16 -752,41l43 212c343,-76 331,-69 707,-58z"/>
   <path class="fil4" d="M3547 1529l1 198c365,-45 379,-23 689,47l54 -212c-251,-50 -478,-159 -744,-33z"/>
   <path class="fil5" d="M2099 541c39,121 39,86 94,194 111,-151 202,-235 -15,-339l-79 145z"/>
   <path class="fil6" d="M1310 1523c229,-127 159,-158 521,-136 -78,-59 -208,-127 -337,-91 -116,32 -139,147 -184,227z"/>
   <path class="fil7" d="M2473 1443c297,-111 343,-86 617,31 -59,-156 -95,-221 -320,-175 -126,25 -205,104 -297,144z"/>
   <path class="fil5" d="M1870 1128c35,80 -5,74 102,127 164,82 152,-7 154,-8 -88,-77 -121,-75 -256,-119z"/>
   <path class="fil8" d="M2286 1247c7,4 -5,85 151,7 107,-53 67,-47 103,-127 -133,45 -169,45 -254,120z"/>
   <path class="fil9" d="M2167 1679c34,-12 158,25 69,-225 -22,-60 -24,-46 -41,-77l-28 302z"/>
   <path class="fil10" d="M2281 1077c154,-33 146,-27 207,-139 -136,32 -142,9 -207,139z"/>
   <path class="fil8" d="M1931 936c97,110 15,91 200,138 -67,-130 -67,-106 -200,-138z"/>
   <path class="fil8" d="M2130 870c-57,-121 -26,-92 -153,-135 51,130 -17,79 153,135z"/>
   <path class="fil5" d="M2288 860c140,-52 103,-4 158,-135 -116,41 -108,20 -158,135z"/>
   <path class="fil9" d="M1978 1349c75,86 32,45 125,91 -16,-108 2,-72 -125,-91z"/>
   <path class="fil11" d="M2451 1337c-143,45 -73,-19 -125,102l104 -75c5,-15 14,-18 21,-27z"/>
  </g>
 </g>
</svg>
