<?xml version="1.0" encoding="UTF-8"?>
<!DOCTYPE svg PUBLIC "-//W3C//DTD SVG 1.1//EN" "http://www.w3.org/Graphics/SVG/1.1/DTD/svg11.dtd">
<!-- Creator: CorelDRAW X8 -->
<svg xmlns="http://www.w3.org/2000/svg" xml:space="preserve" width="87.842mm" height="25.4mm" version="1.1" style="shape-rendering:geometricPrecision; text-rendering:geometricPrecision; image-rendering:optimizeQuality; fill-rule:evenodd; clip-rule:evenodd"
viewBox="0 0 8784 2540"
 xmlns:xlink="http://www.w3.org/1999/xlink">
 <defs>
  <style type="text/css">
   <![CDATA[
    .fil0 {fill:#FEFEFE}
    .fil5 {fill:#016A31}
    .fil2 {fill:#02682F}
    .fil3 {fill:#026831}
    .fil4 {fill:#056A32}
    .fil1 {fill:#0A6B32}
    .fil11 {fill:#1B7634}
    .fil14 {fill:#1E7936}
    .fil12 {fill:#25793B}
    .fil13 {fill:#338539}
    .fil9 {fill:#3C8C3A}
    .fil8 {fill:#3E8952}
    .fil15 {fill:#429039}
    .fil10 {fill:#44923B}
    .fil17 {fill:#469066}
    .fil16 {fill:#4C8B5C}
    .fil6 {fill:#5BA53E}
    .fil7 {fill:#5DA542}
   ]]>
  </style>
 </defs>
 <g id="Layer_x0020_1">
  <metadata id="CorelCorpID_0Corel-Layer"/>
  <path class="fil0" d="M1567 789l-61 4 62 -215 78 0 65 214 -66 2 -12 -51 -48 0 -18 46zm-653 5l-47 -1 62 -216 79 1 63 213c-65,4 -63,15 -77,-48l-48 0c-21,30 0,33 -32,51zm1480 -97c34,-3 26,-8 54,13 2,31 -5,50 -28,71 -1,-1 -3,-5 -3,-4 0,1 -3,-4 -3,-4 -1,-1 -6,-10 -6,-11 -14,-14 -19,22 -9,-29 -24,12 -21,2 -36,-6l16 -25c15,-3 7,10 15,-5zm50 86c-10,-21 8,-65 13,-93 18,31 4,72 -13,93zm-1289 10l-55 1 -4 -215 60 -1 0 79 67 0 0 -78 60 -1 0 213 -60 2 0 -84 -67 0 -1 84zm1367 -88c13,-9 -2,-7 25,-5 17,0 7,1 27,0l18 32 -22 14 -8 18c-35,-14 -27,-36 -40,-59zm-30 -79l17 5c1,17 4,33 2,48 -6,34 -9,-4 -10,43l21 -17c6,29 21,54 11,74l-24 -44c11,49 -3,46 -5,48 -25,-63 -20,-97 -12,-157zm-1742 95l-1 73 -59 0 0 -216c57,-2 140,-19 162,46 25,74 -45,96 -102,97zm1789 -80c6,27 12,24 -1,45 -18,-16 -22,-29 -27,-53l28 8zm0 0l5 -15 29 41 -34 -26zm-2042 -63l170 0 0 45 -56 6 0 165 -61 0 0 -166 -54 -1 1 -49zm-23 163l6 48c-89,22 -175,-5 -170,-109 4,-87 100,-134 171,-95l-5 36c-44,12 -101,-15 -104,60 -3,69 50,69 102,60zm963 -76c15,24 24,17 38,54 8,21 18,53 24,75l-63 -2c-13,-40 -12,-78 -54,-85l-6 86 -54 0 -3 -213 59 -2 0 81c26,-23 31,-53 57,-80l66 -2 -64 88zm-1232 -214c62,-45 38,-108 50,-178l145 0 1 83c1,114 -7,76 23,95l-1 94 -46 1 -3 -55 -119 2 -4 54 -45 -3 -1 -93zm1367 -178l74 0 63 217 -62 0 -15 -48 -48 -1c-1,2 -2,4 -3,6l-14 43 -61 -2 66 -215zm-649 0l74 2 62 215 -58 -1c-28,-41 8,-49 -71,-48l-17 48 -57 1 67 -217zm-931 217c6,-39 48,-190 66,-217l73 1 62 215 -62 1 -12 -49 -56 1 -10 47 -61 1zm1362 0l-56 0 -1 -217 60 0 2 81 65 -2 0 -79 60 0 -1 217 -55 1c-18,-17 -16,-26 -8,-76l-61 1c2,20 10,63 -5,74zm-1540 -214c189,-50 234,140 59,143l0 71 -59 0 0 -214zm632 -4l57 4 -2 139 74 -141 58 -1 -1 217 -54 0 1 -130c-55,148 -67,130 -133,130l0 -218zm620 179c69,-57 28,-93 42,-178l151 1 0 216 -59 -2 0 -165 -37 0c1,83 14,156 -87,173l-10 -45zm-397 -172c18,-17 34,-13 61,-6 4,20 -3,65 10,74l44 -73 66 -2c-8,34 -44,61 -63,92 48,48 39,60 63,125l-63 1c-15,-46 -11,-78 -58,-86l0 85 -58 0 -2 -210zm900 -308l77 1 61 216 -58 -1 -19 -49 -50 2 -15 48 -59 -2 63 -215zm403 86l0 660 -210 -1 -3 -45 163 -2 5 -566 -194 -2 3 -50c35,-4 224,-11 236,6zm-1251 -83c52,-6 142,-19 158,46 19,77 -40,95 -101,96l-2 71 -58 1 3 -214zm312 205l-3 -159 -55 1 -8 169 -61 -2 1 -219 187 3 -2 215c-24,4 -49,12 -59,-8zm258 3c-219,64 -242,-253 2,-207l-11 48c-50,-10 -101,-8 -100,57 1,69 57,55 102,63l7 39zm-602 3c-282,42 -172,-287 -4,-208 10,19 4,15 -3,45 -71,-6 -45,-14 -99,24 -8,99 15,92 99,93l7 46zm631 -213l58 1 3 82 54 -84 68 2 -68 95c38,15 58,80 61,121l-57 -3c-24,-46 -9,-78 -61,-84l-2 86 -56 -2 0 -214zm-1644 80l776 0 4 46 -730 2 -4 569 522 0 -1 47 -567 0 0 90 2793 0c-9,-33 -9,-57 4,-89 24,25 18,57 9,89l348 0 0 -319c-36,25 -30,6 -55,40l-18 -10c-19,-4 -43,10 -75,13 44,66 104,58 131,102 -15,24 -17,24 -46,32 3,-27 10,-23 -4,-41 -6,31 8,29 -46,36l-3 -24 -37 -6 -10 26c-29,-13 -14,-11 -18,-31l-100 -22c-8,7 19,11 -9,4 -15,-3 -2,3 -17,-10l2 26 -32 -31 -1 35c-2,2 -5,1 -5,3 -6,22 4,-9 -12,6l-12 -15c1,27 12,50 -5,76 -18,-13 -10,5 -16,-16 -3,-11 0,-23 1,-34 -13,24 -8,27 -34,42l-1 -43 -11 -21c33,14 4,7 30,15 29,-15 6,-2 14,-17l-12 1 6 -28 -22 14 -5 -10 -101 21c4,37 10,13 -8,33 -21,-15 -10,-3 -13,-26l-41 6 -4 23 -31 0c-26,-29 -4,-6 -16,-36l-2 43 -20 -8 -28 -4c-10,-47 -1,-19 5,-33 48,-24 96,-43 126,-87 -37,-9 -70,-29 -98,-7l-4 -19c-32,-5 -30,-1 -47,-33l33 -21c3,-112 -43,-134 -10,-198l26 6 -2 -27 -21 17c-14,-30 -2,-98 12,-133 17,-41 24,-166 94,-134 8,31 1,31 -13,59 27,67 29,129 106,161l35 -23 -11 -12c18,-27 24,-75 17,-108l-34 -6 16 -20 -47 6c9,-24 -4,-10 28,-20 -28,-18 -29,-13 -61,-7 2,-21 1,-45 35,-30 25,11 1,24 38,10l-33 -9 1 -21 -2659 0 0 90z"/>
  <g id="_218277091392">
   <path class="fil1" d="M279 2471l2473 0 -3 -66c-747,0 -1493,0 -2240,0 32,-385 363,-1857 395,-2234l2201 -9 66 0c-181,-83 -2088,-24 -2464,-24l-329 1741c-27,181 -94,408 -99,592z"/>
   <path class="fil2" d="M6489 1222c290,0 254,46 324,-431 25,-169 -42,-78 70,-160 12,142 53,194 99,295 48,106 77,194 131,296 315,0 247,46 332,-489 27,-171 95,-415 95,-595 -287,0 -248,-19 -292,266 -21,133 -36,204 -36,358 -107,-78 -32,2 -89,-141 -25,-61 -40,-102 -65,-164 -51,-125 -86,-214 -142,-319 -306,0 -243,-66 -328,493 -29,184 -84,413 -99,591z"/>
   <path class="fil2" d="M8066 335l33 0c0,191 -3,243 33,394l-197 0c34,-72 131,-301 131,-394zm-591 887l262 0c49,-91 72,-148 99,-263l296 0 0 263c375,0 267,18 262,-228 -4,-174 -5,-238 -26,-370 -42,-266 75,-519 -236,-519 -135,0 -218,63 -271,157 -28,50 -40,99 -69,161l-317 799z"/>
   <path class="fil2" d="M3335 368l361 0 -403 517c-138,150 -122,187 -122,337l755 0c11,-127 30,-85 33,-230l-427 0 469 -582c85,-107 90,-93 90,-272l-723 0c-3,144 -22,102 -33,230z"/>
   <path class="fil3" d="M4123 1025l0 99c83,55 118,96 262,100 117,3 244,-2 363,-2 62,-259 82,-230 -362,-230 3,-144 23,-102 33,-230l394 0c18,-77 31,-97 33,-197l-394 0 38 -196c199,-53 175,-34 422,-34l38 -196c-78,-7 -175,-26 -274,-34l-138 0c-145,14 -274,82 -324,288 -41,171 -91,410 -91,632z"/>
   <path class="fil3" d="M5700 1025l0 99c216,144 279,98 625,98 62,-259 82,-230 -362,-230 4,-144 23,-102 33,-230l394 0c18,-77 31,-97 33,-197l-394 0 38 -196c199,-53 175,-34 422,-34l38 -196c-78,-7 -175,-26 -274,-34l-138 0c-145,14 -274,82 -324,288 -41,171 -91,410 -91,632z"/>
   <path class="fil3" d="M6160 2471c146,0 134,-56 158,-204 18,-114 37,-187 40,-289 5,6 13,7 15,17 2,11 13,14 15,18 38,58 13,12 37,62l163 396 155 0c88,-10 67,-74 127,-408 28,-155 76,-373 79,-512 -395,0 -167,138 -290,432 -19,45 -23,38 -39,61 -37,-162 -126,-360 -197,-493l-197 0c-36,154 -70,337 -95,496 -48,306 -115,424 29,424z"/>
   <path class="fil3" d="M4781 1945c10,-128 29,-86 32,-230 135,3 143,20 230,66 -37,158 -72,164 -262,164zm-99 526l-176 0c-65,-25 -35,-145 57,-644 19,-99 46,-185 53,-276 58,-2 657,-139 657,230 0,163 -165,285 -197,328 31,132 87,222 99,362l-225 -2 -104 -327 -98 0c-24,104 -42,225 -66,329z"/>
   <path class="fil4" d="M5700 1748l33 0 0 296 -131 0c28,-58 98,-221 98,-296zm-492 723l230 0c28,-122 54,-92 65,-230l263 0 0 230c377,0 200,-127 196,-492 -1,-125 61,-461 -196,-461 -234,0 -275,222 -348,408 -75,189 -165,350 -210,545z"/>
   <path class="fil3" d="M8172 1748l57 -31 -32 72c0,142 -15,154 33,255l-164 0c33,-69 90,-205 106,-296zm288 453l0 266 0 4 -230 0 0 -230 -230 0c-42,80 -60,150 -98,230l-230 0c40,-172 164,-406 226,-563 84,-217 84,-367 365,-390 207,109 161,134 163,428 2,153 25,139 34,255z"/>
   <path class="fil2" d="M7103 2471c72,-17 109,-94 109,-394l103 192c26,69 59,135 94,202l230 0c-12,-138 -138,-349 -197,-460 186,-279 323,-316 361,-460l-263 0 -295 361c29,-124 65,-205 65,-361l-230 0c0,325 -131,569 -131,920l154 0z"/>
   <path class="fil4" d="M3138 1814c0,223 328,259 328,361 0,169 -268,88 -361,66 -18,77 -31,97 -33,197 291,68 666,36 640,-291 -15,-196 -241,-213 -344,-366 98,-55 222,-33 394,-33l38 -196c-62,0 -662,-145 -662,262z"/>
   <path class="fil4" d="M4978 992l0 132c193,129 164,98 492,98 119,0 185,-230 33,-230l-262 0c0,-291 124,-591 131,-887l-263 0c-25,302 -131,547 -131,887z"/>
   <path class="fil4" d="M4058 1748c-35,148 -47,279 -79,447 -45,240 -126,276 177,276 54,-230 78,-493 132,-723 240,0 217,0 263,-197l-690 0c-5,225 -96,197 197,197z"/>
   <path class="fil2" d="M1134 1530l115 31c-10,-162 29,-546 108,-640 -169,-24 -164,1 -322,5l-130 -39 -65 45c-2,193 -68,322 -68,520 99,52 219,111 362,78z"/>
   <path class="fil5" d="M1200 795c55,-42 0,-27 96,-57 8,-3 68,-7 79,-9l54 -361c18,-18 94,-26 -177,-118 -97,-33 -169,-46 -283,-46 -16,195 -94,426 -98,624 129,-11 154,-33 329,-33z"/>
   <path class="fil6" d="M1614 1551c95,0 162,-12 217,-25 65,-15 46,2 105,-26 87,-41 32,-2 85,-74 -75,-3 -44,8 -82,-21 83,-79 49,-384 49,-385l0 -28 -132 -65 -262 -33c78,63 -99,21 100,65 -61,70 -21,20 -37,130 -22,153 -99,251 -43,462z"/>
   <path class="fil4" d="M2546 1047l33 11c0,53 10,33 -55,33 -165,104 -49,15 -91,-7l113 -37zm33 11l64 -38 -64 38zm99 -66l10 10c-1,-1 -13,-6 -10,-10zm0 -197l-363 71c53,125 51,7 167,93 -88,92 -39,67 -182,62 13,163 34,190 -65,252 41,28 3,17 81,15 128,8 361,-190 432,-292 4,-6 7,-15 11,-21l247 -213 14 -65c0,-55 -11,-35 55,-35l-36 -29c-52,33 -99,70 -163,98 -74,32 -124,28 -198,64z"/>
   <path class="fil7" d="M1922 697l99 0 0 32 -99 0 0 -32zm-296 116c7,6 17,7 21,19 4,11 16,13 21,16 31,14 44,15 77,27l111 52c193,0 96,-19 132,65l0 28 98 -4c25,-71 3,-79 33,-14l33 0 -7 -43 -114 -48c5,-4 16,-22 18,-15l174 -103 -169 -64c173,0 49,0 98,-32 -312,-73 -126,-99 -328,-99l-196 10c6,15 13,30 19,44l29 68c3,7 6,15 8,21 2,4 3,11 5,15 3,8 5,29 27,66l-90 -9z"/>
   <path class="fil8" d="M3039 633l36 29c-66,0 -55,-20 -55,35 35,95 25,42 -14,65 0,245 -95,584 -131,822 -20,134 -45,260 -66,394 -22,146 -70,270 -60,427l3 66c93,-138 187,-932 224,-1115l195 -1194 -66 0c0,216 -27,301 -66,471z"/>
   <path class="fil9" d="M2145 959c52,27 60,-4 7,43l-33 0 -33 14 -98 4c0,1 34,306 -49,385 38,29 7,18 82,21l97 32c7,-11 16,-26 19,-20l114 -94c-119,6 -30,33 -92,-23 15,-255 -13,-257 82,-314 48,-29 -1,-2 49,-15 -47,-67 146,-51 -118,-68l51 -131 -174 103c-2,-7 -13,11 -18,15l114 48z"/>
   <path class="fil10" d="M1410 1540l-161 21 -115 -31c32,64 -62,57 229,54 122,-1 200,21 251,-33 -56,-211 21,-309 43,-462 16,-110 -24,-60 37,-130 -199,-44 -22,-2 -100,-65l-66 0c0,87 -21,64 69,64 -89,35 -111,298 -124,432 -13,143 -18,84 26,128l-89 22z"/>
   <path class="fil11" d="M1249 1561l161 -21 -56 -47 93 -567c-176,-5 -78,-36 -116,-65 -40,0 -94,-5 -131,-4 -182,5 -126,-24 -165,69 158,-4 153,-29 322,-5 -79,94 -118,478 -108,640z"/>
   <path class="fil12" d="M2251 1344c106,19 41,26 65,-56 -78,2 -40,13 -81,-15 99,-62 78,-89 65,-252 143,5 94,30 182,-62 -116,-86 -114,32 -167,-93l363 -71 -455 -2 -51 131c264,17 71,1 118,68 -50,13 -1,-14 -49,15 -95,57 -67,59 -82,314 62,56 -27,29 92,23z"/>
   <path class="fil13" d="M1410 1540l89 -22c-44,-44 -39,15 -26,-128 13,-134 35,-397 124,-432 -90,0 -69,23 -69,-64 0,-81 11,4 -33,-33l-164 0c38,29 -60,60 116,65l-93 567 56 47z"/>
   <path class="fil14" d="M1200 795c138,0 114,17 229,-33l131 13c-38,-51 -25,-24 -9,-145 17,-130 5,-74 43,-163 -16,-50 53,-9 -35,-61 -95,-57 1,-14 -130,-38l-54 361c-11,2 -71,6 -79,9 -96,30 -41,15 -96,57z"/>
   <path class="fil15" d="M1429 762c46,109 -28,40 67,64 57,14 89,-5 130,-13l90 9c-22,-37 -24,-58 -27,-66 -2,-4 -3,-11 -5,-15 -2,-6 -5,-14 -8,-21l-29 -68c-6,-14 -13,-29 -19,-44l196 -10c52,-52 31,-16 -61,-67 -63,-34 -95,-40 -169,-64 -38,89 -26,33 -43,163 -16,121 -29,94 9,145l-131 -13z"/>
   <path class="fil16" d="M2524 1091l22 -44 -113 37c42,22 -74,111 91,7z"/>
   <polygon class="fil17" points="8197,1789 8229,1717 8172,1748 "/>
  </g>
 </g>
</svg>
