<?xml version="1.0" encoding="UTF-8"?>
<!DOCTYPE svg PUBLIC "-//W3C//DTD SVG 1.1//EN" "http://www.w3.org/Graphics/SVG/1.1/DTD/svg11.dtd">
<!-- Creator: CorelDRAW X8 -->
<svg xmlns="http://www.w3.org/2000/svg" xml:space="preserve" width="25.4mm" height="6.68mm" version="1.1" style="shape-rendering:geometricPrecision; text-rendering:geometricPrecision; image-rendering:optimizeQuality; fill-rule:evenodd; clip-rule:evenodd"
viewBox="0 0 2540 668"
 xmlns:xlink="http://www.w3.org/1999/xlink">
 <defs>
  <style type="text/css">
   <![CDATA[
    .fil0 {fill:#FEFEFE}
    .fil36 {fill:#1855A3}
    .fil18 {fill:#2D569C}
    .fil22 {fill:#2D579D}
    .fil16 {fill:#2F5497}
    .fil21 {fill:#305395}
    .fil3 {fill:#314E8E}
    .fil17 {fill:#334A89}
    .fil25 {fill:#344A87}
    .fil13 {fill:#344C8A}
    .fil2 {fill:#364782}
    .fil6 {fill:#374179}
    .fil32 {fill:#37447E}
    .fil35 {fill:#374580}
    .fil19 {fill:#383B70}
    .fil14 {fill:#383B72}
    .fil34 {fill:#383D73}
    .fil27 {fill:#39396D}
    .fil23 {fill:#393A6F}
    .fil4 {fill:#892E2F}
    .fil11 {fill:#8C2E2F}
    .fil8 {fill:#8D2E2F}
    .fil7 {fill:#912F2F}
    .fil30 {fill:#A32F31}
    .fil33 {fill:#A43030}
    .fil26 {fill:#A73031}
    .fil10 {fill:#AD3032}
    .fil5 {fill:#B33132}
    .fil29 {fill:#C13233}
    .fil31 {fill:#C43233}
    .fil1 {fill:#C63335}
    .fil9 {fill:#CB3334}
    .fil20 {fill:#D83335}
    .fil28 {fill:#DB3335}
    .fil12 {fill:#DE3335}
    .fil15 {fill:#E03435}
    .fil24 {fill:#E53436}
   ]]>
  </style>
 </defs>
 <g id="Layer_x0020_1">
  <metadata id="CorelCorpID_0Corel-Layer"/>
  <path class="fil0" d="M-1739 -196l-66 5 67 -231 84 0 69 230 -71 2 -12 -55 -53 0 -18 49zm-702 6l-50 -1 66 -232 85 1 67 229c-69,4 -66,15 -82,-52l-52 0c-22,33 0,36 -34,55zm1589 -105c37,-2 28,-8 58,15 2,33 -5,53 -29,76 -2,-1 -4,-6 -4,-4 0,1 -3,-4 -3,-5 -1,-1 -6,-10 -7,-12 -15,-14 -20,24 -9,-30 -26,12 -23,1 -39,-7l17 -27c16,-3 8,10 16,-6zm54 93c-10,-23 9,-70 14,-99 20,32 5,76 -14,99zm-1384 10l-59 2 -4 -231 64 -1 0 85 72 0 0 -84 64 -1 0 229 -64 2 0 -90 -72 0 -1 89zm1468 -94c14,-9 -3,-7 27,-5 18,0 7,1 28,0l20 35 -23 14 -9 20c-38,-16 -30,-39 -43,-64zm-33 -84l19 4c1,19 4,36 2,52 -6,37 -10,-4 -11,47l23 -19c6,32 22,58 12,79l-26 -47c12,53 -4,50 -5,52 -27,-67 -22,-104 -14,-168zm-1870 101l-1 78 -64 1 1 -232c61,-2 150,-20 174,49 27,79 -48,103 -110,104zm1922 -85c6,29 12,25 -2,48 -19,-17 -23,-31 -29,-57l31 9zm0 0l4 -16 32 43 -36 -27zm-2194 -68l183 0 0 48 -60 7 0 177 -65 -1 0 -178 -58 -1 0 -52zm-24 175l6 51c-95,24 -188,-4 -183,-116 5,-94 108,-145 184,-102l-5 39c-48,12 -109,-17 -112,63 -3,74 54,75 110,65zm1033 -82c17,26 27,19 42,58 9,23 19,57 25,81l-67 -2c-14,-43 -13,-84 -58,-92l-6 93 -58 0 -4 -228 63 -3 0 87c29,-25 34,-57 61,-86l72 -2 -70 94zm-1322 -229c67,-49 41,-116 54,-192l156 1 1 89c0,122 -8,81 25,102l-2 100 -49 2 -4 -60 -127 3 -4 57 -49 -2 -1 -100zm1468 -192l79 0 68 233 -67 1 -16 -52 -51 -1c-1,2 -3,5 -4,6l-14 46 -66 -1 71 -232zm-697 0l79 2 66 232 -61 -2c-31,-44 9,-52 -77,-51l-17 52 -62 0 72 -233zm-1000 234c7,-42 52,-205 72,-233l77 1 68 230 -67 1 -13 -52 -61 1 -11 51 -65 1zm1463 -1l-61 1 0 -233 64 0 2 86 70 -1 0 -85 64 0 -1 232 -59 2c-19,-19 -17,-28 -8,-82l-66 0c3,23 11,69 -5,80zm-1654 -230c203,-53 251,151 64,154l-1 76 -62 1 -1 -231zm679 -3l61 4 -2 149 79 -152 63 0 -1 233 -59 0 1 -140c-58,159 -71,139 -142,140l0 -234zm665 192c74,-61 30,-100 45,-191l163 0 0 232 -64 -1 0 -177 -39 0c0,88 14,167 -94,185l-11 -48zm-425 -185c19,-19 35,-14 64,-6 5,21 -2,69 11,79l48 -79 70 -2c-8,37 -47,66 -67,100 51,51 42,64 67,134l-67 1c-17,-50 -12,-84 -62,-93l0 91 -63 1 -1 -226zm966 -330l82 0 66 232 -62 -1 -21 -52 -53 2 -17 51 -63 -2 68 -230zm433 91l-1 709 -225 -1 -4 -48 176 -2 5 -608 -208 -2 3 -54c37,-5 240,-11 254,6zm-1344 -89c56,-6 153,-20 170,50 20,83 -44,102 -109,103l-2 77 -62 0 3 -230zm335 220l-3 -170 -60 0 -7 182 -66 -2 1 -235 201 4 -3 230c-25,5 -52,13 -63,-9zm277 4c-235,68 -260,-271 2,-223l-11 52c-55,-11 -109,-9 -108,62 1,73 61,58 110,66l7 43zm-647 3c-302,45 -184,-309 -4,-223 11,20 4,15 -3,48 -76,-7 -48,-15 -106,26 -9,106 16,98 106,100l7 49zm679 -228l61 0 3 88 58 -89 74 1 -74 102c42,16 63,86 67,130l-62 -2c-26,-50 -10,-84 -65,-91l-3 92 -60 -2 1 -229zm-1766 86l834 -1 4 49 -784 3 -5 611 561 0 -2 51 -608 -1 0 97 2999 0c-9,-35 -10,-62 4,-95 26,26 20,60 10,95l374 0 0 -342c-39,26 -33,5 -59,43l-20 -12c-21,-4 -46,11 -80,14 47,71 111,63 140,110 -15,26 -18,25 -49,34 3,-29 11,-24 -4,-44 -7,34 8,32 -50,39l-3 -26 -40 -6 -11 28c-31,-14 -15,-12 -19,-34l-107 -23c-9,8 20,11 -10,4 -16,-3 -2,4 -18,-11l2 29 -35 -34 -1 38c-1,1 -4,0 -5,3 -6,23 5,-10 -12,6l-13 -16c1,29 12,54 -6,82 -19,-15 -11,5 -17,-18 -4,-11 0,-24 1,-36 -14,26 -9,29 -36,45l-2 -46 -11 -22c35,15 4,7 32,15 31,-16 7,-2 15,-18l-13 2 6 -31 -24 15 -5 -10 -108 22c5,40 11,14 -8,36 -24,-17 -11,-4 -14,-29l-44 7 -5 24 -34 1c-27,-31 -4,-7 -16,-39l-2 47 -22 -9 -30 -5c-10,-50 -2,-20 6,-35 51,-26 103,-46 135,-94 -40,-9 -76,-31 -106,-7l-4 -21c-34,-4 -32,-1 -50,-35l35 -22c3,-121 -46,-144 -10,-213l27 7 -2 -29 -22 18c-16,-33 -2,-106 13,-143 18,-44 26,-179 101,-144 8,33 0,33 -14,63 28,72 31,138 113,173l38 -24 -11 -13c19,-29 25,-81 17,-116l-37 -7 18 -21 -50 6c9,-25 -5,-10 30,-21 -31,-19 -31,-14 -66,-8 2,-22 1,-48 38,-32 27,12 0,25 40,11l-36 -10 3 -22 -2856 0 0 97z"/>
  <g id="_218373160048">
   <path class="fil1" d="M8 254c46,-12 92,-90 136,-119 -4,48 -106,127 -142,164l-2 59 0 6c54,-36 147,-165 195,-178 -14,51 -156,152 -194,215l17 47c59,-39 176,-197 228,-211 -5,54 -172,182 -213,236l18 43 292 -287 28 17c12,108 -89,118 -46,176l278 -276c-23,-71 -136,-138 -252,-146l-45 0c-15,1 -30,3 -45,7 -127,30 -222,120 -253,247z"/>
   <path class="fil2" d="M356 266c-16,0 -12,4 -12,-12l-278 277c150,227 524,157 586,-99 -25,7 -27,13 -59,51 -21,24 -31,47 -68,50 77,-116 144,-77 144,-220 -41,15 -135,164 -195,170 71,-107 242,-174 169,-255 -32,40 -176,200 -220,204l223 -228 -29 -44c-65,49 -244,266 -296,281 -77,-58 33,-104 35,-175z"/>
   <path class="fil3" d="M1947 556l85 0c26,-12 48,-76 68,-99l0 99 51 0 0 -175 -58 1 -93 153 -2 -154 -51 0 0 175z"/>
   <path class="fil4" d="M1947 270l-67 0c-15,21 -60,1 -96,16l-6 -15 -59 0 -54 13 -7 55 340 0 0 -60c-33,0 -29,6 -51,-9z"/>
   <path class="fil5" d="M2007 230l67 0c20,-14 6,-10 42,-10 20,-1 40,0 60,0l0 25 59 0 0 -101 -59 0 0 25 -102 0 0 -25 -67 0 0 86z"/>
   <path class="fil6" d="M1016 500l-42 0c-18,19 -49,88 -51,118l49 -1 22 -57 98 -1c16,67 25,57 76,59l-50 -125 -51 0 7 21 -58 3 0 -17z"/>
   <path class="fil5" d="M897 245l68 0c-7,-28 -12,-33 -32,-47 30,-30 32,-32 32,-76l-76 0 9 28 -15 13 -124 8 -3 44c56,17 107,-16 141,30z"/>
   <polygon class="fil7" points="965,296 957,313 950,337 1014,338 1041,272 1160,271 1185,337 1253,339 1253,322 1245,305 1211,246 991,246 "/>
   <path class="fil5" d="M1422 246l68 0 0 -26 161 0 0 -51 -144 0c-27,-7 -8,6 -17,-19l-68 0 0 96z"/>
   <path class="fil8" d="M2532 256l-68 0c-23,12 -30,30 -60,32 -29,2 -53,-11 -67,-35l-68 0c6,64 70,86 127,86 83,1 97,-18 136,-83z"/>
   <path class="fil9" d="M2261 161l67 0c8,-85 141,-104 144,31l68 0 0 -2c0,-39 -7,-81 -34,-102l-212 0c-26,12 -33,44 -33,73z"/>
   <path class="fil10" d="M991 246l220 0c-3,-29 -22,-67 -34,-93l-59 0 19 66 -70 1 17 -67 -51 0 -42 93z"/>
   <path class="fil11" d="M957 313l8 -17 0 -51 -68 0 -1 24c-41,32 -108,19 -159,19l0 51c119,0 143,13 220,-26z"/>
   <path class="fil12" d="M1422 150l68 0c45,-55 42,-40 161,-40l0 -59c-52,0 -103,-2 -151,10 -53,13 -57,52 -78,89z"/>
   <path class="fil13" d="M1710 535l60 0 -7 -25 81 -2 19 27 59 0c-17,-79 -80,-87 -152,-69l-9 -31 -51 0 0 100z"/>
   <path class="fil14" d="M1922 535l-59 0 -4 27 -97 5 8 -32 -60 0 2 78c39,11 103,10 139,2 49,-11 66,-31 71,-80z"/>
   <path class="fil15" d="M889 122l76 0c-19,-95 -143,-71 -228,-71l0 59 127 0 25 12z"/>
   <path class="fil11" d="M1490 246l-68 0c50,106 56,93 229,93l0 -51c-149,0 -115,9 -161,-42z"/>
   <path class="fil16" d="M2405 498l59 0 76 -110 0 -5 -57 -1c-20,26 -27,51 -51,65l-45 -65 -50 -1c10,43 46,78 68,117z"/>
   <path class="fil17" d="M1490 535l51 0c78,-7 94,19 150,-38l2 -47 -50 0c-15,55 -48,41 -102,41l0 -41 -51 0 0 85z"/>
   <path class="fil18" d="M1490 450l51 0c7,-28 -9,-11 17,-18l59 0c28,10 2,-9 26,18l50 0c-7,-94 -127,-69 -203,-69l0 69z"/>
   <path class="fil19" d="M923 536l-59 0 0 31 -127 0 0 51c76,0 132,16 184,-36l2 -46z"/>
   <path class="fil20" d="M1033 153l51 0 23 -16c5,8 6,8 11,16l59 0 -44 -101 -56 -1c-20,22 -41,71 -44,102z"/>
   <path class="fil21" d="M974 500l42 0 25 -58 26 51 51 0 -50 -111 -44 -1 -30 54c-10,24 -18,38 -20,65z"/>
   <path class="fil17" d="M864 536l59 0 -24 -42c24,-24 21,-11 24,-44l-59 0 -9 23 -101 1 0 42 93 10 17 10z"/>
   <path class="fil22" d="M1710 435l51 0 14 -11c34,15 83,8 122,8l0 -51 -187 0 0 54z"/>
   <path class="fil15" d="M1778 112l59 0c24,-17 25,-16 43,-1l67 0 0 -60 -150 0 -19 61z"/>
   <path class="fil22" d="M864 450l59 0 -1 -33c-55,-55 -106,-36 -185,-36l0 42c49,0 73,-1 119,8l8 19z"/>
   <path class="fil23" d="M1346 557l-59 0c28,63 116,77 181,56l3 -40c-49,-15 -85,7 -125,-16z"/>
   <path class="fil22" d="M1287 450l59 0c26,-40 80,-27 127,-27l-3 -37c-65,-20 -164,-10 -183,64z"/>
   <path class="fil11" d="M1245 305l8 17c13,13 8,10 25,17 64,0 104,-11 119,-78l-68 0 -18 25 -49 2c-27,7 -9,-6 -17,17z"/>
   <path class="fil10" d="M1329 261l68 0c11,-43 8,-62 8,-109l-67 0c0,49 -5,68 -9,109z"/>
   <path class="fil24" d="M2294 88l212 0c-34,-61 -177,-65 -212,0z"/>
   <polygon class="fil7" points="2074,230 2007,230 2007,339 2074,339 "/>
   <path class="fil10" d="M2269 253l68 0c-14,-28 -9,-58 -9,-92l-67 0c-23,17 -3,77 8,92z"/>
   <polygon class="fil20" points="1338,152 1405,152 1404,56 1338,50 "/>
   <polygon class="fil16" points="2252,497 2311,497 2311,381 2258,384 "/>
   <path class="fil25" d="M1287 557l59 0c-14,-28 -14,-79 0,-107l-59 0c-17,33 -9,74 0,107z"/>
   <polygon class="fil26" points="1880,270 1947,270 1947,179 1880,179 "/>
   <path class="fil27" d="M2303 567l-59 0c-36,4 -42,9 -85,9l0 42c63,0 114,10 144,-51z"/>
   <polygon class="fil28" points="2007,144 2074,144 2073,56 2012,52 "/>
   <polygon class="fil8" points="2235,245 2176,245 2176,339 2235,339 "/>
   <path class="fil29" d="M1744 201l59 0c16,-18 27,-60 34,-89l-59 0 -34 89z"/>
   <polygon class="fil28" points="2176,144 2235,144 2235,51 2176,51 "/>
   <path class="fil30" d="M1719 271l59 0c22,-25 25,-34 25,-70l-59 0 -25 70z"/>
   <polygon class="fil31" points="1880,179 1947,179 1947,111 1880,111 "/>
   <polygon class="fil32" points="2354,574 2413,574 2464,498 2405,498 "/>
   <polygon class="fil23" points="2032,556 1947,556 1947,618 2004,617 "/>
   <polygon class="fil33" points="2464,256 2532,256 2540,192 2472,192 "/>
   <polygon class="fil34" points="1541,535 1490,535 1490,618 1541,618 "/>
   <polygon class="fil35" points="2244,567 2303,567 2311,497 2252,497 "/>
   <polygon class="fil23" points="2151,556 2100,556 2100,618 2151,618 "/>
   <path class="fil27" d="M2413 574l-59 0c-16,27 -18,14 -26,44l57 -1 28 -43z"/>
   <path class="fil36" d="M356 266c0,-16 3,-12 -12,-12 0,16 -4,12 12,12z"/>
  </g>
 </g>
</svg>
